# Blender 5.2.1 LTS
# www.blender.org
mtllib landhole.mtl
o Ico_球體.023
v 182.492676 -58.133038 -239.734436
v 229.262039 -20.577642 -221.957428
v 185.247772 -57.888638 -170.384460
v 224.772537 -21.523928 -195.753326
v 115.208694 -59.639091 -119.783005
v 176.215195 -21.459723 -279.183685
v 214.773788 -17.799303 -143.565399
v 224.258774 -17.777679 -261.894531
v 154.191071 -14.067375 -80.797386
v 24.134521 -55.887280 -122.669792
v 99.792961 -14.114553 -60.342880
v 11.454323 -79.593140 -179.399109
v 200.678314 -1.390569 -274.635498
v 224.288879 -1.396913 -171.701538
v 232.604187 -1.419674 -241.200531
v 54.366325 -38.498020 -148.837097
v 185.640274 1.068577 -241.021530
v 195.396057 -1.284139 -126.036903
v 177.375259 -53.999729 -223.665649
v 20.044289 -59.387421 -249.074646
v 207.818054 -48.229195 -231.033020
v 52.052647 -13.416342 -80.393265
v 230.751694 -22.959785 -241.249100
v 129.003052 -1.455382 -61.967911
v 207.077133 -45.627338 -252.569687
v 187.636261 1.066854 -168.951340
v 161.414459 -55.036983 -241.637680
v 78.194107 -0.712736 -73.665070
v 202.752991 -45.760132 -154.807632
v 179.026962 -47.968506 -260.596375
v 6.351921 -12.362694 -89.576866
v 199.889648 -23.053576 -273.408020
v 206.614044 -47.907566 -184.129379
v 106.638359 -59.559292 -280.044037
v 237.850372 -6.131618 -229.906937
v 222.796219 -23.045118 -171.347046
v 235.599731 -6.193199 -253.094177
v -60.642319 -29.383766 -178.792572
v 43.328819 1.940469 -148.378876
v 183.497879 -53.174644 -189.574280
v 180.153503 -49.705303 -144.779999
v 62.072086 1.577535 -106.379227
v 195.446671 -23.172531 -127.402245
v 216.700974 -6.195882 -272.906128
v 113.233269 1.170561 -116.244766
v 188.797668 -6.174091 -282.368713
v 169.752350 -53.344067 -167.711990
v 225.658173 -0.559198 -223.894730
v 106.206650 -46.030704 -86.030670
v 177.211243 -0.310124 -275.087646
v -30.405258 -18.070107 -251.196960
v 221.175461 -1.100145 -260.088745
v 136.586411 -46.980946 -97.756668
v 195.392334 0.926530 -224.792267
v 31.621635 0.232387 -80.263672
v 211.469910 0.487589 -240.994904
v 167.606720 1.058131 -230.410019
v 128.525360 -15.440710 -64.658234
v 167.302994 0.892290 -252.699615
v 224.857315 -6.193079 -155.869446
v 193.721039 0.534478 -259.254333
v 230.297958 -6.147144 -185.914993
v -11.984047 0.359952 -112.883186
v 186.835449 -5.591706 -112.468285
v 207.524109 -6.154962 -128.504318
v 138.691101 -53.938698 -135.931732
v -34.424370 -0.947931 -154.846985
v 79.574142 -27.382221 -79.325562
v 220.877487 -0.408960 -192.995987
v 23.718895 2.626094 -123.148445
v 45.589981 -47.715939 -125.219940
v 212.495178 -1.082946 -145.644455
v 3.455627 -18.073664 -285.332886
v 176.725937 0.366112 -126.236877
v -66.120590 -0.832979 -204.136459
v 167.801086 -5.663084 -90.815475
v 207.502487 0.538687 -170.830353
v 198.206223 0.870199 -191.456451
v 91.616852 -17.761696 -315.464539
v 190.855347 0.598836 -144.724731
v 114.578217 -6.196035 -51.817520
v 172.580429 0.919787 -150.816132
v 7.921341 1.825974 -183.488449
v 174.792389 1.029753 -182.323196
v 145.996933 -6.159196 -64.156113
v 39.655441 -42.263897 -101.025810
v -0.502953 -69.762947 -156.007812
v 84.866463 -6.196413 -60.305527
v -26.388275 -0.731845 -233.798706
v 14.542343 -40.832821 -103.098740
v 31.059235 -13.889671 -81.493370
v 150.730606 -0.982520 -83.511597
v 100.909042 -1.048162 -64.259506
v -19.582199 -1.452376 -271.116669
v -10.979027 -13.817924 -110.759071
v 146.214111 -18.322065 -302.836426
v 29.603325 -0.858369 -287.357178
v 117.472321 -5.819281 -242.787949
v 122.664116 0.506349 -86.406090
v 141.244568 0.849945 -115.732956
v 94.903976 0.757216 -95.388367
v 91.302246 1.158284 -134.621185
v 18.344482 -4.545823 -78.465851
v -17.869934 -64.638092 -178.828949
v -29.283981 -37.333099 -154.220581
v 44.147503 -4.456157 -73.683487
v -23.108826 -3.193925 -121.497765
v 18.559250 1.089743 -251.204315
v -7.396736 -4.451266 -97.620422
v 0.056549 -68.935509 -202.161652
v 10.968857 -56.914139 -236.050751
v 55.699745 1.803685 -130.098999
v -30.447083 -38.142765 -203.008621
v 49.936787 1.135227 -87.311172
v 67.938072 -1.304296 -303.763733
v 7.841339 0.555345 -92.605499
v -15.453407 1.328777 -134.689041
v 37.119804 -58.409950 -241.054443
v 121.651031 -1.450310 -314.417969
v 34.157104 2.425010 -139.586304
v 6.393311 2.417109 -141.645630
v 46.054932 2.281554 -113.546524
v 28.393681 2.121859 -99.876114
v 37.817448 -51.380543 -263.547180
v 4.110893 2.160201 -118.007973
v -42.744247 -7.346258 -163.938400
v 157.892090 -0.707373 -287.570312
v -8.344757 -46.371307 -251.517303
v 69.871414 -2.601666 -253.595688
v -67.912842 -14.141518 -201.470245
v -25.663887 -26.401199 -234.090576
v 10.154419 -46.025688 -270.085693
v 106.044067 1.070955 -283.086823
v -65.611511 -0.980767 -162.880371
v -17.854401 -22.704638 -270.579590
v 29.470592 -26.582668 -285.007446
v 131.270996 -52.178131 -272.516571
v 133.155472 -61.289482 -244.938187
v -18.896286 1.262479 -169.001190
v 72.093735 -61.180508 -253.681000
v -13.693520 1.184474 -193.377625
v 17.538910 1.557354 -202.104874
v 153.338135 -29.008003 -286.272186
v -35.221741 -6.075152 -241.409454
v 129.165329 -46.252407 -293.204468
v -12.618378 -6.192992 -282.836853
v -31.880966 -6.190704 -263.083160
v 78.882675 -49.637512 -283.355316
v 147.107086 -60.337952 -183.755875
v 16.092644 -6.119452 -291.777588
v 98.192818 -45.657558 -300.447144
v 69.892426 -22.990543 -302.932068
v -26.567398 -1.041920 -251.199493
v 4.602509 -1.053766 -282.641235
v 120.798203 -22.685989 -313.162170
v 25.445030 1.136974 -235.552734
v 42.353035 1.066513 -252.992050
v 158.540436 -6.222071 -297.138763
v -4.429214 0.730612 -242.103821
v -2.473831 0.484395 -261.794586
v 25.479485 0.669505 -269.251617
v 74.926819 -6.138425 -313.778839
v 52.593040 -5.426869 -300.359802
v 138.209076 -6.199535 -313.265594
v 106.690292 -6.191699 -320.649200
v 148.103897 1.261656 -211.703705
v 92.774841 -1.086279 -312.648193
v 143.569412 -1.041986 -301.282562
v 134.375183 0.649922 -283.830109
v 81.741165 1.033516 -273.755890
v 85.140259 0.611218 -292.941284
v 115.088745 0.489159 -299.317505
v 75.003555 -54.488056 -263.072571
v 86.173080 -57.329552 -269.492188
v 101.157440 -63.107235 -267.495850
v 102.537544 -64.934891 -259.631134
v 69.604889 -49.374569 -263.152100
v 132.006668 -4.385176 -245.974609
v 131.958832 0.950698 -259.977783
v 113.067299 1.283060 -265.467163
v 123.416260 1.072428 -267.023743
v 110.261032 1.515297 -252.041199
v 95.546532 1.507903 -253.390137
v 81.642578 1.113150 -266.990845
v 87.837212 1.253121 -264.247284
v 73.254379 0.188050 -266.105225
v 64.311752 0.890210 -261.957489
v 137.530060 -47.470936 -254.955048
v 133.543396 -50.714703 -259.757782
v 129.625992 -55.136551 -257.070190
v 120.002029 -58.680256 -262.675690
v 51.882252 1.159678 -247.221970
v 54.005970 1.056899 -252.530090
v 53.278595 -15.285421 -223.749207
v 37.075310 1.120813 -227.024963
v 63.649006 -46.468964 -262.076904
v 56.450211 -48.774628 -260.411133
v 59.624550 -53.650616 -253.704300
v 48.327755 -56.829132 -241.987930
v 43.458130 -50.698940 -228.005920
v 44.762146 -57.943619 -237.180222
v 40.333038 -4.628090 -295.366150
v 45.758282 -6.801049 -295.052063
v 56.292713 -0.007351 -289.649048
v 62.433205 0.449145 -284.667572
v 61.044220 0.664477 -276.878479
v 55.299191 0.813991 -264.835449
v 50.110619 0.685943 -272.512115
v 41.773308 -1.384915 -290.108643
v 44.824055 -0.376463 -288.432281
v 45.311867 -3.372725 -294.676971
v 43.402401 -12.095189 -290.358521
v 52.308090 -21.919910 -291.649902
v 58.732323 -37.317406 -280.394409
v 46.090313 -27.927784 -285.139160
v 55.927570 -41.375622 -272.859802
v 63.641685 -42.393826 -271.251099
v 59.065319 -35.755550 -152.136963
v 37.536774 1.123377 -223.314728
v 29.506332 1.136691 -225.828583
v -4.042091 0.907332 -228.897934
v -11.122284 0.899767 -216.974121
v -19.641663 0.319221 -218.604385
v -23.234451 -0.137466 -224.840027
v 8.596489 1.167514 -220.081970
v 20.132927 1.175472 -225.010071
v 23.065292 1.241275 -219.851456
v -27.318420 -0.851523 -225.217804
v -57.850235 -2.026001 -219.241287
v -62.052032 -4.196542 -227.626328
v -65.620605 -7.240354 -218.218369
v -33.724792 -12.090954 -218.640594
v -27.102737 -21.560957 -225.625488
v -24.148544 -29.034008 -227.149582
v -16.362122 -39.491993 -226.402313
v -0.859512 -53.128307 -225.185699
v -5.848434 -52.944206 -220.253830
v 6.111061 -54.900749 -227.706940
v -21.878494 -37.074432 -220.536148
v 11.495316 -56.319099 -227.719040
v 15.670776 -59.300133 -218.361481
v 61.547916 -30.711521 -144.473022
v -28.072983 -0.189568 -144.772430
v -20.890633 1.112869 -144.708481
v -17.859337 1.514836 -156.681427
v 12.949623 2.088965 -170.286896
v 6.050804 2.230659 -158.776062
v -14.052673 1.691548 -160.176010
v -1.969803 2.115726 -155.953979
v -16.390152 1.597184 -153.838501
v 24.918579 2.161597 -161.045929
v 33.216530 1.875257 -169.445099
v 39.795586 1.847239 -159.075821
v 44.712673 -0.874886 -155.359283
v -31.060608 -2.423310 -137.113297
v -28.608322 -1.948511 -134.691620
v 63.036266 1.820254 -152.941589
v -34.618446 -5.882161 -139.434814
v -29.529373 -3.707539 -129.979645
v -29.330833 -11.232903 -136.359314
v -21.077866 -19.499554 -127.442276
v -19.170372 -35.562660 -135.174118
v 53.176701 -37.185501 -144.383057
v -4.192558 -56.513653 -136.919556
v -10.366776 -41.316586 -128.481354
v 8.084618 -57.499866 -131.112640
v 1.926407 -53.081036 -126.361298
v 9.658226 -62.727417 -140.247681
v 21.271553 -60.380520 -136.076996
v 31.381279 -60.930859 -144.837219
v 40.102924 -51.958633 -135.588852
v 46.633064 -45.451706 -136.227890
v 146.376434 -50.399574 -164.157288
v 47.713253 -37.587601 -222.771606
v 113.841980 1.376393 -143.992065
v 99.078423 -4.698054 -146.221497
v 89.540100 -5.301439 -146.453583
v 83.990364 -2.163148 -144.439697
v 134.436859 -2.963509 -164.078552
v 131.692444 1.243662 -146.381836
v 141.835175 1.067324 -163.018890
v 67.290291 -6.418271 -152.621323
v 146.530838 0.930542 -162.439713
v 46.010574 0.566319 -214.601273
v 56.314697 1.927896 -160.090927
v 92.811821 -31.964962 -141.135803
v 52.586174 -4.960749 -235.388977
v 111.836487 -34.065044 -142.263458
v 46.486694 -4.768103 -229.073898
v 139.627197 -58.710781 -190.635956
v 61.944233 -10.774286 -77.430450
v 65.835312 -13.971540 -80.602173
v 62.310143 -14.673351 -83.038818
v 67.819145 -5.501233 -70.124390
v 59.606434 -2.780296 -73.364723
v 68.010567 -0.793060 -76.333817
v 61.373432 0.659570 -86.144958
v 68.892502 -0.083730 -78.963951
v 69.181061 1.023426 -97.671616
v 67.412964 1.232472 -126.201347
v 70.533127 1.190814 -109.177528
v 72.950508 1.056623 -133.554321
v 66.046593 1.003145 -137.465149
v 66.623344 0.723204 -147.893860
v 77.890579 0.996973 -100.902863
v 57.439697 -35.463810 -100.955086
v 67.667465 -27.499672 -88.121826
v 59.255714 -38.558899 -115.148819
v 65.583252 -39.050339 -120.443184
v 59.549591 -35.138023 -129.904449
v 151.414108 -43.306862 -159.974411
v 155.060425 -45.828976 -166.787354
v 155.557739 -48.862148 -174.985199
v 148.688324 1.179735 -181.203995
v 160.923828 1.017632 -183.320251
v 159.035385 0.989251 -193.540497
v 148.653290 0.977223 -169.775848
v 148.655396 0.896057 -164.034683
v 163.199707 0.902820 -193.183334
v 156.649994 -49.677238 -178.648865
v 166.902100 -43.693668 -196.586502
v 161.704285 -47.722012 -181.585449
v 161.227646 -36.667858 -111.416412
v 166.695679 -27.126194 -105.699417
v 178.043503 -22.302013 -114.893784
v 173.993118 -10.793632 -106.491966
v 154.558807 0.832002 -138.127762
v 160.394531 0.800289 -138.350586
v 157.530258 0.656363 -123.923080
v 158.926208 0.845408 -151.580109
v 150.784454 0.867920 -160.165955
v 166.704803 -0.367610 -105.350189
v 170.876617 0.213350 -117.289131
v 171.133774 0.306884 -119.557350
v 169.149902 0.381003 -120.776405
v 172.981339 -2.104968 -105.659218
v 178.204712 -4.820401 -105.016396
v 177.438599 -3.202077 -107.737320
v 177.884415 -7.645815 -107.617783
v 151.606888 -45.410213 -151.570679
v 157.740692 -45.997490 -150.329895
v 163.577209 -44.258224 -137.192078
v 161.512466 -42.096748 -130.299927
v 167.833435 -39.414188 -124.894180
v 141.315598 -48.692318 -250.061752
v 146.877258 -52.611115 -244.613678
v 144.157837 -54.777020 -243.155991
v 155.489166 0.097770 -230.183594
v 158.481766 1.066928 -226.078003
v 154.732086 1.104269 -217.370773
v 142.176147 -0.959181 -242.176544
v 152.017914 -0.308417 -235.238861
v 156.032516 0.988823 -212.237518
v 162.420181 0.732424 -202.664597
v 161.832581 0.751135 -206.095032
v 154.360672 1.074383 -214.752182
v 138.114029 -2.715408 -244.512314
v 83.462715 -7.823520 -241.721344
v 86.050812 -3.785755 -254.676147
v 166.503952 -39.807640 -204.481125
v 160.541122 -47.746723 -203.217438
v 141.680176 -42.212261 -255.925949
v 163.072815 -51.544239 -216.008179
v 151.426514 -60.075161 -219.991745
v 152.208084 -55.122173 -234.021637
v 157.938629 -31.129707 -278.423157
v 159.025757 -40.783607 -266.711853
v 145.815918 -43.995159 -263.553528
v 159.972778 -26.989330 -281.925659
v 143.377045 0.872333 -260.310242
v 151.395233 0.764894 -260.430389
v 148.095490 0.604032 -271.873962
v 161.779144 0.173853 -275.442841
v 163.665436 -0.045675 -279.550507
v 165.141174 -1.210385 -283.452850
v 167.117981 -0.133550 -279.775940
v 170.453568 -5.458427 -287.475342
v 168.283066 -12.687488 -282.721405
v 167.167267 -21.943657 -281.021240
v 145.235352 -44.252495 -255.801422
v 221.937408 -27.778225 -212.217468
v 210.993866 -41.110180 -204.023727
v 224.351517 -22.392998 -206.620926
v 226.606140 -15.918617 -207.021408
v 229.662933 -10.580884 -211.524475
v 232.658478 -5.111980 -208.704727
v 202.926025 0.675137 -205.089188
v 196.650650 0.857708 -212.483673
v 193.058731 0.878147 -207.082703
v 174.759476 0.869881 -201.888245
v 185.842407 0.888818 -211.170624
v 163.478607 0.722002 -205.181946
v 168.094727 0.822487 -210.972641
v 215.695679 0.124718 -205.335205
v 223.793655 -0.658754 -207.305328
v 227.427338 -1.807899 -212.706787
v 221.074997 -0.173337 -211.538422
v 171.895996 -43.692097 -208.050629
v 179.190399 -47.385605 -206.244720
v 183.478394 -48.916843 -210.429428
v 191.326279 -48.231468 -207.558716
v 205.523590 -45.429256 -214.567398
v -65.299774 -10.211088 -169.361984
v -43.626373 -0.152797 -174.542267
v -45.302536 -0.284441 -211.024323
v -47.076157 -4.301119 -161.321808
v -45.808441 -1.472451 -222.058121
v -44.926468 -34.098480 -191.827377
v -46.928146 -5.580896 -237.783173
v -48.934464 -0.960298 -157.872559
v -46.098618 -10.577404 -218.079102
v -43.787842 -0.019267 -165.503876
v -45.289246 -23.717415 -199.846924
v -47.262451 -15.937348 -166.382538
v -44.351685 -42.281174 -178.805878
v -44.779404 -0.002687 -199.708618
v -51.988861 -32.829727 -168.140854
v 127.907440 -53.031807 -237.143707
v 120.521355 -25.218426 -240.385315
v 97.227478 -12.898853 -237.952637
v 123.048767 -39.264416 -188.030853
v 130.848755 -53.135178 -188.266464
v 124.748245 -26.560898 -169.782852
v 123.779350 -24.127865 -210.392029
v 138.321930 -6.038120 -205.996918
v 126.854828 -23.686523 -224.892197
v 126.963501 -40.328415 -213.430649
v 118.934464 -40.581875 -166.012085
v 136.272919 -55.298470 -165.096725
v 128.635376 -52.434963 -211.642685
v 139.663162 -57.112469 -215.474152
v 141.407516 -55.135490 -164.965439
v 130.371857 -11.619782 -219.955261
v 132.270752 -17.844173 -173.371628
v 128.474655 -15.919169 -210.375214
v 130.024246 -16.670427 -161.482056
v 135.902359 -9.351877 -231.658295
v 127.077698 -13.090833 -156.975098
v 101.445374 -6.204915 -237.920410
v 108.412048 -0.311855 -249.797241
v 105.913559 -3.912038 -247.945114
v 76.380707 -24.230907 -232.530609
v 77.443237 -12.370544 -236.075867
v 76.730324 -46.150597 -229.393845
v 77.411201 -51.636875 -231.679794
v 82.577591 -15.524591 -231.424225
v 76.916054 -36.024750 -231.421555
v 102.632881 -24.169733 -235.932404
v 102.618500 -56.723949 -244.636688
v 104.400238 -47.163200 -231.139862
v 104.247177 -53.491695 -235.184052
v 104.128555 -33.262394 -237.227905
v 102.317741 -63.004707 -250.626648
vn -0.5030 -0.6226 -0.5995
vn -0.5502 -0.5900 -0.5909
vn 0.4491 -0.5706 -0.6876
vn 0.5764 -0.7199 0.3866
vn -0.3284 0.8611 0.3881
vn 0.8634 0.4820 -0.1493
vn 0.0398 0.9989 0.0252
vn -0.3916 0.8256 -0.4062
vn -0.1425 0.9527 0.2685
vn -0.1024 0.9781 0.1813
vn 0.0760 0.9971 -0.0101
vn 0.2697 -0.9597 -0.0789
vn 0.0274 0.9995 0.0143
vn 0.0528 0.9986 -0.0085
vn 0.0351 0.9993 0.0107
vn -0.5132 0.0256 0.8579
vn 0.0381 0.9991 0.0168
vn -0.0605 0.9786 0.1969
vn 0.6132 -0.7124 0.3413
vn 0.7288 -0.6820 0.0618
vn 0.0412 -0.3051 0.9514
vn 0.5563 -0.5959 -0.5791
vn 0.7073 -0.6973 -0.1162
vn -0.4608 -0.8112 -0.3600
vn 0.1068 -0.7795 -0.6173
vn 0.5757 -0.8152 0.0627
vn -0.3753 -0.8022 -0.4643
vn 0.5191 -0.7833 -0.3420
vn 0.2665 -0.9053 -0.3308
vn 0.3401 -0.9154 -0.2154
vn 0.0783 -0.8439 -0.5308
vn -0.2780 -0.8945 -0.3501
vn -0.2456 -0.8454 -0.4743
vn 0.1234 -0.7956 -0.5932
vn 0.5340 -0.6834 -0.4977
vn -0.3757 -0.4196 -0.8263
vn 0.4022 -0.4298 -0.8084
vn -0.2794 -0.7789 -0.5615
vn -0.2089 -0.1601 -0.9647
vn 0.6007 -0.2552 -0.7577
vn 0.0168 0.9343 0.3560
vn -0.1110 0.9937 -0.0133
vn -0.0279 0.9980 -0.0570
vn 0.0048 0.9921 -0.1253
vn 0.0460 0.9963 -0.0724
vn 0.0141 0.9995 -0.0280
vn 0.0487 0.9963 -0.0709
vn 0.0460 0.9931 -0.1076
vn -0.0040 0.9993 -0.0381
vn -0.0155 0.9957 -0.0918
vn -0.0457 0.9936 -0.1033
vn -0.0107 0.9997 -0.0239
vn -0.0133 0.9995 -0.0300
vn -0.0022 0.9998 -0.0219
vn -0.0173 0.9998 -0.0120
vn 0.0144 0.9998 -0.0157
vn 0.0063 0.9998 -0.0206
vn 0.0199 0.9988 -0.0443
vn 0.3998 0.8056 -0.4372
vn 0.4039 0.7608 -0.5081
vn 0.2725 0.8335 -0.4806
vn -0.0244 0.8230 -0.5676
vn -0.1514 0.6926 -0.7052
vn -0.1986 0.8212 -0.5350
vn -0.2973 0.7695 -0.5652
vn -0.1468 0.8551 -0.4972
vn 0.2931 0.8635 -0.4104
vn 0.1992 0.4882 -0.8497
vn 0.2214 -0.2397 -0.9453
vn 0.0025 -0.4116 -0.9114
vn -0.3289 0.7400 -0.5867
vn -0.4881 -0.3646 -0.7930
vn -0.5227 -0.4049 -0.7503
vn 0.3178 0.8305 -0.4574
vn 0.5395 -0.5697 -0.6200
vn 0.6922 -0.4333 -0.5772
vn 0.3978 -0.5066 -0.7650
vn 0.1711 -0.6007 -0.7810
vn -0.0109 -0.4760 -0.8794
vn -0.3361 -0.5066 -0.7940
vn -0.4424 -0.6231 -0.6450
vn -0.4712 -0.6199 -0.6274
vn -0.5322 -0.8285 -0.1743
vn 0.2775 0.1024 0.9553
vn 0.5703 -0.5565 -0.6043
vn 0.6094 -0.7437 -0.2750
vn 0.3551 -0.8885 -0.2906
vn 0.7315 -0.6798 -0.0523
vn 0.4525 -0.8885 0.0769
vn -0.0237 -0.9851 0.1705
vn 0.1275 -0.9828 -0.1333
vn -0.4063 -0.9070 -0.1109
vn -0.3597 -0.8547 -0.3743
vn -0.0415 -0.8518 -0.5222
vn -0.9109 -0.4092 0.0532
vn -0.4453 -0.4384 -0.7807
vn -0.2574 -0.1071 -0.9603
vn -0.9535 -0.2641 -0.1456
vn -0.2910 -0.1971 -0.9362
vn 0.0020 1.0000 -0.0009
vn -0.0622 0.9974 -0.0372
vn -0.0852 0.9951 -0.0504
vn -0.0247 0.9957 -0.0896
vn -0.0021 0.9998 -0.0200
vn -0.0008 0.9997 -0.0236
vn 0.0026 0.9998 -0.0185
vn -0.0091 0.9979 -0.0636
vn -0.0143 0.9995 -0.0288
vn -0.0288 0.9961 -0.0833
vn -0.0612 0.9937 -0.0941
vn -0.0214 0.9997 -0.0146
vn -0.0718 0.9972 -0.0196
vn -0.0728 0.9972 -0.0170
vn -0.0143 0.9999 0.0033
vn -0.0090 0.9999 -0.0131
vn 0.0040 1.0000 -0.0016
vn 0.0007 1.0000 -0.0033
vn 0.5470 0.7341 0.4024
vn 0.0016 0.9998 -0.0187
vn -0.0591 0.8992 -0.4334
vn -0.1176 0.7983 -0.5906
vn -0.2077 0.7211 -0.6610
vn -0.2450 0.8394 -0.4851
vn -0.4522 0.8743 -0.1766
vn -0.5773 0.8112 -0.0933
vn -0.5112 0.8594 -0.0101
vn -0.1718 0.9851 -0.0049
vn -0.1326 0.8148 -0.5644
vn -0.0225 -0.3273 -0.9447
vn -0.1119 -0.3773 -0.9193
vn -0.5935 0.5592 -0.5788
vn -0.6874 -0.2796 -0.6703
vn -0.7816 -0.4870 -0.3897
vn -0.0929 0.9742 -0.2056
vn -0.1621 -0.9581 -0.2361
vn -0.9242 -0.3773 0.0587
vn -0.0229 -0.6586 -0.7521
vn 0.0563 -0.6425 -0.7643
vn -0.1533 -0.5013 -0.8516
vn -0.4117 -0.5105 -0.7549
vn -0.5320 -0.6504 -0.5421
vn -0.7426 -0.5750 -0.3434
vn -0.7866 -0.6122 -0.0801
vn -0.4004 -0.9085 -0.1193
vn -0.2056 -0.9719 0.1148
vn -0.7992 -0.5988 -0.0527
vn -0.0360 -0.9133 -0.4057
vn 0.1095 -0.9497 -0.2934
vn 0.1888 -0.9390 -0.2876
vn -0.2536 -0.9636 0.0848
vn -0.2460 -0.7774 0.5789
vn -0.4475 -0.8829 0.1423
vn -0.4494 -0.8741 -0.1843
vn 0.6227 -0.7309 0.2793
vn -0.5292 0.0372 0.8477
vn -0.8669 -0.3321 -0.3717
vn -0.2888 -0.4781 0.8294
vn -0.1328 0.9911 0.0091
vn -0.0405 0.9991 0.0078
vn -0.0048 0.9998 -0.0193
vn -0.0187 0.9995 -0.0241
vn -0.0158 0.9998 -0.0138
vn -0.0304 0.9993 -0.0235
vn -0.0257 0.9996 -0.0087
vn -0.0459 0.9988 -0.0156
vn -0.0347 0.9925 0.1170
vn -0.0279 0.9994 -0.0205
vn -0.0495 0.9988 -0.0034
vn 0.0116 0.9996 -0.0243
vn -0.0385 0.9980 -0.0509
vn -0.9906 0.1360 0.0127
vn -0.9908 -0.0986 0.0927
vn -0.1339 -0.7486 0.6494
vn -0.3396 0.9295 0.1441
vn -0.9894 0.1157 -0.0878
vn -0.5939 -0.4676 -0.6547
vn -0.6132 -0.4962 -0.6146
vn -0.7486 0.6286 0.2107
vn -0.7587 -0.5850 0.2866
vn -0.8246 -0.3205 0.4661
vn 0.5711 -0.7334 0.3687
vn -0.3377 -0.8893 -0.3084
vn -0.6553 -0.6592 -0.3688
vn -0.6519 -0.6562 -0.3800
vn -0.5769 -0.6829 -0.4482
vn -0.5652 -0.6700 0.4813
vn -0.6819 -0.6260 0.3783
vn -0.7028 -0.6408 0.3089
vn -0.2771 -0.8538 0.4408
vn 0.8711 -0.3564 0.3377
vn 0.3686 -0.9123 0.1782
vn 0.3705 -0.8825 0.2897
vn -0.0939 -0.8108 0.5777
vn -0.1930 -0.8212 0.5370
vn -0.0182 -0.7152 0.6986
vn -0.2788 -0.6176 0.7354
vn -0.5452 -0.7039 0.4553
vn -0.0622 -0.6328 0.7718
vn -0.5832 -0.2177 0.7826
vn -0.3932 0.8865 0.2440
vn 0.0233 0.9996 -0.0164
vn 0.0451 0.9990 -0.0026
vn -0.0114 0.9951 0.0978
vn -0.0871 0.9933 0.0755
vn -0.0476 0.9988 0.0068
vn -0.0214 0.9997 0.0088
vn -0.0478 0.9988 0.0062
vn -0.0924 0.9940 0.0589
vn -0.0172 0.9995 0.0251
vn -0.0510 0.9962 0.0704
vn -0.0396 0.9940 0.1023
vn 0.0067 0.9998 0.0203
vn 0.0222 0.9989 0.0404
vn 0.0261 0.9989 0.0398
vn 0.0162 0.9999 -0.0019
vn 0.0331 0.9994 -0.0096
vn 0.0364 0.9992 -0.0171
vn 0.0006 0.9999 -0.0119
vn 0.0006 0.9999 -0.0126
vn -0.0180 0.9998 -0.0105
vn -0.0810 0.9966 0.0130
vn -0.2374 0.9529 0.1889
vn -0.3724 0.9227 0.1002
vn -0.3996 0.8330 0.3827
vn -0.4195 0.7086 0.5673
vn -0.2384 0.8435 0.4814
vn 0.1169 0.9004 0.4191
vn -0.1033 0.9367 0.3346
vn 0.0278 0.9988 0.0409
vn 0.0438 0.9990 -0.0056
vn 0.0578 0.9980 -0.0273
vn 0.0557 0.9980 -0.0302
vn 0.5861 0.7851 -0.2004
vn -0.5434 0.7399 0.3966
vn -0.7780 -0.3916 0.4913
vn -0.6343 -0.5372 0.5559
vn -0.1387 0.6625 0.7361
vn -0.1571 -0.4913 0.8567
vn -0.0275 -0.6146 0.7884
vn 0.0088 0.9998 0.0156
vn -0.7055 -0.3950 0.5885
vn -0.6418 -0.4255 0.6380
vn -0.6683 -0.4672 0.5789
vn -0.2996 -0.4783 0.8255
vn -0.0998 -0.5845 0.8052
vn -0.0300 -0.5729 0.8191
vn -0.0896 -0.5537 0.8279
vn 0.3457 -0.9066 0.2419
vn 0.4378 -0.6973 -0.5675
vn -0.0028 -0.8681 0.4963
vn 0.6681 -0.7187 -0.1924
vn 0.6997 -0.7100 -0.0797
vn 0.1259 -0.9080 0.3997
vn 0.5600 -0.6378 0.5288
vn -0.0339 -0.9310 -0.3634
vn 0.6859 -0.5667 0.4564
vn 0.0577 -0.7794 0.6238
vn -0.4653 -0.4016 0.7888
vn 0.6928 -0.4566 0.5581
vn -0.2435 -0.4630 0.8523
vn 0.0458 0.9966 0.0681
vn -0.0100 0.9982 0.0598
vn 0.1831 0.9776 -0.1035
vn 0.0059 0.9999 0.0111
vn 0.0113 0.9999 0.0093
vn 0.0186 0.9998 -0.0015
vn 0.0153 0.9999 -0.0012
vn -0.2410 0.7918 -0.5613
vn 0.2866 0.8223 -0.4916
vn -0.0099 0.9999 0.0111
vn -0.0059 1.0000 -0.0061
vn 0.0251 0.9979 0.0594
vn 0.0020 0.9998 0.0216
vn -0.0104 0.9982 0.0599
vn 0.0081 0.9969 0.0779
vn 0.0111 0.9998 0.0187
vn 0.0486 0.9979 0.0425
vn 0.0077 0.9987 0.0513
vn 0.0989 -0.8983 0.4281
vn -0.0700 0.9688 0.2378
vn -0.1718 0.8782 0.4463
vn -0.1460 0.8472 0.5109
vn -0.0194 0.9162 0.4003
vn 0.2906 0.9042 0.3129
vn 0.3767 0.8678 0.3242
vn 0.2702 0.9364 0.2240
vn -0.0938 0.9037 0.4178
vn -0.5375 -0.4850 0.6898
vn -0.3114 -0.5906 0.7445
vn 0.2732 0.6624 0.6976
vn 0.2945 -0.5948 0.7480
vn 0.3816 -0.7478 0.5433
vn 0.3701 0.8658 0.3367
vn 0.7015 -0.5241 0.4829
vn 0.6789 -0.7283 0.0935
vn 0.2374 -0.2306 -0.9437
vn 0.1269 -0.9647 0.2306
vn -0.2631 -0.6364 0.7251
vn -0.1311 -0.9736 0.1871
vn 0.4162 -0.8902 0.1852
vn 0.3511 -0.9176 0.1866
vn 0.0895 -0.6135 0.7846
vn 0.2489 -0.6702 0.6992
vn 0.4530 -0.5877 0.6704
vn 0.4858 -0.8647 0.1273
vn 0.7963 -0.5982 0.0901
vn 0.3077 -0.8868 0.3447
vn -0.2316 -0.9391 0.2540
vn -0.3074 -0.9302 -0.2005
vn 0.9441 -0.3294 -0.0102
vn 0.8568 -0.4017 0.3233
vn 0.5142 -0.3948 0.7613
vn 0.8865 -0.4592 0.0575
vn 0.8332 -0.1642 0.5280
vn 0.4782 -0.6236 0.6184
vn 0.1159 0.9929 0.0275
vn 0.0806 0.9935 0.0805
vn 0.0113 0.9997 0.0206
vn 0.0213 0.9997 -0.0067
vn 0.0219 0.9997 -0.0067
vn 0.0042 1.0000 -0.0068
vn -0.0003 1.0000 0.0006
vn -0.0147 0.9999 0.0056
vn -0.0061 1.0000 0.0031
vn 0.0074 0.9999 0.0097
vn 0.0055 1.0000 0.0028
vn 0.0116 0.9998 0.0178
vn 0.0107 0.9997 0.0207
vn 0.0869 0.9931 0.0789
vn 0.0280 0.9995 0.0156
vn 0.0794 0.9957 0.0484
vn 0.1165 0.9923 0.0408
vn 0.0269 0.9996 0.0039
vn 0.0557 0.9984 -0.0091
vn 0.0431 0.9991 0.0006
vn 0.0211 0.9994 0.0265
vn 0.4034 0.8318 0.3812
vn 0.0446 0.9979 0.0462
vn 0.4167 0.7662 0.4892
vn 0.4100 0.8354 0.3661
vn 0.6049 0.6986 0.3822
vn 0.5275 0.8181 0.2289
vn 0.5460 0.8364 -0.0487
vn 0.4663 0.8798 0.0925
vn 0.0969 0.9953 0.0024
vn 0.4084 0.7636 0.5001
vn 0.5669 -0.3541 0.7438
vn 0.6482 -0.4189 0.6359
vn 0.8028 0.5780 0.1463
vn 0.9467 -0.2729 0.1710
vn 0.9287 -0.3672 0.0523
vn -0.6796 -0.6712 -0.2961
vn -0.3469 -0.8687 -0.3535
vn 0.1019 -0.9000 -0.4238
vn -0.0964 -0.9953 0.0055
vn -0.2177 -0.9439 0.2485
vn -0.1165 -0.9097 0.3986
vn 0.5818 0.1538 0.7987
vn 0.3997 -0.6522 0.6441
vn 0.6315 -0.5073 0.5864
vn -0.4783 -0.8605 -0.1752
vn 0.1521 -0.9847 -0.0856
vn 0.2712 -0.9287 -0.2529
vn 0.8139 -0.4809 0.3259
vn 0.7925 -0.5917 0.1477
vn 0.8299 -0.5569 0.0325
vn 0.2498 -0.9156 0.3151
vn 0.7605 -0.6347 0.1371
vn -0.1599 -0.9671 0.1978
vn -0.0941 -0.9010 -0.4234
vn 0.2028 -0.8666 -0.4559
vn 0.8815 -0.4556 0.1243
vn 0.2053 -0.2007 -0.9579
vn 0.4599 -0.4356 -0.7738
vn 0.8827 -0.3558 0.3070
vn 0.1975 -0.5793 -0.7908
vn 0.7116 -0.1810 -0.6788
vn 0.0467 0.9989 -0.0075
vn 0.0056 0.9997 0.0218
vn 0.0148 0.9947 0.1015
vn 0.0477 0.9936 -0.1028
vn 0.0895 0.9953 -0.0373
vn 0.0225 0.9996 -0.0193
vn 0.0577 0.9969 -0.0536
vn 0.0561 0.9935 -0.0989
vn 0.0070 0.9996 -0.0262
vn 0.0002 0.9986 -0.0535
vn 0.0322 0.9987 -0.0394
vn -0.0049 1.0000 -0.0074
vn -0.0950 0.9954 -0.0147
vn -0.0810 0.9816 -0.1727
vn 0.0034 1.0000 0.0067
vn -0.0036 0.9999 0.0122
vn 0.0035 1.0000 0.0052
vn 0.0225 0.9997 -0.0048
vn 0.0484 0.9986 0.0210
vn 0.0897 0.9959 -0.0135
vn 0.4255 0.8718 -0.2427
vn 0.4864 0.7403 -0.4641
vn 0.3012 0.8454 -0.4412
vn 0.0486 0.8143 -0.5784
vn 0.2060 0.8959 -0.3937
vn 0.0321 0.9990 -0.0314
vn 0.0162 0.9999 0.0027
vn 0.3633 0.9305 0.0464
vn 0.4891 0.8688 0.0780
vn 0.4696 0.8709 0.1452
vn 0.2596 0.5906 -0.7641
vn 0.3081 -0.2802 -0.9092
vn 0.1991 -0.3542 -0.9137
vn 0.9173 -0.3035 0.2578
vn 0.7504 0.6567 -0.0746
vn 0.9379 -0.3349 -0.0901
vn 0.7887 -0.4902 -0.3711
vn 0.4541 -0.5219 -0.7220
vn 0.2650 -0.6071 -0.7491
vn 0.1617 -0.5550 -0.8160
vn 0.3439 -0.6992 -0.6268
vn -0.1150 -0.9925 -0.0416
vn -0.0204 -0.8214 -0.5700
vn 0.0605 -0.6085 -0.7913
vn 0.6250 -0.7464 -0.2287
vn 0.1772 -0.7916 0.5847
vn 0.7285 -0.5744 -0.3733
vn 0.7140 -0.6917 -0.1081
vn 0.3979 -0.9091 -0.1235
vn -0.4908 -0.7964 0.3535
vn 0.0693 -0.9964 0.0486
vn 0.7911 -0.6080 0.0672
vn -0.0340 0.9991 -0.0233
vn -0.0397 0.9992 0.0078
vn -0.0777 -0.7111 0.6988
vn -0.0538 0.9984 -0.0147
vn -0.1880 -0.7542 0.6292
vn -0.0316 0.9944 0.1013
vn -0.5630 -0.7107 -0.4218
vn -0.1521 -0.9063 -0.3943
vn -0.0318 0.9994 0.0105
vn -0.3189 -0.8308 -0.4562
vn -0.2110 -0.1632 0.9638
vn -0.8447 -0.5286 -0.0841
vn -0.0606 0.9927 -0.1041
vn -0.6020 -0.7606 0.2430
vn -0.7456 0.1408 0.6513
vn -0.1697 -0.5702 0.8038
vn -0.9515 -0.2865 0.1125
vn -0.2692 -0.8528 -0.4474
vn -0.1579 -0.9676 -0.1972
vn 0.1854 -0.6982 -0.6915
vn 0.5157 -0.7929 0.3247
vn 0.5154 -0.6764 0.5262
vn 0.0183 0.9997 -0.0135
vn -0.2587 0.5778 0.7741
vn 0.0224 0.9997 -0.0099
vn 0.0124 0.9999 -0.0051
vn 0.0211 0.9998 0.0023
vn 0.5664 0.6330 0.5278
vn 0.2334 0.9427 0.2385
vn 0.9491 -0.2755 -0.1526
vn 0.8290 0.5111 -0.2270
vn -0.2610 0.9652 0.0163
vn -0.9833 -0.1077 -0.1470
vn -0.0455 0.9957 -0.0809
vn -0.1952 0.9768 -0.0883
vn -0.5243 0.7901 0.3177
vn -0.0872 0.9771 0.1943
vn 0.1965 0.9444 0.2637
vn -0.1581 0.9834 0.0892
vn 0.0268 0.9995 0.0141
vn 0.0430 0.9991 -0.0019
vn 0.0340 0.9994 -0.0055
vn 0.0224 0.9996 -0.0198
vn 0.0509 0.9684 0.2442
vn 0.7281 -0.5997 -0.3319
vn 0.5585 -0.8290 -0.0291
vn 0.3517 -0.9359 -0.0178
vn 0.5783 -0.5650 -0.5884
vn 0.6734 -0.5617 -0.4808
vn -0.4218 -0.6198 -0.6617
vn -0.3677 -0.6111 -0.7009
vn -0.0840 0.9182 -0.3870
vn 0.0971 -0.1832 -0.9783
vn 0.1541 0.7121 -0.6850
vn -0.5117 -0.7738 0.3733
vn -0.0641 -0.0450 -0.9969
vn 0.8462 -0.4414 0.2985
vn -0.4167 -0.6919 -0.5895
vn 0.2868 -0.7316 0.6185
vn 0.3040 -0.9035 -0.3020
vn 0.5405 -0.6764 -0.5003
vn 0.2841 -0.9217 -0.2640
vn 0.2632 -0.9523 -0.1543
vn 0.5995 -0.7449 -0.2929
vn 0.6355 -0.5658 -0.5254
vn -0.2895 -0.8805 -0.3754
vn -0.2884 0.9500 0.1197
vn -0.0350 0.9922 -0.1200
vn -0.0162 0.9996 -0.0249
vn -0.0037 0.9999 -0.0142
vn -0.0039 0.9999 -0.0143
vn 0.0647 0.9975 -0.0293
vn -0.0295 0.9966 0.0775
vn 0.0011 0.9999 -0.0171
vn -0.0017 0.9999 -0.0113
vn -0.0084 0.9998 -0.0177
vn 0.0175 0.9997 -0.0190
vn 0.0131 0.9998 -0.0178
vn 0.0132 0.9998 -0.0113
vn 0.0227 0.9997 -0.0103
vn 0.0008 0.9966 -0.0828
vn 0.0492 0.9974 -0.0526
vn -0.1537 0.9450 -0.2888
vn -0.0455 0.9907 -0.1286
vn -0.3279 0.6727 -0.6633
vn 0.0191 0.9952 -0.0958
vn -0.5179 -0.3679 -0.7723
vn -0.4919 -0.4447 -0.7485
vn 0.3174 0.8308 -0.4573
vn 0.7661 -0.2043 -0.6093
vn 0.5369 -0.6749 -0.5062
vn 0.5112 -0.4623 -0.7245
vn -0.3087 -0.7261 -0.6144
vn -0.5264 -0.3122 -0.7908
vn -0.0160 -0.8778 -0.4788
vn -0.5715 -0.7809 -0.2523
vn -0.3864 -0.8776 -0.2838
vn -0.6554 -0.6965 -0.2919
vn 0.4082 -0.9036 -0.1296
vn 0.0482 0.1444 0.9883
vn 0.6518 -0.7579 -0.0292
vn 0.3853 -0.9228 -0.0018
vn -0.0625 -0.7030 -0.7084
vn 0.0020 1.0000 -0.0008
vn -0.0611 0.9975 -0.0357
vn -0.0568 0.9983 -0.0117
vn -0.0806 0.9960 -0.0377
vn 0.0016 0.9998 -0.0196
vn -0.0034 0.9998 -0.0209
vn -0.0453 0.9983 -0.0357
vn -0.0378 0.9978 -0.0540
vn -0.0166 0.9988 -0.0464
vn -0.0380 0.9950 -0.0926
vn -0.0082 0.9998 -0.0177
vn -0.0115 0.9999 -0.0095
vn 0.0029 0.9999 -0.0144
vn -0.0076 1.0000 -0.0036
vn 0.0025 1.0000 -0.0016
vn -0.0600 0.8975 -0.4370
vn -0.1321 0.8252 -0.5491
vn -0.1095 -0.4046 -0.9079
vn -0.0991 -0.6351 -0.7661
vn -0.0774 0.9660 -0.2469
vn -0.3499 -0.8443 -0.4059
vn -0.0474 -0.5006 -0.8644
vn -0.2191 -0.8227 -0.5246
vn -0.2174 -0.9585 -0.1842
vn -0.7697 -0.6344 -0.0719
vn -0.7881 -0.6097 -0.0846
vn -0.7070 -0.5575 -0.4351
vn -0.1002 -0.7159 0.6910
vn 0.1930 -0.8943 -0.4037
vn 0.1877 -0.8294 -0.5262
vn 0.2110 -0.7404 -0.6382
vn 0.0124 -0.9680 -0.2507
vn -0.7102 -0.6976 0.0947
vn -0.0782 -0.9905 -0.1128
vn -0.5140 0.0547 0.8561
vn -0.8959 -0.2846 -0.3411
vn -0.7447 -0.5366 -0.3968
vn -0.1783 0.9839 -0.0086
vn -0.1582 0.9874 -0.0069
vn -0.0355 0.9994 0.0040
vn -0.0049 0.9999 -0.0099
vn -0.0149 0.9999 -0.0082
vn -0.0327 0.9991 -0.0265
vn -0.0643 0.9977 -0.0190
vn -0.0231 0.9940 0.1070
vn -0.0236 0.9994 -0.0265
vn -0.0127 0.9998 -0.0151
vn -0.0364 0.9989 -0.0286
vn -0.0604 0.9981 -0.0154
vn 0.0115 0.9997 -0.0227
vn -0.1475 0.9630 -0.2254
vn -0.0512 0.9932 -0.1046
vn -0.1351 -0.7471 0.6508
vn -0.3182 0.9379 0.1384
vn -0.1667 0.9716 -0.1680
vn -0.8941 0.3948 -0.2114
vn -0.1249 -0.8075 -0.5764
vn -0.7559 0.5966 0.2697
vn -0.7216 0.6651 0.1922
vn -0.8806 -0.2687 0.3904
vn -0.8232 -0.3226 0.4671
vn -0.2520 -0.9554 -0.1536
vn -0.2635 -0.9469 -0.1841
vn -0.1715 -0.7653 -0.6204
vn -0.6726 -0.6420 -0.3680
vn -0.6517 -0.6710 -0.3537
vn -0.5362 -0.7252 -0.4320
vn -0.4163 -0.8076 0.4177
vn -0.7170 -0.5377 0.4437
vn -0.6989 -0.5755 0.4246
vn -0.2759 -0.8556 0.4381
vn -0.2419 -0.8184 0.5213
vn 0.1233 -0.9713 0.2033
vn 0.7073 -0.7055 0.0448
vn 0.7008 -0.7127 0.0305
vn 0.1877 -0.9427 0.2758
vn 0.4747 -0.8118 0.3399
vn -0.1919 -0.8302 0.5234
vn -0.0333 -0.9466 0.3208
vn -0.7447 -0.4555 0.4878
vn -0.8054 -0.2034 0.5568
vn -0.7711 -0.3303 0.5443
vn -0.1305 -0.7512 0.6471
vn -0.0856 0.6454 0.7590
vn -0.4233 0.8683 0.2584
vn 0.0227 0.9997 -0.0117
vn 0.0290 0.9993 -0.0248
vn -0.0357 0.9994 0.0017
vn -0.0336 0.9993 0.0157
vn 0.0023 0.9999 -0.0109
vn -0.0718 0.9973 0.0175
vn -0.1786 0.9810 0.0758
vn -0.2389 0.9587 0.1546
vn -0.1164 0.9681 0.2221
vn 0.0282 0.9914 0.1277
vn -0.1083 0.9350 0.3376
vn 0.0358 0.9978 0.0558
vn 0.0500 0.9987 -0.0039
vn 0.0041 0.9998 -0.0208
vn 0.0525 0.9984 0.0207
vn -0.7378 -0.3619 0.5698
vn -0.6270 -0.5571 0.5445
vn -0.6037 -0.5222 0.6024
vn 0.3415 -0.8960 0.2839
vn 0.2065 -0.2847 0.9361
vn 0.3757 -0.8801 0.2905
vn 0.2776 -0.8677 0.4123
vn -0.0803 -0.9398 0.3321
vn 0.6033 -0.7823 -0.1549
vn 0.6489 -0.7551 -0.0938
vn 0.5478 -0.5957 0.5874
vn 0.3037 0.9527 -0.0088
vn -0.1171 -0.6643 -0.7382
vn 0.0360 -0.1912 -0.9809
vn 0.6681 -0.4662 0.5799
vn 0.7921 -0.1527 0.5910
vn -0.5139 -0.4929 0.7021
vn 0.0072 0.9996 -0.0264
vn -0.0230 0.9521 -0.3049
vn 0.4750 -0.8783 -0.0536
vn 0.2499 0.5506 -0.7965
vn 0.0164 0.9998 0.0089
vn 0.6899 0.3312 -0.6437
vn 0.0085 0.9999 0.0076
vn 0.0013 1.0000 0.0014
vn 0.0168 0.9999 -0.0039
vn 0.0283 0.9996 0.0067
vn -0.4302 0.8610 -0.2714
vn 0.0151 0.9999 0.0082
vn -0.0067 1.0000 0.0073
vn -0.0441 0.8796 -0.4736
vn 0.0281 0.9996 -0.0027
vn 0.0145 0.9998 0.0105
vn 0.0111 0.9999 0.0092
vn 0.0416 0.9974 0.0597
vn 0.0201 0.9964 0.0829
vn -0.0017 0.9988 0.0485
vn 0.0112 0.9990 0.0425
vn 0.0123 0.9990 0.0419
vn 0.0317 0.9987 0.0394
vn 0.0279 0.9984 0.0486
vn 0.0148 0.9995 0.0278
vn 0.7888 0.3888 -0.4761
vn 0.3809 0.8602 0.3391
vn -0.0982 0.9329 0.3465
vn -0.4544 -0.4718 0.7556
vn -0.4421 -0.5200 0.7308
vn -0.2349 -0.8136 0.5319
vn 0.4343 0.8226 0.3670
vn 0.6359 -0.6233 0.4552
vn 0.8454 -0.5133 -0.1479
vn 0.6031 -0.7950 0.0645
vn -0.3730 -0.8908 0.2597
vn 0.5041 0.8267 -0.2500
vn 0.1135 -0.9676 0.2255
vn -0.5195 -0.4762 0.7095
vn 0.3526 -0.8576 0.3746
vn 0.3447 -0.9140 -0.2138
vn 0.3152 -0.9438 0.0998
vn 0.5369 -0.7357 0.4130
vn 0.9136 -0.4066 -0.0029
vn 0.8207 -0.5712 -0.0145
vn 0.5072 -0.3444 0.7901
vn 0.5298 -0.3705 0.7629
vn 0.8604 -0.5054 0.0662
vn 0.9433 -0.3316 -0.0115
vn 0.0199 0.9997 0.0139
vn 0.0141 0.9998 0.0168
vn -0.0000 0.9999 -0.0116
vn 0.0188 0.9998 0.0087
vn 0.0002 1.0000 0.0023
vn 0.0036 1.0000 -0.0082
vn -0.0106 0.9999 -0.0086
vn -0.0101 0.9998 -0.0171
vn -0.0033 1.0000 -0.0082
vn -0.0125 0.9998 0.0141
vn -0.0059 0.9999 0.0082
vn -0.0043 1.0000 0.0046
vn -0.0011 1.0000 0.0034
vn 0.0163 0.9997 0.0178
vn -0.0057 1.0000 0.0040
vn 0.0576 0.9982 0.0190
vn 0.4451 0.7335 0.5137
vn 0.0870 0.9935 0.0738
vn 0.0890 0.9929 0.0794
vn 0.2669 0.9055 0.3300
vn 0.4820 0.8716 0.0895
vn 0.3837 0.9214 0.0621
vn 0.1071 0.9932 0.0451
vn -0.4090 -0.8949 -0.1783
vn -0.4217 -0.8848 -0.1983
vn -0.3061 -0.9308 -0.1997
vn -0.4209 -0.8588 0.2922
vn -0.3474 -0.9319 0.1038
vn -0.7352 -0.6613 -0.1487
vn -0.4512 -0.8901 0.0644
vn -0.2121 -0.9521 0.2203
vn 0.1165 -0.9372 0.3288
vn 0.5178 -0.6381 0.5698
vn 0.4916 -0.7742 0.3987
vn 0.4413 -0.6556 0.6127
vn 0.1568 -0.9676 -0.1977
vn 0.7105 -0.6988 -0.0824
vn 0.2535 -0.9553 -0.1522
vn 0.8019 -0.5542 0.2230
vn 0.1074 -0.2868 -0.9520
vn 0.0494 0.9987 -0.0129
vn 0.0378 0.9993 0.0017
vn 0.0428 0.9990 -0.0117
vn 0.0066 0.9999 0.0120
vn 0.0192 0.9998 0.0040
vn 0.0280 0.9995 0.0154
vn 0.0117 0.9997 0.0195
vn 0.0108 0.9995 0.0285
vn -0.4263 0.9024 0.0629
vn -0.2163 0.1317 0.9674
vn -0.0073 0.9325 0.3611
vn -0.0973 0.9942 0.0448
vn -0.0290 0.9986 0.0433
vn 0.0258 0.9994 -0.0215
vn 0.0083 0.9994 -0.0336
vn -0.0791 0.9968 -0.0063
vn -0.0038 1.0000 -0.0025
vn 0.0037 1.0000 0.0053
vn 0.0026 1.0000 -0.0020
vn 0.1926 0.7909 -0.5809
vn 0.1865 0.9113 -0.3671
vn 0.0226 0.9988 -0.0430
vn 0.1425 0.9896 0.0220
vn 0.4289 0.9028 0.0329
vn 0.8058 -0.5604 0.1917
vn 0.9161 -0.3065 0.2585
vn 0.2036 -0.1161 -0.9721
vn 0.2510 -0.5377 -0.8049
vn -0.0852 -0.7727 -0.6290
vn -0.0142 -0.6708 -0.7415
vn -0.1624 -0.8656 -0.4736
vn -0.3324 -0.6225 -0.7085
vn 0.0053 -0.7927 -0.6096
vn -0.0127 -0.9996 -0.0266
vn 0.0328 -0.9991 0.0285
vn -0.0481 -0.9738 0.2224
vn 0.4417 -0.1922 0.8763
vn 0.4400 -0.8334 0.3345
vn 0.0114 -0.9352 0.3539
vn 0.2385 -0.9383 0.2504
vn 0.2834 -0.9381 0.1990
vn 0.3349 -0.9201 0.2031
vn 0.7675 -0.6314 0.1104
vn -0.0536 0.9984 -0.0157
vn -0.2915 -0.7821 -0.5507
vn -0.1121 0.8698 -0.4805
vn -0.1795 0.9549 -0.2367
vn -0.6402 -0.4835 -0.5970
vn -0.1287 -0.9608 -0.2454
vn -0.1149 -0.9640 -0.2396
vn -0.9125 -0.4021 0.0748
vn -0.0732 0.9903 -0.1183
vn -0.2380 0.1958 0.9513
vn -0.9425 -0.2616 -0.2079
vn -0.0798 -0.9751 0.2071
vn 0.3401 -0.0437 0.9394
vn 0.2364 0.7338 0.6369
vn 0.3796 0.2011 0.9030
vn -0.6593 0.7325 -0.1696
vn -0.6977 0.0045 -0.7164
vn -0.5458 -0.8361 -0.0546
vn -0.2276 0.9736 0.0187
vn 0.4603 0.8378 -0.2937
vn 0.8795 -0.0662 -0.4713
vn 0.3810 -0.8651 0.3262
vn 0.4345 -0.8936 -0.1127
vn 0.4331 0.8108 0.3936
vn -0.2907 -0.7208 -0.6293
vn 0.1457 -0.9350 0.3235
vn 0.9577 -0.2472 -0.1475
vn 0.9581 -0.2456 -0.1477
vn 0.6589 0.7385 -0.1430
vn -0.1653 0.9715 0.1701
vn -0.0072 -0.9565 -0.2916
vn 0.2658 -0.3625 -0.8933
vn 0.0175 0.9986 0.0493
vn 0.6996 -0.7144 0.0137
vn 0.9573 -0.2749 -0.0895
vn 0.0053 0.9999 -0.0117
vn -0.4627 -0.7989 0.3842
vn 0.6609 0.6236 -0.4176
vn 0.0780 0.9969 0.0065
vn 0.0047 0.9999 -0.0120
vn 0.7292 0.6245 0.2797
vn -0.0141 0.9343 0.3561
vn 0.2330 0.9114 0.3393
vn 0.2109 0.6391 0.7397
vn 0.0852 0.9746 0.2071
vn -0.3636 0.8217 0.4388
vn -0.0952 -0.6846 0.7226
vn 0.0800 -0.5381 0.8391
vn 0.0173 -0.9188 0.3944
vn 0.3175 0.3856 0.8663
vn 0.2472 0.2846 0.9262
vn -0.8558 0.4898 -0.1666
vn -0.0242 0.9717 -0.2348
vn -0.7774 0.1339 -0.6146
vn -0.3176 -0.6493 -0.6910
vn -0.6475 -0.7578 0.0808
vn -0.5289 -0.7356 0.4232
vn -0.1866 -0.9820 -0.0294
vn -0.2589 -0.9650 -0.0413
vn -0.9079 0.2338 0.3480
vn -0.9268 0.3432 -0.1526
vn 0.0341 -0.9943 -0.1008
vn -0.7812 0.5894 -0.2058
vn -0.9883 -0.1232 0.0899
vn -0.7300 0.6748 0.1088
vn -0.5929 0.8051 0.0135
vn -0.9954 0.0912 0.0292
vn -0.6004 -0.7987 0.0397
vn -0.2662 -0.9619 -0.0623
vn -0.3807 -0.9241 0.0325
vn -0.9907 -0.1322 0.0314
vn -0.8964 0.2790 -0.3445
vn 0.6843 -0.7272 0.0538
vn 0.0306 -0.9986 0.0440
vn -0.7330 0.6630 0.1524
vn -0.6138 0.7882 -0.0439
vn -0.7439 0.6658 0.0576
vn -0.0201 0.9429 0.3326
vn -0.0556 0.7962 0.6025
vn 0.2896 -0.1870 0.9387
vn -0.0159 0.9975 -0.0692
vn 0.2850 0.6148 0.7354
vn -0.3878 -0.9217 0.0091
vn 0.1526 0.9344 0.3217
vn -0.8518 0.5199 0.0646
vn -0.7690 -0.5240 0.3662
vn -0.8573 -0.4789 -0.1888
vn -0.9649 -0.2454 0.0931
vn -0.5000 -0.8524 0.1534
vn -0.8668 -0.4855 -0.1133
vn -0.7279 0.6768 0.1099
vn -0.6473 -0.7571 0.0890
vn -0.4939 0.8670 -0.0654
vn -0.8625 0.4931 0.1141
vn 0.1802 0.1487 0.9723
vn -0.5081 0.8496 -0.1412
vn 0.0838 0.7305 0.6777
vn 0.1279 -0.1193 0.9846
vn 0.2701 0.1843 0.9450
vn 0.0709 0.8602 0.5050
vn 0.2404 -0.2889 0.9267
vn 0.0896 -0.3736 0.9233
vn 0.0156 -0.9776 0.2099
vn 0.0446 -0.9476 0.3163
vn 0.0689 0.1947 0.9784
vn 0.2349 -0.0991 0.9670
vn 0.1261 -0.2128 0.9689
vn -0.1141 -0.6828 0.7217
vn 0.0724 -0.5383 0.8396
vn 0.1269 0.8804 0.4569
vn -0.0226 -0.9448 0.3270
vn 0.1177 0.1457 0.9823
vn 0.1978 0.1007 0.9751
vn 0.0921 -0.3948 0.9141
vn 0.1524 0.3990 0.9042
vn 0.3371 0.3203 0.8853
vn 0.0444 -0.3795 0.9241
vt 0.339862 0.753601
vt 0.350344 0.750991
vt 0.357470 0.736515
vt 0.350546 0.758598
vt 0.339805 0.662870
vt 0.332143 0.658956
vt 0.333284 0.673825
vt 0.246526 0.652065
vt 0.268458 0.652511
vt 0.258445 0.640047
vt 0.705316 0.661458
vt 0.720711 0.658709
vt 0.722037 0.667692
vt 0.698566 0.788121
vt 0.681881 0.789103
vt 0.692682 0.776614
vt 0.613447 0.787746
vt 0.691620 0.801507
vt 0.632712 0.639253
vt 0.626019 0.659980
vt 0.624500 0.648942
vt 0.729940 0.733987
vt 0.714632 0.736598
vt 0.711133 0.711105
vt 0.741578 0.732410
vt 0.744438 0.741383
vt 0.727965 0.756946
vt 0.695889 0.802332
vt 0.300700 0.823979
vt 0.311895 0.790721
vt 0.224559 0.800625
vt 0.623949 0.642007
vt 0.661294 0.625128
vt 0.672288 0.620606
vt 0.683427 0.630542
vt 0.686348 0.633137
vt 0.682473 0.642204
vt 0.332780 0.695308
vt 0.329301 0.690589
vt 0.320550 0.668294
vt 0.689476 0.632721
vt 0.723095 0.705354
vt 0.262537 0.638797
vt 0.289439 0.634521
vt 0.729288 0.720833
vt 0.345033 0.668171
vt 0.346445 0.678978
vt 0.349837 0.673824
vt 0.349321 0.766696
vt 0.359527 0.767672
vt 0.339748 0.770576
vt 0.347040 0.775681
vt 0.307410 0.648437
vt 0.303556 0.632000
vt 0.321502 0.788255
vt 0.326737 0.784096
vt 0.347260 0.714378
vt 0.351740 0.691945
vt 0.369474 0.710219
vt 0.363398 0.677479
vt 0.382354 0.647141
vt 0.359518 0.639096
vt 0.355095 0.657225
vt 0.372616 0.747362
vt 0.392579 0.723005
vt 0.386391 0.681225
vt 0.378078 0.637462
vt 0.373516 0.640461
vt 0.413324 0.734711
vt 0.397001 0.763384
vt 0.412456 0.759156
vt 0.402332 0.657433
vt 0.411705 0.693776
vt 0.416054 0.668994
vt 0.774185 0.799897
vt 0.780525 0.782972
vt 0.773837 0.791934
vt 0.422502 0.714590
vt 0.398510 0.638635
vt 0.739878 0.651680
vt 0.738882 0.668387
vt 0.752331 0.741570
vt 0.742870 0.753157
vt 0.774861 0.737631
vt 0.769209 0.778241
vt 0.763858 0.769422
vt 0.801976 0.686135
vt 0.798036 0.727554
vt 0.784176 0.694910
vt 0.767154 0.666079
vt 0.772815 0.631820
vt 0.788063 0.653579
vt 0.764650 0.707183
vt 0.786066 0.762328
vt 0.754767 0.771033
vt 0.744368 0.696151
vt 0.746746 0.681201
vt 0.753809 0.645351
vt 0.758781 0.625376
vt 0.763743 0.622817
vt 0.783275 0.631799
vt 0.800820 0.662158
vt 0.807267 0.707754
vt 0.797222 0.752320
vt 0.768694 0.798320
vt 0.773875 0.793212
vt 0.764205 0.617723
vt 0.768305 0.620950
vt 0.395759 0.789808
vt 0.382874 0.800746
vt 0.772776 0.613772
vt 0.766071 0.617479
vt 0.369682 0.775293
vt 0.306529 0.787146
vt 0.317140 0.748978
vt 0.318599 0.751040
vt 0.325242 0.798068
vt 0.318996 0.831202
vt 0.332875 0.819810
vt 0.334813 0.858943
vt 0.355355 0.836308
vt 0.349328 0.799450
vt 0.324255 0.906459
vt 0.334858 0.896207
vt 0.316058 0.886415
vt 0.759037 0.846187
vt 0.741201 0.872257
vt 0.756722 0.871206
vt 0.383541 0.786875
vt 0.374349 0.816281
vt 0.719623 0.889371
vt 0.709021 0.899623
vt 0.733498 0.896129
vt 0.768463 0.832702
vt 0.694193 0.812836
vt 0.690908 0.884875
vt 0.683950 0.879862
vt 0.696326 0.859259
vt 0.743580 0.881657
vt 0.720671 0.890308
vt 0.734002 0.858553
vt 0.744015 0.820429
vt 0.764890 0.815217
vt 0.758044 0.849394
vt 0.737639 0.765717
vt 0.740501 0.778563
vt 0.726185 0.779822
vt 0.722933 0.829255
vt 0.726148 0.796207
vt 0.749104 0.786212
vt 0.767077 0.794188
vt 0.711410 0.860366
vt 0.700949 0.889357
vt 0.705232 0.818957
vt 0.692863 0.825829
vt 0.719933 0.782568
vt 0.691172 0.890166
vt 0.383697 0.839538
vt 0.374271 0.853023
vt 0.686868 0.914651
vt 0.692489 0.935391
vt 0.683238 0.930359
vt 0.681864 0.938346
vt 0.704464 0.915236
vt 0.682476 0.911260
vt 0.306809 0.889515
vt 0.308550 0.883279
vt 0.360971 0.778035
vt 0.356435 0.879093
vt 0.307223 0.846530
vt 0.310114 0.837424
vt 0.307987 0.870000
vt 0.310318 0.830309
vt 0.261353 0.823172
vt 0.236464 0.838997
vt 0.258986 0.862640
vt 0.283640 0.840488
vt 0.226446 0.774815
vt 0.229799 0.769131
vt 0.220777 0.766148
vt 0.240763 0.915191
vt 0.230368 0.883941
vt 0.237217 0.912395
vt 0.282507 0.887334
vt 0.298813 0.901205
vt 0.255177 0.927828
vt 0.243021 0.941245
vt 0.627345 0.876813
vt 0.611141 0.896405
vt 0.599720 0.887623
vt 0.665922 0.941168
vt 0.633149 0.910022
vt 0.661603 0.912812
vt 0.687040 0.821527
vt 0.686734 0.841541
vt 0.666383 0.828414
vt 0.644632 0.840894
vt 0.655348 0.870851
vt 0.682411 0.868372
vt 0.674401 0.913932
vt 0.619525 0.938513
vt 0.622892 0.909867
vt 0.612703 0.853286
vt 0.617325 0.869925
vt 0.613265 0.874898
vt 0.610035 0.872785
vt 0.629131 0.805079
vt 0.629552 0.833374
vt 0.663448 0.937602
vt 0.627787 0.934409
vt 0.618593 0.912386
vt 0.621982 0.905559
vt 0.588548 0.887244
vt 0.278052 0.911228
vt 0.269923 0.906639
vt 0.591332 0.890496
vt 0.594454 0.894128
vt 0.591961 0.885032
vt 0.198825 0.877784
vt 0.207196 0.891868
vt 0.221402 0.776378
vt 0.301873 0.852638
vt 0.256628 0.902470
vt 0.215060 0.845986
vt 0.219610 0.827339
vt 0.209345 0.830086
vt 0.213629 0.783317
vt 0.213778 0.790671
vt 0.202168 0.783813
vt 0.200491 0.809777
vt 0.175105 0.791343
vt 0.176808 0.824373
vt 0.203593 0.838676
vt 0.530263 0.771727
vt 0.530687 0.752632
vt 0.526189 0.758300
vt 0.540184 0.834690
vt 0.531575 0.800441
vt 0.525562 0.819804
vt 0.573901 0.878759
vt 0.583507 0.887638
vt 0.520080 0.783883
vt 0.547245 0.855934
vt 0.619178 0.816317
vt 0.604944 0.789888
vt 0.617287 0.795354
vt 0.556434 0.761297
vt 0.583942 0.771527
vt 0.564462 0.784406
vt 0.526308 0.802597
vt 0.534275 0.777439
vt 0.548480 0.808478
vt 0.563495 0.864408
vt 0.540361 0.836270
vt 0.569173 0.843092
vt 0.588194 0.870503
vt 0.596372 0.841152
vt 0.575257 0.816256
vt 0.594494 0.802424
vt 0.616113 0.842399
vt 0.599583 0.878323
vt 0.522093 0.751066
vt 0.519225 0.762510
vt 0.546466 0.750695
vt 0.579683 0.754651
vt 0.559866 0.749365
vt 0.592833 0.757118
vt 0.564114 0.858545
vt 0.550308 0.738446
vt 0.179348 0.865381
vt 0.209898 0.870687
vt 0.203771 0.857443
vt 0.155418 0.841526
vt 0.146809 0.807277
vt 0.145497 0.778563
vt 0.157850 0.755651
vt 0.189882 0.766780
vt 0.173750 0.768956
vt 0.195821 0.758572
vt 0.205399 0.767538
vt 0.215161 0.813093
vt 0.199355 0.691673
vt 0.173419 0.662012
vt 0.160200 0.702322
vt 0.178299 0.619266
vt 0.186648 0.628195
vt 0.217866 0.723639
vt 0.560455 0.599961
vt 0.540714 0.607589
vt 0.531188 0.627792
vt 0.507613 0.704255
vt 0.512917 0.663819
vt 0.495130 0.683048
vt 0.148864 0.764366
vt 0.148080 0.739072
vt 0.145921 0.759468
vt 0.509430 0.638222
vt 0.505121 0.725828
vt 0.505396 0.662657
vt 0.530728 0.631892
vt 0.533649 0.673109
vt 0.518965 0.736477
vt 0.508042 0.703465
vt 0.544024 0.713769
vt 0.605036 0.756777
vt 0.588381 0.747120
vt 0.601797 0.731602
vt 0.595243 0.628905
vt 0.578417 0.623786
vt 0.595623 0.620272
vt 0.568627 0.688348
vt 0.568427 0.647393
vt 0.604525 0.662967
vt 0.621363 0.635619
vt 0.625902 0.638959
vt 0.589919 0.720944
vt 0.601319 0.688876
vt 0.604552 0.710002
vt 0.604716 0.723543
vt 0.524951 0.750036
vt 0.556626 0.609318
vt 0.570780 0.603657
vt 0.557462 0.600230
vt 0.120355 0.732664
vt 0.122847 0.711091
vt 0.560231 0.593869
vt 0.561107 0.593857
vt 0.557384 0.592831
vt 0.216176 0.661226
vt 0.247719 0.658996
vt 0.219787 0.716838
vt 0.216553 0.695712
vt 0.216613 0.626901
vt 0.232355 0.644076
vt 0.231197 0.635682
vt 0.208627 0.629213
vt 0.128152 0.670655
vt 0.146422 0.634628
vt 0.254954 0.600455
vt 0.269934 0.570140
vt 0.237134 0.573695
vt 0.282434 0.538971
vt 0.291967 0.563651
vt 0.301492 0.545481
vt 0.226040 0.605103
vt 0.251260 0.620816
vt 0.275478 0.603119
vt 0.295510 0.535408
vt 0.295063 0.540364
vt 0.220996 0.550097
vt 0.254136 0.540999
vt 0.234178 0.532772
vt 0.181719 0.587364
vt 0.175690 0.606797
vt 0.202752 0.578601
vt 0.270252 0.526114
vt 0.300882 0.529653
vt 0.201178 0.557421
vt 0.566485 0.580528
vt 0.635677 0.551337
vt 0.637397 0.526340
vt 0.662880 0.532410
vt 0.581887 0.567646
vt 0.605696 0.542808
vt 0.603879 0.575105
vt 0.581521 0.595371
vt 0.610730 0.602769
vt 0.649185 0.621795
vt 0.661017 0.618940
vt 0.676734 0.560054
vt 0.678739 0.575015
vt 0.660167 0.566429
vt 0.632803 0.581138
vt 0.648434 0.601095
vt 0.671819 0.602186
vt 0.682404 0.612597
vt 0.675326 0.619167
vt 0.611345 0.623131
vt 0.677540 0.540820
vt 0.574885 0.606390
vt 0.573472 0.603379
vt 0.585943 0.550585
vt 0.618944 0.525936
vt 0.655017 0.519278
vt 0.686916 0.523852
vt 0.680249 0.528793
vt 0.282235 0.625127
vt 0.290851 0.625681
vt 0.295079 0.618795
vt 0.265767 0.631901
vt 0.249197 0.640117
vt 0.202283 0.619940
vt 0.187940 0.602925
vt 0.298197 0.603583
vt 0.293415 0.609084
vt 0.295315 0.592532
vt 0.303577 0.572681
vt 0.321884 0.570804
vt 0.312435 0.613187
vt 0.329974 0.607501
vt 0.313091 0.533467
vt 0.335507 0.532891
vt 0.331245 0.635736
vt 0.353168 0.611989
vt 0.345840 0.572401
vt 0.323200 0.516982
vt 0.381306 0.624315
vt 0.376556 0.613679
vt 0.378085 0.626768
vt 0.359601 0.542196
vt 0.371064 0.579530
vt 0.373422 0.551226
vt 0.767761 0.586521
vt 0.350835 0.521647
vt 0.685236 0.533035
vt 0.700088 0.572422
vt 0.676350 0.621654
vt 0.740441 0.639893
vt 0.718248 0.652593
vt 0.741310 0.576824
vt 0.759906 0.567528
vt 0.759201 0.602500
vt 0.721496 0.517360
vt 0.743665 0.535701
vt 0.720303 0.549048
vt 0.719092 0.587917
vt 0.732102 0.615934
vt 0.705560 0.614306
vt 0.704715 0.632343
vt 0.710538 0.637752
vt 0.699992 0.627625
vt 0.683352 0.586078
vt 0.685365 0.569889
vt 0.700330 0.526805
vt 0.735600 0.514811
vt 0.758187 0.544390
vt 0.707965 0.510146
vt 0.682351 0.516610
vt 0.382996 0.593357
vt 0.346539 0.657658
vt 0.333937 0.655284
vt 0.322615 0.647761
vt 0.614252 0.916040
vt 0.278683 0.944438
vt 0.625528 0.908355
vt 0.683579 0.894369
vt 0.691574 0.882679
vt 0.244268 0.915031
vt 0.355609 0.716609
vt 0.241363 0.644604
vt 0.728446 0.699543
vt 0.725599 0.702025
vt 0.646271 0.639776
vt 0.706068 0.779906
vt 0.307916 0.783450
vt 0.226760 0.761934
vt 0.611525 0.755098
vt 0.312126 0.681014
vt 0.299318 0.680404
vt 0.271178 0.684518
vt 0.717545 0.688472
vt 0.346646 0.662427
vt 0.610685 0.762271
vt 0.219951 0.730379
vt 0.275517 0.662695
vt 0.219781 0.697682
vt 0.767639 0.793910
vt 0.375240 0.793871
vt 0.301511 0.877522
vt 0.325030 0.680323
vt 0.331843 0.713984
vt 0.662817 0.904392
vt 0.533630 0.757530
vt 0.583591 0.870948
vt 0.516286 0.750431
vt 0.533087 0.761151
vt 0.618845 0.772159
vt 0.685647 0.522817
vt 0.710734 0.716644
vt 0.295612 0.684602
vt 0.337882 0.714348
vt 0.707729 0.744252
vt 0.306719 0.675684
vt 0.618751 0.670429
vt 0.272422 0.674128
vt 0.302123 0.663746
vt 0.317728 0.711450
vt 0.321925 0.711560
vt 0.317130 0.746724
vt 0.324755 0.712741
vt 0.325969 0.723480
vt 0.323537 0.715183
vt 0.295640 0.677961
vt 0.246931 0.689053
vt 0.247747 0.665862
vt 0.249964 0.681281
vt 0.638224 0.663947
vt 0.624423 0.666518
vt 0.297557 0.678161
vt 0.675507 0.656567
vt 0.691484 0.668848
vt 0.680406 0.671125
vt 0.233985 0.677264
vt 0.239658 0.673354
vt 0.253459 0.670783
vt 0.314747 0.748070
vt 0.702577 0.736551
vt 0.317811 0.743387
s 0
usemtl 材質.009
f 140/1/1 173/2/1 174/3/1
f 177/4/2 173/2/2 140/1/2
f 345/5/3 347/6/3 138/7/3
f 273/8/4 149/9/4 313/10/4
f 437/11/5 357/12/5 178/13/5
f 289/14/6 284/15/6 194/16/6
f 254/17/7 284/15/7 219/18/7
f 317/19/8 279/20/8 281/21/8
f 359/22/9 358/23/9 439/24/9
f 185/25/10 184/26/10 129/27/10
f 284/15/11 195/28/11 219/18/11
f 241/29/12 200/30/12 270/31/12
f 283/32/13 317/19/13 281/21/13
f 316/33/14 354/34/14 353/35/14
f 356/36/15 166/37/15 353/35/15
f 98/38/16 419/39/16 437/40/16
f 166/37/17 356/36/17 350/41/17
f 359/22/18 439/24/18 441/42/18
f 313/10/19 149/9/19 320/43/19
f 320/43/20 149/9/20 361/44/20
f 359/22/21 183/45/21 129/27/21
f 188/46/22 345/5/22 138/7/22
f 188/46/23 190/47/23 189/48/23
f 177/4/24 196/49/24 217/50/24
f 196/49/25 198/51/25 197/52/25
f 149/9/26 364/53/26 363/54/26
f 201/55/27 199/56/27 140/1/27
f 138/7/28 347/6/28 364/53/28
f 138/7/29 176/57/29 191/58/29
f 34/59/30 137/60/30 191/58/30
f 143/61/31 367/62/31 368/63/31
f 34/59/32 174/3/32 148/64/32
f 151/65/33 34/59/33 148/64/33
f 34/59/34 151/65/34 145/66/34
f 369/67/35 366/68/35 143/61/35
f 79/69/36 152/70/36 162/71/36
f 96/72/37 155/73/37 164/74/37
f 202/75/38 163/76/38 203/77/38
f 79/69/39 162/71/39 165/78/39
f 96/72/40 164/74/40 158/79/40
f 178/13/41 370/80/41 179/81/41
f 170/82/42 186/83/42 184/26/42
f 171/84/43 204/85/43 205/86/43
f 119/87/44 167/88/44 172/89/44
f 169/90/45 127/91/45 168/92/45
f 133/93/46 169/90/46 172/89/46
f 169/90/47 168/92/47 172/89/47
f 168/92/48 119/87/48 172/89/48
f 133/93/49 172/89/49 171/84/49
f 172/89/50 167/88/50 171/84/50
f 167/88/51 115/94/51 171/84/51
f 170/82/52 133/93/52 171/84/52
f 170/82/53 205/86/53 206/95/53
f 185/25/54 183/45/54 180/96/54
f 184/26/55 185/25/55 170/82/55
f 133/93/56 181/97/56 169/90/56
f 179/81/57 370/80/57 372/98/57
f 372/98/58 373/99/58 374/100/58
f 127/91/59 158/101/59 168/92/59
f 158/101/60 164/102/60 168/92/60
f 164/102/61 119/87/61 168/92/61
f 165/103/62 167/88/62 119/87/62
f 165/103/63 162/104/63 167/88/63
f 162/104/64 115/94/64 167/88/64
f 209/105/65 115/94/65 211/106/65
f 211/106/66 163/76/66 202/75/66
f 127/91/67 376/107/67 375/108/67
f 164/102/68 165/103/68 119/87/68
f 164/74/69 155/73/69 165/78/69
f 155/73/70 79/69/70 165/78/70
f 115/94/71 162/104/71 163/76/71
f 162/71/72 152/70/72 163/109/72
f 152/70/73 212/110/73 163/109/73
f 158/101/74 375/108/74 377/111/74
f 158/101/75 377/111/75 378/112/75
f 158/79/76 143/61/76 96/72/76
f 145/66/77 155/73/77 96/72/77
f 155/73/78 145/66/78 151/65/78
f 151/65/79 79/69/79 155/73/79
f 151/65/80 152/70/80 79/69/80
f 151/65/81 148/64/81 152/70/81
f 152/70/82 148/64/82 214/113/82
f 217/50/83 214/113/83 148/64/83
f 274/114/84 447/115/84 442/116/84
f 96/72/85 143/61/85 145/66/85
f 143/61/86 137/60/86 145/66/86
f 145/66/87 137/60/87 34/59/87
f 190/47/88 137/60/88 189/48/88
f 137/60/89 368/63/89 188/46/89
f 118/117/90 111/118/90 20/119/90
f 201/55/91 118/117/91 199/56/91
f 111/118/92 128/120/92 20/119/92
f 20/119/93 128/120/93 132/121/93
f 20/119/94 132/121/94 124/122/94
f 144/123/95 51/124/95 131/125/95
f 73/126/96 135/127/96 146/128/96
f 213/129/97 136/130/97 212/110/97
f 51/131/98 144/132/98 147/133/98
f 73/126/99 146/128/99 150/134/99
f 195/28/100 220/135/100 219/18/100
f 224/136/101 223/137/101 221/138/101
f 94/139/102 153/140/102 160/141/102
f 161/142/103 97/143/103 154/144/103
f 187/145/104 207/146/104 193/147/104
f 108/148/105 157/149/105 161/142/105
f 208/150/106 157/149/106 207/146/106
f 161/142/107 208/150/107 210/151/107
f 161/142/108 160/141/108 108/148/108
f 161/142/109 154/144/109 160/141/109
f 154/144/110 94/139/110 160/141/110
f 160/141/111 159/152/111 108/148/111
f 159/152/112 160/141/112 153/140/112
f 89/153/113 159/152/113 153/140/113
f 156/154/114 108/148/114 159/152/114
f 226/155/115 159/152/115 221/138/115
f 226/155/116 220/135/116 156/154/116
f 156/154/117 157/149/117 108/148/117
f 289/14/118 192/156/118 195/28/118
f 192/156/119 193/147/119 157/149/119
f 209/105/120 97/143/120 210/151/120
f 150/134/121 154/144/121 97/143/121
f 150/134/122 146/128/122 154/144/122
f 146/128/123 94/139/123 154/144/123
f 147/133/124 153/140/124 94/139/124
f 147/133/125 144/132/125 153/140/125
f 89/153/126 153/140/126 144/132/126
f 224/136/127 89/153/127 228/157/127
f 97/143/128 211/106/128 150/134/128
f 212/110/129 136/130/129 150/158/129
f 150/158/130 136/130/130 73/159/130
f 146/128/131 147/133/131 94/139/131
f 146/128/132 135/127/132 147/133/132
f 135/127/133 51/131/133 147/133/133
f 407/160/134 230/161/134 229/162/134
f 231/163/135 409/164/135 411/165/135
f 233/166/136 131/125/136 234/167/136
f 216/168/137 124/122/137 136/130/137
f 124/122/138 132/121/138 136/130/138
f 73/159/139 136/130/139 132/121/139
f 132/121/140 135/169/140 73/159/140
f 132/121/141 128/120/141 135/169/141
f 128/120/142 51/124/142 135/169/142
f 131/125/143 51/124/143 128/120/143
f 128/120/144 111/118/144 236/170/144
f 111/118/145 238/171/145 236/170/145
f 235/172/146 234/167/146 131/125/146
f 216/168/147 217/50/147 196/49/147
f 199/56/148 118/117/148 124/122/148
f 124/122/149 118/117/149 20/119/149
f 111/118/150 240/173/150 238/171/150
f 201/55/151 200/30/151 118/117/151
f 12/174/152 87/175/152 104/176/152
f 12/174/153 104/176/153 110/177/153
f 16/178/154 218/179/154 242/180/154
f 414/181/155 105/182/155 126/183/155
f 113/184/156 232/185/156 233/166/156
f 38/186/157 414/181/157 403/187/157
f 139/188/158 67/189/158 243/190/158
f 75/191/159 404/192/159 416/193/159
f 227/194/160 225/195/160 142/196/160
f 83/197/161 142/196/161 141/198/161
f 222/199/162 142/196/162 225/195/162
f 223/137/163 405/200/163 416/193/163
f 139/188/164 83/197/164 141/198/164
f 134/201/165 412/202/165 404/192/165
f 412/202/166 67/189/166 139/188/166
f 249/203/167 83/197/167 248/204/167
f 248/204/168 245/205/168 250/206/168
f 252/207/169 83/197/169 246/208/169
f 405/200/170 223/137/170 224/136/170
f 130/209/171 134/201/171 75/191/171
f 130/209/172 403/210/172 134/201/172
f 67/189/173 406/211/173 126/212/173
f 67/189/174 256/213/174 243/190/174
f 231/163/175 130/209/175 75/191/175
f 413/214/176 232/185/176 113/184/176
f 113/184/177 408/215/177 413/214/177
f 255/216/178 126/212/178 258/217/178
f 126/212/179 260/218/179 258/217/179
f 105/182/180 261/219/180 260/220/180
f 242/180/181 263/221/181 16/178/181
f 237/222/182 236/170/182 238/171/182
f 237/222/183 110/177/183 113/184/183
f 113/184/184 110/177/184 104/176/184
f 415/223/185 113/184/185 104/176/185
f 105/182/186 415/223/186 104/176/186
f 105/182/187 104/176/187 87/175/187
f 105/182/188 87/175/188 264/224/188
f 264/224/189 268/225/189 266/226/189
f 16/178/190 263/221/190 272/227/190
f 271/228/191 71/229/191 10/230/191
f 71/229/192 86/231/192 10/230/192
f 10/230/193 86/231/193 90/232/193
f 267/233/194 10/230/194 90/232/194
f 22/234/195 292/235/195 291/236/195
f 31/237/196 91/238/196 103/239/196
f 107/240/197 259/241/197 258/217/197
f 106/242/198 22/234/198 291/236/198
f 31/237/199 103/239/199 109/243/199
f 107/240/200 255/216/200 259/241/200
f 251/244/201 39/245/201 253/246/201
f 42/247/202 112/248/202 122/249/202
f 55/250/203 114/251/203 123/252/203
f 63/253/204 116/254/204 125/255/204
f 117/256/205 121/257/205 249/203/205
f 121/257/206 125/255/206 70/258/206
f 125/255/207 121/257/207 117/256/207
f 63/253/208 125/255/208 117/256/208
f 125/255/209 123/252/209 70/258/209
f 125/255/210 116/254/210 123/252/210
f 116/254/211 55/250/211 123/252/211
f 123/252/212 122/249/212 70/258/212
f 123/252/213 114/251/213 122/249/213
f 114/251/214 42/247/214 122/249/214
f 122/249/215 120/259/215 70/258/215
f 122/249/216 112/248/216 120/259/216
f 120/259/217 112/248/217 39/245/217
f 120/259/218 121/257/218 70/258/218
f 121/257/219 120/259/219 251/244/219
f 121/257/220 247/260/220 249/203/220
f 244/261/221 250/206/221 245/205/221
f 256/213/222 107/240/222 117/256/222
f 63/253/223 117/256/223 107/240/223
f 116/254/224 63/253/224 109/243/224
f 109/243/225 103/239/225 116/254/225
f 103/239/226 55/250/226 116/254/226
f 106/242/227 114/251/227 55/250/227
f 296/262/228 114/251/228 295/263/228
f 114/251/229 299/264/229 42/247/229
f 300/265/230 42/247/230 301/266/230
f 300/265/231 303/267/231 112/248/231
f 39/245/232 112/248/232 303/267/232
f 39/245/233 254/17/233 253/246/233
f 63/253/234 107/240/234 109/243/234
f 109/243/235 107/240/235 95/268/235
f 109/243/236 95/268/236 31/237/236
f 103/239/237 106/242/237 55/250/237
f 103/239/238 91/238/238 106/242/238
f 91/238/239 22/234/239 106/242/239
f 301/266/240 299/264/240 305/269/240
f 95/270/241 262/271/241 265/272/241
f 90/232/242 95/270/242 265/272/242
f 31/273/243 95/270/243 90/232/243
f 90/232/244 91/274/244 31/273/244
f 90/232/245 86/231/245 91/274/245
f 86/231/246 22/275/246 91/274/246
f 22/275/247 86/231/247 307/276/247
f 86/231/248 308/277/248 306/278/248
f 309/279/249 71/229/249 310/280/249
f 269/281/250 266/226/250 268/225/250
f 310/280/251 272/227/251 263/221/251
f 272/227/252 71/229/252 271/228/252
f 5/282/253 53/283/253 49/284/253
f 324/285/254 53/283/254 323/286/254
f 286/287/255 309/279/255 310/280/255
f 326/288/256 76/289/256 9/290/256
f 11/291/257 58/292/257 81/293/257
f 293/294/258 68/295/258 292/296/258
f 9/290/259 76/289/259 85/297/259
f 11/291/260 81/293/260 88/298/260
f 24/299/261 92/300/261 99/301/261
f 28/302/262 93/303/262 101/304/262
f 304/305/263 302/306/263 278/307/263
f 327/308/264 329/309/264 328/310/264
f 45/311/265 100/312/265 280/313/265
f 327/308/266 331/314/266 280/313/266
f 318/315/267 283/32/267 331/314/267
f 102/316/268 275/317/268 276/318/268
f 102/316/269 277/319/269 278/307/269
f 101/304/270 45/311/270 102/316/270
f 102/316/271 302/306/271 301/266/271
f 305/269/272 299/264/272 298/320/272
f 101/304/273 99/301/273 45/311/273
f 93/303/274 99/301/274 101/304/274
f 93/303/275 24/299/275 99/301/275
f 99/301/276 100/312/276 45/311/276
f 99/301/277 92/300/277 100/312/277
f 332/321/278 333/322/278 329/309/278
f 270/31/279 87/175/279 12/174/279
f 28/302/280 298/320/280 296/262/280
f 93/303/281 28/302/281 88/298/281
f 88/298/282 81/293/282 93/303/282
f 81/293/283 24/299/283 93/303/283
f 85/297/284 92/300/284 24/299/284
f 85/297/285 76/289/285 92/300/285
f 92/300/286 336/323/286 332/321/286
f 28/302/287 295/263/287 88/298/287
f 292/296/288 68/295/288 88/324/288
f 88/324/289 68/295/289 11/325/289
f 81/293/290 85/297/290 24/299/290
f 81/293/291 58/292/291 85/297/291
f 58/292/292 9/290/292 85/297/292
f 76/289/293 338/326/293 336/323/293
f 76/289/294 339/327/294 337/328/294
f 66/329/295 432/330/295 273/8/295
f 286/287/296 276/331/296 275/332/296
f 309/279/297 68/295/297 306/278/297
f 49/284/298 11/325/298 68/295/298
f 342/333/299 340/334/299 341/335/299
f 53/283/300 66/329/300 343/336/300
f 53/283/301 5/282/301 66/329/301
f 49/284/302 58/337/302 11/325/302
f 49/284/303 53/283/303 58/337/303
f 53/283/304 9/338/304 58/337/304
f 3/339/305 33/340/305 29/341/305
f 4/342/306 382/343/306 381/344/306
f 29/341/307 41/345/307 3/339/307
f 41/345/308 47/346/308 3/339/308
f 40/347/309 3/339/309 47/346/309
f 384/348/310 4/342/310 383/349/310
f 7/350/311 36/351/311 60/352/311
f 64/353/312 326/354/312 43/355/312
f 62/356/313 384/348/313 385/357/313
f 7/350/314 60/352/314 65/358/314
f 337/328/315 339/327/315 64/359/315
f 77/360/316 14/361/316 69/362/316
f 18/363/317 72/364/317 80/365/317
f 74/366/318 82/367/318 328/310/318
f 315/368/319 319/369/319 316/33/319
f 387/370/320 389/371/320 78/372/320
f 26/373/321 78/372/321 84/374/321
f 390/375/322 78/372/322 389/371/322
f 390/375/323 393/376/323 392/377/323
f 82/367/324 26/373/324 84/374/324
f 315/368/325 317/19/325 331/314/325
f 328/310/326 330/378/326 327/308/326
f 82/367/327 80/365/327 26/373/327
f 74/366/328 80/365/328 82/367/328
f 74/366/329 18/363/329 80/365/329
f 80/365/330 77/360/330 26/373/330
f 80/365/331 72/364/331 77/360/331
f 72/364/332 14/361/332 77/360/332
f 26/373/333 77/360/333 78/372/333
f 77/360/334 69/362/334 78/372/334
f 78/372/335 394/379/335 387/370/335
f 74/366/336 335/380/336 334/381/336
f 64/359/337 338/326/337 337/328/337
f 74/366/338 334/381/338 333/322/338
f 336/323/339 338/326/339 18/363/339
f 65/382/340 72/364/340 18/363/340
f 65/382/341 60/383/341 72/364/341
f 60/383/342 14/361/342 72/364/342
f 14/361/343 62/384/343 69/362/343
f 62/384/344 396/385/344 69/362/344
f 395/386/345 394/379/345 69/362/345
f 18/363/346 64/359/346 65/382/346
f 65/358/347 64/353/347 43/355/347
f 43/355/348 7/350/348 65/358/348
f 60/383/349 62/384/349 14/361/349
f 60/352/350 36/351/350 62/356/350
f 62/356/351 36/351/351 4/342/351
f 321/387/352 360/388/352 398/389/352
f 40/347/353 322/390/353 321/387/353
f 320/43/354 322/390/354 47/346/354
f 312/391/355 341/335/355 340/334/355
f 41/345/356 341/335/356 47/346/356
f 344/392/357 342/333/357 41/345/357
f 43/355/358 325/393/358 324/285/358
f 43/355/359 41/345/359 29/341/359
f 29/341/360 7/350/360 43/355/360
f 400/394/361 40/347/361 399/395/361
f 33/340/362 401/396/362 402/397/362
f 33/340/363 3/339/363 40/347/363
f 29/341/364 36/351/364 7/350/364
f 29/341/365 33/340/365 36/351/365
f 36/351/366 33/340/366 4/342/366
f 21/398/367 19/399/367 1/400/367
f 2/401/368 21/398/368 23/402/368
f 19/399/369 27/403/369 1/400/369
f 1/400/370 27/403/370 30/404/370
f 1/400/371 30/404/371 25/405/371
f 2/401/372 23/402/372 35/406/372
f 378/407/373 6/408/373 379/409/373
f 8/410/374 32/411/374 44/412/374
f 35/406/375 385/357/375 2/401/375
f 46/413/376 378/112/376 377/111/376
f 8/410/377 44/412/377 37/414/377
f 394/379/378 397/415/378 54/416/378
f 355/417/379 392/377/379 393/376/379
f 371/418/380 370/80/380 351/419/380
f 61/420/381 13/421/381 50/422/381
f 15/423/382 52/424/382 56/425/382
f 17/426/383 56/425/383 61/420/383
f 56/425/384 52/424/384 61/420/384
f 52/424/385 13/421/385 61/420/385
f 61/420/386 59/427/386 17/426/386
f 59/427/387 61/420/387 50/422/387
f 59/427/388 50/422/388 373/99/388
f 57/428/389 17/426/389 59/427/389
f 348/429/390 59/427/390 352/430/390
f 349/431/391 57/428/391 348/429/391
f 54/416/392 17/426/392 57/428/392
f 393/376/393 391/432/393 57/428/393
f 391/432/394 388/433/394 54/416/394
f 54/416/395 56/425/395 17/426/395
f 54/416/396 48/434/396 56/425/396
f 48/434/397 15/423/397 56/425/397
f 37/435/398 52/424/398 15/423/398
f 37/435/399 44/436/399 52/424/399
f 44/436/400 13/421/400 52/424/400
f 13/421/401 46/413/401 50/422/401
f 46/413/402 375/108/402 50/422/402
f 376/107/403 373/99/403 50/422/403
f 392/377/404 355/417/404 354/34/404
f 48/434/405 395/386/405 396/385/405
f 35/437/406 396/385/406 386/438/406
f 35/437/407 15/423/407 48/434/407
f 44/436/408 46/413/408 13/421/408
f 44/412/409 32/411/409 46/439/409
f 46/439/410 32/411/410 6/408/410
f 2/401/411 384/348/411 383/349/411
f 35/437/412 37/435/412 15/423/412
f 35/406/413 23/402/413 37/414/413
f 23/402/414 8/410/414 37/414/414
f 25/405/415 32/411/415 8/410/415
f 25/405/416 30/404/416 32/411/416
f 6/408/417 32/411/417 30/404/417
f 366/68/418 369/67/418 6/408/418
f 30/404/419 380/440/419 368/63/419
f 27/403/420 346/441/420 345/5/420
f 27/403/421 347/6/421 346/441/421
f 363/54/422 364/53/422 365/442/422
f 363/54/423 19/399/423 398/389/423
f 23/402/424 25/405/424 8/410/424
f 23/402/425 21/398/425 25/405/425
f 25/405/426 21/398/426 1/400/426
f 19/399/427 399/395/427 398/389/427
f 21/398/428 401/396/428 400/394/428
f 21/398/429 381/344/429 382/343/429
f 416/193/430 405/200/430 75/191/430
f 416/193/431 404/192/431 141/198/431
f 406/211/432 403/210/432 126/212/432
f 404/192/433 139/188/433 141/198/433
f 406/211/434 410/443/434 134/201/434
f 410/443/435 412/202/435 134/201/435
f 408/215/436 415/223/436 38/186/436
f 411/165/437 130/209/437 231/163/437
f 407/160/438 228/157/438 89/153/438
f 413/214/439 38/186/439 130/444/439
f 403/210/440 414/445/440 126/212/440
f 232/446/441 144/132/441 233/447/441
f 407/160/442 75/191/442 405/200/442
f 415/223/443 417/448/443 38/186/443
f 417/448/444 414/181/444 38/186/444
f 134/201/445 403/210/445 406/211/445
f 403/187/446 130/444/446 38/186/446
f 174/3/447 175/449/447 140/1/447
f 175/449/448 176/57/448 140/1/448
f 345/5/449 346/441/449 347/6/449
f 313/10/450 312/391/450 273/8/450
f 312/391/451 311/450/451 273/8/451
f 181/97/452 180/96/452 182/451/452
f 359/22/453 441/42/453 440/452/453
f 179/81/454 181/97/454 182/451/454
f 314/453/455 315/368/455 316/33/455
f 316/33/456 166/37/456 314/453/456
f 287/454/457 289/14/457 194/16/457
f 129/27/458 187/145/458 193/147/458
f 194/455/459 282/456/459 242/180/459
f 284/15/460 282/457/460 194/16/460
f 317/19/461 314/453/461 279/20/461
f 426/458/462 427/459/462 421/460/462
f 166/37/463 350/41/463 348/429/463
f 350/41/464 349/431/464 348/429/464
f 357/12/465 437/11/465 351/419/465
f 184/26/466 186/83/466 129/27/466
f 186/83/467 187/145/467 129/27/467
f 185/25/468 129/27/468 183/45/468
f 283/32/469 318/315/469 317/19/469
f 355/417/470 353/35/470 354/34/470
f 353/35/471 166/37/471 316/33/471
f 316/33/472 319/369/472 354/34/472
f 441/42/473 439/24/473 98/461/473
f 361/44/474 360/388/474 321/387/474
f 321/387/475 322/390/475 361/44/475
f 322/390/476 320/43/476 361/44/476
f 188/46/477 362/462/477 345/5/477
f 188/46/478 138/7/478 190/47/478
f 177/4/479 140/1/479 196/49/479
f 196/49/480 140/1/480 198/51/480
f 257/463/481 254/17/481 39/245/481
f 286/287/482 242/180/482 277/464/482
f 277/319/483 282/457/483 278/307/483
f 273/8/484 290/465/484 149/9/484
f 275/332/485 288/466/485 286/287/485
f 363/54/486 361/44/486 149/9/486
f 199/56/487 198/51/487 140/1/487
f 200/30/488 201/55/488 140/1/488
f 365/442/489 364/53/489 347/6/489
f 191/58/490 190/47/490 138/7/490
f 191/58/491 176/57/491 175/449/491
f 175/449/492 34/59/492 191/58/492
f 368/63/493 137/60/493 143/61/493
f 143/61/494 366/68/494 367/62/494
f 34/59/495 175/449/495 174/3/495
f 178/13/496 357/12/496 370/80/496
f 171/84/497 115/94/497 204/85/497
f 170/82/498 171/84/498 205/86/498
f 208/150/499 207/146/499 206/95/499
f 207/146/500 187/145/500 206/95/500
f 187/145/501 186/83/501 206/95/501
f 186/83/502 170/82/502 206/95/502
f 183/45/503 182/451/503 180/96/503
f 180/96/504 133/93/504 185/25/504
f 133/93/505 170/82/505 185/25/505
f 133/93/506 180/96/506 181/97/506
f 371/418/507 372/98/507 370/80/507
f 372/98/508 169/90/508 179/81/508
f 169/90/509 181/97/509 179/81/509
f 374/100/510 127/91/510 372/98/510
f 127/91/511 169/90/511 372/98/511
f 209/105/512 210/151/512 115/94/512
f 210/151/513 204/85/513 115/94/513
f 115/94/514 163/76/514 211/106/514
f 127/91/515 374/100/515 376/107/515
f 213/129/516 212/110/516 152/70/516
f 212/467/517 203/77/517 163/76/517
f 158/101/518 127/91/518 375/108/518
f 378/407/519 379/409/519 158/79/519
f 379/409/520 369/67/520 143/61/520
f 158/79/521 379/409/521 143/61/521
f 214/113/522 215/468/522 152/70/522
f 215/468/523 213/129/523 152/70/523
f 217/50/524 216/168/524 214/113/524
f 217/50/525 148/64/525 177/4/525
f 148/64/526 174/3/526 173/2/526
f 177/4/527 148/64/527 173/2/527
f 190/47/528 191/58/528 137/60/528
f 362/462/529 188/46/529 380/440/529
f 188/46/530 189/48/530 137/60/530
f 380/440/531 188/46/531 368/63/531
f 213/129/532 215/468/532 136/130/532
f 195/28/533 156/154/533 220/135/533
f 223/137/534 222/199/534 221/138/534
f 221/138/535 159/152/535 224/136/535
f 159/152/536 89/153/536 224/136/536
f 207/146/537 157/149/537 193/147/537
f 208/150/538 161/142/538 157/149/538
f 205/86/539 204/85/539 206/95/539
f 204/85/540 210/151/540 208/150/540
f 206/95/541 204/85/541 208/150/541
f 210/151/542 97/143/542 161/142/542
f 221/138/543 225/195/543 226/155/543
f 226/155/544 156/154/544 159/152/544
f 226/155/545 227/194/545 220/135/545
f 192/156/546 157/149/546 195/28/546
f 157/149/547 156/154/547 195/28/547
f 209/105/548 211/106/548 97/143/548
f 211/106/549 202/75/549 150/134/549
f 202/75/550 203/77/550 150/134/550
f 203/77/551 212/467/551 150/134/551
f 407/160/552 409/164/552 230/161/552
f 231/163/553 230/161/553 409/164/553
f 215/468/554 214/113/554 136/130/554
f 214/113/555 216/168/555 136/130/555
f 236/170/556 237/222/556 128/120/556
f 237/222/557 235/172/557 128/120/557
f 235/172/558 131/125/558 128/120/558
f 235/172/559 239/469/559 234/167/559
f 138/7/560 418/470/560 449/471/560
f 196/49/561 197/52/561 124/122/561
f 124/122/562 216/168/562 196/49/562
f 197/52/563 198/51/563 124/122/563
f 198/51/564 199/56/564 124/122/564
f 241/29/565 240/173/565 111/118/565
f 111/118/566 118/117/566 241/29/566
f 414/181/567 417/448/567 105/182/567
f 233/166/568 234/167/568 113/184/568
f 234/167/569 239/469/569 113/184/569
f 243/190/570 244/261/570 139/188/570
f 244/261/571 245/205/571 139/188/571
f 75/191/572 134/201/572 404/192/572
f 227/194/573 226/155/573 225/195/573
f 225/195/574 221/138/574 222/199/574
f 222/199/162 141/198/162 142/196/162
f 416/193/575 141/198/575 223/137/575
f 141/198/576 222/199/576 223/137/576
f 412/202/577 410/443/577 67/189/577
f 249/203/578 247/260/578 246/208/578
f 246/208/579 83/197/579 249/203/579
f 83/197/580 139/188/580 248/204/580
f 248/204/581 139/188/581 245/205/581
f 246/208/582 251/244/582 252/207/582
f 224/136/583 228/157/583 405/200/583
f 228/157/584 407/160/584 405/200/584
f 67/189/585 410/443/585 406/211/585
f 67/189/586 255/216/586 256/213/586
f 229/162/587 230/161/587 75/191/587
f 230/161/588 231/163/588 75/191/588
f 413/472/589 411/165/589 232/446/589
f 258/217/590 259/241/590 255/216/590
f 255/216/591 67/189/591 126/212/591
f 126/183/592 105/182/592 260/220/592
f 105/182/593 262/271/593 261/219/593
f 238/171/594 240/173/594 237/222/594
f 240/173/595 241/29/595 237/222/595
f 241/29/596 110/177/596 237/222/596
f 239/469/597 235/172/597 113/184/597
f 235/172/598 237/222/598 113/184/598
f 415/223/599 408/215/599 113/184/599
f 105/182/600 417/448/600 415/223/600
f 264/224/601 265/272/601 105/182/601
f 265/272/602 262/271/602 105/182/602
f 266/226/603 267/233/603 264/224/603
f 264/224/604 87/175/604 268/225/604
f 270/31/605 269/281/605 268/225/605
f 272/227/606 271/228/606 16/178/606
f 271/228/607 270/31/607 16/178/607
f 269/281/608 270/31/608 10/230/608
f 270/31/609 271/228/609 10/230/609
f 267/233/610 266/226/610 10/230/610
f 22/234/611 293/473/611 292/235/611
f 258/217/612 260/218/612 95/268/612
f 260/218/613 261/474/613 95/268/613
f 95/268/614 107/240/614 258/217/614
f 291/236/615 294/475/615 106/242/615
f 294/475/616 295/263/616 106/242/616
f 107/240/617 256/213/617 255/216/617
f 253/246/618 252/207/618 251/244/618
f 251/244/619 120/259/619 39/245/619
f 249/203/620 248/204/620 250/206/620
f 250/206/621 117/256/621 249/203/621
f 251/244/622 246/208/622 247/260/622
f 247/260/622 121/257/622 251/244/622
f 244/261/623 117/256/623 250/206/623
f 244/261/624 243/190/624 117/256/624
f 243/190/625 256/213/625 117/256/625
f 296/262/626 298/320/626 297/476/626
f 297/476/627 114/251/627 296/262/627
f 114/251/628 106/242/628 295/263/628
f 114/251/629 297/476/629 299/264/629
f 300/265/630 112/248/630 42/247/630
f 300/265/631 302/306/631 303/267/631
f 301/266/632 42/247/632 299/264/632
f 95/270/633 261/219/633 262/271/633
f 265/272/634 264/224/634 267/233/634
f 267/233/635 90/232/635 265/272/635
f 306/278/636 307/276/636 86/231/636
f 307/276/637 293/294/637 22/275/637
f 86/231/638 71/229/638 308/277/638
f 309/279/639 308/277/639 71/229/639
f 269/281/640 10/230/640 266/226/640
f 263/221/641 242/180/641 310/280/641
f 310/280/642 71/229/642 272/227/642
f 324/285/643 9/338/643 53/283/643
f 257/463/644 303/267/644 304/305/644
f 288/466/645 5/282/645 286/287/645
f 276/331/646 286/287/646 277/464/646
f 324/285/647 325/393/647 9/338/647
f 325/393/648 326/354/648 9/338/648
f 293/294/649 307/276/649 68/295/649
f 304/305/650 303/267/650 302/306/650
f 302/306/651 102/316/651 278/307/651
f 274/114/652 218/179/652 16/178/652
f 282/457/653 304/305/653 278/307/653
f 327/308/654 100/312/654 329/309/654
f 285/477/655 257/463/655 282/457/655
f 275/317/656 45/311/656 280/313/656
f 327/308/657 330/378/657 331/314/657
f 331/314/658 283/32/658 280/313/658
f 283/32/659 281/21/659 280/313/659
f 281/21/660 279/20/660 280/313/660
f 280/313/661 100/312/661 327/308/661
f 102/316/662 45/311/662 275/317/662
f 277/319/663 102/316/663 276/318/663
f 300/265/664 301/266/664 302/306/664
f 301/266/665 305/269/665 102/316/665
f 305/269/666 101/304/666 102/316/666
f 299/264/667 297/476/667 298/320/667
f 298/320/668 28/302/668 101/304/668
f 101/304/669 305/269/669 298/320/669
f 334/381/670 335/380/670 333/322/670
f 335/380/671 329/309/671 333/322/671
f 329/309/672 100/312/672 332/321/672
f 100/312/673 92/300/673 332/321/673
f 219/18/674 227/194/674 254/17/674
f 257/463/675 304/305/675 282/457/675
f 92/300/676 76/289/676 336/323/676
f 296/262/677 295/263/677 28/302/677
f 295/263/678 294/475/678 88/298/678
f 294/475/679 291/236/679 88/298/679
f 291/236/680 292/235/680 88/298/680
f 76/289/681 337/328/681 338/326/681
f 76/289/682 326/288/682 339/327/682
f 273/8/683 311/450/683 340/334/683
f 340/334/684 66/329/684 273/8/684
f 49/284/685 309/279/685 5/282/685
f 254/17/686 142/196/686 252/207/686
f 306/278/687 308/277/687 309/279/687
f 68/295/688 307/276/688 306/278/688
f 342/333/689 343/336/689 66/329/689
f 342/333/690 66/329/690 340/334/690
f 343/336/691 344/392/691 53/283/691
f 344/392/692 323/286/692 53/283/692
f 381/344/693 383/349/693 4/342/693
f 4/342/694 33/340/694 382/343/694
f 339/327/695 326/288/695 64/359/695
f 326/354/696 325/393/696 43/355/696
f 385/478/697 386/438/697 62/384/697
f 62/356/698 4/342/698 384/348/698
f 328/310/699 329/309/699 335/380/699
f 335/380/700 74/366/700 328/310/700
f 315/368/701 84/374/701 319/369/701
f 387/370/702 388/433/702 389/371/702
f 389/371/703 391/432/703 390/375/703
f 390/375/704 84/374/704 78/372/704
f 392/377/705 354/34/705 390/375/705
f 354/34/706 319/369/706 390/375/706
f 319/369/707 84/374/707 390/375/707
f 318/315/708 331/314/708 317/19/708
f 331/314/709 330/378/709 82/367/709
f 315/368/710 331/314/710 82/367/710
f 82/367/711 84/374/711 315/368/711
f 315/368/712 314/453/712 317/19/712
f 328/310/713 82/367/713 330/378/713
f 78/372/714 69/362/714 394/379/714
f 338/326/715 64/359/715 18/363/715
f 18/363/716 74/366/716 333/322/716
f 333/322/717 332/321/717 18/363/717
f 332/321/718 336/323/718 18/363/718
f 386/438/719 396/385/719 62/384/719
f 396/385/720 395/386/720 69/362/720
f 395/386/721 397/415/721 394/379/721
f 398/389/722 399/395/722 321/387/722
f 399/395/723 40/347/723 321/387/723
f 40/347/724 47/346/724 322/390/724
f 47/346/725 312/391/725 313/10/725
f 47/346/726 313/10/726 320/43/726
f 340/334/727 311/450/727 312/391/727
f 312/391/728 47/346/728 341/335/728
f 41/345/729 342/333/729 341/335/729
f 344/392/730 343/336/730 342/333/730
f 324/285/731 323/286/731 43/355/731
f 323/286/732 344/392/732 43/355/732
f 344/392/733 41/345/733 43/355/733
f 400/394/734 401/396/734 40/347/734
f 402/397/735 382/343/735 33/340/735
f 33/340/736 40/347/736 401/396/736
f 35/437/737 386/438/737 385/478/737
f 46/439/738 6/408/738 378/407/738
f 397/415/739 48/434/739 54/416/739
f 54/416/740 388/433/740 394/379/740
f 388/433/741 387/370/741 394/379/741
f 393/376/742 57/428/742 349/431/742
f 349/431/743 350/41/743 393/376/743
f 350/41/744 356/36/744 353/35/744
f 393/376/745 350/41/745 353/35/745
f 353/35/746 355/417/746 393/376/746
f 370/80/747 357/12/747 351/419/747
f 358/23/748 420/479/748 439/24/748
f 98/461/749 179/81/749 441/42/749
f 351/419/750 352/430/750 371/418/750
f 352/430/751 59/427/751 371/418/751
f 373/99/752 372/98/752 371/418/752
f 371/418/753 59/427/753 373/99/753
f 348/429/754 57/428/754 59/427/754
f 390/375/755 391/432/755 393/376/755
f 391/432/756 54/416/756 57/428/756
f 391/432/757 389/371/757 388/433/757
f 377/111/758 375/108/758 46/413/758
f 375/108/759 376/107/759 50/422/759
f 376/107/760 374/100/760 373/99/760
f 48/434/761 397/415/761 395/386/761
f 35/437/762 48/434/762 396/385/762
f 383/349/763 381/344/763 2/401/763
f 2/401/764 385/357/764 384/348/764
f 369/67/765 379/409/765 6/408/765
f 6/408/766 30/404/766 366/68/766
f 30/404/767 367/62/767 366/68/767
f 368/63/768 367/62/768 30/404/768
f 30/404/769 27/403/769 380/440/769
f 362/462/770 380/440/770 345/5/770
f 380/440/771 27/403/771 345/5/771
f 27/403/772 365/442/772 347/6/772
f 365/442/773 27/403/773 19/399/773
f 19/399/774 363/54/774 365/442/774
f 398/389/775 360/388/775 361/44/775
f 361/44/776 363/54/776 398/389/776
f 19/399/777 400/394/777 399/395/777
f 400/394/778 19/399/778 21/398/778
f 21/398/779 402/397/779 401/396/779
f 382/343/780 402/397/780 21/398/780
f 21/398/781 2/401/781 381/344/781
f 404/192/782 412/202/782 139/188/782
f 411/165/783 413/472/783 130/209/783
f 144/132/784 409/164/784 89/153/784
f 409/164/785 407/160/785 89/153/785
f 413/214/786 408/215/786 38/186/786
f 232/446/787 411/165/787 144/132/787
f 411/165/788 409/164/788 144/132/788
f 144/123/789 131/125/789 233/166/789
f 407/160/790 229/162/790 75/191/790
f 359/22/791 440/452/791 183/45/791
f 426/458/792 421/460/792 424/480/792
f 140/1/793 176/57/793 453/481/793
f 274/114/794 442/116/794 194/455/794
f 194/16/795 443/482/795 287/454/795
f 441/42/796 179/81/796 440/452/796
f 419/39/797 433/483/797 437/40/797
f 279/20/798 438/484/798 275/317/798
f 422/485/799 431/486/799 290/465/799
f 254/17/800 285/477/800 284/15/800
f 284/15/801 289/14/801 195/28/801
f 270/31/802 12/174/802 110/177/802
f 241/29/803 118/117/803 200/30/803
f 270/31/804 110/177/804 241/29/804
f 289/14/805 287/454/805 192/156/805
f 286/287/806 5/282/806 309/279/806
f 270/31/807 268/225/807 87/175/807
f 242/180/808 218/179/808 274/114/808
f 274/114/809 194/455/809 242/180/809
f 284/15/810 285/477/810 282/457/810
f 257/463/811 285/477/811 254/17/811
f 286/287/812 310/280/812 242/180/812
f 277/464/813 242/180/813 282/456/813
f 257/463/814 39/245/814 303/267/814
f 270/31/815 200/30/815 16/178/815
f 200/30/816 274/114/816 16/178/816
f 219/18/817 220/135/817 227/194/817
f 49/284/818 68/295/818 309/279/818
f 253/246/819 254/17/819 252/207/819
f 254/17/820 227/194/820 142/196/820
f 142/196/821 83/197/821 252/207/821
f 193/147/822 192/156/822 287/454/822
f 179/81/823 98/461/823 178/13/823
f 193/147/824 287/454/824 129/27/824
f 287/454/825 443/482/825 358/23/825
f 287/454/826 359/22/826 129/27/826
f 351/419/827 437/11/827 352/430/827
f 138/7/828 449/471/828 453/481/828
f 418/470/829 450/487/829 451/488/829
f 449/471/830 445/489/830 140/1/830
f 418/470/831 452/490/831 450/487/831
f 419/39/832 420/491/832 448/492/832
f 426/458/833 424/480/833 435/493/833
f 275/317/834 280/313/834 279/20/834
f 314/453/835 438/484/835 279/20/835
f 66/329/836 5/282/836 288/466/836
f 428/494/837 422/485/837 429/495/837
f 418/470/838 138/7/838 364/53/838
f 364/53/839 149/9/839 290/465/839
f 418/470/840 364/53/840 431/486/840
f 419/39/841 427/459/841 426/458/841
f 423/496/842 421/460/842 428/494/842
f 422/485/843 432/330/843 429/495/843
f 314/453/844 434/497/844 436/498/844
f 422/485/845 427/459/845 430/499/845
f 425/500/846 434/497/846 314/453/846
f 166/37/847 425/500/847 314/453/847
f 424/480/848 421/460/848 423/496/848
f 428/494/849 66/329/849 288/466/849
f 431/486/850 364/53/850 290/465/850
f 431/486/851 430/499/851 418/470/851
f 430/499/852 427/459/852 418/470/852
f 428/494/853 288/466/853 423/496/853
f 273/8/854 432/330/854 290/465/854
f 429/495/855 432/330/855 66/329/855
f 433/501/856 435/502/856 425/500/856
f 437/11/857 425/500/857 166/37/857
f 275/332/798 438/503/798 288/466/798
f 436/504/844 423/496/844 288/466/844
f 438/503/835 436/504/835 288/466/835
f 434/505/858 424/480/858 423/496/858
f 178/13/859 98/461/859 437/11/859
f 440/452/860 182/451/860 183/45/860
f 420/479/861 98/461/861 439/24/861
f 352/430/862 166/37/862 348/429/862
f 179/81/863 182/451/863 440/452/863
f 422/485/864 430/499/864 431/486/864
f 287/454/865 358/23/865 359/22/865
f 433/483/866 419/39/866 435/493/866
f 419/39/867 426/458/867 435/493/867
f 314/453/835 436/498/835 438/484/835
f 428/494/868 421/460/868 422/485/868
f 419/39/869 418/470/869 427/459/869
f 422/485/870 290/465/870 432/330/870
f 422/485/871 421/460/871 427/459/871
f 425/500/872 435/502/872 434/497/872
f 428/494/873 429/495/873 66/329/873
f 437/11/874 433/501/874 425/500/874
f 436/504/844 434/505/844 423/496/844
f 434/505/875 435/493/875 424/480/875
f 420/491/876 419/39/876 98/38/876
f 352/430/877 437/11/877 166/37/877
f 358/23/878 443/482/878 420/479/878
f 445/489/830 200/30/830 140/1/830
f 442/116/879 452/490/879 448/492/879
f 444/506/880 447/115/880 274/114/880
f 443/482/881 446/507/881 420/479/881
f 442/116/882 446/508/882 194/455/882
f 444/506/883 200/30/883 445/489/883
f 453/481/884 176/57/884 138/7/884
f 451/488/885 449/471/885 418/470/885
f 450/487/886 447/115/886 444/506/886
f 448/492/887 452/490/887 419/39/887
f 448/492/888 446/508/888 442/116/888
f 453/481/889 449/471/889 140/1/889
f 450/487/890 445/489/890 451/488/890
f 194/16/891 446/507/891 443/482/891
f 449/471/892 451/488/892 445/489/892
f 418/470/893 419/39/893 452/490/893
f 442/116/894 447/115/894 452/490/894
f 444/506/895 274/114/895 200/30/895
f 450/487/896 452/490/896 447/115/896
f 448/492/897 420/491/897 446/508/897
f 450/487/898 444/506/898 445/489/898
