# Blender 5.2.1 LTS
# www.blender.org
mtllib landStart.mtl
o Ico_球體.006
v -646.899963 -147.145477 19.697815
v -713.182617 -67.125816 20.195330
v -772.122498 -30.819654 32.042980
v -755.446228 -28.250854 -36.895309
v -764.448120 -27.886692 70.120621
v -699.981628 -23.730461 -102.373375
v -555.620178 -85.235497 -56.062347
v -646.099792 -23.782139 -122.883583
v -556.930786 -120.572533 -6.061064
v -744.599548 57.877396 85.563660
v -767.740356 57.259659 -13.939693
v -775.069458 56.826408 54.543976
v -719.908813 106.890335 57.415276
v -566.579346 -89.038628 62.988216
v -596.341614 -19.519281 -105.167252
v -772.167847 -32.583569 52.783852
v -706.811523 104.103767 -63.866425
v -643.085327 98.852715 -106.155548
v -743.974609 -28.725906 83.342224
v -780.680786 -15.535544 42.452038
v -766.244751 -32.401886 2.944515
v -767.807129 -6.316095 74.798088
v -488.815063 -40.257935 -9.384594
v -604.638306 91.648422 -76.661911
v -730.049744 -30.115084 -65.236420
v -706.842041 -15.767772 97.359962
v -727.023010 1.730801 -78.186508
v -651.847046 -65.920387 -98.796432
v -518.350281 -29.030502 64.842728
v -765.072937 65.091591 72.246437
v -700.226440 -6.190086 -107.451347
v -682.963501 -67.914917 -83.178009
v -566.935242 3.986118 -95.322433
v -748.070007 94.868271 61.231773
v -673.156982 -24.567158 -118.751289
v -773.058533 -15.568641 8.740810
v -758.743225 -4.791963 -43.385410
v -682.763733 -84.476532 -41.831764
v -632.514832 -75.963844 -69.483200
v -619.939941 -41.820648 -101.909782
v -589.897034 -74.083427 -59.326290
v -697.301086 58.410217 -44.783436
v -754.334473 68.831635 -39.542698
v -549.750366 -29.166637 95.493408
v -487.475708 0.296822 20.873146
v -750.125488 96.694229 -4.241535
v -744.509644 106.372429 7.972759
v -639.372742 -25.754057 126.092316
v -643.796387 -6.735535 -126.417694
v -719.360718 48.460899 -85.458481
v -573.196289 -60.998589 -82.068459
v -704.538635 59.733971 -101.336044
v -560.521057 -106.684395 -25.345291
v -648.012634 100.939583 -119.992859
v -541.674377 -20.585323 -80.271255
v -688.746033 -30.245274 110.079483
v -701.418945 80.619301 -103.557449
v -683.495605 106.745804 79.845238
v -659.779297 106.276817 -95.655045
v -715.596680 92.467461 -76.943031
v -553.451172 -3.851452 -95.027695
v -529.929321 -97.052139 -7.695061
v -523.328918 -56.514885 -41.701729
v -519.583740 -1.504028 -57.263069
v -558.630920 111.845612 66.335655
v -548.059143 -104.514320 15.912285
v -522.895874 -58.591331 29.174419
v -515.245605 52.376709 -41.545620
v -665.040771 61.450287 124.087021
v -524.812744 62.005699 -29.283531
v -563.151428 82.143951 -76.770630
v -584.161377 -77.876389 75.368820
v -702.721436 70.667854 99.492264
v -481.507080 -17.968929 12.077980
v -661.764709 -2.173503 29.493116
v -520.590576 -39.068501 48.353897
v -547.245361 -66.877357 70.883446
v -670.419067 -127.364227 25.202690
v -529.418335 -31.085327 82.334953
v -634.841614 -128.798721 39.496780
v -674.911133 -99.445442 54.827961
v -523.402222 4.092249 -15.877392
v -618.818481 -97.238144 65.194641
v -509.928162 -8.627299 59.177631
v -653.391907 -67.212990 103.765572
v -643.606262 -126.408249 -4.151803
v -551.717712 -7.838636 98.488075
v -608.541992 -31.809319 110.255463
v -538.915588 1.351919 84.714813
v -665.721191 -32.642036 124.620178
v -622.389404 0.377696 124.775162
v -594.403687 -4.421879 110.339149
v -666.799438 -5.111606 126.627838
v -622.784058 65.838051 117.217972
v -660.485291 -5.696919 64.281822
v -637.854431 120.052101 91.750320
v -622.796814 6.827200 13.818420
v -645.622864 96.621048 107.428947
v -612.934387 -83.791061 72.782867
v -634.040649 -89.150314 82.536964
v -644.697632 -98.111626 79.119720
v -650.053406 -106.388977 68.886383
v -646.168640 112.374138 83.299347
v -614.018127 106.414711 84.421272
v -660.329895 -91.369011 79.945854
v -586.369446 -84.955582 35.032612
v -584.851013 83.136993 70.652840
v -611.210205 -72.686554 78.204140
v -607.123962 -64.268150 85.465439
v -597.513123 -100.743248 40.172646
v -575.287415 3.060825 99.899246
v -606.404602 90.660095 103.114731
v -611.379456 100.871819 93.134804
v -597.649902 83.835060 108.300728
v -575.728394 41.973549 94.438988
v -587.212769 -17.369776 103.839058
v -607.317139 -55.375534 95.541878
v -582.112244 -41.504196 96.369324
v -584.630066 -80.351555 39.717796
v -589.317444 -2.103354 70.220398
v -619.405518 15.680832 -68.324127
v -602.737488 -79.722221 -28.607445
v -589.701782 -99.498863 24.789509
v -590.828125 -114.018837 10.720985
v -594.237366 -107.765442 -4.191542
v -518.217285 2.955629 37.243526
v -487.586761 -2.567353 39.846916
v -483.561218 -7.841529 32.190231
v -504.324036 -17.990431 31.339928
v -517.602051 -31.432728 39.601509
v -521.151672 -43.160374 39.659473
v -546.130005 -83.043831 38.452446
v -577.416138 -90.384026 44.986385
v -567.973633 9.242468 -53.125023
v -504.837524 -8.186214 -34.890236
v -518.450195 -17.998102 -52.004650
v -525.298584 -28.133312 -59.642784
v -539.146484 -62.771904 -60.865005
v -549.618530 -79.262863 -62.473953
v -572.815735 -94.954063 -45.498676
v -612.705872 -68.974243 -42.043671
v -622.008423 -83.557434 -33.757629
v -652.709167 14.482445 -13.316257
v -635.881775 -102.551544 -31.713345
v -650.145752 -107.153709 -33.180984
v -655.894348 -91.770821 -51.909084
v -666.892517 -99.732422 -32.447189
v -609.879761 -12.333805 -111.876610
v -600.520630 -4.113552 -111.990425
v -613.199463 1.665550 -110.578529
v -602.632935 -55.936829 -71.633621
v -715.397705 7.977003 17.049549
v -721.061462 105.652847 -7.990711
v -710.643311 -42.874649 -75.021423
v -686.028381 99.350685 91.533852
v -705.853394 96.112465 85.314293
v -695.115906 64.971634 105.914932
v -714.827026 82.834518 89.913368
v -724.589233 -36.400852 83.389557
v -762.953064 -42.222137 23.370979
v -776.662231 -14.202805 24.711967
v -767.614929 71.724434 21.984886
v -773.909119 38.377022 25.255302
v -483.494690 -13.784208 -16.371365
v -497.821869 0.641438 -25.871441
v -499.559570 -34.416245 14.085907
v -505.225891 -64.869118 -7.881367
v -636.298584 86.271896 71.981384
v -586.420776 74.553215 100.505424
v -658.141174 90.828850 69.126678
v -718.965149 79.669296 1.988697
v -707.344971 81.444305 -36.475876
v -651.686462 59.343010 70.746048
v -618.019104 74.149651 80.653076
v -686.406799 90.542603 52.863529
v -711.129700 38.813454 32.081856
v -678.855164 64.409706 68.206833
v -714.260498 63.261505 38.019684
v -710.441650 53.177643 -30.828293
v -626.909790 48.476418 75.769646
v -724.202759 46.818947 -1.903049
v -579.618225 106.333206 77.680931
v -635.510132 91.845802 -106.307861
v -631.951233 85.408669 -126.649261
v -684.016357 85.621964 -57.751232
v -643.389160 80.691406 -124.493912
v -672.127502 88.514381 -123.806229
v -633.709595 52.840950 -87.948158
v -657.122192 75.024010 -82.184372
v -658.249207 14.518501 -129.786774
v -631.967896 9.342688 -122.047897
v -669.279236 53.936806 -65.170708
v -704.236023 95.284851 -52.110527
v -680.350464 104.227486 -92.204491
v -691.388977 99.495003 -95.131905
v -737.846802 11.976925 -67.790985
v -715.643188 7.253874 -26.857668
v -723.143188 98.744354 -51.082893
v -736.276489 69.236771 -62.071198
v -689.720825 9.698999 -117.806046
v -702.455444 68.517593 -36.707062
v -701.913147 13.461903 -106.564697
v -691.928711 86.960075 -108.662933
v -622.022644 92.529594 -99.824890
v -497.335938 -0.245494 -16.502441
v -497.854797 -0.715928 38.974201
v -513.526062 53.796753 45.552277
v -531.497620 61.295692 53.956112
v -566.280640 80.283859 -54.622429
v -541.028870 64.807388 -67.713112
v -540.393188 38.060112 -74.723061
v -513.796631 19.079988 -52.160130
v -551.714661 84.050560 -57.398003
v -528.835144 28.288591 -72.455383
v -510.095367 62.935898 59.409908
v -487.942291 -2.663789 40.154537
v -566.957458 79.601112 88.110069
v -577.575073 89.526665 92.504623
v -526.388428 67.624390 72.133560
v -489.488220 -8.018162 38.256702
v -557.438843 86.468735 82.046448
v -540.002502 74.726784 78.574493
v -675.275024 8.938057 -60.387665
v -571.123047 -4.209229 -0.981638
v -646.034546 9.054802 -49.949463
v -545.464722 -1.985329 11.903164
v -694.680664 32.233871 -48.322975
v -624.286926 12.655741 -32.746876
v -594.935730 4.824741 -18.719776
v -607.116577 99.349632 82.412781
v -598.226013 95.099152 79.931931
v -626.965088 80.920944 -117.301620
v -589.509705 88.490067 -104.949425
v -573.930908 82.943459 -89.100029
v -586.772461 82.406036 -94.831802
v -609.289978 82.967178 -107.184692
v -620.549866 83.047523 -113.838028
vn -0.3217 -0.5888 0.7415
vn 0.4584 -0.5804 0.6730
vn -0.6032 -0.5588 -0.5692
vn 0.9042 -0.3761 -0.2022
vn -0.0991 0.9927 -0.0694
vn -0.3893 0.3464 -0.8535
vn -0.1832 0.9774 0.1057
vn 0.0739 0.1629 -0.9839
vn -0.0761 0.9346 0.3475
vn -0.2052 0.9772 0.0549
vn 0.0870 0.9221 0.3772
vn -0.1108 0.9937 -0.0157
vn 0.1642 0.9820 0.0934
vn 0.6664 0.2502 -0.7024
vn 0.1474 0.6556 -0.7406
vn 0.3156 -0.6129 -0.7244
vn 0.5328 -0.7196 0.4453
vn -0.3780 -0.8085 -0.4511
vn -0.6698 -0.7298 -0.1369
vn -0.6321 -0.4981 -0.5936
vn -0.2839 -0.7189 0.6345
vn -0.4867 -0.7089 0.5105
vn 0.2966 -0.7132 0.6351
vn 0.2749 -0.4989 0.8219
vn 0.4106 -0.2223 0.8843
vn -0.5383 -0.0822 0.8388
vn 0.0385 0.0253 0.9989
vn -0.5863 -0.0213 0.8098
vn 0.1834 0.7313 0.6569
vn 0.1107 0.3748 0.9205
vn -0.3641 0.4397 0.8211
vn -0.2591 0.5950 0.7608
vn -0.3040 0.4349 0.8476
vn -0.3799 0.5589 0.7371
vn -0.3555 0.8227 0.4435
vn -0.3325 0.5014 0.7988
vn -0.6401 0.0116 0.7682
vn -0.5901 0.0002 0.8073
vn -0.5126 0.0463 0.8574
vn 0.1570 0.0335 0.9870
vn 0.0272 0.1148 0.9930
vn 0.4356 0.1299 0.8907
vn 0.6996 0.1453 -0.6996
vn -0.0363 -0.0741 0.9966
vn 0.4700 0.1040 0.8765
vn 0.4176 -0.2183 0.8820
vn 0.4122 -0.2155 0.8852
vn -0.7284 -0.5413 0.4201
vn -0.4796 -0.5723 0.6652
vn 0.0807 -0.4936 0.8659
vn 0.3031 -0.5293 0.7925
vn 0.3000 -0.7024 0.6455
vn 0.4194 -0.4500 0.7884
vn -0.6116 -0.6596 0.4369
vn -0.7702 -0.3218 0.5507
vn 0.7536 -0.5094 -0.4156
vn 0.2524 -0.5126 0.8207
vn 0.9292 -0.3581 0.0917
vn 0.5375 -0.0684 0.8405
vn 0.4000 -0.1928 0.8960
vn 0.4604 0.0808 0.8840
vn 0.4708 0.4803 0.7401
vn 0.6685 0.7024 0.2444
vn 0.6078 0.3306 0.7220
vn -0.1777 0.0143 -0.9840
vn 0.3279 0.6163 0.7160
vn 0.6609 -0.0009 0.7505
vn 0.2093 -0.2485 0.9458
vn 0.0769 -0.1317 0.9883
vn 0.6805 0.1322 0.7207
vn 0.6787 0.1518 0.7185
vn 0.8378 -0.2053 0.5060
vn 0.1633 0.9754 0.1482
vn 0.3971 -0.8428 0.3634
vn 0.9546 -0.2886 0.0742
vn 0.0813 -0.5018 0.8612
vn 0.2486 -0.4948 0.8327
vn 0.2215 -0.5226 0.8233
vn 0.4489 -0.4673 0.7617
vn 0.7533 -0.5086 0.4169
vn 0.7901 -0.5654 0.2369
vn 0.2908 -0.8523 0.4348
vn 0.9947 -0.1012 -0.0166
vn -0.3628 -0.8873 0.2847
vn 0.5248 -0.6414 -0.5596
vn 0.6423 -0.7188 0.2660
vn 0.1156 -0.8236 0.5552
vn 0.7293 -0.3645 0.5791
vn 0.0968 0.4544 0.8855
vn 0.0926 0.9956 0.0123
vn -0.0397 0.9822 0.1833
vn 0.9002 0.3887 -0.1964
vn 0.6889 0.7225 0.0581
vn 0.8213 -0.0913 -0.5631
vn 0.9362 0.3430 -0.0771
vn 0.7434 -0.3698 0.5573
vn 0.8568 -0.2318 -0.4607
vn -0.5908 -0.5373 0.6019
vn 0.7287 -0.5260 0.4386
vn 0.7465 -0.5265 0.4068
vn 0.7159 -0.5470 0.4340
vn 0.6864 -0.5297 -0.4983
vn 0.5343 -0.5926 -0.6027
vn 0.7051 -0.6293 -0.3269
vn -0.3924 -0.7795 -0.4883
vn -0.1973 -0.7801 -0.5937
vn -0.0002 -0.7316 -0.6817
vn 0.3602 -0.4614 -0.8108
vn 0.2753 -0.3259 -0.9044
vn 0.7514 0.1177 -0.6493
vn 0.7426 0.1862 -0.6433
vn 0.8319 0.1443 0.5358
vn 0.6579 0.6054 -0.4480
vn 0.2222 0.9685 0.1127
vn -0.2620 0.1555 0.9525
vn -0.5114 0.0303 0.8588
vn -0.6216 0.1622 0.7663
vn 0.2597 0.4139 -0.8725
vn 0.4200 0.1119 -0.9006
vn 0.8285 0.2025 -0.5221
vn 0.7450 -0.0615 -0.6643
vn 0.2956 0.4774 -0.8275
vn 0.3240 -0.3082 -0.8944
vn 0.7864 -0.2186 -0.5777
vn 0.4839 -0.3416 -0.8057
vn 0.3948 -0.2689 -0.8785
vn 0.2286 -0.3732 -0.8992
vn -0.5799 -0.7232 -0.3751
vn 0.3190 -0.8458 -0.4276
vn -0.1896 -0.8528 -0.4866
vn -0.6890 -0.6977 -0.1961
vn 0.2403 -0.8587 -0.4527
vn -0.1433 -0.1823 -0.9727
vn 0.4034 0.9150 -0.0056
vn -0.1781 -0.8055 -0.5652
vn -0.0616 0.5560 -0.8289
vn 0.9185 0.2733 -0.2858
vn -0.6819 -0.0255 -0.7310
vn 0.4596 0.4806 0.7469
vn 0.2752 -0.4177 -0.8659
vn 0.5011 -0.2401 -0.8314
vn -0.2891 -0.3385 -0.8955
vn -0.3155 0.1145 -0.9420
vn -0.5107 -0.2457 -0.8239
vn -0.4019 -0.7453 -0.5320
vn 0.6939 -0.6353 -0.3391
vn -0.4418 -0.8313 -0.3373
vn -0.5250 -0.6984 -0.4864
vn 0.4698 -0.6927 -0.5472
vn 0.3016 -0.5038 -0.8095
vn -0.7876 -0.5733 -0.2259
vn -0.3642 -0.8652 -0.3448
vn -0.1188 -0.4805 -0.8689
vn -0.3474 -0.5467 -0.7619
vn -0.4634 -0.4972 -0.7336
vn -0.4391 -0.8353 -0.3308
vn -0.9383 -0.2082 -0.2760
vn -0.8828 0.4368 -0.1728
vn -0.6793 0.5018 -0.5355
vn -0.4926 0.8225 -0.2844
vn -0.5969 0.7394 -0.3115
vn -0.7093 0.5920 -0.3827
vn -0.8600 0.4454 -0.2490
vn -0.8392 0.5420 -0.0436
vn -0.7785 0.0791 -0.6226
vn -0.8971 0.0764 -0.4352
vn -0.9976 0.0657 -0.0230
vn -0.8855 0.1232 -0.4480
vn -0.7844 0.0829 -0.6147
vn -0.7028 -0.2097 -0.6798
vn -0.7247 -0.2765 -0.6312
vn -0.9635 -0.0129 -0.2673
vn -0.9145 -0.2648 -0.3059
vn -0.3963 -0.8684 -0.2980
vn -0.4833 -0.8475 -0.2193
vn -0.5336 -0.8426 -0.0728
vn -0.8836 -0.4664 -0.0416
vn -0.1774 -0.4426 0.8790
vn -0.5316 -0.2577 0.8068
vn -0.9075 -0.3502 -0.2319
vn -0.4854 0.4482 0.7507
vn -0.8146 0.5418 0.2071
vn -0.3457 0.4928 0.7985
vn -0.2434 0.7610 0.6014
vn -0.6037 0.5927 0.5331
vn 0.0158 0.9997 -0.0192
vn 0.0176 0.9997 -0.0192
vn -0.3668 0.9141 0.1729
vn -0.8169 0.5727 0.0691
vn -0.8193 0.5687 0.0726
vn -0.8796 0.0506 0.4731
vn -0.5320 0.0506 0.8452
vn -0.1921 0.0584 0.9796
vn -0.6257 0.0082 0.7800
vn -0.9748 0.0533 -0.2168
vn -0.9788 0.1053 -0.1759
vn -0.3510 -0.0301 0.9359
vn -0.3489 -0.0138 0.9370
vn -0.9324 -0.3185 -0.1710
vn -0.9301 0.0108 0.3671
vn -0.8906 -0.1960 0.4103
vn -0.8639 -0.2315 0.4474
vn -0.2883 -0.8741 0.3910
vn -0.3063 -0.8756 0.3736
vn 0.3780 -0.8108 0.4469
vn 0.6293 -0.6362 0.4464
vn 0.7651 -0.5479 0.3383
vn 0.6715 0.1963 -0.7145
vn 0.9700 -0.2214 -0.1003
vn 0.3659 -0.6781 0.6374
vn 0.2973 -0.8124 0.5016
vn 0.2806 -0.6877 0.6696
vn -0.0061 0.5519 -0.8339
vn 0.9583 0.0839 -0.2732
vn 0.2043 0.9721 0.1151
vn -0.0656 0.9788 0.1939
vn 0.8208 0.4463 -0.3566
vn 0.2080 0.4543 -0.8663
vn 0.1110 0.4304 -0.8958
vn 0.0097 -0.4399 0.8980
vn 0.8178 -0.4319 0.3803
vn 0.8105 -0.4499 0.3751
vn 0.2549 -0.9614 -0.1038
vn 0.7566 -0.5842 -0.2936
vn 0.2915 -0.6934 -0.6590
vn 0.3044 -0.7608 -0.5732
vn -0.6537 -0.7485 -0.1112
vn 0.4330 -0.5792 0.6907
vn 0.5049 -0.6845 0.5258
vn 0.3393 -0.8477 0.4077
vn -0.7717 -0.5171 0.3703
vn -0.7702 -0.3220 0.5506
vn -0.4443 -0.8083 0.3864
vn -0.2575 -0.6810 0.6856
vn -0.0706 -0.2810 0.9571
vn 0.1606 0.4053 0.8999
vn 0.2918 0.4632 0.8368
vn 0.5431 0.7732 0.3274
vn -0.0562 0.7659 -0.6405
vn -0.2813 0.4051 0.8699
vn 0.4475 -0.1922 0.8734
vn -0.0831 0.5332 0.8419
vn 0.4767 0.1071 0.8725
vn 0.5037 -0.7377 0.4496
vn 0.2499 -0.5034 0.8271
vn -0.0112 -0.7005 0.7136
vn 0.1799 0.7310 0.6583
vn -0.1304 0.0119 -0.9914
vn 0.2704 0.4764 0.8366
vn 0.2274 -0.3331 0.9151
vn 0.1106 0.1503 -0.9824
vn 0.6574 -0.4132 0.6302
vn 0.3623 -0.6954 0.6206
vn 0.7446 -0.5868 0.3181
vn 0.8020 -0.4641 0.3760
vn -0.0426 -0.6406 0.7667
vn 0.4655 -0.3682 0.8048
vn 0.1491 -0.9023 0.4045
vn 0.4511 -0.5478 -0.7045
vn 0.7845 0.2712 -0.5577
vn 0.5388 -0.8232 -0.1793
vn -0.1272 -0.6181 -0.7757
vn 0.9255 -0.2788 0.2564
vn -0.4553 0.8839 0.1073
vn -0.4242 0.0835 -0.9017
vn -0.1069 0.9912 -0.0784
vn 0.0695 0.9811 0.1804
vn 0.8472 0.5245 0.0841
vn 0.8219 -0.0764 -0.5645
vn 0.8005 -0.0731 -0.5948
vn -0.7825 -0.2286 0.5792
vn 0.1220 -0.8387 0.5308
vn 0.2996 -0.7035 0.6445
vn 0.7030 -0.5979 -0.3851
vn -0.1860 -0.9206 -0.3435
vn 0.1242 -0.8227 -0.5547
vn 0.7701 0.0419 -0.6366
vn 0.7739 -0.0470 -0.6316
vn 0.7864 -0.2098 -0.5810
vn -0.2384 0.8837 0.4027
vn 0.6398 0.7227 0.2615
vn 0.6571 -0.3697 -0.6569
vn 0.8050 -0.5360 0.2542
vn 0.5042 -0.2392 -0.8298
vn -0.2590 -0.9236 -0.2826
vn 0.3161 -0.5667 -0.7609
vn -0.6284 -0.5007 -0.5954
vn -0.3647 -0.7713 -0.5216
vn -0.6290 -0.5001 -0.5952
vn -0.7456 -0.1949 -0.6372
vn 0.3095 0.3300 0.8918
vn -0.5738 0.1987 0.7945
vn 0.6734 0.7305 -0.1134
vn 0.2084 0.6383 -0.7411
vn 0.3140 -0.3696 -0.8746
vn 0.3650 -0.1674 -0.9158
vn 0.5041 -0.4477 -0.7385
vn 0.3720 -0.8797 -0.2964
vn -0.2157 -0.8954 -0.3896
vn -0.3459 -0.6807 -0.6457
vn 0.0143 0.9996 -0.0241
vn -0.7703 0.0843 -0.6320
vn -0.9731 0.0533 -0.2241
vn -0.6091 -0.7646 -0.2110
vn -0.2836 0.8370 0.4681
vn -0.2842 0.8375 0.4667
vn -0.9413 0.2040 0.2690
vn -0.8199 -0.5563 -0.1354
vn -0.9257 -0.3325 -0.1804
vn -0.3443 -0.8673 0.3595
vn -0.3232 -0.7237 0.6098
vn 0.5497 -0.5239 0.6506
vn 0.9406 -0.3386 0.0258
vn 0.8475 -0.1293 -0.5148
vn 0.6930 0.7025 0.1618
vn 0.4714 -0.3413 -0.8132
vn 0.1243 -0.0255 -0.9919
vn 0.6332 -0.2475 -0.7333
vn -0.7152 -0.0608 -0.6963
vn 0.7259 0.6802 0.1018
vn 0.3398 -0.1516 -0.9282
vn 0.6536 0.2566 -0.7120
vn 0.7438 -0.5663 -0.3550
vn -0.5150 0.3529 -0.7812
vn 0.2260 0.0660 -0.9719
vn 0.5268 0.0201 0.8498
vn 0.1082 0.0838 -0.9906
vn -0.2600 0.2434 -0.9344
vn 0.9066 -0.0667 0.4167
vn 0.6308 0.2072 -0.7478
vn 0.6685 0.2553 -0.6985
vn 0.0380 0.2251 -0.9736
vn -0.3581 0.8525 -0.3808
vn -0.1350 0.7296 -0.6705
vn 0.5148 0.3387 0.7876
vn 0.2714 -0.0582 -0.9607
vn -0.6095 0.0760 -0.7892
vn 0.4820 -0.1186 -0.8681
vn 0.9378 0.1878 0.2920
vn 0.7026 0.3312 0.6298
vn 0.8368 0.5100 0.1993
vn 0.2905 0.0460 -0.9558
vn 0.4683 0.0258 -0.8832
vn -0.2986 -0.3746 -0.8778
vn 0.2885 0.8068 -0.5156
vn 0.4537 0.0477 -0.8899
vn 0.5822 -0.0514 0.8114
vn -0.3922 0.6568 -0.6440
vn 0.9568 -0.0475 0.2869
vn 0.0868 -0.0334 -0.9957
vn 0.9021 -0.1897 0.3875
vn 0.2399 0.1006 -0.9656
vn 0.9732 -0.1329 -0.1876
vn -0.3366 0.2871 -0.8968
vn 0.9762 0.2169 -0.0090
vn -0.3788 0.8486 -0.3693
vn -0.1823 0.7397 -0.6478
vn -0.7423 0.0335 -0.6692
vn 0.6060 0.3578 0.7105
vn -0.0020 0.0802 -0.9968
vn -0.6646 0.0690 -0.7440
vn 0.3776 0.1616 0.9117
vn -0.3569 0.0086 -0.9341
vn 0.5953 0.0899 0.7985
vn 0.7465 -0.1393 0.6507
vn -0.0678 0.9816 0.1785
vn -0.2424 0.7499 0.6156
vn -0.6921 0.0012 -0.7218
vn -0.7800 0.1825 -0.5986
vn -0.7354 0.0152 -0.6775
vn -0.2967 0.8037 -0.5158
vn 0.7323 -0.0241 0.6805
vn -0.5238 0.7801 -0.3422
vn -0.8654 0.0766 -0.4951
vn -0.1779 0.7834 -0.5955
vn -0.7997 0.4868 -0.3515
vn -0.7492 -0.1872 -0.6354
vn 0.4701 0.6132 0.6348
vn -0.4952 0.0425 -0.8677
vn -0.7283 0.0360 -0.6843
vn 0.9248 0.3470 0.1559
vn 0.9348 0.1523 0.3207
vn 0.6711 0.0254 0.7409
vn 0.4700 0.6124 0.6356
vn -0.1685 -0.7212 -0.6719
vn -0.6507 0.5698 -0.5019
vn -0.7033 0.5658 -0.4303
vn 0.4037 0.1365 0.9046
vn 0.2417 0.7453 0.6213
vn -0.7061 0.1923 -0.6815
vn -0.7291 -0.0806 -0.6797
vn -0.3120 0.9056 -0.2874
vn -0.8033 -0.0421 -0.5941
vn 0.4634 0.5467 0.6974
vn -0.2351 0.1298 -0.9633
vn 0.6977 0.1610 0.6981
vn 0.3076 0.8028 -0.5109
vn 0.8760 -0.0293 -0.4814
vn -0.7314 0.3840 0.5635
vn 0.5736 -0.3148 -0.7562
vn 0.7645 -0.4497 0.4619
vn 0.7054 -0.5010 -0.5014
vn 0.4233 -0.0297 0.9055
vn 0.6161 0.0559 0.7857
vn 0.4282 -0.7002 -0.5713
vn 0.7225 -0.2626 -0.6395
vn 0.2374 -0.6303 -0.7391
vn -0.6005 -0.6208 -0.5040
vn 0.4837 0.7477 0.4549
vn 0.7583 -0.4786 0.4427
vn 0.0454 0.9893 -0.1383
vn 0.6088 0.2025 0.7670
vn 0.1271 0.2998 -0.9455
vn 0.9493 0.3138 -0.0195
vn -0.3529 0.1825 -0.9177
vn 0.1626 0.9850 -0.0572
vn -0.4913 0.0301 0.8705
vn -0.2416 0.9692 0.0473
vn 0.7634 -0.1421 -0.6301
vn 0.5169 0.2285 -0.8250
vn 0.8908 0.1727 -0.4202
vn -0.0694 0.7517 0.6558
vn 0.5712 0.8002 -0.1827
vn 0.5619 0.5143 -0.6479
vn 0.4240 0.0532 0.9041
vn 0.1541 0.5253 0.8368
vn -0.3527 0.5945 0.7226
vn 0.8852 0.4620 0.0538
vn 0.3872 0.0826 0.9183
vn 0.6545 -0.0009 0.7561
vn 0.0123 0.9433 -0.3319
vn -0.0635 0.9969 -0.0457
vn 0.2063 0.9722 0.1110
vn -0.0849 0.9702 0.2269
vn -0.2159 0.9755 0.0419
vn 0.7269 -0.0201 0.6865
vn 0.1441 0.9825 0.1184
vn 0.3191 0.9462 0.0536
vn 0.6304 0.1287 0.7655
vn 0.2153 0.6606 0.7192
vn 0.6208 0.0314 0.7834
vn -0.1997 0.9516 0.2334
vn 0.3805 0.2430 -0.8923
vn 0.1496 0.9864 0.0674
vn 0.1705 0.9516 0.2558
vn 0.1721 -0.3362 0.9259
vn 0.3081 0.1356 0.9416
vn 0.7908 0.4024 -0.4612
vn 0.7451 -0.0445 -0.6655
vn 0.4412 0.1870 -0.8777
vn 0.7669 0.5768 -0.2815
vn 0.2774 0.8805 -0.3845
vn 0.2845 0.1421 0.9481
vn 0.0803 0.8229 -0.5626
vn -0.0417 0.9872 -0.1539
vn 0.4015 0.1073 -0.9096
vn -0.2705 0.5991 0.7536
vn 0.4841 0.7422 0.4634
vn -0.1491 0.1329 -0.9798
vn 0.2141 0.8193 -0.5319
vn 0.8997 -0.2211 -0.3764
vn 0.7449 0.6624 -0.0793
vn 0.2211 0.9665 -0.1306
vn 0.1021 0.0366 -0.9941
vn 0.5087 0.0171 -0.8608
vn 0.1194 0.9274 -0.3544
vn 0.1155 0.9921 -0.0490
vn -0.1971 0.1529 -0.9684
vn 0.1077 0.7458 -0.6574
vn -0.0192 0.1974 -0.9801
vn 0.5245 0.0103 -0.8514
vt 0.726145 0.749753
vt 0.742910 0.766186
vt 0.734187 0.714628
vt 0.814842 0.787697
vt 0.821982 0.795232
vt 0.834837 0.768574
vt 0.701911 0.743511
vt 0.682357 0.683543
vt 0.633403 0.637127
vt 0.679154 0.584216
vt 0.831834 0.739783
vt 0.828192 0.809486
vt 0.818981 0.803035
vt 0.773168 0.700079
vt 0.708923 0.741850
vt 0.734026 0.687329
vt 0.817326 0.814147
vt 0.594154 0.702795
vt 0.639652 0.686130
vt 0.654737 0.724521
vt 0.728708 0.595984
vt 0.744619 0.590909
vt 0.806132 0.676582
vt 0.818386 0.692829
vt 0.843890 0.746098
vt 0.653549 0.763215
vt 0.667042 0.783593
vt 0.665415 0.755512
vt 0.737631 0.812409
vt 0.707700 0.816904
vt 0.673063 0.722586
vt 0.675733 0.697521
vt 0.734050 0.634026
vt 0.763639 0.707287
vt 0.822814 0.746980
vt 0.835821 0.731323
vt 0.834999 0.803055
vt 0.846189 0.803616
vt 0.784366 0.760602
vt 0.864021 0.800822
vt 0.886640 0.755896
vt 0.885682 0.775438
vt 0.826758 0.677892
vt 0.887962 0.717249
vt 0.844816 0.706957
vt 0.816712 0.641466
vt 0.830690 0.698465
vt 0.866274 0.771556
vt 0.854769 0.755812
vt 0.850585 0.683805
vt 0.884542 0.753967
vt 0.816976 0.618675
vt 0.826989 0.607317
vt 0.833133 0.625188
vt 0.801680 0.615511
vt 0.811967 0.583165
vt 0.818166 0.576740
vt 0.845823 0.835642
vt 0.864301 0.817695
vt 0.849764 0.844649
vt 0.854746 0.829835
vt 0.827658 0.796854
vt 0.739283 0.840775
vt 0.810459 0.889457
vt 0.756155 0.860940
vt 0.769031 0.795329
vt 0.742359 0.942291
vt 0.750496 0.930656
vt 0.732592 0.922858
vt 0.838849 0.888866
vt 0.771968 0.917854
vt 0.843704 0.884466
vt 0.844120 0.839799
vt 0.777159 0.900865
vt 0.760881 0.914197
vt 0.820805 0.890338
vt 0.808581 0.845214
vt 0.829058 0.857206
vt 0.857816 0.811747
vt 0.846889 0.822179
vt 0.838500 0.842560
vt 0.741301 0.940531
vt 0.717743 0.921587
vt 0.716318 0.956564
vt 0.693021 0.968810
vt 0.714389 0.970377
vt 0.709636 0.943685
vt 0.706231 0.978570
vt 0.722034 0.924856
vt 0.723210 0.919758
vt 0.727499 0.884092
vt 0.712818 0.914975
vt 0.706446 0.846494
vt 0.733772 0.778761
vt 0.678204 0.897232
vt 0.705704 0.877566
vt 0.656186 0.897216
vt 0.651027 0.941065
vt 0.614705 0.899445
vt 0.620578 0.811589
vt 0.693421 0.869239
vt 0.683420 0.975813
vt 0.640003 0.937466
vt 0.650523 0.964334
vt 0.608168 0.892030
vt 0.608598 0.901526
vt 0.690506 0.946770
vt 0.636304 0.895104
vt 0.612011 0.884586
vt 0.617289 0.896829
vt 0.720881 0.819491
vt 0.670504 0.932487
vt 0.743087 0.808145
vt 0.632375 0.793280
vt 0.628071 0.788940
vt 0.734433 0.814503
vt 0.590571 0.851803
vt 0.522014 0.792636
vt 0.572206 0.825962
vt 0.562802 0.745749
vt 0.567028 0.733515
vt 0.572657 0.802360
vt 0.559283 0.772041
vt 0.572961 0.795956
vt 0.582515 0.846499
vt 0.584324 0.842957
vt 0.630346 0.885016
vt 0.595031 0.822878
vt 0.518943 0.724671
vt 0.561875 0.804357
vt 0.585253 0.868624
vt 0.555118 0.747012
vt 0.662391 0.790916
vt 0.586984 0.729719
vt 0.646634 0.825365
vt 0.692993 0.807385
vt 0.653684 0.705577
vt 0.623200 0.651682
vt 0.601238 0.691428
vt 0.632494 0.603613
vt 0.629683 0.729563
vt 0.565174 0.678774
vt 0.575211 0.639460
vt 0.556306 0.674872
vt 0.548681 0.634537
vt 0.531107 0.620201
vt 0.564110 0.603569
vt 0.633730 0.544603
vt 0.638514 0.509548
vt 0.617278 0.530594
vt 0.553884 0.677643
vt 0.540653 0.736736
vt 0.544456 0.702335
vt 0.531406 0.637596
vt 0.588584 0.593234
vt 0.585352 0.580848
vt 0.571073 0.598685
vt 0.589654 0.629310
vt 0.548966 0.651649
vt 0.549543 0.642489
vt 0.597895 0.603386
vt 0.667372 0.668175
vt 0.618753 0.767243
vt 0.723222 0.537723
vt 0.744523 0.552734
vt 0.678786 0.541083
vt 0.669830 0.521303
vt 0.704502 0.478357
vt 0.699072 0.475097
vt 0.741933 0.475021
vt 0.632958 0.504557
vt 0.664241 0.481465
vt 0.718498 0.484466
vt 0.729916 0.519799
vt 0.747449 0.489113
vt 0.636514 0.536624
vt 0.624581 0.556172
vt 0.644377 0.571796
vt 0.755036 0.535646
vt 0.777087 0.541712
vt 0.767684 0.517160
vt 0.805840 0.588381
vt 0.802571 0.620367
vt 0.794662 0.554708
vt 0.801511 0.539154
vt 0.747797 0.517770
vt 0.788126 0.502768
vt 0.815294 0.540397
vt 0.782681 0.482677
vt 0.802977 0.498214
vt 0.778599 0.542737
vt 0.692972 0.521419
vt 0.663039 0.957454
vt 0.632396 0.923425
vt 0.832540 0.754839
vt 0.781954 0.666193
vt 0.706163 0.555671
vt 0.752127 0.573864
vt 0.666438 0.778308
vt 0.765982 0.610846
vt 0.807463 0.708448
vt 0.730287 0.824411
vt 0.671770 0.741372
vt 0.870881 0.791340
vt 0.724474 0.930059
vt 0.716031 0.973673
vt 0.734732 0.827378
vt 0.715600 0.974187
vt 0.647300 0.598417
vt 0.618158 0.624240
vt 0.583047 0.678005
vt 0.524192 0.654806
vt 0.565496 0.724209
vt 0.605426 0.539082
vt 0.707570 0.545405
vt 0.783305 0.642070
vt 0.818343 0.695591
vt 0.668200 0.566249
vt 0.656657 0.552764
vt 0.647916 0.580996
vt 0.839444 0.760807
vt 0.837677 0.748451
vt 0.834232 0.777956
vt 0.536492 0.583240
vt 0.560908 0.554318
vt 0.574187 0.568843
vt 0.574366 0.551348
vt 0.554274 0.688473
vt 0.624028 0.584166
vt 0.536490 0.668608
vt 0.538627 0.680117
vt 0.580503 0.551960
vt 0.657306 0.568873
vt 0.605080 0.519265
vt 0.571383 0.543558
vt 0.738395 0.899419
vt 0.683460 0.823948
s 0
usemtl 材質.003
f 1/1/1 80/2/1 78/3/1
f 83/4/2 99/5/2 100/6/2
f 1/1/3 78/3/3 86/7/3
f 1/1/4 86/7/4 80/2/4
f 143/8/5 223/9/5 197/10/5
f 180/11/6 182/12/6 107/13/6
f 95/14/7 97/15/7 75/16/7
f 120/17/8 95/14/8 180/11/8
f 97/15/9 143/8/9 75/16/9
f 121/18/10 225/19/10 228/20/10
f 143/8/11 152/21/11 75/16/11
f 152/21/12 143/8/12 197/10/12
f 152/21/13 95/14/13 75/16/13
f 176/22/14 95/14/14 152/21/14
f 103/23/15 96/24/15 104/25/15
f 141/26/16 122/27/16 142/28/16
f 110/29/17 80/2/17 124/30/17
f 145/31/18 86/7/18 147/32/18
f 147/32/19 86/7/19 2/33/19
f 2/33/20 86/7/20 78/3/20
f 81/34/21 78/3/21 80/2/21
f 81/34/22 102/35/22 105/36/22
f 109/37/23 117/38/23 85/39/23
f 117/38/24 88/40/24 85/39/24
f 48/41/25 88/40/25 91/42/25
f 56/43/26 90/44/26 93/45/26
f 48/41/27 91/42/27 93/45/27
f 56/43/28 93/45/28 26/46/28
f 98/47/29 112/48/29 113/49/29
f 69/50/30 94/51/30 98/47/30
f 155/52/31 73/53/31 157/54/31
f 96/24/32 155/52/32 98/47/32
f 155/52/33 157/54/33 98/47/33
f 157/54/34 69/50/34 98/47/34
f 96/24/35 58/55/35 155/52/35
f 155/52/36 156/56/36 158/57/36
f 73/53/37 26/46/37 157/54/37
f 26/46/38 93/45/38 157/54/38
f 93/45/39 69/50/39 157/54/39
f 93/45/40 94/51/40 69/50/40
f 93/45/41 91/42/41 94/51/41
f 115/58/42 92/59/42 111/60/42
f 73/53/43 158/57/43 157/54/43
f 90/44/44 48/41/44 93/45/44
f 94/51/45 91/42/45 92/59/45
f 91/42/46 88/40/46 92/59/46
f 88/40/47 116/61/47 92/59/47
f 26/46/48 2/33/48 56/43/48
f 85/39/49 90/44/49 56/43/49
f 85/39/50 48/41/50 90/44/50
f 85/39/51 88/40/51 48/41/51
f 108/62/52 109/37/52 85/39/52
f 99/5/53 108/62/53 85/39/53
f 56/43/54 2/33/54 85/39/54
f 85/39/55 2/33/55 105/36/55
f 133/63/56 77/64/56 14/65/56
f 14/65/57 77/64/57 72/66/57
f 84/67/58 29/68/58 76/69/58
f 44/70/59 79/71/59 87/72/59
f 88/40/60 118/73/60 116/61/60
f 89/74/61 219/75/61 222/76/61
f 65/77/62 221/78/62 222/76/62
f 113/49/63 169/79/63 104/25/63
f 65/77/64 218/80/64 217/81/64
f 120/17/65 107/13/65 65/77/65
f 87/72/66 89/74/66 111/60/66
f 215/82/67 89/74/67 84/67/67
f 116/61/68 118/73/68 87/72/68
f 87/72/69 118/73/69 44/70/69
f 87/72/70 84/67/70 89/74/70
f 87/72/71 79/71/71 84/67/71
f 79/71/72 29/68/72 84/67/72
f 126/83/73 206/84/73 45/85/73
f 220/86/74 129/87/74 128/88/74
f 130/89/75 76/69/75 131/90/75
f 109/37/76 72/66/76 118/73/76
f 72/66/77 77/64/77 118/73/77
f 44/70/78 118/73/78 77/64/78
f 77/64/79 79/71/79 44/70/79
f 77/64/80 29/68/80 79/71/80
f 76/69/81 29/68/81 77/64/81
f 77/64/82 133/63/82 132/91/82
f 67/92/83 131/90/83 76/69/83
f 72/66/84 133/63/84 14/65/84
f 9/93/85 53/94/85 62/95/85
f 9/93/86 62/95/86 66/96/86
f 9/93/87 66/96/87 124/30/87
f 67/92/88 129/87/88 130/89/88
f 82/97/89 205/98/89 68/99/89
f 45/85/90 82/97/90 126/83/90
f 134/100/91 226/101/91 82/97/91
f 74/102/92 165/103/92 45/85/92
f 74/102/93 164/104/93 165/103/93
f 165/103/94 64/105/94 212/106/94
f 128/88/95 74/102/95 45/85/95
f 166/107/96 129/87/96 67/92/96
f 63/108/97 137/109/97 136/110/97
f 123/111/98 124/30/98 133/63/98
f 132/91/99 66/96/99 67/92/99
f 67/92/100 66/96/100 62/95/100
f 167/112/101 67/92/101 62/95/101
f 63/108/102 167/112/102 62/95/102
f 63/108/103 62/95/103 53/94/103
f 63/108/104 53/94/104 7/113/104
f 53/94/105 9/93/105 124/30/105
f 41/114/106 51/115/106 7/113/106
f 139/116/107 7/113/107 51/115/107
f 55/117/108 15/118/108 61/119/108
f 149/120/109 15/118/109 148/121/109
f 33/122/110 234/123/110 71/124/110
f 68/99/111 211/125/111 210/126/111
f 68/99/112 70/127/112 82/97/112
f 71/124/113 213/128/113 210/126/113
f 24/129/114 209/130/114 71/124/114
f 134/100/115 24/129/115 121/18/115
f 134/100/116 70/127/116 209/130/116
f 70/127/117 134/100/117 82/97/117
f 33/122/118 214/131/118 61/119/118
f 235/132/119 33/122/119 149/120/119
f 68/99/120 212/106/120 214/131/120
f 61/119/121 64/105/121 55/117/121
f 61/119/122 149/120/122 33/122/122
f 61/119/123 15/118/123 149/120/123
f 55/117/124 63/108/124 138/133/124
f 51/115/125 55/117/125 138/133/125
f 51/115/126 15/118/126 55/117/126
f 15/118/127 51/115/127 40/134/127
f 122/27/128 41/114/128 140/135/128
f 124/30/129 86/7/129 125/136/129
f 146/137/130 32/138/130 28/139/130
f 154/140/131 32/138/131 2/33/131
f 28/139/132 39/141/132 146/137/132
f 8/142/133 35/143/133 49/144/133
f 18/145/134 54/146/134 59/147/134
f 193/148/135 198/149/135 17/150/135
f 204/151/136 233/152/136 236/153/136
f 18/145/137 186/154/137 54/146/137
f 31/155/138 202/156/138 200/157/138
f 189/158/139 183/159/139 18/145/139
f 15/118/140 40/134/140 49/144/140
f 49/144/141 40/134/141 8/142/141
f 49/144/142 200/157/142 190/160/142
f 49/144/143 35/143/143 31/155/143
f 31/155/144 35/143/144 6/161/144
f 38/162/145 146/137/145 147/32/145
f 39/141/146 141/26/146 142/28/146
f 122/27/147 141/26/147 41/114/147
f 151/163/148 41/114/148 141/26/148
f 40/134/149 39/141/149 28/139/149
f 28/139/150 8/142/150 40/134/150
f 32/138/151 38/162/151 2/33/151
f 32/138/152 146/137/152 38/162/152
f 28/139/153 35/143/153 8/142/153
f 28/139/154 32/138/154 35/143/154
f 32/138/155 6/161/155 35/143/155
f 21/164/156 2/33/156 160/165/156
f 4/166/157 21/164/157 37/167/157
f 46/168/158 11/169/158 162/170/158
f 198/149/159 199/171/159 43/172/159
f 47/173/160 17/150/160 198/149/160
f 47/173/161 198/149/161 46/168/161
f 46/168/162 198/149/162 43/172/162
f 43/172/163 11/169/163 46/168/163
f 46/168/164 162/170/164 47/173/164
f 43/172/165 199/171/165 37/167/165
f 37/167/166 11/169/166 43/172/166
f 11/169/167 36/174/167 162/170/167
f 36/174/168 163/175/168 162/170/168
f 199/171/169 196/176/169 37/167/169
f 37/167/170 27/177/170 25/178/170
f 37/167/171 25/178/171 4/166/171
f 37/167/172 36/174/172 11/169/172
f 37/167/173 21/164/173 36/174/173
f 2/33/174 4/166/174 25/178/174
f 2/33/175 21/164/175 4/166/175
f 3/179/176 2/33/176 16/180/176
f 3/179/177 16/180/177 20/181/177
f 26/46/178 19/182/178 159/183/178
f 5/184/179 19/182/179 22/185/179
f 20/181/180 161/186/180 3/179/180
f 34/187/181 10/188/181 158/57/181
f 12/189/182 30/190/182 34/187/182
f 30/190/183 10/188/183 34/187/183
f 13/191/184 34/187/184 158/57/184
f 13/191/185 158/57/185 156/56/185
f 153/192/186 13/191/186 58/55/186
f 47/173/187 13/191/187 153/192/187
f 47/173/188 34/187/188 13/191/188
f 47/173/189 162/170/189 34/187/189
f 162/170/190 12/189/190 34/187/190
f 22/185/191 30/190/191 12/189/191
f 22/185/192 10/188/192 30/190/192
f 10/188/193 26/46/193 158/57/193
f 26/46/194 157/54/194 158/57/194
f 20/181/195 163/175/195 161/186/195
f 20/181/196 12/189/196 162/170/196
f 22/185/197 26/46/197 10/188/197
f 22/185/198 19/182/198 26/46/198
f 3/179/199 36/174/199 21/164/199
f 20/181/200 22/185/200 12/189/200
f 20/181/201 16/180/201 22/185/201
f 16/180/202 5/184/202 22/185/202
f 2/33/203 19/182/203 5/184/203
f 16/180/204 2/33/204 5/184/204
f 129/87/205 74/102/205 128/88/205
f 166/107/206 23/193/206 74/102/206
f 129/87/207 84/67/207 130/89/207
f 165/103/208 164/104/208 135/194/208
f 164/104/209 74/102/209 23/193/209
f 100/6/210 101/195/210 83/4/210
f 101/195/211 102/35/211 83/4/211
f 102/35/212 80/2/212 83/4/212
f 170/196/213 58/55/213 103/23/213
f 152/21/214 181/197/214 178/198/214
f 97/15/215 229/199/215 228/20/215
f 120/17/216 97/15/216 95/14/216
f 58/55/217 175/200/217 153/192/217
f 103/23/218 168/201/218 170/196/218
f 104/25/219 168/201/219 103/23/219
f 108/62/220 99/5/220 72/66/220
f 124/30/221 123/111/221 110/29/221
f 123/111/222 106/202/222 110/29/222
f 80/2/223 86/7/223 124/30/223
f 142/28/224 86/7/224 144/203/224
f 145/31/225 146/137/225 144/203/225
f 144/203/226 86/7/226 145/31/226
f 38/162/227 147/32/227 2/33/227
f 133/63/228 99/5/228 83/4/228
f 83/4/229 80/2/229 110/29/229
f 110/29/230 133/63/230 83/4/230
f 2/33/231 78/3/231 81/34/231
f 105/36/232 2/33/232 81/34/232
f 81/34/233 80/2/233 102/35/233
f 105/36/234 102/35/234 101/195/234
f 105/36/235 101/195/235 100/6/235
f 98/47/236 94/51/236 112/48/236
f 96/24/237 98/47/237 113/49/237
f 104/25/238 96/24/238 113/49/238
f 96/24/239 103/23/239 58/55/239
f 158/57/240 73/53/240 155/52/240
f 169/79/241 114/204/241 94/51/241
f 114/204/242 112/48/242 94/51/242
f 94/51/243 92/59/243 115/58/243
f 26/46/244 159/183/244 2/33/244
f 117/38/245 118/73/245 88/40/245
f 85/39/246 105/36/246 100/6/246
f 112/48/247 114/204/247 113/49/247
f 180/11/248 107/13/248 120/17/248
f 111/60/249 92/59/249 87/72/249
f 92/59/250 116/61/250 87/72/250
f 126/83/251 207/205/251 206/84/251
f 128/88/252 216/206/252 220/86/252
f 117/38/253 109/37/253 118/73/253
f 132/91/254 67/92/254 77/64/254
f 67/92/255 76/69/255 77/64/255
f 72/66/256 109/37/256 108/62/256
f 100/6/257 99/5/257 85/39/257
f 99/5/258 133/63/258 72/66/258
f 133/63/259 110/29/259 106/202/259
f 106/202/260 119/207/260 133/63/260
f 39/141/261 151/163/261 141/26/261
f 41/114/262 7/113/262 140/135/262
f 130/89/263 131/90/263 67/92/263
f 45/85/264 165/103/264 205/98/264
f 120/17/265 65/77/265 126/83/265
f 126/83/266 226/101/266 120/17/266
f 229/199/267 134/100/267 121/18/267
f 127/208/268 128/88/268 45/85/268
f 64/105/269 165/103/269 135/194/269
f 23/193/270 136/110/270 135/194/270
f 106/202/271 123/111/271 133/63/271
f 124/30/272 66/96/272 133/63/272
f 133/63/273 66/96/273 132/91/273
f 7/113/274 138/133/274 63/108/274
f 53/94/275 124/30/275 125/136/275
f 7/113/276 53/94/276 140/135/276
f 135/194/277 136/110/277 55/117/277
f 136/110/278 137/109/278 55/117/278
f 55/117/279 64/105/279 135/194/279
f 204/151/280 183/159/280 189/158/280
f 24/129/281 235/132/281 233/152/281
f 55/117/282 137/109/282 63/108/282
f 138/133/283 7/113/283 139/116/283
f 139/116/284 51/115/284 138/133/284
f 151/163/285 40/134/285 51/115/285
f 125/136/286 142/28/286 122/27/286
f 154/140/287 6/161/287 32/138/287
f 146/137/288 145/31/288 147/32/288
f 154/140/289 25/178/289 6/161/289
f 25/178/290 31/155/290 6/161/290
f 227/209/291 121/18/291 192/210/291
f 188/211/292 121/18/292 24/129/292
f 18/145/293 183/159/293 184/212/293
f 150/213/294 149/120/294 49/144/294
f 149/120/295 148/121/295 49/144/295
f 148/121/296 15/118/296 49/144/296
f 142/28/297 144/203/297 146/137/297
f 146/137/298 39/141/298 142/28/298
f 125/136/299 140/135/299 53/94/299
f 51/115/300 41/114/300 151/163/300
f 17/150/301 47/173/301 153/192/301
f 196/176/302 199/171/302 50/214/302
f 161/186/303 163/175/303 36/174/303
f 154/140/304 2/33/304 25/178/304
f 156/56/305 155/52/305 58/55/305
f 58/55/306 13/191/306 156/56/306
f 20/181/307 162/170/307 163/175/307
f 21/164/308 160/165/308 3/179/308
f 3/179/309 161/186/309 36/174/309
f 2/33/310 159/183/310 19/182/310
f 2/33/311 3/179/311 160/165/311
f 129/87/312 166/107/312 74/102/312
f 84/67/313 76/69/313 130/89/313
f 175/200/314 171/215/314 153/192/314
f 169/79/315 113/49/315 114/204/315
f 170/196/316 177/216/316 175/200/316
f 168/201/317 173/217/317 170/196/317
f 175/200/318 177/216/318 178/198/318
f 179/218/319 172/219/319 42/220/319
f 169/79/320 230/221/320 104/25/320
f 174/222/321 173/217/321 168/201/321
f 176/22/322 152/21/322 178/198/322
f 178/198/323 171/215/323 175/200/323
f 182/12/324 65/77/324 107/13/324
f 173/217/325 180/11/325 95/14/325
f 115/58/326 221/78/326 217/81/326
f 177/216/327 173/217/327 95/14/327
f 180/11/328 231/223/328 182/12/328
f 181/197/329 197/10/329 179/218/329
f 178/198/330 177/216/330 95/14/330
f 176/22/331 178/198/331 95/14/331
f 187/224/332 54/146/332 186/154/332
f 203/225/333 59/147/333 187/224/333
f 194/226/334 203/225/334 195/227/334
f 192/210/335 188/211/335 189/158/335
f 190/160/336 184/212/336 191/228/336
f 203/225/337 187/224/337 200/157/337
f 191/228/338 150/213/338 49/144/338
f 153/192/339 171/215/339 172/219/339
f 185/229/340 189/158/340 59/147/340
f 153/192/341 193/148/341 17/150/341
f 49/144/342 190/160/342 191/228/342
f 191/228/343 232/230/343 237/231/343
f 49/144/344 31/155/344 200/157/344
f 170/196/345 175/200/345 58/55/345
f 104/25/346 174/222/346 168/201/346
f 192/210/347 42/220/347 227/209/347
f 184/212/348 186/154/348 18/145/348
f 172/219/349 171/215/349 179/218/349
f 170/196/350 173/217/350 177/216/350
f 171/215/351 181/197/351 179/218/351
f 174/222/352 180/11/352 173/217/352
f 178/198/353 181/197/353 171/215/353
f 174/222/354 231/223/354 180/11/354
f 181/197/355 152/21/355 197/10/355
f 187/224/356 59/147/356 54/146/356
f 194/226/357 59/147/357 203/225/357
f 202/156/358 50/214/358 52/232/358
f 18/145/359 59/147/359 189/158/359
f 190/160/360 187/224/360 186/154/360
f 203/225/361 200/157/361 202/156/361
f 188/211/362 204/151/362 189/158/362
f 190/160/363 200/157/363 187/224/363
f 42/220/364 192/210/364 185/229/364
f 179/218/365 42/220/365 201/233/365
f 194/226/366 193/148/366 59/147/366
f 17/150/367 172/219/367 193/148/367
f 196/176/368 50/214/368 27/177/368
f 60/234/369 52/232/369 50/214/369
f 50/214/370 31/155/370 27/177/370
f 17/150/371 57/235/371 60/234/371
f 42/220/372 179/218/372 197/10/372
f 198/149/373 17/150/373 60/234/373
f 57/235/374 52/232/374 60/234/374
f 59/147/375 195/227/375 194/226/375
f 60/234/376 199/171/376 198/149/376
f 25/178/377 27/177/377 31/155/377
f 185/229/378 59/147/378 193/148/378
f 57/235/379 203/225/379 202/156/379
f 52/232/380 57/235/380 202/156/380
f 42/220/381 172/219/381 201/233/381
f 153/192/382 172/219/382 193/148/382
f 172/219/383 42/220/383 185/229/383
f 172/219/384 185/229/384 193/148/384
f 172/219/385 198/149/385 193/148/385
f 195/227/386 203/225/386 57/235/386
f 57/235/387 17/150/387 195/227/387
f 172/219/388 179/218/388 201/233/388
f 17/150/389 198/149/389 172/219/389
f 60/234/390 50/214/390 199/171/390
f 37/167/391 196/176/391 27/177/391
f 17/150/392 194/226/392 195/227/392
f 202/156/393 31/155/393 50/214/393
f 192/210/394 121/18/394 188/211/394
f 190/160/395 186/154/395 184/212/395
f 185/229/396 192/210/396 189/158/396
f 204/151/397 236/153/397 237/231/397
f 191/228/398 184/212/398 232/230/398
f 188/211/399 24/129/399 204/151/399
f 164/104/400 23/193/400 135/194/400
f 67/92/401 23/193/401 166/107/401
f 167/112/402 63/108/402 23/193/402
f 169/79/403 94/51/403 115/58/403
f 115/58/404 218/80/404 169/79/404
f 39/141/405 40/134/405 151/163/405
f 23/193/406 63/108/406 136/110/406
f 125/136/407 86/7/407 142/28/407
f 125/136/408 122/27/408 140/135/408
f 194/226/409 17/150/409 193/148/409
f 67/92/410 167/112/410 23/193/410
f 143/8/411 225/19/411 223/9/411
f 207/205/412 216/206/412 127/208/412
f 45/85/73 206/84/73 127/208/73
f 65/77/413 208/236/413 126/83/413
f 68/99/414 205/98/414 165/103/414
f 208/236/415 207/205/415 126/83/415
f 205/98/416 82/97/416 45/85/416
f 209/130/417 24/129/417 134/100/417
f 209/130/418 213/128/418 71/124/418
f 212/106/419 61/119/419 214/131/419
f 211/125/420 71/124/420 210/126/420
f 212/106/421 68/99/421 165/103/421
f 213/128/422 209/130/422 70/127/422
f 210/126/423 70/127/423 68/99/423
f 214/131/424 211/125/424 68/99/424
f 217/81/425 218/80/425 115/58/425
f 220/86/252 216/206/252 84/67/252
f 217/81/426 221/78/426 65/77/426
f 169/79/427 218/80/427 182/12/427
f 222/76/428 208/236/428 65/77/428
f 222/76/429 111/60/429 89/74/429
f 216/206/430 215/82/430 84/67/430
f 215/82/431 208/236/431 219/75/431
f 226/101/432 224/237/432 120/17/432
f 228/20/433 229/199/433 121/18/433
f 223/9/434 225/19/434 121/18/434
f 226/101/435 126/83/435 82/97/435
f 227/209/436 42/220/436 197/10/436
f 228/20/437 143/8/437 97/15/437
f 224/237/438 229/199/438 120/17/438
f 223/9/439 227/209/439 197/10/439
f 65/77/440 182/12/440 218/80/440
f 215/82/441 219/75/441 89/74/441
f 220/86/74 84/67/74 129/87/74
f 134/100/442 224/237/442 226/101/442
f 33/122/443 211/125/443 214/131/443
f 97/15/444 120/17/444 229/199/444
f 128/88/252 127/208/252 216/206/252
f 229/199/445 224/237/445 134/100/445
f 227/209/446 223/9/446 121/18/446
f 115/58/447 111/60/447 221/78/447
f 127/208/251 206/84/251 207/205/251
f 207/205/448 215/82/448 216/206/448
f 212/106/449 64/105/449 61/119/449
f 211/125/450 33/122/450 71/124/450
f 210/126/451 213/128/451 70/127/451
f 222/76/452 219/75/452 208/236/452
f 222/76/453 221/78/453 111/60/453
f 215/82/454 207/205/454 208/236/454
f 228/20/455 225/19/455 143/8/455
f 235/132/456 234/123/456 33/122/456
f 182/12/457 231/223/457 169/79/457
f 231/223/458 230/221/458 169/79/458
f 104/25/459 230/221/459 174/222/459
f 237/231/460 183/159/460 204/151/460
f 235/132/461 150/213/461 233/152/461
f 232/230/462 184/212/462 183/159/462
f 71/124/463 234/123/463 24/129/463
f 236/153/464 233/152/464 150/213/464
f 236/153/465 191/228/465 237/231/465
f 234/123/466 235/132/466 24/129/466
f 204/151/467 24/129/467 233/152/467
f 174/222/468 230/221/468 231/223/468
f 237/231/469 232/230/469 183/159/469
f 235/132/470 149/120/470 150/213/470
f 236/153/471 150/213/471 191/228/471
