# Blender 5.2.1 LTS
# www.blender.org
mtllib landBoss.mtl
o 圓柱體.003
v 732.378296 -3.803865 263.516663
v 732.378723 -3.803874 263.516663
v 689.407959 -3.803869 267.749084
v 775.349060 -3.803874 267.749084
v 648.088928 -3.803872 280.283081
v 816.668091 -3.803873 280.283081
v 610.009094 -3.803876 300.636993
v 854.747925 -3.803872 300.636993
v 576.631836 -3.803879 328.029022
v 888.125122 -3.803872 328.029022
v 915.517212 -3.803871 361.406372
v 549.239868 -3.803881 361.406372
v 935.871338 -3.803871 399.486206
v 528.885681 -3.803883 399.486206
v 948.405273 -3.803871 440.805206
v 516.351685 -3.803884 440.805206
v 512.119507 -3.803884 483.775543
v 952.637512 -3.803871 483.775543
v 516.351685 -3.803884 526.745911
v 948.405273 -3.803871 526.745911
v 528.885681 -3.803883 568.064880
v 935.871338 -3.803871 568.064880
v 915.517212 -3.803871 606.144775
v 549.239868 -3.803881 606.144775
v 888.125122 -3.803872 639.521973
v 576.631836 -3.803879 639.521973
v 610.009094 -3.803876 666.914001
v 854.747925 -3.803872 666.914001
v 816.668091 -3.803873 687.268127
v 648.088928 -3.803872 687.268127
v 689.407959 -3.803869 699.802124
v 775.349060 -3.803874 699.802124
v 732.378296 -3.803865 704.034302
v 732.378723 -3.803874 704.034302
v 689.408386 -3.803875 699.802124
v 775.348633 -3.803861 699.802124
v 816.667664 -3.803858 687.268127
v 648.089355 -3.803875 687.268127
v 610.009521 -3.803876 666.914001
v 854.747498 -3.803854 666.914001
v 888.124756 -3.803851 639.521973
v 915.516724 -3.803849 606.144775
v 935.870911 -3.803847 568.064880
v 948.404907 -3.803846 526.745911
v 952.637085 -3.803846 483.775543
v 948.404907 -3.803846 440.805206
v 935.870911 -3.803847 399.486206
v 915.516724 -3.803849 361.406372
v 888.124756 -3.803851 328.029022
v 854.747498 -3.803854 300.636993
v 610.009521 -3.803876 300.636993
v 816.667664 -3.803858 280.283081
v 648.089355 -3.803875 280.283081
v 689.408386 -3.803875 267.749084
v 775.348633 -3.803861 267.749084
v 732.378662 9.079379 467.195892
v 732.378357 -63.404175 467.195892
v 729.144104 9.079379 467.514465
v 735.612854 -63.404175 467.514465
v 726.033875 9.079378 468.457947
v 738.723145 -63.404175 468.457947
v 723.167480 9.079378 469.990082
v 741.589539 -63.404175 469.990082
v 720.655029 9.079378 472.051971
v 744.101990 -63.404175 472.051971
v 718.593140 9.079378 474.564423
v 746.163879 -63.404175 474.564423
v 717.060974 9.079378 477.430847
v 747.696045 -63.404175 477.430847
v 716.117493 9.079378 480.541107
v 748.639526 -63.404175 480.541107
v 748.958069 -63.404175 483.775665
v 715.798950 9.079377 483.775665
v 748.639526 -63.404175 487.010193
v 716.117493 9.079378 487.010193
v 717.060974 9.079378 490.120453
v 747.696045 -63.404175 490.120453
v 718.593140 9.079378 492.986877
v 746.163879 -63.404175 492.986877
v 720.655029 9.079378 495.499329
v 744.101990 -63.404175 495.499329
v 723.167480 9.079378 497.561218
v 741.589539 -63.404175 497.561218
v 726.033875 9.079378 499.093353
v 738.723145 -63.404175 499.093353
v 729.144104 9.079379 500.036835
v 735.612854 -63.404175 500.036835
v 732.378357 -63.404175 500.355408
v 732.378662 9.079379 500.355408
v 729.143799 -63.404175 500.036835
v 735.613220 9.079379 500.036835
v 726.033508 -63.404175 499.093353
v 738.723511 9.079380 499.093353
v 723.167114 -63.404175 497.561218
v 741.589905 9.079380 497.561218
v 720.654663 -63.404175 495.499329
v 744.102356 9.079380 495.499329
v 718.592773 -63.404175 492.986877
v 746.164246 9.079380 492.986877
v 717.060608 -63.404175 490.120453
v 747.696411 9.079380 490.120453
v 716.117126 -63.404175 487.010193
v 748.639893 9.079380 487.010193
v 748.958435 9.079381 483.775665
v 715.798584 -63.404175 483.775665
v 716.117126 -63.404175 480.541107
v 748.639893 9.079380 480.541107
v 717.060608 -63.404175 477.430847
v 747.696411 9.079380 477.430847
v 718.592773 -63.404175 474.564423
v 746.164246 9.079380 474.564423
v 744.102356 9.079380 472.051971
v 720.654663 -63.404175 472.051971
v 741.589905 9.079380 469.990082
v 723.167114 -63.404175 469.990082
v 738.723511 9.079380 468.457947
v 726.033508 -63.404175 468.457947
v 729.143799 -63.404175 467.514465
v 735.613220 9.079379 467.514465
v 558.192200 -11.363759 600.163208
v 906.564819 1.172263 600.163208
v 578.343018 -22.246243 586.698853
v 886.414001 2.825768 586.698853
v 606.279907 -33.128731 568.032043
v 858.477112 4.479273 568.032043
v 634.481750 -42.958199 549.188110
v 830.275269 5.972782 549.188110
v 666.800720 -51.199516 527.593262
v 797.956299 7.224982 527.593262
v 771.202148 8.233950 509.716675
v 693.554871 -57.840012 509.716675
v 775.517029 8.233950 501.644135
v 689.239990 -57.840004 501.644135
v 805.244629 7.224981 513.957703
v 659.512390 -51.199509 513.957703
v 623.601440 -42.958191 528.832520
v 841.155579 5.972782 528.832520
v 592.265198 -33.128723 541.812439
v 872.491821 4.479274 541.812439
v 561.223389 -22.246241 554.670349
v 903.533630 2.825769 554.670349
v 538.833008 -11.363757 563.944763
v 925.924011 1.172264 563.944763
v 941.870972 -11.363753 483.775574
v 522.885986 1.172229 483.775574
v 917.635742 -22.246239 483.775574
v 547.121277 2.825739 483.775574
v 580.720825 4.479249 483.775604
v 884.036194 -33.128723 483.775604
v 614.639038 5.972763 483.775604
v 850.117981 -42.958199 483.775604
v 653.508911 7.224969 483.775635
v 811.248108 -51.199516 483.775635
v 779.071045 -57.840004 483.775635
v 685.685974 8.233942 483.775635
v 778.173828 -57.840004 492.884918
v 686.583191 8.233942 492.884918
v 809.732666 -51.199509 499.162323
v 655.024353 7.224968 499.162323
v 847.855652 -42.958191 506.745422
v 616.901367 5.972762 506.745422
v 881.122131 -33.128723 513.362488
v 583.634888 4.479249 513.362488
v 914.076111 -22.246237 519.917419
v 550.680908 2.825738 519.917419
v 937.845703 -11.363750 524.645508
v 526.911316 1.172229 524.645508
v 686.582947 -57.840004 492.884918
v 778.174072 8.233950 492.884918
v 655.024231 -51.199509 499.162323
v 809.732788 7.224982 499.162323
v 616.901367 -42.958191 506.745422
v 847.855591 5.972782 506.745422
v 583.635010 -33.128723 513.362488
v 881.122009 4.479275 513.362488
v 550.681213 -22.246239 519.917419
v 914.075806 2.825770 519.917419
v 526.911682 -11.363757 524.645508
v 937.845337 1.172265 524.645508
v 775.516785 -57.840004 501.644135
v 689.240234 8.233942 501.644135
v 805.244507 -51.199509 513.957703
v 659.512512 7.224969 513.957703
v 623.601440 5.972763 528.832520
v 841.155579 -42.958191 528.832520
v 872.491943 -33.128723 541.812439
v 592.265076 4.479249 541.812439
v 903.533936 -22.246235 554.670349
v 561.223083 2.825739 554.670349
v 925.924377 -11.363750 563.944763
v 538.832642 1.172230 563.944763
v 685.685730 -57.840004 483.775635
v 779.071289 8.233950 483.775635
v 653.508789 -51.199509 483.775635
v 811.248230 7.224982 483.775635
v 850.117920 5.972783 483.775604
v 614.639038 -42.958191 483.775604
v 884.036011 4.479275 483.775604
v 580.720947 -33.128723 483.775604
v 917.635498 2.825771 483.775574
v 547.121582 -22.246239 483.775574
v 941.870605 1.172265 483.775574
v 522.886353 -11.363756 483.775574
v 771.201904 -57.840004 509.716675
v 693.555115 8.233942 509.716675
v 666.800842 7.224969 527.593262
v 797.956177 -51.199509 527.593262
v 634.481750 5.972764 549.188110
v 830.275269 -42.958191 549.188110
v 606.279724 4.479251 568.032043
v 858.477295 -33.128723 568.032043
v 578.342712 2.825741 586.698853
v 886.414307 -22.246235 586.698853
v 558.191833 1.172232 600.163208
v 906.565186 -11.363750 600.163208
v 778.174072 8.233950 474.666351
v 686.582947 -57.840004 474.666351
v 655.024231 -51.199509 468.388916
v 809.732788 7.224982 468.388916
v 847.855591 5.972782 460.805786
v 616.901367 -42.958191 460.805786
v 583.635010 -33.128723 454.188660
v 881.122009 4.479275 454.188660
v 550.681213 -22.246239 447.633698
v 914.075806 2.825770 447.633698
v 526.911682 -11.363757 442.905640
v 937.845337 1.172265 442.905640
v 699.361938 8.233943 516.792297
v 765.395081 -57.840004 516.792297
v 676.609314 7.224970 539.544861
v 788.147705 -51.199509 539.544861
v 815.632874 -42.958191 567.029907
v 649.124146 5.972765 567.029907
v 839.616699 -33.128723 591.013672
v 625.140320 4.479252 591.013672
v 863.375183 -22.246237 614.772095
v 601.381836 2.825743 614.772095
v 880.512085 -11.363751 631.908936
v 584.244934 1.172234 631.908936
v 775.517029 8.233950 465.907135
v 689.239990 -57.840004 465.907135
v 805.244629 7.224981 453.593506
v 659.512390 -51.199509 453.593506
v 623.601440 -42.958191 438.718689
v 841.155579 5.972782 438.718689
v 592.265198 -33.128723 425.738770
v 872.491821 4.479274 425.738770
v 561.223389 -22.246241 412.880798
v 903.533630 2.825769 412.880798
v 538.833008 -11.363757 403.606354
v 925.924011 1.172264 403.606354
v 706.437622 8.233944 522.599121
v 758.319397 -57.840004 522.599121
v 776.196106 -51.199509 549.353333
v 688.560913 7.224971 549.353333
v 797.791016 -42.958191 581.672363
v 666.966003 5.972766 581.672363
v 816.635010 -33.128723 609.874268
v 648.122009 4.479255 609.874268
v 835.301941 -22.246237 637.811218
v 629.455078 2.825745 637.811218
v 848.766357 -11.363751 657.962036
v 615.990662 1.172237 657.962036
v 771.202148 8.233950 457.834595
v 693.554871 -57.840012 457.834595
v 666.800720 -51.199509 439.957977
v 797.956299 7.224981 439.957977
v 830.275269 5.972781 418.363098
v 634.481750 -42.958191 418.363098
v 858.477112 4.479273 399.519165
v 606.279907 -33.128723 399.519165
v 578.343018 -22.246241 380.852264
v 886.414001 2.825768 380.852264
v 558.192200 -11.363757 367.387878
v 906.564819 1.172262 367.387878
v 750.246887 -57.840004 526.914001
v 714.510132 8.233944 526.914001
v 702.196472 7.224972 556.641724
v 762.560547 -51.199509 556.641724
v 687.321594 5.972768 592.552673
v 777.435425 -42.958191 592.552673
v 674.341614 4.479257 623.888977
v 790.415405 -33.128723 623.888977
v 661.483582 2.825748 654.930847
v 803.273438 -22.246237 654.930847
v 812.547913 -11.363753 677.321289
v 652.209106 1.172240 677.321289
v 732.378723 -11.363756 274.283142
v 732.378296 1.172247 274.283142
v 732.378357 2.825755 298.518372
v 732.378662 -22.246241 298.518372
v 732.378418 4.479262 332.117920
v 732.378601 -33.128723 332.117920
v 732.378540 -42.958199 366.036102
v 732.378479 5.972773 366.036102
v 732.378540 7.224976 404.905914
v 732.378479 -51.199516 404.905914
v 732.378601 8.233946 437.082977
v 732.378418 -57.840004 437.082977
v 741.487671 -57.840004 437.980194
v 723.269348 8.233945 437.980194
v 747.765137 -51.199509 406.421448
v 716.991882 7.224974 406.421448
v 709.408691 5.972770 368.298523
v 755.348328 -42.958191 368.298523
v 702.791504 4.479259 335.032104
v 761.965515 -33.128723 335.032104
v 768.520508 -22.246237 302.078186
v 696.236511 2.825751 302.078186
v 773.248596 -11.363753 278.308655
v 691.508423 1.172243 278.308655
v 765.395264 8.233949 450.758942
v 699.361694 -57.840012 450.758942
v 788.147827 7.224980 428.006317
v 676.609192 -51.199509 428.006317
v 815.632812 5.972779 400.521210
v 649.124207 -42.958191 400.521210
v 625.140503 -33.128723 376.537415
v 839.616516 4.479271 376.537415
v 863.374878 2.825766 352.778961
v 601.382141 -22.246241 352.778961
v 880.511719 1.172260 335.642059
v 584.245300 -11.363756 335.642059
v 723.269348 8.233945 529.571106
v 741.487671 -57.840004 529.571106
v 716.991882 7.224974 561.129822
v 747.765137 -51.199509 561.129822
v 709.408691 5.972770 599.252747
v 755.348328 -42.958191 599.252747
v 702.791504 4.479259 632.519165
v 761.965515 -33.128723 632.519165
v 696.236511 2.825751 665.473022
v 768.520508 -22.246237 665.473022
v 691.508423 1.172243 689.242554
v 773.248596 -11.363753 689.242554
v 750.246887 -57.840004 440.637299
v 714.510132 8.233944 440.637299
v 702.196472 7.224972 410.909576
v 762.560547 -51.199509 410.909576
v 777.435425 -42.958191 374.998596
v 687.321594 5.972768 374.998596
v 674.341614 4.479257 343.662292
v 790.415405 -33.128723 343.662292
v 661.483582 2.825748 312.620422
v 803.273438 -22.246237 312.620422
v 652.209106 1.172240 290.229980
v 812.547913 -11.363753 290.229980
v 706.437378 -57.840012 444.952118
v 758.319641 8.233948 444.952118
v 776.196167 7.224979 418.197876
v 688.560791 -51.199509 418.197876
v 797.791016 5.972778 385.878784
v 666.966003 -42.958191 385.878784
v 816.634888 4.479269 357.676819
v 648.122131 -33.128723 357.676819
v 835.301636 2.825763 329.739838
v 629.455322 -22.246241 329.739838
v 848.765991 1.172257 309.588989
v 615.991028 -11.363756 309.588989
v 732.378601 8.233946 530.468262
v 732.378418 -57.840004 530.468262
v 732.378540 7.224975 562.645264
v 732.378479 -51.199509 562.645264
v 732.378479 5.972772 601.515015
v 732.378540 -42.958191 601.515015
v 732.378418 4.479262 635.433167
v 732.378601 -33.128723 635.433167
v 732.378357 2.825754 669.032654
v 732.378662 -22.246239 669.032654
v 732.378296 1.172247 693.267883
v 732.378723 -11.363754 693.267883
v 706.437622 8.233944 444.952118
v 758.319397 -57.840004 444.952118
v 776.196106 -51.199509 418.197876
v 688.560913 7.224971 418.197876
v 797.791016 -42.958191 385.878784
v 666.966003 5.972766 385.878784
v 816.635010 -33.128723 357.676819
v 648.122009 4.479255 357.676819
v 629.455078 2.825745 329.739838
v 835.301941 -22.246237 329.739838
v 848.766357 -11.363751 309.588989
v 615.990662 1.172237 309.588989
v 750.247131 8.233948 440.637299
v 714.509888 -57.840004 440.637299
v 762.560669 7.224978 410.909576
v 702.196350 -51.199509 410.909576
v 687.321594 -42.958191 374.998596
v 777.435425 5.972776 374.998596
v 674.341736 -33.128723 343.662292
v 790.415283 4.479267 343.662292
v 661.483887 -22.246239 312.620422
v 803.273132 2.825761 312.620422
v 812.547546 1.172254 290.229980
v 652.209473 -11.363754 290.229980
v 723.269104 -57.840004 529.571106
v 741.487915 8.233947 529.571106
v 716.991760 -51.199509 561.129822
v 747.765259 7.224977 561.129822
v 709.408691 -42.958191 599.252747
v 755.348328 5.972774 599.252747
v 761.965332 4.479264 632.519165
v 702.791687 -33.128723 632.519165
v 768.520203 2.825758 665.473022
v 696.236816 -22.246239 665.473022
v 691.508789 -11.363754 689.242554
v 773.248230 1.172251 689.242554
v 765.395081 -57.840004 450.758942
v 699.361938 8.233943 450.758942
v 676.609314 7.224970 428.006317
v 788.147705 -51.199509 428.006317
v 649.124146 5.972765 400.521210
v 815.632874 -42.958191 400.521210
v 625.140320 4.479252 376.537415
v 839.616699 -33.128723 376.537415
v 601.381836 2.825743 352.778961
v 863.375183 -22.246237 352.778961
v 584.244934 1.172234 335.642059
v 880.512085 -11.363751 335.642059
v 723.269104 -57.840004 437.980194
v 741.487915 8.233947 437.980194
v 747.765259 7.224977 406.421448
v 716.991760 -51.199509 406.421448
v 755.348328 5.972774 368.298523
v 709.408691 -42.958191 368.298523
v 702.791687 -33.128723 335.032104
v 761.965332 4.479264 335.032104
v 696.236816 -22.246239 302.078186
v 768.520203 2.825758 302.078186
v 691.508789 -11.363754 278.308655
v 773.248230 1.172251 278.308655
v 714.509888 -57.840004 526.914001
v 750.247131 8.233948 526.914001
v 762.560669 7.224978 556.641724
v 702.196350 -51.199509 556.641724
v 687.321594 -42.958191 592.552673
v 777.435425 5.972776 592.552673
v 790.415283 4.479267 623.888977
v 674.341736 -33.128723 623.888977
v 661.483887 -22.246239 654.930847
v 803.273132 2.825761 654.930847
v 812.547546 1.172254 677.321289
v 652.209473 -11.363754 677.321289
v 771.201904 -57.840004 457.834595
v 693.555115 8.233942 457.834595
v 666.800842 7.224969 439.957977
v 797.956177 -51.199509 439.957977
v 634.481750 5.972764 418.363098
v 830.275269 -42.958191 418.363098
v 606.279724 4.479251 399.519165
v 858.477295 -33.128723 399.519165
v 578.342712 2.825741 380.852264
v 886.414307 -22.246235 380.852264
v 558.191833 1.172232 367.387878
v 906.565186 -11.363750 367.387878
v 706.437378 -57.840012 522.599121
v 758.319641 8.233948 522.599121
v 776.196167 7.224979 549.353333
v 688.560791 -51.199509 549.353333
v 666.966003 -42.958191 581.672363
v 797.791016 5.972778 581.672363
v 648.122131 -33.128723 609.874268
v 816.634888 4.479269 609.874268
v 629.455322 -22.246241 637.811218
v 835.301636 2.825763 637.811218
v 615.991028 -11.363756 657.962036
v 848.765991 1.172257 657.962036
v 775.516785 -57.840004 465.907135
v 689.240234 8.233942 465.907135
v 805.244507 -51.199509 453.593506
v 659.512512 7.224969 453.593506
v 841.155579 -42.958191 438.718689
v 623.601440 5.972763 438.718689
v 872.491943 -33.128723 425.738770
v 592.265076 4.479249 425.738770
v 903.533936 -22.246235 412.880798
v 561.223083 2.825739 412.880798
v 925.924377 -11.363750 403.606354
v 538.832642 1.172230 403.606354
v 699.361694 -57.840012 516.792297
v 765.395264 8.233949 516.792297
v 676.609192 -51.199509 539.544861
v 788.147827 7.224980 539.544861
v 649.124207 -42.958191 567.029907
v 815.632812 5.972779 567.029907
v 625.140503 -33.128723 591.013672
v 839.616516 4.479271 591.013672
v 601.382141 -22.246241 614.772095
v 863.374878 2.825766 614.772095
v 880.511719 1.172260 631.908936
v 584.245300 -11.363756 631.908936
v 778.173828 -57.840004 474.666351
v 686.583191 8.233942 474.666351
v 655.024353 7.224968 468.388916
v 809.732666 -51.199509 468.388916
v 847.855652 -42.958191 460.805786
v 616.901367 5.972762 460.805786
v 583.634888 4.479249 454.188660
v 881.122131 -33.128723 454.188660
v 550.680908 2.825738 447.633698
v 914.076111 -22.246237 447.633698
v 526.911316 1.172229 442.905640
v 937.845703 -11.363750 442.905640
v 576.632263 -3.803879 639.521973
v 528.886108 -3.803883 568.064880
v 512.119934 -3.803884 483.775543
v 528.886108 -3.803883 399.486206
v 576.632263 -3.803879 328.029022
v 576.632263 -3.803879 328.029053
v 549.240234 -3.803881 606.144775
v 516.352112 -3.803884 440.805206
v 549.240234 -3.803881 361.406372
v 549.240234 -3.803881 361.406372
v 516.352112 -3.803884 526.745911
v 732.378662 9.079379 483.775665
vn -0.0000 -1.0000 -0.0000
vn -0.0000 1.0000 -0.0000
vn 0.0249 0.9996 0.0133
vn -0.0281 0.9996 0.0028
vn 0.0270 0.9996 0.0082
vn -0.0270 0.9996 0.0082
vn 0.0281 0.9996 0.0028
vn -0.0249 0.9996 0.0133
vn 0.0281 0.9996 -0.0028
vn -0.0218 0.9996 0.0179
vn 0.0270 0.9996 -0.0082
vn -0.0179 0.9996 0.0218
vn 0.0249 0.9996 -0.0133
vn -0.0133 0.9996 0.0249
vn -0.0028 0.9996 -0.0281
vn 0.0218 0.9996 -0.0179
vn -0.0082 0.9996 0.0270
vn -0.0082 0.9996 -0.0270
vn 0.0179 0.9996 -0.0218
vn -0.0028 0.9996 0.0281
vn -0.0133 0.9996 -0.0249
vn 0.0133 0.9996 -0.0249
vn 0.0028 0.9996 0.0281
vn -0.0179 0.9996 -0.0218
vn 0.0082 0.9996 -0.0270
vn 0.0082 0.9996 0.0270
vn -0.0218 0.9996 -0.0179
vn 0.0028 0.9996 -0.0281
vn 0.0133 0.9996 0.0249
vn -0.0249 0.9996 -0.0133
vn 0.0179 0.9996 0.0218
vn -0.0270 0.9996 -0.0082
vn 0.0218 0.9996 0.0179
vn -0.0281 0.9996 -0.0028
vn -0.4192 0.9070 -0.0413
vn -0.0681 0.9977 -0.0067
vn -0.0492 0.9988 -0.0048
vn -0.0440 0.9990 -0.0043
vn -0.0322 0.9995 -0.0032
vn -0.0313 0.9995 -0.0031
vn 0.3256 0.9070 0.2672
vn 0.0529 0.9977 0.0434
vn 0.0382 0.9988 0.0313
vn 0.0342 0.9990 0.0280
vn 0.0250 0.9995 0.0205
vn 0.0243 0.9995 0.0200
vn -0.4031 0.9070 -0.1223
vn -0.0655 0.9977 -0.0199
vn -0.0473 0.9988 -0.0143
vn -0.0423 0.9990 -0.0128
vn -0.0310 0.9995 -0.0094
vn -0.0301 0.9995 -0.0091
vn 0.2672 0.9070 0.3256
vn 0.0434 0.9977 0.0529
vn 0.0313 0.9988 0.0382
vn 0.0280 0.9990 0.0342
vn 0.0205 0.9995 0.0250
vn 0.0200 0.9995 0.0243
vn -0.3715 0.9070 -0.1986
vn -0.0603 0.9977 -0.0322
vn -0.0436 0.9988 -0.0233
vn -0.0390 0.9990 -0.0208
vn -0.0285 0.9995 -0.0153
vn -0.0278 0.9995 -0.0148
vn 0.1986 0.9070 0.3715
vn 0.0322 0.9977 0.0603
vn 0.0233 0.9988 0.0436
vn 0.0208 0.9990 0.0390
vn 0.0153 0.9995 0.0285
vn 0.0148 0.9995 0.0278
vn 0.0413 0.9070 -0.4192
vn 0.0067 0.9977 -0.0681
vn 0.0048 0.9988 -0.0492
vn 0.0043 0.9990 -0.0440
vn 0.0032 0.9995 -0.0322
vn 0.0031 0.9995 -0.0313
vn -0.3256 0.9070 -0.2672
vn -0.0529 0.9977 -0.0434
vn -0.0382 0.9988 -0.0313
vn -0.0342 0.9990 -0.0280
vn -0.0250 0.9995 -0.0205
vn -0.0243 0.9995 -0.0200
vn 0.1223 0.9070 0.4031
vn 0.0199 0.9977 0.0655
vn 0.0143 0.9988 0.0473
vn 0.0128 0.9990 0.0423
vn 0.0094 0.9995 0.0310
vn 0.0091 0.9995 0.0301
vn 0.1223 0.9070 -0.4031
vn 0.0199 0.9977 -0.0655
vn 0.0143 0.9988 -0.0473
vn 0.0128 0.9990 -0.0423
vn 0.0094 0.9995 -0.0310
vn 0.0091 0.9995 -0.0301
vn -0.2672 0.9070 -0.3256
vn -0.0434 0.9977 -0.0529
vn -0.0313 0.9988 -0.0382
vn -0.0280 0.9990 -0.0342
vn -0.0205 0.9995 -0.0250
vn -0.0200 0.9995 -0.0243
vn 0.0413 0.9070 0.4192
vn 0.0067 0.9977 0.0681
vn 0.0048 0.9988 0.0492
vn 0.0043 0.9990 0.0440
vn 0.0032 0.9995 0.0322
vn 0.0031 0.9995 0.0313
vn 0.1986 0.9070 -0.3715
vn 0.0322 0.9977 -0.0603
vn 0.0233 0.9988 -0.0436
vn 0.0208 0.9990 -0.0390
vn 0.0153 0.9995 -0.0285
vn 0.0148 0.9995 -0.0278
vn -0.1986 0.9070 -0.3715
vn -0.0322 0.9977 -0.0603
vn -0.0233 0.9988 -0.0436
vn -0.0208 0.9990 -0.0390
vn -0.0153 0.9995 -0.0285
vn -0.0148 0.9995 -0.0278
vn -0.0413 0.9070 0.4192
vn -0.0067 0.9977 0.0681
vn -0.0048 0.9988 0.0492
vn -0.0043 0.9990 0.0440
vn -0.0032 0.9995 0.0322
vn -0.0031 0.9995 0.0313
vn 0.2672 0.9070 -0.3256
vn 0.0434 0.9977 -0.0529
vn 0.0313 0.9988 -0.0382
vn 0.0280 0.9990 -0.0342
vn 0.0205 0.9995 -0.0250
vn 0.0200 0.9995 -0.0243
vn -0.1223 0.9070 -0.4031
vn -0.0199 0.9977 -0.0655
vn -0.0143 0.9988 -0.0473
vn -0.0128 0.9990 -0.0423
vn -0.0094 0.9995 -0.0310
vn -0.0091 0.9995 -0.0301
vn -0.1223 0.9070 0.4031
vn -0.0199 0.9977 0.0655
vn -0.0143 0.9988 0.0473
vn -0.0128 0.9990 0.0423
vn -0.0094 0.9995 0.0310
vn -0.0091 0.9995 0.0301
vn 0.3256 0.9070 -0.2672
vn 0.0529 0.9977 -0.0434
vn 0.0382 0.9988 -0.0313
vn 0.0342 0.9990 -0.0280
vn 0.0250 0.9995 -0.0205
vn 0.0243 0.9995 -0.0200
vn -0.0413 0.9070 -0.4192
vn -0.0067 0.9977 -0.0681
vn -0.0048 0.9988 -0.0492
vn -0.0043 0.9990 -0.0440
vn -0.0032 0.9995 -0.0322
vn -0.0031 0.9995 -0.0313
vn -0.1986 0.9070 0.3715
vn -0.0322 0.9977 0.0603
vn -0.0233 0.9988 0.0436
vn -0.0208 0.9990 0.0390
vn -0.0153 0.9995 0.0285
vn -0.0148 0.9995 0.0278
vn 0.3715 0.9070 -0.1986
vn 0.0603 0.9977 -0.0322
vn 0.0436 0.9988 -0.0233
vn 0.0390 0.9990 -0.0208
vn 0.0285 0.9995 -0.0153
vn 0.0278 0.9995 -0.0148
vn -0.2672 0.9070 0.3256
vn -0.0434 0.9977 0.0529
vn -0.0313 0.9988 0.0382
vn -0.0280 0.9990 0.0342
vn -0.0205 0.9995 0.0250
vn -0.0200 0.9995 0.0243
vn 0.4031 0.9070 -0.1223
vn 0.0655 0.9977 -0.0199
vn 0.0473 0.9988 -0.0143
vn 0.0423 0.9990 -0.0128
vn 0.0310 0.9995 -0.0094
vn 0.0301 0.9995 -0.0091
vn -0.3256 0.9070 0.2672
vn -0.0529 0.9977 0.0434
vn -0.0382 0.9988 0.0313
vn -0.0342 0.9990 0.0280
vn -0.0250 0.9995 0.0205
vn -0.0243 0.9995 0.0200
vn 0.4192 0.9070 -0.0413
vn 0.0681 0.9977 -0.0067
vn 0.0492 0.9988 -0.0048
vn 0.0440 0.9990 -0.0043
vn 0.0322 0.9995 -0.0032
vn 0.0313 0.9995 -0.0031
vn -0.3715 0.9070 0.1986
vn -0.0603 0.9977 0.0322
vn -0.0436 0.9988 0.0233
vn -0.0390 0.9990 0.0208
vn -0.0285 0.9995 0.0153
vn -0.0278 0.9995 0.0148
vn 0.4192 0.9070 0.0413
vn 0.0681 0.9977 0.0067
vn 0.0492 0.9988 0.0048
vn 0.0440 0.9990 0.0043
vn 0.0322 0.9995 0.0032
vn 0.0313 0.9995 0.0031
vn -0.4031 0.9070 0.1223
vn -0.0655 0.9977 0.0199
vn -0.0473 0.9988 0.0143
vn -0.0423 0.9990 0.0128
vn -0.0310 0.9995 0.0094
vn -0.0301 0.9995 0.0091
vn 0.4031 0.9070 0.1223
vn 0.0655 0.9977 0.0199
vn 0.0473 0.9988 0.0143
vn 0.0423 0.9990 0.0128
vn 0.0310 0.9995 0.0094
vn 0.0301 0.9995 0.0091
vn -0.4192 0.9070 0.0413
vn -0.0681 0.9977 0.0067
vn -0.0492 0.9988 0.0048
vn -0.0440 0.9990 0.0043
vn -0.0322 0.9995 0.0032
vn -0.0313 0.9995 0.0031
vn 0.3715 0.9070 0.1986
vn 0.0603 0.9977 0.0322
vn 0.0436 0.9988 0.0233
vn 0.0390 0.9990 0.0208
vn 0.0285 0.9995 0.0153
vn 0.0278 0.9995 0.0148
vn -0.1610 -0.9832 0.0861
vn 0.1817 -0.9832 0.0179
vn -0.1747 -0.9832 0.0530
vn 0.1747 -0.9832 0.0530
vn -0.1817 -0.9832 0.0179
vn 0.1610 -0.9832 0.0861
vn -0.1817 -0.9832 -0.0179
vn 0.1411 -0.9832 0.1158
vn -0.1747 -0.9832 -0.0530
vn 0.1158 -0.9832 0.1411
vn -0.1610 -0.9832 -0.0861
vn 0.0861 -0.9832 0.1610
vn 0.0179 -0.9832 -0.1817
vn -0.1411 -0.9832 -0.1158
vn 0.0530 -0.9832 0.1747
vn 0.0530 -0.9832 -0.1747
vn -0.1158 -0.9832 -0.1411
vn 0.0179 -0.9832 0.1817
vn 0.0861 -0.9832 -0.1610
vn -0.0861 -0.9832 -0.1610
vn -0.0179 -0.9832 0.1817
vn 0.1158 -0.9832 -0.1411
vn -0.0530 -0.9832 -0.1747
vn -0.0530 -0.9832 0.1747
vn 0.1411 -0.9832 -0.1158
vn -0.0179 -0.9832 -0.1817
vn -0.0861 -0.9832 0.1610
vn 0.1610 -0.9832 -0.0861
vn -0.1158 -0.9832 0.1411
vn 0.1747 -0.9832 -0.0530
vn -0.1411 -0.9832 0.1158
vn 0.1817 -0.9832 -0.0179
vn 0.5737 -0.8171 -0.0565
vn 0.4093 -0.9115 -0.0403
vn 0.3080 -0.9509 -0.0303
vn 0.2782 -0.9601 -0.0274
vn 0.2074 -0.9780 -0.0204
vn 0.2021 -0.9792 -0.0199
vn -0.4456 -0.8171 0.3657
vn -0.3179 -0.9115 0.2609
vn -0.2392 -0.9509 0.1963
vn -0.2161 -0.9601 0.1774
vn -0.1611 -0.9780 0.1322
vn -0.1570 -0.9792 0.1288
vn 0.5517 -0.8171 -0.1674
vn 0.3936 -0.9115 -0.1194
vn 0.2962 -0.9509 -0.0898
vn 0.2675 -0.9601 -0.0812
vn 0.1994 -0.9780 -0.0605
vn 0.1943 -0.9792 -0.0589
vn -0.3657 -0.8171 0.4456
vn -0.2609 -0.9115 0.3179
vn -0.1963 -0.9509 0.2392
vn -0.1774 -0.9601 0.2161
vn -0.1322 -0.9780 0.1611
vn -0.1288 -0.9792 0.1570
vn 0.5084 -0.8171 -0.2718
vn 0.3627 -0.9115 -0.1939
vn 0.2729 -0.9509 -0.1459
vn 0.2466 -0.9601 -0.1318
vn 0.1838 -0.9780 -0.0982
vn 0.1791 -0.9792 -0.0957
vn -0.2718 -0.8171 0.5084
vn -0.1939 -0.9115 0.3627
vn -0.1459 -0.9509 0.2729
vn -0.1318 -0.9601 0.2466
vn -0.0982 -0.9780 0.1838
vn -0.0957 -0.9792 0.1791
vn -0.0565 -0.8171 -0.5737
vn -0.0403 -0.9115 -0.4093
vn -0.0303 -0.9509 -0.3080
vn -0.0274 -0.9601 -0.2782
vn -0.0204 -0.9780 -0.2074
vn -0.0199 -0.9792 -0.2021
vn 0.4456 -0.8171 -0.3657
vn 0.3179 -0.9115 -0.2609
vn 0.2392 -0.9509 -0.1963
vn 0.2161 -0.9601 -0.1774
vn 0.1611 -0.9780 -0.1322
vn 0.1570 -0.9792 -0.1288
vn -0.1674 -0.8171 0.5517
vn -0.1194 -0.9115 0.3936
vn -0.0898 -0.9509 0.2962
vn -0.0812 -0.9601 0.2676
vn -0.0605 -0.9780 0.1994
vn -0.0589 -0.9792 0.1943
vn -0.1674 -0.8171 -0.5517
vn -0.1194 -0.9115 -0.3936
vn -0.0898 -0.9509 -0.2962
vn -0.0812 -0.9601 -0.2675
vn -0.0605 -0.9780 -0.1994
vn -0.0589 -0.9792 -0.1943
vn 0.3657 -0.8171 -0.4456
vn 0.2609 -0.9115 -0.3179
vn 0.1963 -0.9509 -0.2392
vn 0.1774 -0.9601 -0.2161
vn 0.1322 -0.9780 -0.1611
vn 0.1288 -0.9792 -0.1570
vn -0.0565 -0.8171 0.5737
vn -0.0403 -0.9115 0.4093
vn -0.0303 -0.9509 0.3080
vn -0.0274 -0.9601 0.2782
vn -0.0204 -0.9780 0.2074
vn -0.0199 -0.9792 0.2021
vn -0.2718 -0.8171 -0.5084
vn -0.1939 -0.9115 -0.3627
vn -0.1459 -0.9509 -0.2729
vn -0.1318 -0.9601 -0.2466
vn -0.0982 -0.9780 -0.1838
vn -0.0957 -0.9792 -0.1791
vn 0.2718 -0.8171 -0.5084
vn 0.1939 -0.9115 -0.3627
vn 0.1459 -0.9509 -0.2729
vn 0.1318 -0.9601 -0.2466
vn 0.0982 -0.9780 -0.1838
vn 0.0957 -0.9792 -0.1791
vn 0.0565 -0.8171 0.5737
vn 0.0403 -0.9115 0.4093
vn 0.0303 -0.9509 0.3080
vn 0.0274 -0.9601 0.2782
vn 0.0204 -0.9780 0.2074
vn 0.0199 -0.9792 0.2021
vn -0.3657 -0.8171 -0.4456
vn -0.2609 -0.9115 -0.3179
vn -0.1963 -0.9509 -0.2392
vn -0.1774 -0.9601 -0.2161
vn -0.1322 -0.9780 -0.1611
vn -0.1288 -0.9792 -0.1570
vn 0.1674 -0.8171 -0.5517
vn 0.1194 -0.9115 -0.3936
vn 0.0898 -0.9509 -0.2962
vn 0.0812 -0.9601 -0.2675
vn 0.0605 -0.9780 -0.1994
vn 0.0589 -0.9792 -0.1943
vn 0.1674 -0.8171 0.5517
vn 0.1194 -0.9115 0.3936
vn 0.0898 -0.9509 0.2962
vn 0.0812 -0.9601 0.2675
vn 0.0605 -0.9780 0.1994
vn 0.0589 -0.9792 0.1943
vn -0.4456 -0.8171 -0.3657
vn -0.3179 -0.9115 -0.2609
vn -0.2392 -0.9509 -0.1963
vn -0.2161 -0.9601 -0.1774
vn -0.1611 -0.9780 -0.1322
vn -0.1570 -0.9792 -0.1288
vn 0.0565 -0.8171 -0.5737
vn 0.0403 -0.9115 -0.4093
vn 0.0303 -0.9509 -0.3080
vn 0.0274 -0.9601 -0.2782
vn 0.0204 -0.9780 -0.2074
vn 0.0199 -0.9792 -0.2021
vn 0.2718 -0.8171 0.5084
vn 0.1939 -0.9115 0.3627
vn 0.1459 -0.9509 0.2729
vn 0.1318 -0.9601 0.2466
vn 0.0982 -0.9780 0.1838
vn 0.0957 -0.9792 0.1791
vn -0.5084 -0.8171 -0.2718
vn -0.3627 -0.9115 -0.1939
vn -0.2729 -0.9509 -0.1459
vn -0.2466 -0.9601 -0.1318
vn -0.1838 -0.9780 -0.0982
vn -0.1791 -0.9792 -0.0957
vn 0.3657 -0.8171 0.4456
vn 0.2609 -0.9115 0.3179
vn 0.1963 -0.9509 0.2392
vn 0.1774 -0.9601 0.2161
vn 0.1322 -0.9780 0.1611
vn 0.1288 -0.9792 0.1570
vn -0.5517 -0.8171 -0.1674
vn -0.3936 -0.9115 -0.1194
vn -0.2962 -0.9509 -0.0898
vn -0.2675 -0.9601 -0.0812
vn -0.1994 -0.9780 -0.0605
vn -0.1943 -0.9792 -0.0589
vn 0.4456 -0.8171 0.3657
vn 0.3179 -0.9115 0.2609
vn 0.2392 -0.9509 0.1963
vn 0.2161 -0.9601 0.1774
vn 0.1611 -0.9780 0.1322
vn 0.1570 -0.9792 0.1288
vn -0.5737 -0.8171 -0.0565
vn -0.4093 -0.9115 -0.0403
vn -0.3080 -0.9509 -0.0303
vn -0.2782 -0.9601 -0.0274
vn -0.2074 -0.9780 -0.0204
vn -0.2021 -0.9792 -0.0199
vn 0.5084 -0.8171 0.2718
vn 0.3627 -0.9115 0.1939
vn 0.2729 -0.9509 0.1459
vn 0.2466 -0.9601 0.1318
vn 0.1838 -0.9780 0.0982
vn 0.1791 -0.9792 0.0957
vn -0.5737 -0.8171 0.0565
vn -0.4093 -0.9115 0.0403
vn -0.3080 -0.9509 0.0303
vn -0.2782 -0.9601 0.0274
vn -0.2074 -0.9780 0.0204
vn -0.2021 -0.9792 0.0199
vn 0.5517 -0.8171 0.1674
vn 0.3936 -0.9115 0.1194
vn 0.2962 -0.9509 0.0898
vn 0.2675 -0.9601 0.0812
vn 0.1994 -0.9780 0.0605
vn 0.1943 -0.9792 0.0589
vn -0.5517 -0.8171 0.1674
vn -0.3936 -0.9115 0.1194
vn -0.2962 -0.9509 0.0898
vn -0.2676 -0.9601 0.0812
vn -0.1994 -0.9780 0.0605
vn -0.1943 -0.9792 0.0589
vn 0.5737 -0.8171 0.0565
vn 0.4093 -0.9115 0.0403
vn 0.3080 -0.9509 0.0303
vn 0.2782 -0.9601 0.0274
vn 0.2074 -0.9780 0.0204
vn 0.2021 -0.9792 0.0199
vn -0.5084 -0.8171 0.2718
vn -0.3627 -0.9115 0.1939
vn -0.2729 -0.9509 0.1459
vn -0.2466 -0.9601 0.1318
vn -0.1838 -0.9780 0.0982
vn -0.1791 -0.9792 0.0957
vn -0.0812 -0.9601 0.2675
vn -0.4676 -0.8839 -0.0000
vn -0.4457 -0.8171 -0.3657
vn -1.0000 -0.0000 -0.0000
vn -0.2676 -0.9601 -0.0812
vn -0.0015 -1.0000 -0.0000
vt 0.845732 0.190769
vt 0.845731 0.190769
vt 0.898927 0.270701
vt 0.502034 0.523781
vt 0.507749 0.520313
vt 0.520997 0.553389
vt 0.490719 0.567677
vt 0.445258 0.610213
vt 0.436142 0.593302
vt 0.553723 0.559797
vt 0.614531 0.551678
vt 0.612662 0.571314
vt 0.488681 0.561020
vt 0.430205 0.574735
vt 0.607318 0.590106
vt 0.487881 0.554051
vt 0.427710 0.555196
vt 0.548900 0.572739
vt 0.598740 0.607358
vt 0.488357 0.547037
vt 0.428795 0.535423
vt 0.544847 0.578197
vt 0.587283 0.622447
vt 0.490096 0.540249
vt 0.433464 0.516180
vt 0.539894 0.582696
vt 0.573396 0.634840
vt 0.493035 0.533950
vt 0.441578 0.498233
vt 0.534232 0.586071
vt 0.557603 0.644108
vt 0.527042 0.517877
vt 0.519425 0.450367
vt 0.538079 0.452032
vt 0.497066 0.528387
vt 0.452853 0.482310
vt 0.528076 0.588197
vt 0.540487 0.649933
vt 0.533347 0.519828
vt 0.556039 0.457672
vt 0.466869 0.469070
vt 0.521658 0.588996
vt 0.522673 0.652118
vt 0.539172 0.523077
vt 0.572573 0.467043
vt 0.483078 0.459074
vt 0.515217 0.588437
vt 0.504802 0.650591
vt 0.544288 0.527493
vt 0.587020 0.479744
vt 0.513987 0.518125
vt 0.500838 0.452748
vt 0.508997 0.586543
vt 0.487517 0.645402
vt 0.548496 0.532901
vt 0.598815 0.495236
vt 0.520503 0.517301
vt 0.471447 0.636726
vt 0.551638 0.539086
vt 0.607514 0.512875
vt 0.498139 0.579071
vt 0.457182 0.624860
vt 0.553596 0.545807
vt 0.612807 0.531943
vt 0.493914 0.573770
vt 0.554297 0.552800
vt 0.955160 0.545434
vt 0.935181 0.456497
vt 0.953870 0.452189
vt 0.933152 0.912265
vt 0.853840 0.960135
vt 0.848359 0.911344
vt 0.962857 0.816231
vt 0.878853 0.889177
vt 0.871361 0.816037
vt 0.823261 0.547801
vt 0.753270 0.499059
vt 0.820535 0.483317
vt 0.756106 0.549045
vt 0.676291 0.517080
vt 0.678745 0.550483
vt 0.184356 0.805725
vt 0.251496 0.854838
vt 0.240394 0.867310
vt 0.282613 0.732046
vt 0.364120 0.728901
vt 0.321480 0.776578
vt 0.333959 0.693581
vt 0.414426 0.672659
vt 0.394255 0.648417
vt 0.935200 0.359263
vt 0.928785 0.961114
vt 0.805895 0.419827
vt 0.741250 0.450144
vt 0.667748 0.484621
vt 0.304960 0.916230
vt 0.953874 0.889330
vt 0.366891 0.812213
vt 0.399619 0.757276
vt 0.438380 0.692223
vt 0.916982 0.367742
vt 0.898928 0.270701
vt 0.779470 0.360024
vt 0.720255 0.404340
vt 0.653336 0.454427
vt 0.313416 0.901980
vt 0.375860 0.951458
vt 0.439171 0.777887
vt 0.417229 0.838020
vt 0.465227 0.706484
vt 0.512703 0.033388
vt 0.423862 0.070058
vt 0.419095 0.046442
vt 0.515441 0.203085
vt 0.468460 0.291771
vt 0.452333 0.211596
vt 0.516766 0.285364
vt 0.486416 0.381044
vt 0.518241 0.376902
vt 0.882014 0.283292
vt 0.741957 0.306632
vt 0.690909 0.363665
vt 0.633528 0.427778
vt 0.381498 0.935954
vt 0.450905 0.972316
vt 0.481416 0.790160
vt 0.470827 0.853358
vt 0.494010 0.714997
vt 0.330669 0.080855
vt 0.392444 0.234098
vt 0.422515 0.308735
vt 0.456070 0.392029
vt 0.830974 0.207191
vt 0.777311 0.123686
vt 0.694662 0.262242
vt 0.654265 0.330004
vt 0.609059 0.405838
vt 0.453618 0.956080
vt 0.527922 0.978426
vt 0.524954 0.793766
vt 0.525985 0.857859
vt 0.523726 0.717501
vt 0.339510 0.102722
vt 0.251737 0.134489
vt 0.338496 0.269365
vt 0.380944 0.335395
vt 0.428478 0.409345
vt 0.765515 0.143407
vt 0.696414 0.073260
vt 0.639480 0.229123
vt 0.611783 0.304982
vt 0.580892 0.389596
vt 0.527660 0.961977
vt 0.604749 0.969681
vt 0.580992 0.851417
vt 0.568366 0.788607
vt 0.553351 0.713918
vt 0.264116 0.153673
vt 0.185842 0.204150
vt 0.292812 0.315532
vt 0.345497 0.370430
vt 0.404770 0.432200
vt 0.688266 0.095511
vt 0.606738 0.042521
vt 0.578812 0.209038
vt 0.565266 0.289845
vt 0.550188 0.379798
vt 0.601516 0.953537
vt 0.679219 0.946234
vt 0.634136 0.834185
vt 0.610235 0.774821
vt 0.581864 0.704360
vt 0.201047 0.219922
vt 0.135550 0.285928
vt 0.257186 0.370258
vt 0.317565 0.412160
vt 0.385872 0.459568
vt 0.602735 0.066337
vt 0.673077 0.930914
vt 0.749159 0.908514
vt 0.683724 0.806577
vt 0.649167 0.752782
vt 0.608267 0.689119
vt 0.152762 0.297803
vt 0.102374 0.375575
vt 0.232812 0.430916
vt 0.298126 0.458666
vt 0.372470 0.490260
vt 0.740224 0.894542
vt 0.812376 0.857258
vt 0.728091 0.769284
vt 0.683813 0.723106
vt 0.631614 0.668674
vt 0.120738 0.383310
vt 0.086820 0.468842
vt 0.220287 0.494776
vt 0.287730 0.507919
vt 0.364998 0.522984
vt 0.852785 0.783849
vt 0.866677 0.793560
vt 0.765638 0.723293
vt 0.712902 0.686656
vt 0.651031 0.643679
vt 0.105513 0.472420
vt 0.088529 0.561752
vt 0.219646 0.559167
vt 0.286511 0.557887
vt 0.363626 0.556417
vt 0.909905 0.718934
vt 0.794868 0.669906
vt 0.735276 0.644546
vt 0.665751 0.614966
vt 0.106797 0.561339
vt 0.106445 0.650772
vt 0.230436 0.621603
vt 0.294227 0.606633
vt 0.368277 0.589262
vt 0.894021 0.712113
vt 0.940012 0.635381
vt 0.814444 0.610756
vt 0.749939 0.598143
vt 0.675144 0.583525
vt 0.123633 0.646677
vt 0.139015 0.732909
vt 0.251808 0.679864
vt 0.310319 0.652384
vt 0.378651 0.620297
vt 0.922592 0.631912
vt 0.154578 0.725539
vt 0.510084 0.584441
vt 0.549032 0.566265
vt 0.532182 0.523909
vt 0.592196 0.603688
vt 0.600028 0.587877
vt 0.491649 0.561264
vt 0.435612 0.555915
vt 0.437866 0.573799
vt 0.550684 0.560154
vt 0.604892 0.570667
vt 0.493496 0.567307
vt 0.443276 0.590806
vt 0.551202 0.553805
vt 0.606573 0.552696
vt 0.496393 0.572840
vt 0.451602 0.606306
vt 0.550561 0.547461
vt 0.604965 0.534648
vt 0.500227 0.577654
vt 0.462509 0.619738
vt 0.548781 0.541366
vt 0.600095 0.517222
vt 0.504849 0.581570
vt 0.475571 0.630625
vt 0.592118 0.501112
vt 0.490294 0.638588
vt 0.502568 0.462353
vt 0.520533 0.521619
vt 0.519546 0.460181
vt 0.542107 0.530855
vt 0.581318 0.486973
vt 0.515732 0.586163
vt 0.506136 0.643353
vt 0.508967 0.524349
vt 0.486343 0.468119
vt 0.537466 0.526853
vt 0.568105 0.475387
vt 0.521582 0.586670
vt 0.522520 0.644755
vt 0.503782 0.527491
vt 0.471526 0.477235
vt 0.552993 0.466841
vt 0.527410 0.585944
vt 0.538850 0.642748
vt 0.499275 0.531666
vt 0.458705 0.489314
vt 0.526464 0.522141
vt 0.536586 0.461699
vt 0.554537 0.637401
vt 0.495615 0.536708
vt 0.448380 0.503849
vt 0.538141 0.580947
vt 0.569004 0.628895
vt 0.440936 0.520241
vt 0.542636 0.576859
vt 0.581718 0.617525
vt 0.491364 0.548577
vt 0.436636 0.537829
vt 0.546314 0.571904
vt 0.490928 0.554940
vt 0.088528 0.561752
vt 0.112750 0.474010
vt 0.086820 0.468842
vt 0.113878 0.561379
vt 0.166061 0.484564
vt 0.166182 0.560539
vt 0.235467 0.498255
vt 0.234660 0.559391
vt 0.302808 0.511525
vt 0.301516 0.558257
vt 0.376869 0.526083
vt 0.375522 0.556966
vt 0.866676 0.793560
vt 0.796331 0.840633
vt 0.812375 0.857258
vt 0.807196 0.752506
vt 0.847376 0.780261
vt 0.718205 0.759478
vt 0.762844 0.805869
vt 0.753845 0.715605
vt 0.673724 0.713238
vt 0.700922 0.678985
vt 0.623418 0.660906
vt 0.641350 0.637730
vt 0.127839 0.386511
vt 0.102373 0.375575
vt 0.180006 0.408844
vt 0.247547 0.437708
vt 0.312674 0.465525
vt 0.383845 0.495888
vt 0.749159 0.908514
vt 0.736737 0.889285
vt 0.710756 0.849002
vt 0.676016 0.795085
vt 0.641272 0.741149
vt 0.601825 0.679878
vt 0.159408 0.302604
vt 0.135549 0.285928
vt 0.208113 0.336575
vt 0.270837 0.380273
vt 0.330965 0.422148
vt 0.396281 0.467598
vt 0.679219 0.946234
vt 0.670678 0.925128
vt 0.652786 0.880856
vt 0.628807 0.821463
vt 0.604761 0.761893
vt 0.577381 0.694029
vt 0.512702 0.033388
vt 0.601186 0.075736
vt 0.606738 0.042521
vt 0.513242 0.067250
vt 0.589964 0.142838
vt 0.514337 0.135639
vt 0.575715 0.227983
vt 0.515728 0.222370
vt 0.562266 0.308328
vt 0.517039 0.304166
vt 0.547888 0.394201
vt 0.518444 0.391540
vt 0.206911 0.226227
vt 0.185842 0.204150
vt 0.249790 0.271082
vt 0.304745 0.328519
vt 0.413769 0.442395
vt 0.357150 0.383273
vt 0.604748 0.969681
vt 0.600251 0.947426
vt 0.590826 0.900703
vt 0.578173 0.837936
vt 0.565464 0.774875
vt 0.550967 0.702907
vt 0.685118 0.104309
vt 0.696413 0.073260
vt 0.662250 0.167107
vt 0.633165 0.246926
vt 0.576195 0.403206
vt 0.605661 0.322393
vt 0.268885 0.161291
vt 0.251736 0.134489
vt 0.303693 0.215616
vt 0.348124 0.284906
vt 0.390304 0.350670
vt 0.435671 0.421365
vt 0.527922 0.978426
vt 0.527552 0.955746
vt 0.526780 0.908116
vt 0.525743 0.844096
vt 0.524702 0.779735
vt 0.523514 0.706235
vt 0.760958 0.151231
vt 0.777311 0.123686
vt 0.727785 0.207041
vt 0.685469 0.278182
vt 0.645327 0.345655
vt 0.602181 0.418140
vt 0.342911 0.111373
vt 0.330668 0.080855
vt 0.367711 0.173111
vt 0.399270 0.251620
vt 0.429126 0.325881
vt 0.461130 0.405442
vt 0.450905 0.972316
vt 0.454670 0.949933
vt 0.462566 0.902937
vt 0.473168 0.839792
vt 0.483821 0.776339
vt 0.495975 0.703909
vt 0.825271 0.213746
vt 0.783656 0.260405
vt 0.730362 0.320108
vt 0.679588 0.376975
vt 0.624781 0.438325
vt 0.425692 0.079380
vt 0.419094 0.046442
vt 0.439038 0.145931
vt 0.455990 0.230395
vt 0.489110 0.395346
vt 0.471994 0.310117
vt 0.375859 0.951458
vt 0.383690 0.930095
vt 0.400096 0.885275
vt 0.422096 0.825129
vt 0.444167 0.764780
vt 0.469308 0.696002
vt 0.875472 0.288370
vt 0.827619 0.324349
vt 0.766049 0.370591
vt 0.643105 0.462862
vt 0.707087 0.414859
vt 0.304959 0.916230
vt 0.316706 0.896613
vt 0.341281 0.855510
vt 0.374164 0.800468
vt 0.407067 0.745379
vt 0.444449 0.682759
vt 0.909927 0.371230
vt 0.935199 0.359263
vt 0.858192 0.395658
vt 0.791278 0.427202
vt 0.726826 0.457572
vt 0.656471 0.490688
vt 0.240393 0.867310
vt 0.255814 0.850169
vt 0.288017 0.814314
vt 0.330972 0.766439
vt 0.373807 0.718686
vt 0.422291 0.664603
vt 0.953869 0.452189
vt 0.874656 0.471004
vt 0.927936 0.458372
vt 0.805362 0.487385
vt 0.738207 0.503245
vt 0.664434 0.520634
vt 0.184355 0.805725
vt 0.203105 0.791783
vt 0.242164 0.762676
vt 0.294065 0.723951
vt 0.345597 0.685489
vt 0.403656 0.642122
vt 0.955159 0.545434
vt 0.876993 0.547156
vt 0.929631 0.546020
vt 0.808149 0.548594
vt 0.741011 0.549983
vt 0.666780 0.551482
vt 0.139014 0.732909
vt 0.160623 0.722867
vt 0.205506 0.701944
vt 0.264886 0.674215
vt 0.323542 0.646811
vt 0.389273 0.616067
vt 0.940011 0.635381
vt 0.915823 0.630762
vt 0.865774 0.621138
vt 0.799962 0.608433
vt 0.735385 0.595953
vt 0.663529 0.582031
vt 0.106444 0.650772
vt 0.130302 0.645283
vt 0.179701 0.633849
vt 0.244726 0.618752
vt 0.308595 0.603908
vt 0.379744 0.587338
vt 0.909905 0.718934
vt 0.887843 0.709656
vt 0.842047 0.690327
vt 0.781518 0.664731
vt 0.721783 0.639458
vt 0.654912 0.611130
vt 0.503231 0.583382
vt 0.551898 0.566528
vt 0.936769 0.545711
vt 0.197857 0.795551
vt 0.513097 0.057672
vt 0.800831 0.845157
vt 0.514624 0.522365
vt 0.492946 0.542420
vt 0.533001 0.584013
vt 0.545927 0.535758
s 0
usemtl 材質.004
f 9/1/1 509/2/1 513/3/1
f 114/4/2 116/5/2 515/6/2
f 101/7/3 130/8/3 132/9/3
f 75/10/4 155/11/4 157/12/4
f 103/13/5 132/9/5 169/14/5
f 181/15/6 75/10/6 157/12/6
f 104/16/7 169/14/7 193/17/7
f 78/18/8 181/15/8 205/19/8
f 107/20/9 193/17/9 216/21/9
f 80/22/10 205/19/10 228/23/10
f 109/24/11 216/21/11 240/25/11
f 82/26/12 228/23/12 252/27/12
f 111/28/13 240/25/13 264/29/13
f 84/30/14 252/27/14 277/31/14
f 58/32/15 298/33/15 301/34/15
f 112/35/16 264/29/16 312/36/16
f 86/37/17 277/31/17 324/38/17
f 60/39/18 301/34/18 337/40/18
f 114/4/19 312/36/19 349/41/19
f 89/42/20 324/38/20 360/43/20
f 62/44/21 337/40/21 372/45/21
f 116/5/22 349/41/22 384/46/22
f 91/47/23 360/43/23 397/48/23
f 64/49/24 372/45/24 409/50/24
f 119/51/25 384/46/25 421/52/25
f 93/53/26 397/48/26 433/54/26
f 66/55/27 409/50/27 445/56/27
f 56/57/28 421/52/28 298/33/28
f 457/58/29 93/53/29 433/54/29
f 68/59/30 445/56/30 469/60/30
f 97/61/31 457/58/31 481/62/31
f 70/63/32 469/60/32 493/64/32
f 99/65/33 481/62/33 130/8/33
f 73/66/34 493/64/34 155/11/34
f 17/67/35 502/68/35 16/69/35
f 145/70/36 500/71/36 502/72/36
f 147/73/37 498/74/37 500/75/37
f 148/76/38 497/77/38 498/78/38
f 150/79/39 494/80/39 497/77/39
f 152/81/40 493/64/40 494/80/40
f 42/82/41 490/83/41 41/84/41
f 121/70/42 489/71/42 490/72/42
f 123/73/43 487/74/43 489/75/43
f 125/85/44 485/86/44 487/87/44
f 127/88/45 483/89/45 485/86/45
f 129/90/46 481/62/46 483/89/46
f 502/68/47 14/91/47 16/69/47
f 500/92/48 479/72/48 502/70/48
f 500/73/49 475/74/49 477/75/49
f 497/77/50 475/93/50 498/78/50
f 494/80/51 473/94/51 497/77/51
f 493/64/52 471/95/52 494/80/52
f 490/83/53 40/96/53 41/84/53
f 489/92/54 467/72/54 490/70/54
f 487/97/55 465/75/55 489/73/55
f 485/86/56 463/98/56 487/87/56
f 483/89/57 461/99/57 485/86/57
f 481/62/58 458/100/58 483/89/58
f 479/101/59 12/102/59 14/91/59
f 477/92/60 454/72/60 479/70/60
f 475/97/61 452/75/61 477/73/61
f 473/94/62 450/103/62 475/93/62
f 471/95/63 448/104/63 473/94/63
f 469/60/64 446/105/64 471/95/64
f 467/106/65 37/107/65 40/96/65
f 465/92/66 442/72/66 467/70/66
f 463/97/67 441/75/67 465/73/67
f 463/98/68 437/108/68 438/109/68
f 458/100/69 437/108/69 461/99/69
f 457/58/70 434/110/70 458/100/70
f 1/111/71 431/112/71 55/113/71
f 289/70/72 429/71/72 431/72/72
f 290/73/73 427/74/73 429/75/73
f 292/114/74 424/115/74 427/116/74
f 295/117/75 422/118/75 424/115/75
f 296/119/76 421/52/76 422/118/76
f 454/120/77 9/1/77 12/102/77
f 452/92/78 418/72/78 454/70/78
f 450/97/79 416/75/79 452/73/79
f 448/104/80 414/121/80 450/103/80
f 446/105/81 412/122/81 448/104/81
f 445/56/82 410/123/82 446/105/82
f 442/124/83 36/125/83 37/107/83
f 441/92/84 407/72/84 442/70/84
f 438/97/85 404/75/85 441/73/85
f 438/109/86 401/126/86 402/127/86
f 434/110/87 401/126/87 437/108/87
f 433/54/88 399/128/88 434/110/88
f 431/112/89 52/129/89 55/113/89
f 429/92/90 394/72/90 431/70/90
f 427/97/91 393/75/91 429/73/91
f 424/115/92 391/130/92 427/116/92
f 422/118/93 389/131/93 424/115/93
f 421/52/94 386/132/94 422/118/94
f 418/133/95 7/134/95 9/1/95
f 416/92/96 383/72/96 418/70/96
f 414/97/97 380/75/97 416/73/97
f 412/122/98 379/135/98 414/121/98
f 410/123/99 377/136/99 412/122/99
f 409/50/100 375/137/100 410/123/100
f 407/138/101 33/139/101 36/125/101
f 404/92/102 370/72/102 407/70/102
f 404/73/103 366/74/103 368/75/103
f 402/127/104 364/140/104 366/141/104
f 399/128/105 364/140/105 401/126/105
f 397/48/106 362/142/106 399/128/106
f 394/143/107 50/144/107 52/129/107
f 393/92/108 358/72/108 394/70/108
f 391/97/109 356/75/109 393/73/109
f 389/131/110 354/145/110 391/130/110
f 386/132/111 352/146/111 389/131/111
f 384/46/112 350/147/112 386/132/112
f 383/148/113 5/149/113 7/134/113
f 380/92/114 346/72/114 383/70/114
f 379/97/115 344/75/115 380/73/115
f 377/136/116 342/150/116 379/135/116
f 375/137/117 341/151/117 377/136/117
f 372/45/118 338/152/118 375/137/118
f 370/153/119 31/154/119 33/139/119
f 370/70/120 332/71/120 334/72/120
f 368/73/121 330/74/121 332/75/121
f 364/140/122 330/155/122 366/141/122
f 362/142/123 328/156/123 364/140/123
f 360/43/124 326/157/124 362/142/124
f 358/158/125 49/159/125 50/144/125
f 356/92/126 322/72/126 358/70/126
f 354/97/127 320/75/127 356/73/127
f 352/146/128 319/160/128 354/145/128
f 350/147/129 316/161/129 352/146/129
f 349/41/130 314/162/130 350/147/130
f 346/163/131 3/164/131 5/149/131
f 344/92/132 311/72/132 346/70/132
f 342/97/133 309/75/133 344/73/133
f 341/151/134 306/165/134 342/150/134
f 338/152/135 304/166/135 341/151/135
f 337/40/136 303/167/136 338/152/136
f 334/168/137 30/169/137 31/154/137
f 334/70/138 284/71/138 287/72/138
f 330/97/139 284/75/139 332/73/139
f 328/156/140 282/170/140 330/155/140
f 326/157/141 280/171/141 328/156/141
f 324/38/142 278/172/142 326/157/142
f 322/173/143 48/174/143 49/159/143
f 320/92/144 275/72/144 322/70/144
f 319/97/145 273/75/145 320/73/145
f 316/161/146 270/175/146 319/160/146
f 314/162/147 268/176/147 316/161/147
f 312/36/148 267/177/148 314/162/148
f 311/178/149 1/111/149 3/164/149
f 309/92/150 289/72/150 311/70/150
f 306/97/151 290/75/151 309/73/151
f 304/166/152 292/114/152 306/165/152
f 303/167/153 295/117/153 304/166/153
f 301/34/154 296/119/154 303/167/154
f 287/179/155 27/180/155 30/169/155
f 284/92/156 263/72/156 287/70/156
f 282/97/157 261/75/157 284/73/157
f 280/171/158 259/181/158 282/170/158
f 278/172/159 257/182/159 280/171/159
f 277/31/160 255/183/160 278/172/160
f 275/184/161 47/185/161 48/174/161
f 273/92/162 251/72/162 275/70/162
f 270/97/163 249/75/163 273/73/163
f 268/176/164 247/186/164 270/175/164
f 267/177/165 245/187/165 268/176/165
f 264/29/166 242/188/166 267/177/166
f 263/189/167 26/190/167 27/180/167
f 261/92/168 239/72/168 263/70/168
f 259/97/169 237/75/169 261/73/169
f 257/182/170 235/191/170 259/181/170
f 255/183/171 233/192/171 257/182/171
f 252/27/172 230/193/172 255/183/172
f 251/194/173 46/195/173 47/185/173
f 249/92/174 227/72/174 251/70/174
f 247/97/175 225/75/175 249/73/175
f 245/187/176 223/196/176 247/186/176
f 242/188/177 220/197/177 245/187/177
f 240/25/178 219/198/178 242/188/178
f 26/190/179 214/199/179 24/200/179
f 237/92/180 214/72/180 239/70/180
f 235/97/181 212/75/181 237/73/181
f 233/192/182 210/201/182 235/191/182
f 230/193/183 208/202/183 233/192/183
f 228/23/184 206/203/184 230/193/184
f 227/204/185 45/205/185 46/195/185
f 225/92/186 202/72/186 227/70/186
f 223/97/187 200/75/187 225/73/187
f 220/197/188 198/206/188 223/196/188
f 219/198/189 196/207/189 220/197/189
f 216/21/190 195/208/190 219/198/190
f 214/199/191 21/209/191 24/200/191
f 212/92/192 191/72/192 214/70/192
f 210/97/193 189/75/193 212/73/193
f 208/202/194 187/210/194 210/201/194
f 206/203/195 184/211/195 208/202/195
f 205/19/196 183/212/196 206/203/196
f 202/213/197 44/214/197 45/205/197
f 200/92/198 179/72/198 202/70/198
f 198/97/199 177/75/199 200/73/199
f 196/207/200 175/215/200 198/206/200
f 195/208/201 173/216/201 196/207/201
f 193/17/202 171/217/202 195/208/202
f 191/218/203 19/219/203 21/209/203
f 189/92/204 167/72/204 191/70/204
f 189/73/205 163/74/205 165/75/205
f 184/211/206 163/220/206 187/210/206
f 183/212/207 161/221/207 184/211/207
f 181/15/208 159/222/208 183/212/208
f 179/223/209 43/224/209 44/214/209
f 177/92/210 143/72/210 179/70/210
f 175/97/211 141/75/211 177/73/211
f 173/216/212 139/225/212 175/215/212
f 171/217/213 137/226/213 173/216/213
f 169/14/214 134/227/214 171/217/214
f 167/228/215 17/67/215 19/219/215
f 165/92/216 145/72/216 167/70/216
f 163/97/217 147/75/217 165/73/217
f 161/221/218 148/76/218 163/220/218
f 159/222/219 150/79/219 161/221/219
f 157/12/220 152/81/220 159/222/220
f 143/229/221 42/82/221 43/224/221
f 141/92/222 121/72/222 143/70/222
f 139/97/223 123/75/223 141/73/223
f 137/226/224 125/85/224 139/225/224
f 134/227/225 127/88/225 137/226/225
f 132/9/226 129/90/226 134/227/226
f 85/230/1 100/231/1 117/232/1
f 100/231/227 131/233/227 133/234/227
f 74/235/228 154/236/228 156/237/228
f 102/238/229 133/234/229 168/239/229
f 77/240/230 156/237/230 180/241/230
f 105/242/231 168/239/231 192/243/231
f 79/244/232 180/241/232 204/245/232
f 106/246/233 192/243/233 217/247/233
f 81/248/234 204/245/234 229/249/234
f 108/250/235 217/247/235 241/251/235
f 83/252/236 229/249/236 253/253/236
f 265/254/237 108/250/237 241/251/237
f 85/230/238 253/253/238 276/255/238
f 300/256/239 57/257/239 299/258/239
f 113/259/240 265/254/240 313/260/240
f 87/261/241 276/255/241 325/262/241
f 61/263/242 300/256/242 336/264/242
f 115/265/243 313/260/243 348/266/243
f 88/267/244 325/262/244 361/268/244
f 63/269/245 336/264/245 373/270/245
f 117/232/246 348/266/246 385/271/246
f 90/272/247 361/268/247 396/273/247
f 65/274/248 373/270/248 408/275/248
f 118/276/249 385/271/249 420/277/249
f 432/278/250 90/272/250 396/273/250
f 67/279/251 408/275/251 444/280/251
f 57/257/252 420/277/252 299/258/252
f 94/281/253 432/278/253 456/282/253
f 468/283/254 67/279/254 444/280/254
f 96/284/255 456/282/255 480/285/255
f 71/286/256 468/283/256 492/287/256
f 98/288/257 480/285/257 131/233/257
f 72/289/258 492/287/258 154/236/258
f 18/290/259 503/291/259 15/292/259
f 144/293/260 501/294/260 503/291/260
f 146/295/261 499/296/261 501/294/261
f 149/297/262 496/298/262 499/296/262
f 151/299/263 495/300/263 496/298/263
f 153/301/264 492/287/264 495/300/264
f 510/302/265 491/303/265 504/304/265
f 122/305/266 491/303/266 120/306/266
f 122/305/267 486/307/267 488/308/267
f 124/309/268 484/310/268 486/307/268
f 126/311/269 482/312/269 484/310/269
f 128/313/270 480/285/270 482/312/270
f 15/292/271 478/314/271 13/315/271
f 503/291/272 476/316/272 478/314/272
f 501/294/273 474/317/273 476/316/273
f 496/298/274 474/317/274 499/296/274
f 495/300/275 472/318/275 496/298/275
f 492/287/276 470/319/276 495/300/276
f 491/303/277 39/320/277 504/304/277
f 488/308/278 466/321/278 491/303/278
f 486/307/279 464/322/279 488/308/279
f 484/310/280 462/323/280 486/307/280
f 482/312/281 460/324/281 484/310/281
f 480/285/282 459/325/282 482/312/282
f 13/315/283 455/326/283 11/327/283
f 478/314/284 453/328/284 455/326/284
f 476/316/285 451/329/285 453/328/285
f 474/317/286 449/330/286 451/329/286
f 472/318/287 447/331/287 449/330/287
f 470/319/288 444/280/288 447/331/288
f 466/321/289 38/332/289 39/320/289
f 464/322/290 443/333/290 466/321/290
f 462/323/291 440/334/291 464/322/291
f 460/324/292 439/335/292 462/323/292
f 459/325/293 436/336/293 460/324/293
f 456/282/294 435/337/294 459/325/294
f 2/338/295 430/339/295 54/340/295
f 288/341/296 428/342/296 430/339/296
f 291/343/297 426/344/297 428/342/297
f 293/345/298 425/346/298 426/344/298
f 294/347/299 423/348/299 425/346/299
f 297/349/300 420/277/300 423/348/300
f 11/327/301 419/350/301 10/351/301
f 455/326/302 417/352/302 419/350/302
f 451/329/303 417/352/303 453/328/303
f 449/330/304 415/353/304 451/329/304
f 449/330/305 411/354/305 413/355/305
f 447/331/306 408/275/306 411/354/306
f 443/333/307 35/356/307 38/332/307
f 440/334/308 406/357/308 443/333/308
f 439/335/309 405/358/309 440/334/309
f 436/336/310 403/359/310 439/335/310
f 435/337/311 400/360/311 436/336/311
f 432/278/312 398/361/312 435/337/312
f 54/340/313 395/362/313 53/363/313
f 430/339/314 392/364/314 395/362/314
f 426/344/315 392/364/315 428/342/315
f 425/346/316 390/365/316 426/344/316
f 425/346/317 387/366/317 388/367/317
f 423/348/318 385/271/318 387/366/318
f 10/351/319 382/368/319 8/369/319
f 419/350/320 381/370/320 382/368/320
f 417/352/321 378/371/321 381/370/321
f 415/353/322 376/372/322 378/371/322
f 411/354/323 376/372/323 413/355/323
f 408/275/324 374/373/324 411/354/324
f 406/357/325 34/374/325 35/356/325
f 405/358/326 371/375/326 406/357/326
f 403/359/327 369/376/327 405/358/327
f 400/360/328 367/377/328 403/359/328
f 398/361/329 365/378/329 400/360/329
f 396/273/330 363/379/330 398/361/330
f 53/363/331 359/380/331 51/381/331
f 395/362/332 357/382/332 359/380/332
f 392/364/333 355/383/333 357/382/333
f 390/365/334 353/384/334 355/383/334
f 387/366/335 353/384/335 388/367/335
f 385/271/336 351/385/336 387/366/336
f 8/369/337 347/386/337 6/387/337
f 382/368/338 345/388/338 347/386/338
f 381/370/339 343/389/339 345/388/339
f 378/371/340 340/390/340 343/389/340
f 376/372/341 339/391/341 340/390/341
f 373/270/342 339/391/342 374/373/342
f 371/375/343 32/392/343 34/374/343
f 369/376/344 335/393/344 371/375/344
f 367/377/345 333/394/345 369/376/345
f 365/378/346 331/395/346 367/377/346
f 363/379/347 329/396/347 365/378/347
f 363/379/348 325/262/348 327/397/348
f 51/381/349 323/398/349 508/2/349
f 359/380/350 321/399/350 323/398/350
f 357/382/351 318/400/351 321/399/351
f 355/383/352 317/401/352 318/400/352
f 351/385/353 317/401/353 353/384/353
f 348/266/354 315/402/354 351/385/354
f 6/387/355 310/403/355 4/404/355
f 347/386/356 308/405/356 310/403/356
f 345/388/357 307/406/357 308/405/357
f 340/390/358 307/406/358 343/389/358
f 340/390/359 302/407/359 305/408/359
f 339/391/360 300/256/360 302/407/360
f 335/393/361 29/409/361 32/392/361
f 333/394/362 286/410/362 335/393/362
f 331/395/363 285/411/363 333/394/363
f 329/396/364 283/412/364 331/395/364
f 327/397/365 281/413/365 329/396/365
f 325/262/366 279/414/366 327/397/366
f 274/415/367 513/3/367 509/2/367
f 323/398/368 272/416/368 274/415/368
f 318/400/369 272/416/369 321/399/369
f 317/401/370 271/417/370 318/400/370
f 317/401/371 266/418/371 269/419/371
f 315/402/372 265/254/372 266/418/372
f 4/404/373 288/341/373 2/338/373
f 310/403/374 291/343/374 288/341/374
f 308/405/375 293/345/375 291/343/375
f 305/408/376 293/345/376 307/406/376
f 302/407/377 294/347/377 305/408/377
f 300/256/378 297/349/378 302/407/378
f 286/410/379 28/420/379 29/409/379
f 285/411/380 262/421/380 286/410/380
f 283/412/381 260/422/381 285/411/381
f 281/413/382 258/423/382 283/412/382
f 279/414/383 256/424/383 281/413/383
f 276/255/384 254/425/384 279/414/384
f 250/426/385 507/427/385 512/3/385
f 274/415/386 248/428/386 250/426/386
f 272/416/387 246/429/387 248/428/387
f 271/417/388 244/430/388 246/429/388
f 269/419/389 243/431/389 244/430/389
f 266/418/390 241/251/390 243/431/390
f 262/421/391 25/432/391 28/420/391
f 260/422/392 238/433/392 262/421/392
f 258/423/393 236/434/393 260/422/393
f 256/424/394 234/435/394 258/423/394
f 254/425/395 232/436/395 256/424/395
f 253/253/396 231/437/396 254/425/396
f 250/426/397 511/438/397 507/427/397
f 250/426/398 224/439/398 226/440/398
f 246/429/399 224/439/399 248/428/399
f 244/430/400 222/441/400 246/429/400
f 243/431/401 221/442/401 244/430/401
f 241/251/402 218/443/402 243/431/402
f 238/433/403 23/444/403 25/432/403
f 236/434/404 215/445/404 238/433/404
f 234/435/405 213/446/405 236/434/405
f 232/436/406 211/447/406 234/435/406
f 231/437/407 209/448/407 232/436/407
f 229/249/408 207/449/408 231/437/408
f 226/440/409 506/450/409 511/438/409
f 226/440/410 201/451/410 203/452/410
f 224/439/411 199/453/411 201/451/411
f 222/441/412 197/454/412 199/453/412
f 218/443/413 197/454/413 221/442/413
f 218/443/414 192/243/414 194/455/414
f 215/445/415 22/456/415 23/444/415
f 213/446/416 190/457/416 215/445/416
f 211/447/417 188/458/417 213/446/417
f 209/448/418 186/459/418 211/447/418
f 207/449/419 185/460/419 209/448/419
f 204/245/420 182/461/420 207/449/420
f 203/452/421 514/462/421 506/450/421
f 201/451/422 178/463/422 203/452/422
f 199/453/423 176/464/423 201/451/423
f 197/454/424 174/465/424 199/453/424
f 194/455/425 172/466/425 197/454/425
f 192/243/426 170/467/426 194/455/426
f 190/457/427 20/468/427 22/456/427
f 188/458/428 166/469/428 190/457/428
f 186/459/429 164/470/429 188/458/429
f 185/460/430 162/471/430 186/459/430
f 182/461/431 160/472/431 185/460/431
f 180/241/432 158/473/432 182/461/432
f 178/463/433 505/474/433 514/462/433
f 176/464/434 142/475/434 178/463/434
f 174/465/435 140/476/435 176/464/435
f 172/466/436 138/477/436 174/465/436
f 170/467/437 136/478/437 172/466/437
f 168/239/438 135/479/438 170/467/438
f 166/469/439 18/290/439 20/468/439
f 164/470/440 144/293/440 166/469/440
f 162/471/441 146/295/441 164/470/441
f 160/472/442 149/297/442 162/471/442
f 158/473/443 151/299/443 160/472/443
f 156/237/444 153/301/444 158/473/444
f 142/475/445 510/302/445 505/474/445
f 140/476/446 120/306/446 142/475/446
f 138/477/447 122/305/447 140/476/447
f 136/478/448 124/309/448 138/477/448
f 135/479/449 126/311/449 136/478/449
f 133/234/450 128/313/450 135/479/450
f 45/205/1 44/214/1 17/67/1
f 104/16/2 107/20/2 515/6/2
f 95/480/2 515/6/2 93/53/2
f 70/63/2 73/66/2 515/6/2
f 515/6/2 60/39/2 62/44/2
f 89/42/2 91/47/2 515/6/2
f 513/3/1 512/3/1 12/102/1
f 12/102/1 9/1/1 513/3/1
f 116/5/2 119/51/2 515/6/2
f 119/51/2 56/57/2 515/6/2
f 56/57/2 58/32/2 515/6/2
f 58/32/2 60/39/2 515/6/2
f 515/6/2 109/24/2 111/28/2
f 112/35/2 515/6/2 111/28/2
f 112/35/2 114/4/2 515/6/2
f 101/7/3 99/65/3 130/8/3
f 75/10/4 73/66/4 155/11/4
f 103/13/5 101/7/5 132/9/5
f 181/15/6 76/481/6 75/10/6
f 104/16/7 103/13/7 169/14/7
f 78/18/8 76/481/8 181/15/8
f 107/20/9 104/16/9 193/17/9
f 80/22/10 78/18/10 205/19/10
f 109/24/11 107/20/11 216/21/11
f 82/26/12 80/22/12 228/23/12
f 111/28/13 109/24/13 240/25/13
f 84/30/14 82/26/14 252/27/14
f 58/32/15 56/57/15 298/33/15
f 112/35/16 111/28/16 264/29/16
f 86/37/17 84/30/17 277/31/17
f 60/39/18 58/32/18 301/34/18
f 114/4/19 112/35/19 312/36/19
f 89/42/20 86/37/20 324/38/20
f 62/44/21 60/39/21 337/40/21
f 116/5/22 114/4/22 349/41/22
f 91/47/23 89/42/23 360/43/23
f 64/49/24 62/44/24 372/45/24
f 119/51/25 116/5/25 384/46/25
f 93/53/26 91/47/26 397/48/26
f 66/55/27 64/49/27 409/50/27
f 56/57/28 119/51/28 421/52/28
f 457/58/29 95/480/29 93/53/29
f 68/59/30 66/55/30 445/56/30
f 97/61/31 95/480/31 457/58/31
f 70/63/32 68/59/32 469/60/32
f 99/65/33 97/61/33 481/62/33
f 73/66/34 70/63/34 493/64/34
f 17/67/35 145/482/35 502/68/35
f 145/70/36 147/92/36 500/71/36
f 147/73/37 148/97/37 498/74/37
f 148/76/38 150/79/38 497/77/38
f 150/79/39 152/81/39 494/80/39
f 152/81/40 155/11/40 493/64/40
f 42/82/41 121/483/41 490/83/41
f 121/70/42 123/92/42 489/71/42
f 123/73/43 125/97/43 487/74/43
f 125/85/44 127/88/44 485/86/44
f 127/88/45 129/90/45 483/89/45
f 129/90/46 130/8/46 481/62/46
f 502/68/47 479/101/47 14/91/47
f 500/92/48 477/71/48 479/72/48
f 500/73/49 498/97/49 475/74/49
f 497/77/50 473/94/50 475/93/50
f 494/80/51 471/95/51 473/94/51
f 493/64/52 469/60/52 471/95/52
f 490/83/53 467/106/53 40/96/53
f 489/92/54 465/71/54 467/72/54
f 487/97/55 463/74/55 465/75/55
f 485/86/56 461/99/56 463/98/56
f 483/89/57 458/100/57 461/99/57
f 481/62/58 457/58/58 458/100/58
f 479/101/59 454/120/59 12/102/59
f 477/92/60 452/71/60 454/72/60
f 475/97/61 450/74/61 452/75/61
f 473/94/62 448/104/62 450/103/62
f 471/95/63 446/105/63 448/104/63
f 469/60/64 445/56/64 446/105/64
f 467/106/65 442/124/65 37/107/65
f 465/92/66 441/71/66 442/72/66
f 463/97/67 438/74/67 441/75/67
f 463/98/68 461/99/68 437/108/68
f 458/100/69 434/110/69 437/108/69
f 457/58/70 433/54/70 434/110/70
f 1/111/71 289/484/71 431/112/71
f 289/70/72 290/92/72 429/71/72
f 290/73/73 292/97/73 427/74/73
f 292/114/74 295/117/74 424/115/74
f 295/117/75 296/119/75 422/118/75
f 296/119/76 298/33/76 421/52/76
f 454/120/77 418/133/77 9/1/77
f 452/92/78 416/71/78 418/72/78
f 450/97/79 414/74/79 416/75/79
f 448/104/80 412/122/80 414/121/80
f 446/105/81 410/123/81 412/122/81
f 445/56/82 409/50/82 410/123/82
f 442/124/83 407/138/83 36/125/83
f 441/92/84 404/71/84 407/72/84
f 438/97/85 402/74/85 404/75/85
f 438/109/86 437/108/86 401/126/86
f 434/110/87 399/128/87 401/126/87
f 433/54/88 397/48/88 399/128/88
f 431/112/89 394/143/89 52/129/89
f 429/92/90 393/71/90 394/72/90
f 427/97/91 391/74/91 393/75/91
f 424/115/92 389/131/92 391/130/92
f 422/118/93 386/132/93 389/131/93
f 421/52/94 384/46/94 386/132/94
f 418/133/95 383/148/95 7/134/95
f 416/92/96 380/71/96 383/72/96
f 414/97/97 379/74/97 380/75/97
f 412/122/98 377/136/98 379/135/98
f 410/123/99 375/137/99 377/136/99
f 409/50/100 372/45/100 375/137/100
f 407/138/101 370/153/101 33/139/101
f 404/92/102 368/71/102 370/72/102
f 404/73/103 402/97/103 366/74/103
f 402/127/104 401/126/104 364/140/104
f 399/128/105 362/142/105 364/140/105
f 397/48/106 360/43/106 362/142/106
f 394/143/107 358/158/107 50/144/107
f 393/92/108 356/71/108 358/72/108
f 391/97/109 354/74/109 356/75/109
f 389/131/110 352/146/110 354/145/110
f 386/132/111 350/147/111 352/146/111
f 384/46/112 349/41/112 350/147/112
f 383/148/113 346/163/113 5/149/113
f 380/92/114 344/71/114 346/72/114
f 379/97/115 342/74/115 344/75/115
f 377/136/116 341/151/116 342/150/116
f 375/137/117 338/152/117 341/151/117
f 372/45/118 337/40/118 338/152/118
f 370/153/119 334/168/119 31/154/119
f 370/70/120 368/92/120 332/71/120
f 368/73/121 366/97/121 330/74/121
f 364/140/122 328/156/122 330/155/122
f 362/142/123 326/157/123 328/156/123
f 360/43/124 324/38/124 326/157/124
f 358/158/125 322/173/125 49/159/125
f 356/92/126 320/71/126 322/72/126
f 354/97/127 319/74/127 320/75/127
f 352/146/128 316/161/128 319/160/128
f 350/147/129 314/162/129 316/161/129
f 349/41/130 312/36/130 314/162/130
f 346/163/131 311/178/131 3/164/131
f 344/92/132 309/71/132 311/72/132
f 342/97/133 306/74/133 309/75/133
f 341/151/134 304/166/134 306/165/134
f 338/152/135 303/167/135 304/166/135
f 337/40/136 301/34/136 303/167/136
f 334/168/137 287/179/137 30/169/137
f 334/70/138 332/92/138 284/71/138
f 330/97/139 282/74/139 284/75/139
f 328/156/140 280/171/140 282/170/140
f 326/157/141 278/172/141 280/171/141
f 324/38/142 277/31/142 278/172/142
f 322/173/143 275/184/143 48/174/143
f 320/92/144 273/71/144 275/72/144
f 319/97/145 270/74/145 273/75/145
f 316/161/146 268/176/146 270/175/146
f 314/162/147 267/177/147 268/176/147
f 312/36/148 264/29/148 267/177/148
f 311/178/149 289/484/149 1/111/149
f 309/92/150 290/71/150 289/72/150
f 306/97/151 292/74/151 290/75/151
f 304/166/152 295/117/152 292/114/152
f 303/167/153 296/119/153 295/117/153
f 301/34/154 298/33/154 296/119/154
f 287/179/155 263/189/155 27/180/155
f 284/92/156 261/71/156 263/72/156
f 282/97/157 259/74/157 261/75/157
f 280/171/158 257/182/158 259/181/158
f 278/172/159 255/183/159 257/182/159
f 277/31/160 252/27/160 255/183/160
f 275/184/161 251/194/161 47/185/161
f 273/92/162 249/71/162 251/72/162
f 270/97/163 247/74/163 249/75/163
f 268/176/164 245/187/164 247/186/164
f 267/177/165 242/188/165 245/187/165
f 264/29/166 240/25/166 242/188/166
f 263/189/167 239/485/167 26/190/167
f 261/92/168 237/71/168 239/72/168
f 259/97/169 235/74/169 237/75/169
f 257/182/170 233/192/170 235/191/170
f 255/183/171 230/193/171 233/192/171
f 252/27/172 228/23/172 230/193/172
f 251/194/173 227/204/173 46/195/173
f 249/92/174 225/71/174 227/72/174
f 247/97/175 223/74/175 225/75/175
f 245/187/176 220/197/176 223/196/176
f 242/188/177 219/198/177 220/197/177
f 240/25/178 216/21/178 219/198/178
f 26/190/179 239/485/179 214/199/179
f 237/92/180 212/71/180 214/72/180
f 235/97/181 210/74/181 212/75/181
f 233/192/182 208/202/182 210/201/182
f 230/193/183 206/203/183 208/202/183
f 228/23/184 205/19/184 206/203/184
f 227/204/185 202/213/185 45/205/185
f 225/92/186 200/71/186 202/72/186
f 223/97/187 198/74/187 200/75/187
f 220/197/188 196/207/188 198/206/188
f 219/198/189 195/208/189 196/207/189
f 216/21/190 193/17/190 195/208/190
f 214/199/191 191/218/191 21/209/191
f 212/92/192 189/71/192 191/72/192
f 210/97/193 187/74/193 189/75/193
f 208/202/194 184/211/194 187/210/194
f 206/203/195 183/212/195 184/211/195
f 205/19/196 181/15/196 183/212/196
f 202/213/197 179/223/197 44/214/197
f 200/92/198 177/71/198 179/72/198
f 198/97/199 175/74/199 177/75/199
f 196/207/200 173/216/200 175/215/200
f 195/208/201 171/217/201 173/216/201
f 193/17/202 169/14/202 171/217/202
f 191/218/203 167/228/203 19/219/203
f 189/92/204 165/71/204 167/72/204
f 189/73/205 187/97/205 163/74/205
f 184/211/206 161/221/206 163/220/206
f 183/212/207 159/222/207 161/221/207
f 181/15/208 157/12/208 159/222/208
f 179/223/209 143/229/209 43/224/209
f 177/92/210 141/71/210 143/72/210
f 175/97/211 139/74/211 141/75/211
f 173/216/212 137/226/212 139/225/212
f 171/217/213 134/227/213 137/226/213
f 169/14/214 132/9/214 134/227/214
f 167/228/215 145/482/215 17/67/215
f 165/92/216 147/71/216 145/72/216
f 163/97/217 148/74/217 147/75/217
f 161/221/218 150/79/218 148/76/218
f 159/222/219 152/81/219 150/79/219
f 157/12/220 155/11/220 152/81/220
f 143/229/221 121/483/221 42/82/221
f 141/92/222 123/71/222 121/72/222
f 139/97/223 125/74/223 123/75/223
f 137/226/224 127/88/224 125/85/224
f 134/227/225 129/90/225 127/88/225
f 132/9/226 130/8/226 129/90/226
f 117/232/1 118/276/1 57/257/1
f 57/257/1 59/486/1 117/232/1
f 59/486/1 61/263/1 117/232/1
f 61/263/1 63/269/1 65/274/1
f 65/274/1 67/279/1 61/263/1
f 67/279/1 69/487/1 61/263/1
f 69/487/1 71/286/1 72/289/1
f 72/289/1 74/235/1 77/240/1
f 77/240/1 79/244/1 81/248/1
f 81/248/1 83/252/1 85/230/1
f 85/230/1 87/261/1 88/267/1
f 88/267/1 90/272/1 92/488/1
f 92/488/1 94/281/1 96/284/1
f 96/284/1 98/288/1 100/231/1
f 100/231/1 102/238/1 105/242/1
f 105/242/1 106/246/1 108/250/1
f 108/250/1 110/489/1 117/232/1
f 110/489/1 113/259/1 117/232/1
f 113/259/1 115/265/1 117/232/1
f 69/487/1 72/289/1 77/240/1
f 77/240/1 81/248/1 69/487/1
f 81/248/1 85/230/1 69/487/1
f 85/230/1 88/267/1 92/488/1
f 92/488/1 96/284/1 85/230/1
f 96/284/1 100/231/1 85/230/1
f 100/231/1 105/242/1 117/232/1
f 105/242/1 108/250/1 117/232/1
f 117/232/1 61/263/1 69/487/1
f 117/232/1 69/487/1 85/230/1
f 100/231/227 98/288/227 131/233/227
f 74/235/228 72/289/228 154/236/228
f 102/238/229 100/231/229 133/234/229
f 77/240/230 74/235/230 156/237/230
f 105/242/231 102/238/231 168/239/231
f 79/244/232 77/240/232 180/241/232
f 106/246/233 105/242/233 192/243/233
f 81/248/234 79/244/234 204/245/234
f 108/250/235 106/246/235 217/247/235
f 83/252/236 81/248/236 229/249/236
f 265/254/237 110/489/237 108/250/237
f 85/230/238 83/252/238 253/253/238
f 300/256/239 59/486/239 57/257/239
f 113/259/240 110/489/240 265/254/240
f 87/261/241 85/230/241 276/255/241
f 61/263/242 59/486/242 300/256/242
f 115/265/243 113/259/243 313/260/243
f 88/267/244 87/261/244 325/262/244
f 63/269/245 61/263/245 336/264/245
f 117/232/246 115/265/246 348/266/246
f 90/272/247 88/267/247 361/268/247
f 65/274/248 63/269/248 373/270/248
f 118/276/249 117/232/249 385/271/249
f 432/278/250 92/488/250 90/272/250
f 67/279/251 65/274/251 408/275/251
f 57/257/252 118/276/252 420/277/252
f 94/281/253 92/488/253 432/278/253
f 468/283/254 69/487/254 67/279/254
f 96/284/255 94/281/255 456/282/255
f 71/286/256 69/487/256 468/283/256
f 98/288/257 96/284/257 480/285/257
f 72/289/258 71/286/258 492/287/258
f 18/290/259 144/293/259 503/291/259
f 144/293/260 146/295/260 501/294/260
f 146/295/261 149/297/261 499/296/261
f 149/297/262 151/299/262 496/298/262
f 151/299/263 153/301/263 495/300/263
f 153/301/264 154/236/264 492/287/264
f 510/302/265 120/306/265 491/303/265
f 122/305/266 488/308/266 491/303/266
f 122/305/267 124/309/267 486/307/267
f 124/309/268 126/311/268 484/310/268
f 126/311/269 128/313/269 482/312/269
f 128/313/270 131/233/270 480/285/270
f 15/292/271 503/291/271 478/314/271
f 503/291/272 501/294/272 476/316/272
f 501/294/273 499/296/273 474/317/273
f 496/298/274 472/318/274 474/317/274
f 495/300/275 470/319/275 472/318/275
f 492/287/276 468/283/276 470/319/276
f 491/303/277 466/321/277 39/320/277
f 488/308/278 464/322/278 466/321/278
f 486/307/279 462/323/279 464/322/279
f 484/310/280 460/324/280 462/323/280
f 482/312/281 459/325/281 460/324/281
f 480/285/282 456/282/282 459/325/282
f 13/315/283 478/314/283 455/326/283
f 478/314/284 476/316/284 453/328/284
f 476/316/285 474/317/285 451/329/285
f 474/317/286 472/318/286 449/330/286
f 472/318/287 470/319/287 447/331/287
f 470/319/288 468/283/288 444/280/288
f 466/321/289 443/333/289 38/332/289
f 464/322/290 440/334/290 443/333/290
f 462/323/291 439/335/291 440/334/291
f 460/324/292 436/336/292 439/335/292
f 459/325/293 435/337/293 436/336/293
f 456/282/294 432/278/294 435/337/294
f 2/338/295 288/341/295 430/339/295
f 288/341/296 291/343/296 428/342/296
f 291/343/297 293/345/297 426/344/297
f 293/345/298 294/347/298 425/346/298
f 294/347/299 297/349/299 423/348/299
f 297/349/300 299/258/300 420/277/300
f 11/327/301 455/326/301 419/350/301
f 455/326/302 453/328/302 417/352/302
f 451/329/303 415/353/303 417/352/303
f 449/330/304 413/355/304 415/353/304
f 449/330/305 447/331/305 411/354/305
f 447/331/306 444/280/306 408/275/306
f 443/333/307 406/357/307 35/356/307
f 440/334/308 405/358/308 406/357/308
f 439/335/309 403/359/309 405/358/309
f 436/336/451 400/360/451 403/359/451
f 435/337/311 398/361/311 400/360/311
f 432/278/312 396/273/312 398/361/312
f 54/340/313 430/339/313 395/362/313
f 430/339/314 428/342/314 392/364/314
f 426/344/315 390/365/315 392/364/315
f 425/346/316 388/367/316 390/365/316
f 425/346/317 423/348/317 387/366/317
f 423/348/318 420/277/318 385/271/318
f 10/351/319 419/350/319 382/368/319
f 419/350/320 417/352/320 381/370/320
f 417/352/321 415/353/321 378/371/321
f 415/353/322 413/355/322 376/372/322
f 411/354/323 374/373/323 376/372/323
f 408/275/324 373/270/324 374/373/324
f 406/357/325 371/375/325 34/374/325
f 405/358/326 369/376/326 371/375/326
f 403/359/327 367/377/327 369/376/327
f 400/360/328 365/378/328 367/377/328
f 398/361/329 363/379/329 365/378/329
f 396/273/330 361/268/330 363/379/330
f 53/363/331 395/362/331 359/380/331
f 395/362/332 392/364/332 357/382/332
f 392/364/333 390/365/333 355/383/333
f 390/365/334 388/367/334 353/384/334
f 387/366/335 351/385/335 353/384/335
f 385/271/336 348/266/336 351/385/336
f 8/369/337 382/368/337 347/386/337
f 382/368/338 381/370/338 345/388/338
f 381/370/339 378/371/339 343/389/339
f 378/371/340 376/372/340 340/390/340
f 376/372/341 374/373/341 339/391/341
f 373/270/342 336/264/342 339/391/342
f 371/375/343 335/393/343 32/392/343
f 369/376/344 333/394/344 335/393/344
f 367/377/345 331/395/345 333/394/345
f 365/378/346 329/396/346 331/395/346
f 363/379/347 327/397/347 329/396/347
f 363/379/348 361/268/348 325/262/348
f 51/381/349 359/380/349 323/398/349
f 359/380/350 357/382/350 321/399/350
f 357/382/351 355/383/351 318/400/351
f 355/383/352 353/384/352 317/401/352
f 351/385/353 315/402/353 317/401/353
f 348/266/354 313/260/354 315/402/354
f 6/387/355 347/386/355 310/403/355
f 347/386/356 345/388/356 308/405/356
f 345/388/357 343/389/357 307/406/357
f 340/390/358 305/408/358 307/406/358
f 340/390/359 339/391/359 302/407/359
f 339/391/360 336/264/360 300/256/360
f 335/393/361 286/410/361 29/409/361
f 333/394/362 285/411/362 286/410/362
f 331/395/363 283/412/363 285/411/363
f 329/396/364 281/413/364 283/412/364
f 327/397/365 279/414/365 281/413/365
f 325/262/366 276/255/366 279/414/366
f 509/2/452 508/2/452 323/398/452
f 323/398/453 274/415/453 509/2/453
f 323/398/368 321/399/368 272/416/368
f 318/400/369 271/417/369 272/416/369
f 317/401/370 269/419/370 271/417/370
f 317/401/371 315/402/371 266/418/371
f 315/402/372 313/260/372 265/254/372
f 4/404/373 310/403/373 288/341/373
f 310/403/374 308/405/374 291/343/374
f 308/405/375 307/406/375 293/345/375
f 305/408/376 294/347/376 293/345/376
f 302/407/377 297/349/377 294/347/377
f 300/256/378 299/258/378 297/349/378
f 286/410/379 262/421/379 28/420/379
f 285/411/380 260/422/380 262/421/380
f 283/412/381 258/423/381 260/422/381
f 281/413/382 256/424/382 258/423/382
f 279/414/383 254/425/383 256/424/383
f 276/255/384 253/253/384 254/425/384
f 512/3/454 513/3/454 274/415/454
f 274/415/385 250/426/385 512/3/385
f 274/415/386 272/416/386 248/428/386
f 272/416/387 271/417/387 246/429/387
f 271/417/388 269/419/388 244/430/388
f 269/419/389 266/418/389 243/431/389
f 266/418/390 265/254/390 241/251/390
f 262/421/391 238/433/391 25/432/391
f 260/422/392 236/434/392 238/433/392
f 258/423/393 234/435/393 236/434/393
f 256/424/394 232/436/394 234/435/394
f 254/425/395 231/437/395 232/436/395
f 253/253/396 229/249/396 231/437/396
f 250/426/397 226/440/397 511/438/397
f 250/426/398 248/428/398 224/439/398
f 246/429/399 222/441/399 224/439/399
f 244/430/455 221/442/455 222/441/455
f 243/431/401 218/443/401 221/442/401
f 241/251/402 217/247/402 218/443/402
f 238/433/403 215/445/403 23/444/403
f 236/434/404 213/446/404 215/445/404
f 234/435/405 211/447/405 213/446/405
f 232/436/406 209/448/406 211/447/406
f 231/437/407 207/449/407 209/448/407
f 229/249/408 204/245/408 207/449/408
f 226/440/409 203/452/409 506/450/409
f 226/440/410 224/439/410 201/451/410
f 224/439/411 222/441/411 199/453/411
f 222/441/412 221/442/412 197/454/412
f 218/443/413 194/455/413 197/454/413
f 218/443/414 217/247/414 192/243/414
f 215/445/415 190/457/415 22/456/415
f 213/446/416 188/458/416 190/457/416
f 211/447/417 186/459/417 188/458/417
f 209/448/418 185/460/418 186/459/418
f 207/449/419 182/461/419 185/460/419
f 204/245/420 180/241/420 182/461/420
f 203/452/421 178/463/421 514/462/421
f 201/451/422 176/464/422 178/463/422
f 199/453/423 174/465/423 176/464/423
f 197/454/424 172/466/424 174/465/424
f 194/455/425 170/467/425 172/466/425
f 192/243/426 168/239/426 170/467/426
f 190/457/427 166/469/427 20/468/427
f 188/458/428 164/470/428 166/469/428
f 186/459/429 162/471/429 164/470/429
f 185/460/430 160/472/430 162/471/430
f 182/461/431 158/473/431 160/472/431
f 180/241/432 156/237/432 158/473/432
f 178/463/433 142/475/433 505/474/433
f 176/464/434 140/476/434 142/475/434
f 174/465/435 138/477/435 140/476/435
f 172/466/436 136/478/436 138/477/436
f 170/467/437 135/479/437 136/478/437
f 168/239/438 133/234/438 135/479/438
f 166/469/439 144/293/439 18/290/439
f 164/470/440 146/295/440 144/293/440
f 162/471/441 149/297/441 146/295/441
f 160/472/442 151/299/442 149/297/442
f 158/473/443 153/301/443 151/299/443
f 156/237/444 154/236/444 153/301/444
f 142/475/445 120/306/445 510/302/445
f 140/476/446 122/305/446 120/306/446
f 138/477/447 124/309/447 122/305/447
f 136/478/448 126/311/448 124/309/448
f 135/479/449 128/313/449 126/311/449
f 133/234/450 131/233/450 128/313/450
f 39/320/2 38/332/2 29/409/2
f 38/332/2 35/356/2 29/409/2
f 2/338/2 54/340/2 4/404/2
f 54/340/2 53/363/2 6/387/2
f 35/356/2 34/374/2 32/392/2
f 29/409/2 35/356/2 32/392/2
f 54/340/2 6/387/2 4/404/2
f 53/363/2 51/381/2 6/387/2
f 508/2/1 509/2/1 9/1/1
f 51/381/1 508/2/1 9/1/1
f 51/381/2 9/1/2 8/369/2
f 6/387/2 51/381/2 8/369/2
f 10/351/2 8/369/2 9/1/2
f 13/315/2 11/327/2 12/102/2
f 11/327/2 10/351/2 9/1/2
f 18/290/2 15/292/2 12/102/2
f 15/292/2 13/315/2 12/102/2
f 22/456/2 20/468/2 504/304/2
f 20/468/2 18/290/2 504/304/2
f 25/432/2 23/444/2 504/304/2
f 23/444/2 22/456/2 504/304/2
f 29/409/2 28/420/2 39/320/2
f 28/420/2 25/432/2 504/304/2
f 504/304/2 39/320/2 28/420/2
f 505/474/2 510/302/2 504/304/2
f 506/450/2 514/462/2 504/304/2
f 514/462/2 505/474/2 504/304/2
f 507/427/2 511/438/2 512/3/2
f 511/438/2 506/450/2 512/3/2
f 504/304/2 18/290/2 12/102/2
f 11/327/2 9/1/2 12/102/2
f 512/3/2 506/450/2 504/304/2
f 12/102/456 512/3/456 504/304/456
f 17/67/1 16/69/1 45/205/1
f 16/69/1 14/91/1 46/195/1
f 45/205/1 16/69/1 46/195/1
f 12/102/1 9/1/1 49/159/1
f 9/1/1 7/134/1 50/144/1
f 19/219/1 17/67/1 44/214/1
f 19/219/1 44/214/1 43/224/1
f 9/1/1 50/144/1 49/159/1
f 7/134/1 5/149/1 52/129/1
f 21/209/1 19/219/1 43/224/1
f 7/134/1 52/129/1 50/144/1
f 5/149/1 3/164/1 55/113/1
f 24/200/1 21/209/1 42/82/1
f 42/82/1 21/209/1 43/224/1
f 5/149/1 55/113/1 52/129/1
f 3/164/1 1/111/1 55/113/1
f 26/190/1 24/200/1 41/84/1
f 41/84/1 24/200/1 42/82/1
f 27/180/1 26/190/1 40/96/1
f 40/96/1 26/190/1 41/84/1
f 30/169/1 27/180/1 37/107/1
f 37/107/1 27/180/1 40/96/1
f 31/154/1 30/169/1 36/125/1
f 36/125/1 30/169/1 37/107/1
f 33/139/1 31/154/1 36/125/1
f 12/102/1 49/159/1 48/174/1
f 12/102/1 48/174/1 47/185/1
f 12/102/1 47/185/1 14/91/1
f 47/185/1 46/195/1 14/91/1
f 107/20/2 109/24/2 515/6/2
f 515/6/2 95/480/2 97/61/2
f 97/61/2 99/65/2 515/6/2
f 99/65/2 101/7/2 515/6/2
f 101/7/2 103/13/2 515/6/2
f 103/13/2 104/16/2 515/6/2
f 76/481/2 515/6/2 75/10/2
f 515/6/2 62/44/2 64/49/2
f 75/10/2 515/6/2 73/66/2
f 64/49/2 66/55/2 515/6/2
f 66/55/2 68/59/2 515/6/2
f 68/59/2 70/63/2 515/6/2
f 91/47/2 93/53/2 515/6/2
f 515/6/2 76/481/2 78/18/2
f 78/18/2 80/22/2 515/6/2
f 80/22/2 82/26/2 515/6/2
f 82/26/2 84/30/2 515/6/2
f 84/30/2 86/37/2 515/6/2
f 86/37/2 89/42/2 515/6/2
