# Blender 5.2.1 LTS
# www.blender.org
mtllib landI.mtl
o Ico_球體.026
v 151.789551 -96.193527 294.465729
v 234.644165 -57.864460 264.879700
v 281.413544 -20.309067 278.317047
v 214.447693 -34.261501 313.826843
v 266.112183 -27.171619 300.916504
v 228.366699 -21.191147 235.060623
v 233.227707 -12.984870 312.237701
v 276.410278 -17.509104 248.129211
v 63.605827 -79.324562 321.467102
v 252.829803 -1.121993 238.498505
v 259.770905 -3.853073 306.625244
v 284.755676 -1.151098 263.771484
v 103.487854 -44.874161 343.256073
v 237.791779 1.337152 263.906799
v 229.526764 -53.731152 277.025818
v 74.557434 -55.244663 258.969971
v 259.969574 -47.960617 271.456970
v 282.903198 -22.691208 263.734772
v 259.228638 -45.358761 255.177719
v 222.844925 1.316879 304.569733
v 213.565948 -54.768406 263.441071
v 227.210037 -27.032885 306.383575
v 231.178467 -47.699928 249.110474
v 252.041168 -22.785000 239.426361
v 238.069473 -35.014942 295.602173
v 158.650940 -59.290714 231.246277
v 290.001892 -5.863043 272.308136
v 254.251648 -10.152495 308.537811
v 287.751221 -5.924623 254.781281
v -8.490814 -29.115192 322.073639
v 115.393158 -10.280674 352.566223
v 224.667511 -38.764473 298.470306
v 268.852478 -5.927306 239.805725
v 240.949188 -5.905515 232.653107
v 210.871979 -42.046440 320.475464
v 277.809692 -0.290623 276.852661
v 229.362747 -0.041549 238.156754
v 58.035446 -36.036133 267.349823
v 273.326965 -0.831570 249.494202
v 247.543854 1.195106 276.174225
v 263.621399 0.756165 263.926910
v 219.758209 1.326707 270.456177
v 219.454498 1.160866 255.079514
v 234.361176 -3.732101 304.723724
v 245.872543 0.803054 250.124924
v 271.365173 -10.792054 298.759064
v 17.727135 -0.679356 346.019226
v 273.028992 -0.140385 300.208557
v 74.465042 -36.037781 251.746582
v -13.969086 -0.564404 296.729736
v 233.719315 0.480662 303.278229
v 118.057541 -50.456341 341.371155
v 250.357727 1.138775 296.487030
v 143.148178 -17.493122 221.138412
v 217.803375 -20.060143 315.336060
v 207.698227 -9.076709 331.128082
v 60.072845 2.094550 317.377777
v 25.763229 -0.463269 267.067505
v 90.093590 -68.417458 329.086548
v 65.630638 -12.602269 260.464081
v 197.878799 -18.053490 222.778809
v 85.074524 -8.081541 247.244919
v 192.086594 1.143678 247.295578
v 81.562874 -73.032097 307.316132
v 34.281570 -64.369522 322.037262
v 68.134567 4.003562 262.153870
v 52.208054 -68.666931 298.704559
v 60.874298 -55.790726 267.917358
v 21.704422 -37.874187 297.857605
v 118.072937 -5.656831 226.247147
v 89.271309 -58.141373 259.811768
v 173.166412 -1.181734 220.101242
v 93.957016 -49.551117 246.807922
v 9.407257 -7.077682 336.927795
v 213.482681 -2.250189 241.031464
v 68.273720 -49.170704 267.201172
v 124.855164 4.985312 247.899475
v -15.761337 -13.872942 299.395966
v 152.111084 2.490352 294.574249
v 32.777603 -22.854038 261.590363
v 76.859177 -49.010303 258.583588
v 157.981537 1.339531 229.628571
v 180.191864 -82.902077 289.189575
v -13.460007 -0.712192 337.985840
v 63.860291 -38.187019 258.354340
v 154.167038 -84.174713 265.159729
v 92.296753 -36.965382 242.516617
v 183.444855 -51.909554 234.183075
v 88.805069 1.933862 320.069946
v 185.306976 -61.020905 255.928024
v 33.255219 1.531054 331.865021
v 124.245239 -60.911930 247.185211
v 38.457985 1.453050 307.488586
v 69.690414 1.825930 298.761322
v 205.146286 -28.739429 238.121170
v 42.578171 -11.921103 269.219269
v 180.826523 -45.983829 223.095306
v 126.247025 -84.755844 280.255157
v 168.216919 -84.247574 320.707977
v 70.922081 -25.050350 253.290863
v 57.666588 -25.044342 264.855957
v 130.842194 -49.368935 230.732513
v 191.105423 -63.246536 321.523315
v 85.533028 -14.926027 244.229202
v 133.855362 -83.891541 316.979279
v 149.944458 -45.388981 225.772644
v 121.636414 -22.721970 226.257263
v 48.182281 -8.216635 263.867126
v 71.652695 -5.923086 249.066605
v 172.333511 -22.417414 220.553284
v 77.596535 1.405550 265.313477
v 94.504539 1.335089 247.874161
v 210.278290 -5.953494 227.273148
v 53.248413 3.739241 267.129059
v 58.999626 -3.533157 260.016754
v 73.351143 3.694266 252.220520
v 126.486603 -12.018043 222.416336
v 112.456375 -14.426309 226.641174
v 189.724396 -5.930959 219.718597
v 158.127213 -5.923123 218.740875
v 200.255402 1.530231 289.162506
v 126.453323 1.608032 326.571899
v 145.019836 -3.360180 220.627014
v 195.260406 -0.773411 223.411224
v 171.355255 2.124336 274.863861
v 136.674469 2.133438 268.307495
v 186.264191 0.918498 227.923828
v 174.295090 2.121048 324.866058
v 137.025452 -0.461914 237.162582
v 136.854584 0.879794 225.262238
v 148.579453 2.173663 323.244415
v 125.397705 2.156224 299.969696
v 166.839615 0.757734 225.366974
v 127.472008 -54.219479 241.876480
v 138.469940 -57.060974 237.892136
v 153.488129 -62.838657 238.282333
v 157.837860 -68.228577 243.806595
v 122.077072 -49.105991 242.081757
v 184.110336 1.219274 240.888428
v 158.235809 1.551636 237.797882
v 175.567764 1.341003 233.842468
v 162.412537 1.783873 248.825012
v 147.698029 1.776479 247.476074
v 191.906570 -50.253590 248.663940
v 172.153534 -58.411678 238.190521
v 91.776138 -56.728157 279.240082
v 110.639801 1.647452 265.010803
v 104.033752 1.428253 253.644241
v 106.157471 1.325475 248.336121
v 105.966179 1.651466 276.429688
v 95.169861 1.445892 275.364136
v 89.226814 1.389389 273.841248
v 116.154251 -46.200386 242.936951
v 118.936737 -42.046848 239.008347
v 107.715256 -50.018394 245.210205
v 111.776054 -53.382038 247.161911
v 103.256454 -63.388092 271.995544
v 100.479263 -56.560555 258.878296
v 97.347076 -58.491547 266.893036
v 96.913651 -57.675041 263.686005
v 96.487030 -9.499502 230.249298
v 124.016487 0.249834 231.591858
v 113.183823 0.933053 235.054474
v 107.744606 1.082566 241.829575
v 102.370461 0.954518 237.917908
v 94.476303 -17.339792 230.089127
v 98.231033 -23.565598 230.024796
v 114.821236 -37.257870 234.215240
v 103.349876 -31.468727 233.182068
v 108.172607 -41.107048 237.462418
v 58.501976 -9.613409 343.573639
v 113.102470 -44.226723 343.205841
v 111.990799 -0.448545 329.758209
v 99.596375 0.315523 323.227966
v 104.100708 1.814617 301.361969
v 99.377266 1.793468 313.355469
v 89.561218 1.635172 293.782013
v 91.559784 1.449290 282.081818
v 89.688278 1.391953 277.551483
v 119.000397 0.349252 332.327881
v 114.780838 -7.794860 345.104492
v 111.791061 -49.582115 339.339844
v 104.784279 -72.077271 296.599762
v 93.481529 -65.198891 296.659821
v 108.740311 -72.665565 309.643799
v 97.935287 -67.958069 314.664825
v 106.855621 -64.753654 327.405914
v 81.657837 1.405267 275.037628
v 48.109413 1.175908 271.968262
v 41.029221 1.168343 283.892090
v 32.509842 0.587796 282.261841
v 28.917053 0.131109 276.026184
v 60.747993 1.436090 280.784241
v 72.284431 1.444048 275.856140
v 75.216797 1.509851 281.014771
v 24.833084 -0.582948 275.648407
v -5.698730 -1.757425 281.624939
v -9.900528 -3.927967 273.239868
v -13.469101 -6.971778 282.647827
v 18.426712 -11.822378 282.225616
v 25.048767 -21.292381 275.240723
v 27.831711 -29.465740 273.467926
v 47.622002 -43.898663 276.463165
v 46.303070 -52.675629 280.612366
v 30.273010 -36.805859 280.330078
v 67.822281 -59.031555 282.504730
v 81.267685 -57.273167 284.477386
v 126.459839 -30.192318 355.847168
v 41.128273 4.269757 342.425323
v 65.101128 2.357541 330.579315
v 58.202309 2.499234 342.090149
v 43.169556 0.766077 344.422485
v 50.181702 2.384302 344.912231
v 45.625931 3.438180 347.113708
v 77.992477 0.845071 340.418793
v 85.368034 2.143832 331.421112
v 101.854935 -1.871049 342.148560
v 98.766296 1.629130 334.672272
v 91.252327 -2.262040 341.311493
v 194.280273 -37.829922 341.145782
v 137.441711 -34.748596 359.471710
v 143.565521 -46.068966 351.059692
v 171.070633 -5.660134 345.981812
v 147.564301 -1.627471 346.128662
v 161.404572 -34.652084 356.458069
v 152.945770 -28.629864 354.380707
v 143.574310 -19.281704 353.201233
v 127.037170 -7.668380 340.067780
v 181.073181 -10.550357 339.795654
v 194.786224 -6.313046 336.277466
v 145.943253 -64.809151 346.147491
v 158.146378 -67.807541 347.986053
v 180.252045 -64.617653 342.490631
v 182.200989 -38.747990 348.483368
v 128.686798 -17.159277 353.424713
v 203.936340 -46.114162 327.752716
v 191.550934 1.877193 319.994080
v 203.786438 1.715090 317.877808
v 201.897980 1.686708 307.657562
v 214.010559 1.171395 300.846191
v 207.581635 -51.030521 317.485504
v 225.745682 -51.818516 291.015106
v 209.041901 1.295741 268.035858
v 210.633270 1.335504 274.788208
v 210.960953 1.164081 291.149200
v 204.048355 1.190340 254.058167
v 212.692627 -55.778305 292.482300
v 215.224304 -51.275661 282.813995
v 203.578018 -59.806583 279.802887
v 204.359589 -54.853596 269.197906
v 214.612823 -30.376492 240.528748
v 209.919022 -40.825905 242.365265
v 201.704285 -48.260487 237.739594
v 203.546753 1.033469 240.435822
v 192.425385 0.872607 236.374985
v 222.213684 -7.056079 237.034515
v 220.434570 -12.418912 232.386505
v 219.318787 -21.675083 233.671631
v 274.088898 -27.509647 285.679321
v 263.145386 -40.841606 291.872864
v 276.503021 -22.124420 289.909668
v 278.757660 -15.650042 289.606934
v 281.814453 -10.312308 286.203156
v 284.809998 -4.843404 288.334564
v 249.696640 1.072241 288.702057
v 226.910980 1.138456 293.487030
v 237.993927 1.157393 286.470612
v 222.782776 2.384400 283.161133
v 267.847198 0.393293 290.881531
v 274.991943 0.636854 285.887848
v 279.578857 -1.539324 285.309479
v 271.197845 2.659224 281.662659
v 243.477783 -47.962891 289.200806
v 257.675110 -45.160679 283.903046
v -13.148270 -9.942513 331.504211
v 8.525131 0.115779 326.323944
v 6.848969 -0.015865 289.841888
v 5.075348 -4.032543 339.544403
v 6.343063 -1.203876 278.808105
v 7.225037 -33.829906 309.038849
v 5.223358 -5.312321 263.083038
v 3.217041 -0.691722 342.993652
v 6.052887 -10.308828 282.787109
v 8.363663 0.249309 335.362335
v 6.862259 -23.448841 301.019287
v 4.889053 -15.668773 334.483673
v 9.685150 -43.247124 322.498779
v 7.372101 0.265889 301.157593
v 0.162643 -32.561153 332.725342
v 84.482635 -10.308059 344.630096
v 80.816193 -28.794903 342.674072
v 86.266861 -32.486496 344.035614
v 89.345642 -34.191822 345.933899
v 79.521141 -19.760040 343.015900
v 116.655319 -25.421646 350.772491
v 97.323868 -20.778992 347.685333
v 110.044785 -34.321762 352.567566
v 123.291054 -23.624557 352.988770
v 86.426849 -52.178432 333.682098
v 47.116188 -46.799606 329.525421
v 38.764236 -18.671648 341.698212
v 46.574722 -7.407201 342.092865
v 80.759659 -3.910236 342.214355
v 64.097290 -5.882011 346.316772
v 68.924904 -5.450360 344.348358
v 40.546364 -34.185570 332.648438
v 74.885269 -56.011078 332.700500
v 33.508240 -26.894127 338.374420
v 37.640762 -10.948582 344.126221
v 79.845200 -61.341896 331.731110
v 40.413452 -54.988789 324.894409
v 17.748787 -12.775638 337.046234
v 40.333183 -1.975076 342.326233
v 49.468689 -2.467280 344.908142
v 57.139503 -1.748856 345.614502
v 63.563606 -1.475563 343.219269
v 16.238937 -18.338341 335.407288
v 30.100418 -2.196240 342.080872
v 69.245544 -67.667824 327.083801
v 17.435402 -30.569515 335.821411
v 23.358002 -6.126729 345.426697
v 101.653137 -28.433739 349.262115
v 90.866203 -1.785683 239.655518
v 108.627419 -2.172546 232.296494
v 89.068687 -7.181265 243.468842
v 100.684502 -2.206979 235.658600
v 98.613838 -5.616482 232.308578
v 108.670898 -5.148108 229.789429
v 91.828583 -5.657163 346.444031
v 93.122780 -9.841083 347.676208
v 95.772614 -13.978809 348.739929
v 115.049393 -15.150934 351.405884
v 168.201981 -38.306664 350.167786
v 172.667496 -24.622217 349.237946
v 195.296753 -25.604946 338.207123
v 162.011063 -22.658066 352.405823
v 204.176270 -28.665131 329.200409
v 151.377487 -21.863401 352.511719
v 186.913330 -26.489510 341.400208
v 181.806976 -26.622421 344.695282
vn 0.3487 -0.8767 -0.3313
vn -0.4042 -0.4408 -0.8014
vn 0.4399 -0.8887 0.1292
vn -0.0574 -0.8946 0.4431
vn -0.4589 -0.8809 0.1158
vn -0.4317 -0.4235 -0.7964
vn 0.4456 -0.5813 0.6808
vn -0.4323 -0.3986 0.8089
vn 0.0505 -0.6945 0.7177
vn 0.0208 0.9997 -0.0141
vn 0.0119 0.9999 -0.0079
vn 0.0312 0.3206 0.9467
vn 0.0312 0.3207 0.9467
vn 0.1151 0.9922 0.0471
vn -0.1913 0.9810 0.0325
vn -0.0136 0.9999 -0.0056
vn -0.0177 0.9998 -0.0076
vn -0.0171 0.9998 -0.0078
vn -0.0105 0.9999 0.0097
vn -0.0223 0.9995 0.0215
vn -0.3680 0.4163 0.8314
vn 0.0013 0.9999 0.0112
vn -0.0197 0.9391 0.3431
vn 0.0180 0.9998 -0.0010
vn 0.0211 0.9998 -0.0012
vn 0.0031 0.9999 -0.0098
vn 0.0032 0.9999 -0.0155
vn 0.0007 0.9999 -0.0133
vn -0.0096 1.0000 0.0005
vn -0.1303 0.9903 0.0479
vn -0.3295 -0.4983 0.8020
vn 0.5896 -0.6268 0.5095
vn 0.6153 -0.7418 0.2666
vn -0.3600 -0.5024 -0.7861
vn -0.0038 -0.5053 -0.8629
vn -0.6178 -0.7527 -0.2275
vn -0.4506 -0.8875 0.0966
vn -0.3285 -0.5156 0.7914
vn -0.2991 -0.2773 0.9130
vn -0.0630 -0.8649 0.4980
vn 0.2539 -0.7841 0.5663
vn 0.6423 -0.7111 0.2860
vn 0.6555 -0.7229 0.2182
vn 0.5702 -0.8150 0.1033
vn -0.3753 -0.8022 -0.4643
vn -0.2810 -0.7864 -0.5500
vn -0.1897 -0.9029 -0.3857
vn 0.6091 -0.6650 -0.4323
vn 0.4468 -0.7774 -0.4427
vn 0.3979 -0.8180 -0.4154
vn 0.3019 -0.8219 -0.4830
vn 0.5427 -0.0793 -0.8362
vn -0.2701 -0.7858 -0.5565
vn -0.1396 -0.4372 -0.8884
vn -0.0866 -0.4115 -0.9073
vn -0.1609 -0.2679 -0.9499
vn 0.1143 -0.1702 -0.9788
vn -0.1008 -0.0751 -0.9921
vn 0.3450 -0.0049 -0.9386
vn -0.1616 0.9591 -0.2323
vn -0.0777 0.9016 -0.4255
vn 0.1494 0.9862 -0.0719
vn 0.0076 0.9928 -0.1198
vn 0.0311 0.9547 -0.2960
vn 0.0295 0.9489 -0.3141
vn 0.0045 0.9920 -0.1261
vn 0.0054 0.7425 -0.6698
vn -0.2175 0.4985 -0.8392
vn -0.0449 0.9926 0.1126
vn 0.0594 0.9982 -0.0112
vn -0.0902 0.9885 -0.1212
vn 0.0119 0.9987 -0.0499
vn 0.0287 0.9993 -0.0239
vn 0.3817 0.8664 -0.3221
vn 0.3306 0.2885 -0.8986
vn 0.1204 0.4893 -0.8638
vn -0.0492 0.4165 -0.9078
vn -0.1285 0.0707 -0.9892
vn -0.2187 0.2746 -0.9364
vn 0.0304 0.1853 -0.9822
vn 0.0308 -0.0829 -0.9961
vn -0.0446 -0.1470 -0.9881
vn -0.3093 0.1559 -0.9381
vn -0.2448 -0.2273 -0.9426
vn -0.1650 -0.1374 -0.9767
vn 0.3415 0.8846 -0.3176
vn 0.6022 0.3993 -0.6913
vn 0.6531 -0.4404 -0.6161
vn 0.0987 -0.0715 -0.9925
vn -0.0882 -0.1382 -0.9865
vn -0.0493 -0.1754 -0.9833
vn -0.1795 -0.2036 -0.9624
vn -0.1997 -0.2290 -0.9527
vn -0.4048 -0.2857 -0.8686
vn -0.6182 -0.7539 -0.2224
vn 0.6732 -0.4179 -0.6100
vn 0.6849 -0.5629 -0.4626
vn 0.3007 -0.8098 -0.5038
vn 0.1965 -0.9805 -0.0027
vn -0.1664 -0.9356 -0.3115
vn 0.1275 -0.9828 -0.1333
vn -0.4949 0.4745 -0.7280
vn -0.6941 0.2136 -0.6875
vn -0.5570 0.1551 -0.8159
vn 0.3572 0.2976 -0.8854
vn -0.5212 -0.0483 -0.8521
vn -0.6224 -0.3682 -0.6907
vn -0.4378 -0.2129 -0.8735
vn -0.5055 -0.0419 -0.8618
vn 0.0020 1.0000 -0.0009
vn -0.0622 0.9974 -0.0372
vn -0.2401 -0.2222 -0.9450
vn -0.0761 0.3228 -0.9434
vn -0.1933 0.9776 -0.0836
vn 0.1170 0.9927 0.0305
vn 0.0025 0.9993 -0.0362
vn -0.2661 0.6909 -0.6722
vn -0.5583 0.7666 -0.3171
vn -0.5762 0.3448 -0.7410
vn -0.6227 -0.4856 -0.6136
vn -0.2728 0.5537 -0.7868
vn -0.4581 0.4094 -0.7890
vn -0.0405 0.2789 -0.9595
vn 0.1169 0.9099 0.3981
vn -0.0750 0.9119 0.4034
vn 0.0040 1.0000 -0.0016
vn 0.2003 0.9611 0.1903
vn -0.0084 1.0000 -0.0042
vn 0.0016 0.9998 -0.0187
vn -0.0600 0.3991 -0.9149
vn -0.4256 -0.1796 -0.8869
vn -0.8620 -0.0777 -0.5010
vn -0.2332 -0.1875 -0.9542
vn -0.5221 -0.3402 -0.7821
vn -0.3119 -0.5966 -0.7395
vn -0.1718 0.9851 -0.0049
vn -0.8073 0.1918 -0.5581
vn -0.8410 -0.2197 -0.4944
vn -0.4615 -0.0729 -0.8842
vn -0.6497 0.1530 -0.7447
vn -0.6561 0.0628 -0.7520
vn -0.8460 -0.1448 -0.5132
vn -0.0929 0.9742 -0.2056
vn -0.1621 -0.9581 -0.2361
vn -0.8632 -0.1927 -0.4667
vn -0.3651 -0.3432 -0.8654
vn -0.5417 -0.3344 -0.7712
vn -0.4223 -0.4824 -0.7674
vn -0.3897 -0.4846 -0.7831
vn -0.5320 -0.6504 -0.5421
vn -0.7426 -0.5750 -0.3434
vn 0.3517 0.2843 -0.8919
vn -0.4266 -0.7030 -0.5690
vn 0.0411 -0.7010 -0.7120
vn 0.0749 -0.8442 -0.5307
vn -0.1257 -0.8063 -0.5779
vn 0.1534 -0.9662 0.2072
vn 0.1927 -0.9444 -0.2665
vn -0.5677 -0.1179 0.8148
vn 0.2147 -0.6460 0.7325
vn -0.2165 -0.3368 0.9164
vn -0.4494 -0.8741 -0.1843
vn -0.0121 -0.9079 -0.4190
vn -0.1559 0.3052 0.9394
vn -0.2417 0.0010 0.9703
vn -0.8669 -0.3321 -0.3717
vn -0.2888 -0.4781 0.8294
vn -0.2502 0.0576 0.9665
vn -0.0405 0.9991 0.0078
vn -0.0048 0.9998 -0.0193
vn 0.1051 0.9838 0.1450
vn 0.0066 0.9999 -0.0110
vn 0.0062 0.9999 -0.0112
vn 0.0047 0.9999 -0.0151
vn -0.0187 0.9995 -0.0241
vn -0.0158 0.9998 -0.0138
vn -0.0304 0.9993 -0.0235
vn -0.0257 0.9996 -0.0087
vn -0.0459 0.9988 -0.0156
vn -0.0347 0.9925 0.1170
vn 0.1884 0.9804 0.0574
vn -0.7239 -0.0288 0.6893
vn 0.0116 0.9996 -0.0243
vn -0.0728 0.8942 0.4417
vn 0.1760 0.9793 -0.0996
vn -0.0385 0.9980 -0.0509
vn -0.9906 0.1360 0.0127
vn -0.9908 -0.0986 0.0927
vn -0.1339 -0.7486 0.6494
vn -0.9894 0.1157 -0.0878
vn -0.5939 -0.4676 -0.6547
vn -0.6132 -0.4962 -0.6146
vn 0.0196 -0.6683 0.7436
vn 0.0328 -0.8224 -0.5679
vn 0.1877 -0.8073 -0.5595
vn -0.6553 -0.6592 -0.3688
vn -0.6519 -0.6562 -0.3800
vn -0.5909 -0.6786 -0.4362
vn 0.1677 -0.9455 0.2792
vn 0.2212 -0.9711 0.0894
vn 0.3672 -0.9286 0.0530
vn 0.1590 0.8315 0.5322
vn -0.2687 0.4581 0.8473
vn -0.0809 0.7216 0.6876
vn 0.0360 0.3204 0.9466
vn 0.0360 0.3203 0.9466
vn 0.5877 -0.2429 0.7718
vn 0.7870 -0.4500 0.4220
vn 0.8400 0.0733 0.5376
vn 0.7583 -0.2357 0.6078
vn 0.0527 0.6256 0.7783
vn 0.7688 -0.0331 0.6386
vn -0.0694 0.3143 0.9468
vn 0.0587 0.8067 0.5880
vn 0.0371 0.9993 -0.0096
vn 0.0011 1.0000 -0.0086
vn -0.0169 0.9918 0.1264
vn 0.8579 0.0549 0.5108
vn 0.1388 0.4192 0.8972
vn 0.1149 0.9216 0.3708
vn 0.0285 0.9858 0.1653
vn 0.0388 0.9992 -0.0118
vn -0.1383 0.6345 0.7605
vn 0.4704 -0.1907 0.8616
vn 0.8910 -0.1950 0.4100
vn 0.0042 0.9985 0.0548
vn -0.0500 -0.7844 0.6182
vn 0.2289 0.9118 0.3410
vn 0.4944 -0.0442 0.8681
vn 0.7948 -0.2501 0.5529
vn 0.3833 -0.2757 0.8815
vn 0.3292 -0.8242 0.4608
vn 0.2133 -0.4523 0.8660
vn 0.3083 -0.5892 0.7468
vn -0.0483 -0.4361 0.8986
vn 0.2410 -0.8833 0.4021
vn 0.7552 -0.6303 0.1801
vn -0.1576 -0.9532 0.2580
vn -0.0884 -0.8460 -0.5259
vn 0.1886 -0.8060 -0.5610
vn 0.8764 -0.4530 0.1635
vn 0.1580 -0.1545 -0.9753
vn 0.3820 -0.3618 -0.8504
vn 0.8530 -0.3439 0.3925
vn -0.2064 0.6791 -0.7045
vn 0.6135 -0.1560 -0.7742
vn -0.1068 0.9738 0.2005
vn 0.0475 0.9896 -0.1354
vn 0.0894 0.9948 -0.0493
vn 0.0225 0.9994 -0.0255
vn 0.0577 0.9958 -0.0708
vn 0.0559 0.9899 -0.1304
vn 0.0070 0.9994 -0.0346
vn 0.0002 0.9975 -0.0707
vn -0.1652 0.9722 -0.1658
vn -0.0045 0.9999 -0.0107
vn 0.0025 1.0000 -0.0084
vn -0.0016 1.0000 -0.0055
vn 0.0028 1.0000 0.0093
vn 0.1030 0.9889 -0.1069
vn 0.0056 0.9999 0.0088
vn 0.0225 0.9997 -0.0063
vn 0.0484 0.9984 0.0277
vn 0.0897 0.9958 -0.0179
vn 0.4164 0.8531 -0.3142
vn 0.4513 0.6868 -0.5697
vn 0.2813 0.7897 -0.5453
vn 0.0435 0.7280 -0.6842
vn -0.2171 0.4047 -0.8883
vn 0.4326 0.9006 0.0425
vn 0.4880 0.8668 0.1029
vn 0.4659 0.8640 0.1906
vn 0.2165 0.4925 -0.8430
vn 0.2421 -0.2201 -0.9450
vn 0.1561 -0.2778 -0.9479
vn 0.8953 -0.2962 0.3328
vn 0.7489 0.6554 -0.0985
vn 0.9351 -0.3339 -0.1189
vn 0.7508 -0.4667 -0.4674
vn 0.3850 -0.4425 -0.8099
vn 0.2223 -0.5093 -0.8314
vn 0.1321 -0.4532 -0.8816
vn 0.0658 -0.9904 -0.1217
vn 0.6131 -0.7322 -0.2968
vn -0.1289 -0.9866 0.1001
vn 0.6932 -0.5466 -0.4699
vn 0.7109 -0.6887 -0.1424
vn 0.3957 -0.9039 -0.1625
vn 0.2283 -0.9502 0.2121
vn 0.7897 -0.6070 0.0888
vn -0.0340 0.9991 -0.0233
vn -0.0397 0.9992 0.0078
vn -0.0777 -0.7111 0.6988
vn -0.0538 0.9984 -0.0147
vn -0.1880 -0.7542 0.6292
vn -0.0316 0.9944 0.1013
vn -0.5549 -0.7259 -0.4064
vn -0.1521 -0.9063 -0.3943
vn -0.0318 0.9994 0.0105
vn -0.3189 -0.8308 -0.4562
vn -0.2110 -0.1632 0.9638
vn -0.4508 0.3039 -0.8393
vn -0.0606 0.9927 -0.1041
vn -0.5994 -0.7637 0.2399
vn -0.7456 0.1408 0.6513
vn -0.1697 -0.5702 0.8038
vn -0.9515 -0.2865 0.1125
vn -0.2506 -0.6967 -0.6722
vn -0.2285 -0.7806 -0.5817
vn -0.2269 -0.7612 -0.6075
vn -0.1716 -0.6457 0.7441
vn -0.2886 -0.4745 0.8316
vn 0.0068 0.9997 -0.0236
vn 0.0205 0.9996 -0.0201
vn 0.0224 0.9997 -0.0099
vn 0.0124 0.9999 -0.0051
vn 0.0075 0.9999 -0.0091
vn 0.1677 0.9713 0.1688
vn -0.0172 0.9888 0.1484
vn -0.1352 0.9905 0.0258
vn -0.0106 0.9965 0.0824
vn 0.0001 0.9998 -0.0193
vn -0.0387 0.9863 0.1602
vn -0.0175 0.9998 -0.0070
vn -0.0037 0.9999 -0.0165
vn -0.0165 0.9998 -0.0078
vn -0.0180 0.9998 -0.0102
vn 0.1902 0.3277 0.9254
vn -0.0006 0.9865 0.1638
vn -0.3800 0.7545 0.5351
vn 0.5795 0.7320 0.3582
vn -0.1492 0.8712 0.4678
vn 0.1774 0.7886 0.5888
vn 0.0278 0.9995 -0.0147
vn 0.0336 0.9994 0.0029
vn -0.0757 0.9971 0.0120
vn 0.0005 1.0000 -0.0077
vn 0.0032 0.9999 -0.0154
vn 0.1399 0.9885 0.0571
vn 0.1252 0.9348 -0.3324
vn -0.0128 0.9999 -0.0074
vn 0.3237 0.7458 0.5823
vn 0.2163 0.8089 0.5467
vn 0.0363 0.9993 -0.0117
vn 0.0358 0.9993 -0.0120
vn 0.3063 -0.9218 0.2377
vn -0.3302 -0.4250 -0.8428
vn -0.2308 -0.3850 -0.8936
vn -0.5030 -0.8243 -0.2599
vn -0.6123 -0.7329 -0.2965
vn -0.0486 -0.5433 0.8381
vn -0.4323 -0.8949 0.1106
vn -0.2165 -0.9001 0.3780
vn -0.4629 -0.8269 0.3192
vn -0.1503 -0.6280 0.7635
vn -0.4422 -0.6555 0.6121
vn -0.2748 -0.7485 0.6036
vn 0.4550 -0.5791 0.6765
vn 0.8797 -0.1692 0.4443
vn -0.3510 -0.8103 -0.4693
vn 0.7255 -0.6689 0.1617
vn -0.4167 -0.6919 -0.5895
vn -0.4931 -0.7196 -0.4890
vn -0.3628 -0.8457 -0.3913
vn -0.2386 -0.9483 -0.2092
vn 0.3108 -0.8698 -0.3833
vn 0.5616 -0.7283 -0.3927
vn 0.5439 -0.6722 -0.5022
vn 0.4185 -0.7607 -0.4961
vn 0.1496 -0.6462 -0.7483
vn 0.2182 -0.9264 -0.3070
vn 0.1941 -0.0150 -0.9809
vn 0.1967 -0.2548 -0.9468
vn -0.2774 -0.7606 -0.5870
vn -0.2528 0.6136 -0.7481
vn 0.0064 0.9937 0.1119
vn -0.0049 0.9997 -0.0260
vn -0.1669 0.9736 -0.1555
vn 0.0869 0.9247 -0.3707
vn 0.0015 0.9998 -0.0216
vn -0.0938 0.9953 -0.0229
vn 0.0062 0.9996 -0.0261
vn -0.0053 0.9997 -0.0250
vn 0.0320 0.9993 -0.0179
vn 0.0293 0.9994 -0.0183
vn 0.1715 0.9779 -0.1197
vn -0.1957 0.0814 -0.9773
vn -0.1554 -0.0836 -0.9843
vn -0.1989 0.0710 -0.9774
vn 0.3544 -0.1704 -0.9194
vn 0.0821 -0.6439 -0.7607
vn -0.0783 -0.4141 -0.9069
vn -0.1347 -0.4265 -0.8944
vn -0.1275 -0.4381 -0.8899
vn 0.0441 -0.6876 -0.7248
vn -0.6793 -0.5253 -0.5125
vn -0.3752 -0.8030 -0.4630
vn -0.6189 -0.6343 -0.4633
vn 0.4487 -0.8789 -0.1617
vn -0.3692 -0.5410 -0.7557
vn 0.0020 1.0000 -0.0008
vn -0.0611 0.9975 -0.0357
vn 0.0633 0.8526 0.5188
vn -0.1511 0.9884 -0.0124
vn 0.0023 0.9993 -0.0368
vn 0.1226 0.9907 0.0590
vn -0.1496 0.7702 -0.6200
vn -0.1599 0.7762 -0.6098
vn -0.0082 0.9998 -0.0177
vn 0.0987 0.9940 0.0461
vn 0.0029 0.9999 -0.0144
vn -0.0183 0.9998 -0.0078
vn -0.0187 0.9998 -0.0084
vn -0.0076 1.0000 -0.0036
vn 0.0025 1.0000 -0.0016
vn -0.8075 0.2183 -0.5480
vn -0.0774 0.9660 -0.2469
vn -0.3499 -0.8443 -0.4059
vn -0.2682 -0.6571 -0.7045
vn -0.3419 -0.1865 -0.9211
vn -0.5093 0.4929 -0.7055
vn -0.4548 -0.3239 -0.8296
vn -0.4325 -0.7036 -0.5639
vn -0.4145 -0.6912 -0.5919
vn -0.1201 -0.2983 -0.9469
vn -0.0066 -0.7369 -0.6759
vn -0.1125 -0.5968 -0.7944
vn -0.1830 -0.8899 -0.4179
vn -0.1260 -0.9794 -0.1576
vn -0.0577 -0.9982 0.0164
vn 0.1187 -0.9902 0.0734
vn -0.5599 -0.8173 -0.1359
vn 0.0441 -0.5918 0.8049
vn 0.0821 -0.5478 0.8326
vn -0.1456 -0.1840 0.9721
vn -0.9173 -0.2441 -0.3146
vn -0.7084 -0.5932 -0.3825
vn -0.0355 0.9994 0.0040
vn -0.0049 0.9999 -0.0099
vn -0.0110 0.9999 -0.0026
vn 0.0068 0.9999 -0.0112
vn 0.0065 0.9999 -0.0153
vn 0.0045 0.9999 -0.0126
vn 0.0056 0.9999 -0.0161
vn -0.0149 0.9999 -0.0082
vn -0.0327 0.9991 -0.0265
vn -0.0643 0.9977 -0.0190
vn -0.0231 0.9940 0.1070
vn -0.0236 0.9994 -0.0265
vn -0.0127 0.9998 -0.0151
vn -0.1124 0.9790 -0.1701
vn 0.0044 0.9892 0.1464
vn 0.0071 0.9998 -0.0163
vn -0.0681 0.8925 0.4460
vn 0.0399 0.9992 -0.0064
vn 0.2778 0.8852 0.3732
vn -0.2636 0.8505 0.4551
vn 0.1162 0.9877 -0.1049
vn -0.1475 0.9630 -0.2254
vn -0.0512 0.9932 -0.1046
vn -0.1351 -0.7471 0.6508
vn -0.1667 0.9716 -0.1680
vn -0.8941 0.3948 -0.2114
vn -0.1249 -0.8075 -0.5764
vn -0.4200 -0.5154 0.7470
vn -0.1623 -0.8935 -0.4186
vn 0.0174 -0.8666 -0.4987
vn -0.2757 -0.9578 -0.0815
vn -0.1715 -0.7653 -0.6204
vn -0.4141 -0.8736 -0.2557
vn -0.6505 -0.2425 -0.7197
vn -0.5296 -0.7374 -0.4191
vn -0.3706 -0.9261 0.0706
vn -0.3338 -0.5417 -0.7715
vn 0.2508 -0.9623 0.1057
vn 0.1988 0.9337 0.2977
vn -0.3357 0.1061 0.9360
vn 0.2116 0.9769 -0.0297
vn -0.1839 -0.3881 0.9031
vn 0.0866 0.9955 0.0396
vn 0.1106 0.4068 0.9068
vn 0.3476 0.8961 0.2759
vn 0.3494 0.8972 0.2702
vn -0.0439 -0.7109 0.7020
vn 0.1964 0.8440 0.4991
vn 0.1168 0.7509 0.6500
vn 0.6967 -0.6095 0.3783
vn -0.0040 -0.5512 0.8344
vn 0.6486 -0.5573 0.5184
vn 0.7302 -0.1463 0.6674
vn -0.0024 0.9994 -0.0333
vn 0.0052 0.9999 0.0109
vn 0.0020 0.9999 -0.0154
vn 0.0018 1.0000 -0.0013
vn -0.0084 0.9998 -0.0192
vn 0.3715 0.7706 0.5179
vn 0.3762 0.7697 0.5158
vn 0.0869 0.8968 0.4338
vn 0.0517 0.9983 0.0284
vn 0.2385 0.3475 0.9068
vn 0.1341 0.7763 0.6160
vn 0.4372 0.8928 0.1084
vn 0.1735 0.9399 0.2941
vn 0.7912 -0.4334 0.4314
vn 0.7561 -0.1490 0.6373
vn 0.7603 -0.4381 0.4797
vn 0.1911 -0.4748 0.8591
vn -0.1154 -0.8380 0.5333
vn 0.2843 -0.3268 0.9013
vn 0.7874 -0.5442 0.2897
vn 0.0829 -0.2213 -0.9717
vn 0.0538 0.8825 -0.4673
vn 0.0370 0.9993 0.0034
vn -0.0345 0.9966 -0.0747
vn -0.0944 0.9955 0.0123
vn 0.0027 0.9999 -0.0116
vn 0.2552 0.6407 -0.7242
vn 0.3129 0.8839 -0.3476
vn -0.0005 0.9999 -0.0108
vn 0.0592 0.9936 0.0962
vn 0.0033 1.0000 0.0068
vn -0.2340 0.3342 -0.9130
vn 0.4327 0.9005 0.0425
vn 0.4287 0.9024 0.0436
vn 0.7949 -0.5528 0.2501
vn 0.8939 -0.2991 0.3337
vn 0.1483 -0.6604 -0.7362
vn -0.0359 -0.4710 -0.8814
vn 0.2140 -0.2616 -0.9412
vn 0.3508 0.1838 -0.9183
vn 0.0644 -0.9241 -0.3767
vn -0.0932 -0.9821 -0.1635
vn 0.0328 -0.9988 0.0377
vn -0.0472 -0.9562 0.2889
vn 0.2336 -0.9034 -0.3595
vn 0.2162 -0.9578 0.1894
vn 0.2793 -0.9245 0.2595
vn 0.3299 -0.9062 0.2647
vn 0.7640 -0.6286 0.1454
vn -0.0536 0.9984 -0.0157
vn -0.2915 -0.7821 -0.5507
vn 0.1739 0.0707 -0.9822
vn -0.1795 0.9549 -0.2367
vn -0.6402 -0.4835 -0.5970
vn -0.1285 -0.9644 -0.2312
vn -0.1311 -0.9623 -0.2385
vn -0.5347 0.7504 -0.3886
vn -0.0732 0.9903 -0.1183
vn -0.0284 0.9418 0.3349
vn -0.2376 -0.5202 0.8203
vn -0.8097 0.0939 0.5793
vn -0.3224 -0.5081 0.7987
vn -0.1507 -0.1966 0.9688
vn -0.0355 -0.1279 0.9911
vn -0.0991 -0.4711 0.8765
vn 0.2640 0.5759 0.7737
vn -0.3991 -0.5693 0.7188
vn -0.2696 -0.3932 0.8790
vn -0.3903 0.4517 0.8023
vn -0.2553 0.2797 0.9255
vn -0.2593 -0.5434 0.7984
vn -0.0924 -0.0509 0.9944
vn -0.0929 0.0128 0.9956
vn -0.3290 0.1660 0.9296
vn -0.3291 0.1654 0.9297
vn -0.2659 -0.2104 0.9408
vn -0.2552 -0.0311 0.9664
vn 0.1506 0.4782 0.8653
vn -0.2661 -0.2053 0.9418
vn -0.2175 -0.3363 0.9163
vn -0.1946 -0.3478 0.9172
vn -0.1019 -0.3914 0.9146
vn -0.1665 -0.3615 0.9174
vn -0.1487 -0.1975 0.9690
vn 0.2350 0.8875 0.3964
vn -0.0986 -0.0757 0.9922
vn -0.0167 0.9671 0.2538
vn 0.2221 -0.3758 0.8997
vn 0.0446 -0.9390 0.3411
vn 0.4224 -0.0628 0.9042
vn 0.1515 0.3868 0.9097
vn 0.1502 0.4036 0.9025
vn 0.1523 0.3768 0.9137
vn 0.1210 -0.5722 0.8112
vn -0.2904 -0.3252 0.8999
vn -0.1254 0.1316 0.9833
vn -0.5476 0.2215 0.8069
vn -0.0172 -0.7193 0.6945
vn -0.2048 -0.3494 0.9143
vn -0.6350 0.0686 0.7695
vn -0.3015 0.1025 0.9479
vn -0.1808 -0.4049 0.8963
vn -0.1608 0.0177 0.9868
vn 0.1496 0.1808 0.9721
vn -0.2173 -0.3396 0.9151
vn -0.0185 -0.1955 0.9805
vn -0.1011 -0.4734 0.8750
vn -0.1579 -0.1918 0.9686
vn -0.1359 -0.2459 0.9597
vn 0.3207 0.2316 0.9184
vn -0.1782 0.0159 0.9839
vn -0.2721 -0.3512 0.8959
vn -0.1775 -0.7097 0.6818
vn 0.0135 -0.6095 0.7927
vn -0.2044 -0.3343 0.9200
vn -0.0224 -0.0686 0.9974
vn 0.0441 -0.2938 0.9549
vn -0.0441 -0.1457 0.9884
vn -0.2462 0.5559 -0.7940
vn -0.2222 0.7487 -0.6246
vn -0.5739 0.6888 -0.4429
vn -0.6163 -0.3072 -0.7251
vn -0.2625 0.6498 -0.7134
vn -0.2155 -0.3390 0.9158
vn -0.2993 -0.0789 0.9509
vn 0.2099 0.7113 0.6708
vn -0.2462 0.6224 -0.7430
vn -0.2970 0.6549 -0.6949
vn -0.2715 -0.2901 0.9177
vn -0.3024 -0.1132 0.9465
vn -0.2771 -0.3255 0.9040
vn -0.0396 -0.3526 0.9349
vn -0.0939 -0.6694 0.7370
vn -0.1777 -0.0882 0.9801
vn -0.3444 -0.1678 0.9237
vn -0.0105 0.5176 0.8555
vn -0.1891 0.7678 -0.6122
vn -0.3112 0.6097 -0.7290
vn -0.7262 -0.2187 -0.6518
vn -0.1945 0.7450 -0.6380
vn -0.6464 0.6024 -0.4683
vn -0.2460 -0.0698 0.9667
vn -0.2432 -0.2304 0.9422
vn -0.2465 -0.3612 0.8993
vn 0.0968 -0.2146 0.9719
vn 0.1000 -0.0857 0.9913
vn 0.0747 -0.5786 0.8122
vn -0.3978 -0.2285 0.8886
vn -0.1247 0.1714 0.9773
vn 0.0209 0.8349 0.5500
vn -0.2147 -0.0147 0.9766
vn 0.4787 -0.5173 0.7094
vn 0.4521 -0.5871 0.6715
vn 0.4755 -0.5264 0.7048
vn 0.0654 0.9913 0.1146
vn 0.1812 -0.2585 0.9489
vn 0.1484 -0.9839 0.0997
vn 0.0614 -0.9693 0.2379
vn 0.0928 0.9525 0.2901
vn -0.0433 0.9191 0.3915
vn 0.0725 0.9272 0.3675
vn 0.0647 0.8559 0.5131
vn 0.1746 0.8619 0.4760
vn 0.1332 0.9085 0.3962
vn 0.6132 -0.0518 0.7882
vn 0.1519 0.9571 0.2466
vn 0.6048 0.1756 0.7768
vn 0.2356 0.9615 0.1412
vn 0.6958 -0.3762 0.6118
vn 0.2483 -0.9521 0.1783
vn 0.5816 -0.2206 0.7830
vn 0.3822 -0.4902 0.7834
vn -0.3357 0.1059 0.9360
vn -0.3291 0.1656 0.9297
vn -0.3289 0.1664 0.9296
vn -0.3289 0.1667 0.9295
vn 0.1761 0.4781 0.8605
vn 0.1746 0.4901 0.8540
vn 0.1777 0.4636 0.8680
vn -0.3755 0.1185 0.9192
vn -0.3551 -0.1786 0.9176
vn -0.3552 -0.1774 0.9178
vn -0.1224 -0.2617 0.9574
vn -0.1224 -0.2617 0.9573
vn -0.1225 -0.2614 0.9574
vn -0.1150 0.3627 0.9248
vn -0.2147 -0.0151 0.9766
vn -0.0026 0.6714 0.7411
vn -0.0034 0.6266 0.7794
vn -0.0044 0.5606 0.8281
vn 0.2964 -0.2777 0.9138
vn 0.2972 -0.2690 0.9162
vn 0.2984 -0.2546 0.9199
vn 0.1087 0.0475 0.9929
vn 0.1087 0.0461 0.9930
vn 0.1757 -0.2260 0.9582
vn 0.1790 -0.9816 0.0671
vn 0.1212 -0.7566 0.6426
vn 0.2145 0.1784 0.9603
vn 0.1585 -0.9746 0.1584
vn 0.0826 0.9441 0.3191
vn 0.7150 -0.0002 0.6991
vn 0.7094 0.1303 0.6926
vn 0.7088 -0.1211 0.6950
vn 0.8845 -0.0085 0.4664
vn 0.2868 -0.9425 0.1715
vn 0.1744 -0.9737 0.1464
vn 0.1416 -0.6590 0.7387
vn 0.1516 -0.9831 0.1028
vn 0.1193 -0.7822 0.6114
vn 0.1177 -0.7760 0.6197
vn 0.0939 0.9513 0.2936
vn 0.3696 -0.1741 0.9127
vn 0.1487 0.9021 0.4051
vn 0.1313 0.6721 0.7287
vn 0.1054 0.9350 0.3386
vn 0.4251 0.2994 0.8542
vn 0.0528 -0.9874 0.1489
vn 0.1417 -0.4809 0.8653
vn 0.1230 -0.6593 0.7417
vn 0.0946 0.9418 0.3226
vn 0.5506 0.3333 0.7654
vn 0.5790 -0.1425 0.8028
vn 0.5533 -0.3175 0.7701
vn 0.1822 0.3008 0.9361
vn 0.6783 -0.4461 0.5839
vn 0.6978 -0.3895 0.6012
vn 0.6239 -0.5700 0.5346
vn 0.0891 0.3149 0.9449
vn 0.0891 0.3148 0.9450
vn 0.0494 -0.9946 0.0911
vn 0.0458 -0.9719 0.2309
vn 0.1315 0.0570 0.9897
vn 0.1332 0.0613 0.9892
vn 0.0722 -0.9797 0.1869
vn 0.0856 -0.9252 0.3697
vn 0.1538 0.6009 0.7844
vn 0.1172 0.7983 0.5907
vt 0.473920 0.221125
vt 0.462051 0.145948
vt 0.427337 0.220912
vt 0.501817 0.073097
vt 0.494776 0.067619
vt 0.476313 0.065266
vt 0.453162 0.300022
vt 0.504605 0.275945
vt 0.507947 0.175055
vt 0.503197 0.066675
vt 0.402079 0.366721
vt 0.412546 0.320078
vt 0.385087 0.349321
vt 0.531531 0.348341
vt 0.503166 0.379545
vt 0.520748 0.373796
vt 0.540138 0.351037
vt 0.555953 0.349014
vt 0.424813 0.078247
vt 0.368232 0.081725
vt 0.381594 0.072392
vt 0.364291 0.249307
vt 0.421204 0.350440
vt 0.387136 0.347291
vt 0.435292 0.377672
vt 0.478098 0.373752
vt 0.446755 0.380705
vt 0.548546 0.240997
vt 0.560569 0.277723
vt 0.541678 0.336467
vt 0.526428 0.125436
vt 0.494850 0.070215
vt 0.530173 0.067695
vt 0.478677 0.148866
vt 0.508556 0.247219
vt 0.456889 0.243050
vt 0.538244 0.160496
vt 0.566426 0.171898
vt 0.471589 0.335458
vt 0.513968 0.334608
vt 0.514733 0.358785
vt 0.489502 0.377221
vt 0.415065 0.187569
vt 0.341596 0.183620
vt 0.452220 0.073962
vt 0.568635 0.156235
vt 0.557927 0.151768
vt 0.568473 0.143933
vt 0.527109 0.348097
vt 0.543576 0.341167
vt 0.380529 0.321105
vt 0.367696 0.249671
vt 0.512967 0.066482
vt 0.507132 0.062348
vt 0.521457 0.070771
vt 0.527503 0.067865
vt 0.541049 0.144185
vt 0.544208 0.211780
vt 0.541070 0.248804
vt 0.548269 0.299091
vt 0.488626 0.356556
vt 0.491780 0.366789
vt 0.470099 0.360468
vt 0.433023 0.358834
vt 0.381131 0.208663
vt 0.359257 0.223905
vt 0.549291 0.118192
vt 0.542478 0.081548
vt 0.405556 0.133155
vt 0.389411 0.114679
vt 0.448561 0.075001
vt 0.421943 0.070809
vt 0.442425 0.061476
vt 0.400488 0.067886
vt 0.355355 0.074401
vt 0.353568 0.080481
vt 0.369520 0.074393
vt 0.486052 0.055852
vt 0.452526 0.053049
vt 0.400205 0.054986
vt 0.457510 0.043528
vt 0.497717 0.046596
vt 0.486895 0.041534
vt 0.359446 0.054594
vt 0.406542 0.048256
vt 0.368173 0.048181
vt 0.426767 0.041610
vt 0.331675 0.060898
vt 0.466598 0.044946
vt 0.521307 0.049029
vt 0.492431 0.050530
vt 0.397454 0.045184
vt 0.450952 0.041296
vt 0.410190 0.050293
vt 0.373965 0.056823
vt 0.327408 0.078001
vt 0.356350 0.053032
vt 0.427949 0.053912
vt 0.502540 0.043809
vt 0.469817 0.059648
vt 0.513484 0.052792
vt 0.429693 0.063969
vt 0.395810 0.062186
vt 0.364625 0.068335
vt 0.513425 0.044496
vt 0.546262 0.045923
vt 0.312534 0.074913
vt 0.317718 0.069328
vt 0.512549 0.056025
vt 0.560535 0.080858
vt 0.607828 0.115103
vt 0.584028 0.077621
vt 0.596852 0.115752
vt 0.580924 0.077316
vt 0.550303 0.067421
vt 0.648560 0.107838
vt 0.615881 0.110950
vt 0.660247 0.081266
vt 0.584671 0.068864
vt 0.603626 0.074543
vt 0.592494 0.069322
vt 0.539558 0.047218
vt 0.552480 0.061598
vt 0.618087 0.080198
vt 0.565863 0.060589
vt 0.582736 0.144175
vt 0.678668 0.122223
vt 0.674025 0.143974
vt 0.643196 0.118179
vt 0.605553 0.075974
vt 0.638307 0.076777
vt 0.619081 0.073846
vt 0.592139 0.066486
vt 0.568037 0.063468
vt 0.592922 0.063163
vt 0.525445 0.060077
vt 0.604535 0.077640
vt 0.551629 0.065090
vt 0.534337 0.054400
vt 0.555931 0.054811
vt 0.633209 0.081056
vt 0.681728 0.092029
vt 0.587554 0.110611
vt 0.600174 0.142322
vt 0.535570 0.073771
vt 0.685635 0.119123
vt 0.542912 0.045450
vt 0.719275 0.120572
vt 0.745186 0.095575
vt 0.741134 0.123929
vt 0.752200 0.123784
vt 0.715179 0.070628
vt 0.716509 0.133319
vt 0.677375 0.119127
vt 0.669439 0.115506
vt 0.524660 0.058896
vt 0.633514 0.133416
vt 0.549330 0.127424
vt 0.561211 0.159847
vt 0.579140 0.170137
vt 0.600781 0.303133
vt 0.581002 0.351976
vt 0.585915 0.349257
vt 0.574597 0.295221
vt 0.646318 0.285154
vt 0.611899 0.260255
vt 0.660004 0.253444
vt 0.626072 0.196326
vt 0.582330 0.231112
vt 0.547815 0.364884
vt 0.536271 0.366314
vt 0.561544 0.360316
vt 0.661369 0.295747
vt 0.595309 0.347169
vt 0.682662 0.184516
vt 0.694167 0.137285
vt 0.741903 0.243723
vt 0.729177 0.291550
vt 0.762510 0.275793
vt 0.599067 0.349413
vt 0.569224 0.359262
vt 0.760427 0.168094
vt 0.728588 0.273538
vt 0.724066 0.192533
vt 0.596208 0.160493
vt 0.622615 0.152754
vt 0.611215 0.215455
vt 0.581921 0.294286
vt 0.562756 0.309329
vt 0.633905 0.271116
vt 0.573323 0.209034
vt 0.670339 0.228230
vt 0.659253 0.153315
vt 0.721867 0.156053
vt 0.686303 0.304208
vt 0.770251 0.299480
vt 0.731335 0.302390
vt 0.716975 0.340679
vt 0.657117 0.350945
vt 0.675921 0.343681
vt 0.669137 0.348278
vt 0.666363 0.353308
vt 0.591370 0.329545
vt 0.628357 0.316556
vt 0.580348 0.353924
vt 0.565188 0.347172
vt 0.756584 0.174564
vt 0.736043 0.312176
vt 0.726201 0.304758
vt 0.713785 0.188868
vt 0.710659 0.211376
vt 0.562081 0.208315
vt 0.599743 0.158896
vt 0.634584 0.144752
vt 0.706005 0.249515
vt 0.559132 0.259173
vt 0.604792 0.350461
vt 0.580258 0.360361
vt 0.539145 0.372830
vt 0.561265 0.357599
vt 0.474597 0.377999
vt 0.461527 0.380726
vt 0.475869 0.377210
vt 0.361160 0.320828
vt 0.315473 0.276556
vt 0.333275 0.307367
vt 0.262060 0.309248
vt 0.274129 0.275082
vt 0.243800 0.265683
vt 0.341501 0.277671
vt 0.372270 0.335442
vt 0.227032 0.284478
vt 0.236442 0.281920
vt 0.316243 0.335281
vt 0.274127 0.335526
vt 0.306485 0.316069
vt 0.239586 0.312276
vt 0.215860 0.277004
vt 0.258536 0.335424
vt 0.304670 0.312952
vt 0.228100 0.322994
vt 0.363257 0.346997
vt 0.341449 0.294962
vt 0.366313 0.311486
vt 0.314584 0.277179
vt 0.270109 0.299318
vt 0.269204 0.272978
vt 0.318850 0.241089
vt 0.344546 0.261239
vt 0.364497 0.364002
vt 0.349100 0.333803
vt 0.325463 0.311968
vt 0.235060 0.289397
vt 0.212261 0.276143
vt 0.219464 0.276509
vt 0.343893 0.252260
vt 0.311547 0.255977
vt 0.284279 0.247539
vt 0.278906 0.211189
vt 0.334985 0.212980
vt 0.325475 0.179679
vt 0.222779 0.248285
vt 0.217999 0.202403
vt 0.358706 0.166707
vt 0.322236 0.132764
vt 0.274398 0.163013
vt 0.192257 0.237021
vt 0.308958 0.074372
vt 0.325280 0.071244
vt 0.221473 0.150285
vt 0.268028 0.111489
vt 0.223770 0.119487
vt 0.275069 0.082611
vt 0.191650 0.178077
vt 0.223920 0.261078
vt 0.269692 0.230103
vt 0.265739 0.142261
vt 0.250383 0.107022
vt 0.294827 0.094376
vt 0.195594 0.207085
vt 0.213484 0.153727
vt 0.235219 0.197245
vt 0.284981 0.184261
vt 0.317979 0.145726
vt 0.321679 0.197027
vt 0.347255 0.134757
vt 0.340440 0.206838
vt 0.291177 0.259541
vt 0.212160 0.247443
vt 0.205932 0.287596
vt 0.375428 0.179303
vt 0.742016 0.323729
vt 0.728577 0.278072
vt 0.453149 0.068326
vt 0.416561 0.369734
vt 0.388787 0.369154
vt 0.538295 0.363041
vt 0.592291 0.354991
vt 0.629989 0.353947
vt 0.638232 0.348009
vt 0.424876 0.373502
vt 0.340013 0.078796
vt 0.344434 0.075326
vt 0.531552 0.052486
vt 0.664725 0.137103
vt 0.572877 0.362155
vt 0.539373 0.369715
vt 0.641783 0.348778
vt 0.704332 0.338800
vt 0.577759 0.361227
vt 0.599375 0.352424
vt 0.661936 0.339213
vt 0.620930 0.352387
vt 0.701711 0.295830
vt 0.515759 0.374888
vt 0.675009 0.339635
vt 0.693165 0.333582
vt 0.583082 0.312496
vt 0.656811 0.349582
vt 0.653711 0.266530
vt 0.671664 0.328608
vt 0.591972 0.300620
vt 0.631256 0.350600
vt 0.643420 0.352461
vt 0.709034 0.306786
vt 0.525323 0.371211
vt 0.676906 0.312379
vt 0.708767 0.298751
vt 0.606490 0.281117
vt 0.676967 0.339342
vt 0.539678 0.047763
vt 0.536827 0.051727
vt 0.559903 0.059596
vt 0.520660 0.046394
vt 0.449039 0.372873
vt 0.438023 0.376611
vt 0.411385 0.368615
vt 0.395448 0.366380
vt 0.378533 0.355375
vt 0.421272 0.371897
s 0
usemtl 材質.010
f 1/1/1 86/2/1 83/3/1
f 92/4/2 134/5/2 135/6/2
f 1/1/3 83/3/3 99/7/3
f 1/1/4 99/7/4 105/8/4
f 1/1/5 105/8/5 98/9/5
f 138/10/6 134/5/6 92/4/6
f 220/11/7 103/12/7 236/13/7
f 52/14/8 221/15/8 208/16/8
f 172/17/9 208/16/9 13/18/9
f 142/19/10 63/20/10 139/21/10
f 121/22/11 128/23/11 237/24/11
f 223/25/12 224/26/12 336/27/13
f 175/28/14 176/29/14 173/30/14
f 147/31/15 77/32/15 149/33/15
f 126/34/16 132/35/16 79/36/16
f 150/37/17 126/34/17 147/31/17
f 175/28/18 150/37/18 178/38/18
f 132/35/19 131/39/19 79/36/19
f 122/40/20 131/39/20 132/35/20
f 228/41/21 227/42/21 224/26/21
f 131/39/22 128/23/22 79/36/22
f 128/23/23 131/39/23 223/25/23
f 128/23/24 125/43/24 79/36/24
f 128/23/25 121/22/25 125/43/25
f 121/22/26 243/44/26 63/20/26
f 125/43/27 126/34/27 79/36/27
f 143/45/28 125/43/28 142/19/28
f 179/46/29 151/47/29 152/48/29
f 122/40/30 173/30/30 180/49/30
f 172/17/31 182/50/31 52/14/31
f 236/13/32 103/12/32 241/51/32
f 241/51/33 103/12/33 247/52/33
f 138/10/34 153/53/34 154/54/34
f 153/53/35 156/55/35 155/56/35
f 157/57/36 98/9/36 183/58/36
f 98/9/37 185/59/37 183/58/37
f 52/14/38 182/50/38 187/60/38
f 52/14/39 231/61/39 222/62/39
f 105/8/40 99/7/40 232/63/40
f 232/63/41 99/7/41 233/64/41
f 233/64/42 99/7/42 103/12/42
f 103/12/43 99/7/43 83/3/43
f 103/12/44 249/65/44 248/66/44
f 160/67/45 158/68/45 92/4/45
f 92/4/46 86/2/46 98/9/46
f 86/2/47 1/1/47 98/9/47
f 90/69/48 144/70/48 249/65/48
f 90/69/49 83/3/49 86/2/49
f 90/69/50 137/71/50 145/72/50
f 26/73/51 88/74/51 145/72/51
f 95/75/52 252/76/52 253/77/52
f 26/73/53 135/6/53 102/78/53
f 106/79/54 26/73/54 102/78/54
f 26/73/55 106/79/55 97/80/55
f 54/81/56 107/82/56 117/83/56
f 61/84/57 110/85/57 119/86/57
f 54/81/58 117/83/58 120/87/58
f 61/84/59 119/86/59 113/88/59
f 130/89/60 324/90/60 162/91/60
f 72/92/61 123/93/61 133/94/61
f 127/95/62 75/96/62 124/97/62
f 82/98/63 127/95/63 133/94/63
f 127/95/64 124/97/64 133/94/64
f 124/97/65 72/92/65 133/94/65
f 82/98/66 133/94/66 130/89/66
f 133/94/67 123/93/67 130/89/67
f 123/93/68 70/99/68 130/89/68
f 129/100/69 82/98/69 130/89/69
f 129/100/70 162/91/70 163/101/70
f 129/100/71 143/45/71 140/102/71
f 82/98/72 141/103/72 127/95/72
f 139/21/73 63/20/73 255/104/73
f 75/96/74 113/88/74 124/97/74
f 113/88/75 119/86/75 124/97/75
f 119/86/76 72/92/76 124/97/76
f 120/87/77 123/93/77 72/92/77
f 120/87/78 117/83/78 123/93/78
f 117/83/79 70/99/79 123/93/79
f 119/86/80 120/87/80 72/92/80
f 119/86/81 110/85/81 120/87/81
f 110/85/82 54/81/82 120/87/82
f 70/99/83 117/83/83 118/105/83
f 117/83/84 107/82/84 118/105/84
f 107/82/85 166/106/85 118/105/85
f 113/88/86 75/96/86 256/107/86
f 113/88/87 256/107/87 257/108/87
f 113/88/88 95/75/88 61/84/88
f 97/80/89 110/85/89 61/84/89
f 110/85/90 97/80/90 106/79/90
f 106/79/91 54/81/91 110/85/91
f 106/79/92 107/82/92 54/81/92
f 106/79/93 102/78/93 107/82/93
f 107/82/94 102/78/94 168/109/94
f 154/54/95 168/109/95 102/78/95
f 61/84/96 95/75/96 97/80/96
f 95/75/97 88/74/97 97/80/97
f 97/80/98 88/74/98 26/73/98
f 88/74/99 253/77/99 144/70/99
f 71/110/100 68/111/100 16/112/100
f 160/67/101 71/110/101 158/68/101
f 68/111/102 76/113/102 16/112/102
f 16/112/103 76/113/103 81/114/103
f 16/112/104 81/114/104 73/115/104
f 96/116/105 38/117/105 80/118/105
f 49/119/106 85/120/106 100/121/106
f 167/122/107 87/123/107 166/106/107
f 38/117/108 96/116/108 101/124/108
f 49/119/109 100/121/109 104/125/109
f 152/48/110 188/126/110 179/46/110
f 192/127/111 191/128/111 189/129/111
f 60/130/112 108/131/112 115/132/112
f 116/133/113 62/134/113 109/135/113
f 77/32/114 164/136/114 149/33/114
f 66/137/115 112/138/115 116/133/115
f 165/139/116 112/138/116 164/136/116
f 165/139/117 323/140/117 116/133/117
f 116/133/118 115/132/118 66/137/118
f 116/133/119 109/135/119 115/132/119
f 109/135/120 60/130/120 115/132/120
f 115/132/121 114/141/121 66/137/121
f 114/141/122 115/132/122 108/131/122
f 58/142/123 114/141/123 108/131/123
f 111/143/124 66/137/124 114/141/124
f 194/144/125 114/141/125 189/129/125
f 194/144/126 188/126/126 111/143/126
f 111/143/127 112/138/127 66/137/127
f 152/48/128 151/47/128 148/145/128
f 148/145/129 149/33/129 112/138/129
f 104/125/130 109/135/130 62/134/130
f 104/125/131 100/121/131 109/135/131
f 100/121/132 60/130/132 109/135/132
f 101/124/133 108/131/133 60/130/133
f 101/124/134 96/116/134 108/131/134
f 58/142/135 108/131/135 96/116/135
f 192/127/136 58/142/136 196/146/136
f 62/134/137 161/147/137 104/125/137
f 166/106/138 87/123/138 104/125/138
f 104/125/139 87/123/139 49/119/139
f 100/121/140 101/124/140 60/130/140
f 100/121/141 85/120/141 101/124/141
f 85/120/142 38/117/142 101/124/142
f 279/148/143 198/149/143 197/150/143
f 199/151/144 281/152/144 283/153/144
f 201/154/145 80/118/145 202/155/145
f 170/156/146 73/115/146 87/123/146
f 73/115/147 81/114/147 87/123/147
f 49/119/148 87/123/148 81/114/148
f 81/114/149 85/120/149 49/119/149
f 81/114/150 76/113/150 85/120/150
f 76/113/151 38/117/151 85/120/151
f 80/118/152 38/117/152 76/113/152
f 203/157/153 202/155/153 80/118/153
f 170/156/154 154/54/154 153/53/154
f 158/68/155 71/110/155 73/115/155
f 73/115/156 71/110/156 16/112/156
f 159/158/157 146/159/157 207/160/157
f 160/67/158 159/158/158 71/110/158
f 307/161/159 293/162/159 292/163/159
f 59/164/160 187/60/160 182/50/160
f 292/163/161 300/165/161 307/161/161
f 9/166/162 65/167/162 67/168/162
f 9/166/163 67/168/163 64/169/163
f 297/170/164 295/171/164 322/172/164
f 306/173/165 292/163/165 291/174/165
f 69/175/166 200/176/166 201/154/166
f 30/177/167 286/178/167 275/179/167
f 294/180/168 322/172/168 296/181/168
f 50/182/169 276/183/169 288/184/169
f 195/185/170 193/186/170 94/187/170
f 89/188/171 174/189/171 176/29/171
f 57/190/172 89/188/172 94/187/172
f 177/191/173 89/188/173 176/29/173
f 177/191/174 178/38/174 195/185/174
f 57/190/175 94/187/175 93/192/175
f 190/193/176 94/187/176 193/186/176
f 191/128/177 277/194/177 288/184/177
f 91/195/178 57/190/178 93/192/178
f 84/196/179 284/197/179 276/183/179
f 284/197/180 47/198/180 91/195/180
f 213/199/181 57/190/181 209/200/181
f 212/201/182 214/202/182 209/200/182
f 216/203/183 57/190/183 210/204/183
f 216/203/184 219/205/184 218/206/184
f 174/189/185 89/188/185 218/206/185
f 277/194/186 191/128/186 192/127/186
f 78/207/187 84/196/187 50/182/187
f 78/207/188 275/179/188 84/196/188
f 47/198/189 278/208/189 74/209/189
f 199/151/190 78/207/190 50/182/190
f 285/210/191 200/176/191 69/175/191
f 69/175/192 280/211/192 285/210/192
f 208/16/193 297/170/193 13/18/193
f 184/212/194 64/169/194 207/160/194
f 64/169/195 206/213/195 207/160/195
f 204/214/196 67/168/196 69/175/196
f 69/175/197 67/168/197 65/167/197
f 287/215/198 69/175/198 65/167/198
f 186/216/199 64/169/199 183/58/199
f 59/164/200 186/216/200 187/60/200
f 59/164/201 9/166/201 64/169/201
f 215/217/202 329/218/202 219/205/202
f 292/163/203 293/162/203 297/170/203
f 219/205/204 31/219/204 217/220/204
f 226/221/205 225/222/206 336/27/206 338/223/206
f 4/224/207 25/225/207 22/226/207
f 5/227/208 260/228/208 259/229/208
f 32/230/209 4/224/209 35/231/209
f 262/232/210 5/227/210 261/233/210
f 7/234/211 28/235/211 44/236/211
f 46/237/212 262/232/212 263/238/212
f 44/236/213 11/239/213 51/240/213
f 51/240/214 11/239/214 48/241/214
f 238/242/215 240/243/215 239/244/215
f 266/245/216 53/246/216 265/247/216
f 266/245/217 268/248/217 245/249/217
f 56/250/218 55/251/218 20/252/218
f 55/251/219 51/240/219 20/252/219
f 20/252/220 51/240/220 53/246/220
f 51/240/221 48/241/221 53/246/221
f 53/246/222 269/253/222 265/247/222
f 44/236/223 55/251/223 7/234/223
f 11/239/224 46/237/224 48/241/224
f 46/237/225 271/254/225 48/241/225
f 270/255/226 269/253/226 48/241/226
f 44/236/227 46/237/227 11/239/227
f 44/236/228 28/235/228 46/237/228
f 46/237/229 28/235/229 5/227/229
f 32/230/230 241/51/230 242/256/230
f 25/225/231 273/257/231 274/258/231
f 25/225/232 4/224/232 32/230/232
f 22/226/233 28/235/233 7/234/233
f 22/226/234 25/225/234 28/235/234
f 28/235/235 25/225/235 5/227/235
f 17/259/236 15/260/236 2/261/236
f 3/262/237 17/259/237 18/263/237
f 15/260/238 21/264/238 2/261/238
f 2/261/239 21/264/239 23/265/239
f 2/261/240 23/265/240 19/266/240
f 3/262/241 18/263/241 27/267/241
f 257/108/242 6/268/242 258/269/242
f 8/270/243 24/271/243 33/272/243
f 27/267/244 263/238/244 3/262/244
f 34/273/245 257/108/245 256/107/245
f 8/270/246 33/272/246 29/274/246
f 269/253/247 272/275/247 40/276/247
f 45/277/248 10/278/248 37/279/248
f 12/280/249 39/281/249 41/282/249
f 14/283/250 41/282/250 45/277/250
f 41/282/251 39/281/251 45/277/251
f 39/281/252 10/278/252 45/277/252
f 45/277/253 43/284/253 14/283/253
f 43/284/254 45/277/254 37/279/254
f 43/284/255 37/279/255 75/96/255
f 42/285/256 14/283/256 43/284/256
f 243/44/257 43/284/257 246/286/257
f 244/287/258 42/285/258 243/44/258
f 40/276/259 14/283/259 42/285/259
f 268/248/260 267/288/260 42/285/260
f 267/288/261 265/247/261 40/276/261
f 40/276/262 41/282/262 14/283/262
f 40/276/263 36/289/263 41/282/263
f 36/289/264 12/280/264 41/282/264
f 29/274/265 39/281/265 12/280/265
f 29/274/266 33/272/266 39/281/266
f 33/272/267 10/278/267 39/281/267
f 10/278/268 34/273/268 37/279/268
f 34/273/269 75/96/269 37/279/269
f 36/289/270 270/255/270 271/254/270
f 27/267/271 271/254/271 264/290/271
f 27/267/272 12/280/272 36/289/272
f 33/272/273 34/273/273 10/278/273
f 33/272/274 24/271/274 34/273/274
f 34/273/275 24/271/275 6/268/275
f 3/262/276 262/232/276 261/233/276
f 27/267/277 29/274/277 12/280/277
f 27/267/278 18/263/278 29/274/278
f 18/263/279 8/270/279 29/274/279
f 19/266/280 24/271/280 8/270/280
f 19/266/281 23/265/281 24/271/281
f 6/268/282 24/271/282 23/265/282
f 23/265/283 144/70/283 253/77/283
f 248/66/284 249/65/284 250/291/284
f 248/66/285 15/260/285 242/256/285
f 18/263/286 19/266/286 8/270/286
f 18/263/287 17/259/287 19/266/287
f 19/266/288 17/259/288 2/261/288
f 17/259/289 273/257/289 242/256/289
f 17/259/290 259/229/290 260/228/290
f 288/184/291 277/194/291 50/182/291
f 288/184/292 276/183/292 93/192/292
f 278/208/293 275/179/293 74/209/293
f 276/183/294 91/195/294 93/192/294
f 278/208/295 282/292/295 84/196/295
f 282/292/296 284/197/296 84/196/296
f 280/211/297 287/215/297 30/177/297
f 283/153/298 78/207/298 199/151/298
f 279/148/299 196/146/299 58/142/299
f 285/210/300 30/177/300 78/207/300
f 275/179/301 286/178/301 74/209/301
f 200/176/302 96/116/302 201/154/302
f 279/148/303 50/182/303 277/194/303
f 287/215/304 289/293/304 30/177/304
f 289/293/305 286/178/305 30/177/305
f 84/196/306 275/179/306 278/208/306
f 275/179/307 78/207/307 30/177/307
f 135/6/308 136/294/308 92/4/308
f 136/294/309 137/71/309 92/4/309
f 137/71/310 86/2/310 92/4/310
f 52/14/311 222/62/311 221/15/311
f 172/17/312 52/14/312 208/16/312
f 141/103/313 140/102/313 142/19/313
f 142/19/314 125/43/314 63/20/314
f 139/21/315 141/103/315 142/19/315
f 237/24/316 238/242/316 239/244/316
f 239/244/317 121/22/317 237/24/317
f 223/25/318 131/39/318 224/26/318
f 176/29/319 174/189/319 173/30/319
f 173/30/320 122/40/320 132/35/320
f 132/35/321 175/28/321 173/30/321
f 149/33/322 148/145/322 147/31/322
f 147/31/323 126/34/323 77/32/323
f 150/37/324 132/35/324 126/34/324
f 178/38/325 177/191/325 175/28/325
f 175/28/326 132/35/326 150/37/326
f 150/37/327 151/47/327 178/38/327
f 227/42/328 338/223/328 224/26/328
f 224/26/329 131/39/329 122/40/329
f 122/40/330 228/41/330 224/26/330
f 229/295/331 128/23/331 223/25/331
f 230/296/332 237/24/332 229/295/332
f 237/24/333 128/23/333 229/295/333
f 63/20/334 125/43/334 121/22/334
f 121/22/335 245/249/335 243/44/335
f 245/249/336 244/287/336 243/44/336
f 243/44/337 246/286/337 63/20/337
f 143/45/338 126/34/338 125/43/338
f 77/32/339 126/34/339 143/45/339
f 129/100/340 77/32/340 143/45/340
f 179/46/341 178/38/341 151/47/341
f 181/297/342 122/40/342 180/49/342
f 228/41/343 122/40/343 181/297/343
f 245/249/344 121/22/344 239/244/344
f 239/244/345 240/243/345 245/249/345
f 242/256/346 241/51/346 247/52/346
f 138/10/347 92/4/347 153/53/347
f 153/53/348 92/4/348 156/55/348
f 183/58/349 184/212/349 157/57/349
f 184/212/350 146/159/350 157/57/350
f 290/298/351 304/299/351 171/300/351
f 98/9/352 105/8/352 185/59/352
f 187/60/353 186/216/353 185/59/353
f 185/59/354 105/8/354 187/60/354
f 105/8/355 52/14/355 187/60/355
f 52/14/356 105/8/356 231/61/356
f 231/61/357 105/8/357 232/63/357
f 220/11/358 234/301/358 103/12/358
f 234/301/359 233/64/359 103/12/359
f 248/66/360 247/52/360 103/12/360
f 103/12/361 83/3/361 249/65/361
f 158/68/362 156/55/362 92/4/362
f 92/4/363 98/9/363 157/57/363
f 157/57/364 159/158/364 92/4/364
f 159/158/365 160/67/365 92/4/365
f 250/291/366 249/65/366 144/70/366
f 249/65/367 83/3/367 90/69/367
f 145/72/368 144/70/368 90/69/368
f 90/69/369 86/2/369 137/71/369
f 145/72/370 137/71/370 136/294/370
f 136/294/371 26/73/371 145/72/371
f 253/77/372 88/74/372 95/75/372
f 95/75/373 251/302/373 252/76/373
f 26/73/374 136/294/374 135/6/374
f 70/99/375 324/90/375 130/89/375
f 129/100/376 130/89/376 162/91/376
f 165/139/377 164/136/377 163/101/377
f 164/136/378 77/32/378 163/101/378
f 77/32/379 129/100/379 163/101/379
f 143/45/380 142/19/380 140/102/380
f 140/102/381 82/98/381 129/100/381
f 82/98/382 140/102/382 141/103/382
f 254/303/383 255/104/383 63/20/383
f 255/104/384 127/95/384 139/21/384
f 127/95/385 141/103/385 139/21/385
f 75/96/386 127/95/386 255/104/386
f 70/99/387 118/105/387 161/147/387
f 167/122/388 166/106/388 107/82/388
f 166/106/389 161/147/389 118/105/389
f 257/108/390 258/269/390 113/88/390
f 258/269/391 251/302/391 95/75/391
f 113/88/392 258/269/392 95/75/392
f 168/109/393 169/304/393 107/82/393
f 169/304/394 167/122/394 107/82/394
f 154/54/395 170/156/395 168/109/395
f 154/54/396 102/78/396 138/10/396
f 102/78/397 135/6/397 134/5/397
f 138/10/398 102/78/398 134/5/398
f 144/70/399 145/72/399 88/74/399
f 167/122/400 169/304/400 87/123/400
f 152/48/401 111/143/401 188/126/401
f 191/128/402 190/193/402 189/129/402
f 189/129/403 114/141/403 192/127/403
f 114/141/404 58/142/404 192/127/404
f 164/136/405 112/138/405 149/33/405
f 165/139/406 116/133/406 112/138/406
f 162/91/407 324/90/407 163/101/407
f 324/90/408 165/139/408 163/101/408
f 189/129/409 193/186/409 194/144/409
f 194/144/410 111/143/410 114/141/410
f 194/144/411 195/185/411 188/126/411
f 150/37/412 147/31/412 151/47/412
f 147/31/413 148/145/413 151/47/413
f 148/145/414 112/138/414 152/48/414
f 112/138/415 111/143/415 152/48/415
f 161/147/416 166/106/416 104/125/416
f 279/148/417 281/152/417 198/149/417
f 199/151/418 198/149/418 281/152/418
f 169/304/419 168/109/419 87/123/419
f 168/109/420 170/156/420 87/123/420
f 68/111/421 204/214/421 76/113/421
f 204/214/422 203/157/422 76/113/422
f 203/157/423 80/118/423 76/113/423
f 203/157/424 205/305/424 202/155/424
f 153/53/425 155/56/425 73/115/425
f 73/115/426 170/156/426 153/53/426
f 155/56/427 156/55/427 73/115/427
f 156/55/428 158/68/428 73/115/428
f 68/111/429 71/110/429 206/213/429
f 71/110/430 159/158/430 207/160/430
f 206/213/431 71/110/431 207/160/431
f 159/158/432 157/57/432 146/159/432
f 182/50/433 172/17/433 13/18/433
f 13/18/434 59/164/434 182/50/434
f 331/306/435 296/181/435 332/307/435
f 201/154/436 202/155/436 69/175/436
f 202/155/437 205/305/437 69/175/437
f 50/182/438 84/196/438 276/183/438
f 195/185/439 194/144/439 193/186/439
f 176/29/440 175/28/440 177/191/440
f 177/191/441 94/187/441 89/188/441
f 179/46/442 188/126/442 178/38/442
f 188/126/443 195/185/443 178/38/443
f 195/185/444 94/187/444 177/191/444
f 193/186/445 189/129/445 190/193/445
f 190/193/176 93/192/176 94/187/176
f 288/184/446 93/192/446 191/128/446
f 93/192/447 190/193/447 191/128/447
f 284/197/448 282/292/448 47/198/448
f 213/199/449 211/308/449 210/204/449
f 210/204/450 57/190/450 213/199/450
f 57/190/451 91/195/451 209/200/451
f 210/204/452 215/217/452 216/203/452
f 216/203/453 89/188/453 57/190/453
f 217/220/454 218/206/454 219/205/454
f 218/206/455 89/188/455 216/203/455
f 218/206/456 181/297/456 173/30/456
f 181/297/457 180/49/457 173/30/457
f 173/30/458 174/189/458 218/206/458
f 192/127/459 196/146/459 277/194/459
f 196/146/460 279/148/460 277/194/460
f 47/198/461 282/292/461 278/208/461
f 197/150/462 198/149/462 50/182/462
f 198/149/463 199/151/463 50/182/463
f 285/210/464 283/153/464 200/176/464
f 321/309/465 47/198/465 74/209/465
f 146/159/466 184/212/466 207/160/466
f 64/169/467 67/168/467 206/213/467
f 68/111/468 206/213/468 204/214/468
f 206/213/469 67/168/469 204/214/469
f 205/305/470 203/157/470 69/175/470
f 203/157/471 204/214/471 69/175/471
f 287/215/472 280/211/472 69/175/472
f 183/58/473 185/59/473 186/216/473
f 64/169/474 184/212/474 183/58/474
f 59/164/475 64/169/475 186/216/475
f 219/205/476 216/203/476 215/217/476
f 290/298/477 330/310/477 303/311/477
f 213/199/478 209/200/478 214/202/478
f 302/312/479 171/300/479 304/299/479
f 215/217/480 210/204/480 211/308/480
f 305/313/481 290/298/481 303/311/481
f 181/297/482 218/206/482 217/220/482
f 217/220/483 31/219/483 181/297/483
f 287/215/484 320/314/484 289/293/484
f 227/42/485 228/41/485 181/297/485
f 181/297/486 235/315/486 227/42/486
f 259/229/487 261/233/487 5/227/487
f 5/227/488 25/225/488 260/228/488
f 263/238/489 264/290/489 46/237/489
f 46/237/490 5/227/490 262/232/490
f 238/242/491 20/252/491 240/243/491
f 265/247/492 267/288/492 266/245/492
f 266/245/493 20/252/493 53/246/493
f 245/249/494 240/243/494 266/245/494
f 240/243/495 20/252/495 266/245/495
f 238/242/496 230/296/496 56/250/496
f 56/250/497 20/252/497 238/242/497
f 238/242/498 237/24/498 230/296/498
f 53/246/499 48/241/499 269/253/499
f 51/240/500 55/251/500 44/236/500
f 264/290/501 271/254/501 46/237/501
f 271/254/502 270/255/502 48/241/502
f 270/255/503 272/275/503 269/253/503
f 32/230/504 35/231/504 241/51/504
f 35/231/505 220/11/505 236/13/505
f 35/231/506 236/13/506 241/51/506
f 242/256/507 273/257/507 32/230/507
f 274/258/508 260/228/508 25/225/508
f 25/225/509 32/230/509 273/257/509
f 27/267/510 264/290/510 263/238/510
f 34/273/511 6/268/511 257/108/511
f 272/275/512 36/289/512 40/276/512
f 40/276/513 265/247/513 269/253/513
f 268/248/514 42/285/514 244/287/514
f 244/287/515 245/249/515 268/248/515
f 63/20/516 246/286/516 254/303/516
f 246/286/516 43/284/516 254/303/516
f 75/96/517 255/104/517 254/303/517
f 254/303/518 43/284/518 75/96/518
f 243/44/519 42/285/519 43/284/519
f 266/245/520 267/288/520 268/248/520
f 267/288/521 40/276/521 42/285/521
f 256/107/522 75/96/522 34/273/522
f 36/289/523 272/275/523 270/255/523
f 27/267/524 36/289/524 271/254/524
f 261/233/525 259/229/525 3/262/525
f 3/262/526 263/238/526 262/232/526
f 251/302/527 258/269/527 6/268/527
f 6/268/528 23/265/528 251/302/528
f 23/265/529 252/76/529 251/302/529
f 253/77/530 252/76/530 23/265/530
f 23/265/531 21/264/531 144/70/531
f 21/264/532 250/291/532 144/70/532
f 250/291/533 21/264/533 15/260/533
f 15/260/534 248/66/534 250/291/534
f 247/52/535 248/66/535 242/256/535
f 242/256/536 15/260/536 17/259/536
f 17/259/537 274/258/537 273/257/537
f 260/228/538 274/258/538 17/259/538
f 17/259/539 3/262/539 259/229/539
f 276/183/540 284/197/540 91/195/540
f 283/153/541 285/210/541 78/207/541
f 96/116/542 281/152/542 58/142/542
f 281/152/543 279/148/543 58/142/543
f 285/210/544 280/211/544 30/177/544
f 200/176/545 283/153/545 96/116/545
f 283/153/546 281/152/546 96/116/546
f 96/116/547 80/118/547 201/154/547
f 279/148/548 197/150/548 50/182/548
f 313/316/549 91/195/549 318/317/549
f 293/162/550 299/318/550 13/18/550
f 313/316/551 209/200/551 91/195/551
f 314/319/552 214/202/552 212/201/552
f 311/320/553 287/215/553 65/167/553
f 294/180/554 171/300/554 301/321/554
f 13/18/555 310/322/555 59/164/555
f 316/323/556 211/308/556 213/199/556
f 316/323/556 213/199/556 315/324/556
f 321/309/557 74/209/557 312/325/557
f 314/319/558 212/201/558 313/316/558
f 298/326/559 295/171/559 297/170/559
f 208/16/560 298/326/560 297/170/560
f 293/162/561 13/18/561 297/170/561
f 308/327/562 291/174/562 294/180/562
f 316/323/481 303/311/481 215/217/481
f 314/319/563 304/299/563 315/324/563
f 303/311/564 329/218/564 215/217/565
f 317/328/566 308/327/566 301/321/566
f 290/298/567 294/180/567 296/181/567
f 321/309/568 302/312/568 318/317/568
f 317/328/569 301/321/569 312/325/569
f 307/161/570 311/320/570 319/329/570
f 310/322/571 307/161/571 319/329/571
f 59/164/572 319/329/572 9/166/572
f 319/329/573 65/167/573 9/166/573
f 286/178/574 312/325/574 74/209/574
f 47/198/575 318/317/575 91/195/575
f 289/293/576 317/328/576 286/178/576
f 235/315/577 298/326/578 227/42/579
f 314/319/580 213/199/580 214/202/580
f 235/315/581 31/219/582 298/326/583
f 307/161/584 299/318/584 293/162/584
f 309/330/585 312/325/585 301/321/585
f 305/313/556 315/324/556 304/299/556
f 295/171/586 296/181/586 322/172/586
f 13/18/587 299/318/587 310/322/587
f 306/173/588 320/314/588 287/215/588
f 300/165/589 287/215/589 311/320/589
f 313/316/590 212/201/590 209/200/590
f 291/174/591 297/170/591 322/172/591
f 316/323/481 305/313/481 303/311/481
f 314/319/592 302/312/592 304/299/592
f 317/328/593 320/314/593 308/327/593
f 321/309/594 309/330/594 302/312/594
f 307/161/595 300/165/595 311/320/595
f 310/322/596 299/318/596 307/161/596
f 59/164/597 310/322/597 319/329/597
f 319/329/598 311/320/598 65/167/598
f 286/178/599 317/328/599 312/325/599
f 47/198/600 321/309/600 318/317/600
f 289/293/601 320/314/601 317/328/601
f 314/319/563 315/324/563 213/199/563
f 211/308/481 316/323/481 215/217/481
f 302/312/602 314/319/602 313/316/602
f 309/330/603 321/309/603 312/325/603
f 305/313/556 316/323/556 315/324/556
f 306/173/604 308/327/604 320/314/604
f 300/165/605 306/173/605 287/215/605
f 302/312/606 313/316/606 318/317/606
f 171/300/607 309/330/607 301/321/607
f 171/300/608 294/180/608 290/298/608
f 327/331/609 70/99/609 161/147/609
f 327/331/610 323/140/610 326/332/610
f 325/333/611 161/147/611 62/134/611
f 323/140/612 62/134/612 116/133/612
f 165/139/613 326/332/613 323/140/613
f 306/173/614 300/165/614 292/163/614
f 294/180/615 291/174/615 322/172/615
f 290/298/616 305/313/616 304/299/616
f 70/99/617 328/334/617 324/90/617
f 324/90/618 326/332/618 165/139/618
f 298/326/619 332/307/620 295/171/621
f 294/180/622 301/321/622 308/327/622
f 308/327/623 306/173/623 291/174/623
f 295/171/624 332/307/624 296/181/624
f 291/174/625 292/163/625 297/170/625
f 171/300/626 302/312/626 309/330/626
f 327/331/627 328/334/627 70/99/627
f 326/332/628 324/90/628 328/334/628
f 327/331/629 325/333/629 323/140/629
f 326/332/630 328/334/630 327/331/630
f 325/333/631 327/331/631 161/147/631
f 323/140/612 325/333/612 62/134/612
f 222/62/632 225/222/633 226/221/634
f 208/16/635 227/42/636 298/326/637
f 296/181/638 331/306/638 290/298/638
f 332/307/639 330/310/639 331/306/639
f 219/205/640 329/218/640 31/219/640
f 330/310/641 31/219/641 329/218/641
f 221/15/642 226/221/643 227/42/644
f 225/222/645 232/63/646 333/335/647
f 234/301/648 334/336/649 333/335/650
f 229/295/651 339/337/652 335/338/653 230/296/654
f 220/11/655 337/339/656 335/338/657
f 4/224/658 56/250/659 337/339/660
f 22/226/661 55/251/661 4/224/661
f 55/251/662 22/226/662 7/234/662
f 290/298/663 331/306/663 330/310/663
f 303/311/664 330/310/665 329/218/666
f 235/315/667 181/297/668 31/219/669
f 298/326/670 31/219/671 332/307/672
f 222/62/673 231/61/674 225/222/675
f 221/15/676 227/42/676 208/16/676
f 330/310/677 332/307/677 31/219/677
f 221/15/678 222/62/679 226/221/680
f 225/222/681 231/61/682 232/63/683
f 232/63/684 233/64/685 234/301/684
f 234/301/686 340/340/687 334/336/688
f 229/295/689 340/340/690 339/337/691
f 220/11/692 35/231/693 337/339/694
f 4/224/695 55/251/696 56/250/697
f 333/335/698 334/336/699 336/27/700 225/222/701
f 333/335/702 232/63/703 234/301/704
f 335/338/705 339/337/706 220/11/707
f 336/27/708 334/336/709 223/25/710
f 335/338/711 337/339/712 56/250/713 230/296/714
f 338/223/715 227/42/715 226/221/715
f 337/339/716 35/231/717 4/224/718
f 338/223/719 336/27/719 224/26/720
f 334/336/721 340/340/722 229/295/723 223/25/724
f 339/337/725 340/340/726 234/301/727 220/11/728
