# Blender 5.2.1 LTS
# www.blender.org
mtllib propeller.mtl
o 円柱
v 0.000000 -0.050802 -0.242903
v 0.000000 0.362754 -0.242903
v 0.047388 -0.050802 -0.238235
v 0.047388 0.362754 -0.238235
v 0.092955 -0.050802 -0.224413
v 0.092955 0.362754 -0.224413
v 0.134950 -0.050802 -0.201966
v 0.134950 0.362754 -0.201966
v 0.171758 -0.050802 -0.171758
v 0.171758 0.362754 -0.171758
v 0.201966 -0.050802 -0.134949
v 0.201966 0.362754 -0.134949
v 0.224413 -0.050802 -0.092955
v 0.224413 0.362754 -0.092955
v 0.238235 -0.050802 -0.047388
v 0.238235 0.362754 -0.047388
v 0.242903 -0.050802 -0.000000
v 0.242903 0.362754 -0.000000
v 0.238235 -0.050802 0.047388
v 0.238235 0.362754 0.047388
v 0.224413 -0.050802 0.092955
v 0.224413 0.362754 0.092955
v 0.201966 -0.050802 0.134949
v 0.201966 0.362754 0.134949
v 0.171758 -0.050802 0.171758
v 0.171758 0.362754 0.171758
v 0.134950 -0.050802 0.201966
v 0.134950 0.362754 0.201966
v 0.092955 -0.050802 0.224413
v 0.092955 0.362754 0.224413
v 0.047388 -0.050802 0.238235
v 0.047388 0.362754 0.238235
v 0.000000 -0.050802 0.242903
v 0.000000 0.362754 0.242903
v -0.047388 -0.050802 0.238235
v -0.047388 0.362754 0.238235
v -0.092955 -0.050802 0.224413
v -0.092955 0.362754 0.224413
v -0.134949 -0.050802 0.201966
v -0.134949 0.362754 0.201966
v -0.171758 -0.050802 0.171758
v -0.171758 0.362754 0.171758
v -0.201966 -0.050802 0.134949
v -0.201966 0.362754 0.134949
v -0.224413 -0.050802 0.092955
v -0.224413 0.362754 0.092955
v -0.238235 -0.050802 0.047388
v -0.238235 0.362754 0.047388
v -0.242903 -0.050802 -0.000000
v -0.242903 0.362754 -0.000000
v -0.238235 -0.050802 -0.047388
v -0.238235 0.362754 -0.047388
v -0.224413 -0.050802 -0.092955
v -0.224413 0.362754 -0.092955
v -0.201966 -0.050802 -0.134949
v -0.201966 0.362754 -0.134949
v -0.171758 -0.050802 -0.171758
v -0.171758 0.362754 -0.171758
v -0.134949 -0.050802 -0.201966
v -0.134949 0.362754 -0.201966
v -0.092955 -0.050802 -0.224413
v -0.092955 0.362754 -0.224413
v -0.047388 -0.050802 -0.238235
v -0.047388 0.362754 -0.238235
vn -0.0000 -0.0000 -1.0000
vn 0.1951 -0.0000 -0.9808
vn 0.3827 -0.0000 -0.9239
vn 0.5556 -0.0000 -0.8315
vn 0.7071 -0.0000 -0.7071
vn 0.8315 -0.0000 -0.5556
vn 0.9239 -0.0000 -0.3827
vn 0.9808 -0.0000 -0.1951
vn 1.0000 -0.0000 -0.0000
vn 0.9808 -0.0000 0.1951
vn 0.9239 -0.0000 0.3827
vn 0.8315 -0.0000 0.5556
vn 0.7071 -0.0000 0.7071
vn 0.5556 -0.0000 0.8315
vn 0.3827 -0.0000 0.9239
vn 0.1951 -0.0000 0.9808
vn -0.0000 -0.0000 1.0000
vn -0.1951 -0.0000 0.9808
vn -0.3827 -0.0000 0.9239
vn -0.5556 -0.0000 0.8315
vn -0.7071 -0.0000 0.7071
vn -0.8315 -0.0000 0.5556
vn -0.9239 -0.0000 0.3827
vn -0.9808 -0.0000 0.1951
vn -1.0000 -0.0000 -0.0000
vn -0.9808 -0.0000 -0.1951
vn -0.9239 -0.0000 -0.3827
vn -0.8315 -0.0000 -0.5556
vn -0.7071 -0.0000 -0.7071
vn -0.5556 -0.0000 -0.8315
vn -0.3827 -0.0000 -0.9239
vn -0.0000 1.0000 -0.0000
vn -0.1951 -0.0000 -0.9808
vn -0.0000 -1.0000 -0.0000
vt 1.000000 1.000000
vt 0.968750 0.500000
vt 1.000000 0.500000
vt 0.968750 1.000000
vt 0.937500 0.500000
vt 0.937500 1.000000
vt 0.906250 0.500000
vt 0.906250 1.000000
vt 0.875000 0.500000
vt 0.875000 1.000000
vt 0.843750 0.500000
vt 0.843750 1.000000
vt 0.812500 0.500000
vt 0.812500 1.000000
vt 0.781250 0.500000
vt 0.781250 1.000000
vt 0.750000 0.500000
vt 0.750000 1.000000
vt 0.718750 0.500000
vt 0.718750 1.000000
vt 0.687500 0.500000
vt 0.687500 1.000000
vt 0.656250 0.500000
vt 0.656250 1.000000
vt 0.625000 0.500000
vt 0.625000 1.000000
vt 0.593750 0.500000
vt 0.593750 1.000000
vt 0.562500 0.500000
vt 0.562500 1.000000
vt 0.531250 0.500000
vt 0.531250 1.000000
vt 0.500000 0.500000
vt 0.500000 1.000000
vt 0.468750 0.500000
vt 0.468750 1.000000
vt 0.437500 0.500000
vt 0.437500 1.000000
vt 0.406250 0.500000
vt 0.406250 1.000000
vt 0.375000 0.500000
vt 0.375000 1.000000
vt 0.343750 0.500000
vt 0.343750 1.000000
vt 0.312500 0.500000
vt 0.312500 1.000000
vt 0.281250 0.500000
vt 0.281250 1.000000
vt 0.250000 0.500000
vt 0.250000 1.000000
vt 0.218750 0.500000
vt 0.218750 1.000000
vt 0.187500 0.500000
vt 0.187500 1.000000
vt 0.156250 0.500000
vt 0.156250 1.000000
vt 0.125000 0.500000
vt 0.125000 1.000000
vt 0.093750 0.500000
vt 0.093750 1.000000
vt 0.062500 0.500000
vt 0.158156 0.028269
vt 0.471731 0.158156
vt 0.341844 0.471731
vt 0.062500 1.000000
vt 0.031250 0.500000
vt 0.031250 1.000000
vt 0.000000 0.500000
vt 0.796822 0.014612
vt 0.514612 0.203178
vt 0.703178 0.485388
vt 0.296822 0.485388
vt 0.250000 0.490000
vt 0.203178 0.485388
vt 0.158156 0.471731
vt 0.116663 0.449553
vt 0.080294 0.419706
vt 0.050447 0.383337
vt 0.028269 0.341844
vt 0.014612 0.296822
vt 0.028269 0.158156
vt 0.010000 0.250000
vt 0.014612 0.203178
vt 0.050447 0.116663
vt 0.080294 0.080294
vt 0.116663 0.050447
vt 0.203178 0.014612
vt 0.341844 0.028269
vt 0.250000 0.010000
vt 0.296822 0.014612
vt 0.383337 0.050447
vt 0.419706 0.080294
vt 0.449553 0.116663
vt 0.485388 0.203178
vt 0.490000 0.250000
vt 0.485388 0.296822
vt 0.471731 0.341844
vt 0.449553 0.383337
vt 0.419706 0.419706
vt 0.383337 0.449553
vt 0.000000 1.000000
vt 0.750000 0.490000
vt 0.796822 0.485388
vt 0.841844 0.471731
vt 0.883337 0.449553
vt 0.919706 0.419706
vt 0.949553 0.383337
vt 0.971731 0.341844
vt 0.985388 0.296822
vt 0.990000 0.250000
vt 0.949553 0.116663
vt 0.985388 0.203178
vt 0.971731 0.158156
vt 0.919706 0.080294
vt 0.883337 0.050447
vt 0.841844 0.028269
vt 0.750000 0.010000
vt 0.703178 0.014612
vt 0.658156 0.028269
vt 0.616663 0.050447
vt 0.580294 0.080294
vt 0.550447 0.116663
vt 0.528269 0.158156
vt 0.510000 0.250000
vt 0.514612 0.296822
vt 0.528269 0.341844
vt 0.550447 0.383337
vt 0.580294 0.419706
vt 0.616663 0.449553
vt 0.658156 0.471731
s 1
usemtl マテリアル
f 2/1/1 3/2/2 1/3/1
f 4/4/2 5/5/3 3/2/2
f 6/6/3 7/7/4 5/5/3
f 8/8/4 9/9/5 7/7/4
f 10/10/5 11/11/6 9/9/5
f 12/12/6 13/13/7 11/11/6
f 14/14/7 15/15/8 13/13/7
f 16/16/8 17/17/9 15/15/8
f 18/18/9 19/19/10 17/17/9
f 20/20/10 21/21/11 19/19/10
f 22/22/11 23/23/12 21/21/11
f 24/24/12 25/25/13 23/23/12
f 26/26/13 27/27/14 25/25/13
f 28/28/14 29/29/15 27/27/14
f 30/30/15 31/31/16 29/29/15
f 32/32/16 33/33/17 31/31/16
f 34/34/17 35/35/18 33/33/17
f 36/36/18 37/37/19 35/35/18
f 38/38/19 39/39/20 37/37/19
f 40/40/20 41/41/21 39/39/20
f 42/42/21 43/43/22 41/41/21
f 44/44/22 45/45/23 43/43/22
f 46/46/23 47/47/24 45/45/23
f 48/48/24 49/49/25 47/47/24
f 50/50/25 51/51/26 49/49/25
f 52/52/26 53/53/27 51/51/26
f 54/54/27 55/55/28 53/53/27
f 56/56/28 57/57/29 55/55/28
f 58/58/29 59/59/30 57/57/29
f 60/60/30 61/61/31 59/59/30
f 38/62/32 22/63/32 6/64/32
f 62/65/31 63/66/33 61/61/31
f 64/67/33 1/68/1 63/66/33
f 31/69/34 47/70/34 63/71/34
f 2/1/1 4/4/2 3/2/2
f 4/4/2 6/6/3 5/5/3
f 6/6/3 8/8/4 7/7/4
f 8/8/4 10/10/5 9/9/5
f 10/10/5 12/12/6 11/11/6
f 12/12/6 14/14/7 13/13/7
f 14/14/7 16/16/8 15/15/8
f 16/16/8 18/18/9 17/17/9
f 18/18/9 20/20/10 19/19/10
f 20/20/10 22/22/11 21/21/11
f 22/22/11 24/24/12 23/23/12
f 24/24/12 26/26/13 25/25/13
f 26/26/13 28/28/14 27/27/14
f 28/28/14 30/30/15 29/29/15
f 30/30/15 32/32/16 31/31/16
f 32/32/16 34/34/17 33/33/17
f 34/34/17 36/36/18 35/35/18
f 36/36/18 38/38/19 37/37/19
f 38/38/19 40/40/20 39/39/20
f 40/40/20 42/42/21 41/41/21
f 42/42/21 44/44/22 43/43/22
f 44/44/22 46/46/23 45/45/23
f 46/46/23 48/48/24 47/47/24
f 48/48/24 50/50/25 49/49/25
f 50/50/25 52/52/26 51/51/26
f 52/52/26 54/54/27 53/53/27
f 54/54/27 56/56/28 55/55/28
f 56/56/28 58/58/29 57/57/29
f 58/58/29 60/60/30 59/59/30
f 60/60/30 62/65/31 61/61/31
f 6/64/32 4/72/32 2/73/32
f 2/73/32 64/74/32 6/64/32
f 64/74/32 62/75/32 6/64/32
f 62/75/32 60/76/32 58/77/32
f 58/77/32 56/78/32 62/75/32
f 56/78/32 54/79/32 62/75/32
f 54/79/32 52/80/32 46/81/32
f 52/80/32 50/82/32 46/81/32
f 50/82/32 48/83/32 46/81/32
f 46/81/32 44/84/32 38/62/32
f 44/84/32 42/85/32 38/62/32
f 42/85/32 40/86/32 38/62/32
f 38/62/32 36/87/32 30/88/32
f 36/87/32 34/89/32 30/88/32
f 34/89/32 32/90/32 30/88/32
f 30/88/32 28/91/32 26/92/32
f 26/92/32 24/93/32 30/88/32
f 24/93/32 22/63/32 30/88/32
f 22/63/32 20/94/32 18/95/32
f 18/95/32 16/96/32 14/97/32
f 14/97/32 12/98/32 6/64/32
f 12/98/32 10/99/32 6/64/32
f 10/99/32 8/100/32 6/64/32
f 22/63/32 18/95/32 6/64/32
f 18/95/32 14/97/32 6/64/32
f 6/64/32 62/75/32 54/79/32
f 54/79/32 46/81/32 38/62/32
f 38/62/32 30/88/32 22/63/32
f 6/64/32 54/79/32 38/62/32
f 62/65/31 64/67/33 63/66/33
f 64/67/33 2/101/1 1/68/1
f 63/71/34 1/102/34 3/103/34
f 3/103/34 5/104/34 63/71/34
f 5/104/34 7/105/34 63/71/34
f 7/105/34 9/106/34 11/107/34
f 11/107/34 13/108/34 15/109/34
f 15/109/34 17/110/34 23/111/34
f 17/110/34 19/112/34 23/111/34
f 19/112/34 21/113/34 23/111/34
f 23/111/34 25/114/34 27/115/34
f 27/115/34 29/116/34 23/111/34
f 29/116/34 31/69/34 23/111/34
f 31/69/34 33/117/34 35/118/34
f 35/118/34 37/119/34 31/69/34
f 37/119/34 39/120/34 31/69/34
f 39/120/34 41/121/34 43/122/34
f 43/122/34 45/123/34 47/70/34
f 47/70/34 49/124/34 51/125/34
f 51/125/34 53/126/34 55/127/34
f 55/127/34 57/128/34 59/129/34
f 59/129/34 61/130/34 55/127/34
f 61/130/34 63/71/34 55/127/34
f 7/105/34 11/107/34 63/71/34
f 11/107/34 15/109/34 63/71/34
f 39/120/34 43/122/34 31/69/34
f 43/122/34 47/70/34 31/69/34
f 47/70/34 51/125/34 55/127/34
f 15/109/34 23/111/34 31/69/34
f 47/70/34 55/127/34 63/71/34
f 63/71/34 15/109/34 31/69/34
o 円柱.003
v -3.277938 0.313970 0.000000
v 0.000000 0.313970 -3.277938
v 3.277938 0.313970 0.000000
v 0.000000 0.313970 3.277938
v -3.277938 0.306753 -0.036284
v 0.036284 0.306753 -3.277938
v 3.277938 0.306753 -0.036284
v 0.036284 0.306753 3.277938
v -3.277938 0.286200 -0.067044
v 0.067044 0.286200 -3.277938
v 0.067044 0.286200 3.277938
v 3.277938 0.286200 -0.067044
v -3.277938 0.255440 -0.087597
v 0.087597 0.255440 -3.277938
v 3.277938 0.255440 -0.087597
v 0.087597 0.255440 3.277938
v -3.277938 0.219156 -0.094814
v 0.094814 0.219156 -3.277938
v 3.277938 0.219156 -0.094814
v 0.094814 0.219156 3.277938
v -3.277938 0.182873 -0.087597
v 0.087597 0.182873 -3.277938
v 3.277938 0.182873 -0.087597
v 0.087597 0.182873 3.277938
v 0.067044 0.152113 -3.277938
v -3.277938 0.152113 -0.067044
v 0.067044 0.152113 3.277938
v 3.277938 0.152113 -0.067044
v 0.036284 0.131560 -3.277938
v -3.277938 0.131560 -0.036284
v 3.277938 0.131560 -0.036284
v 0.036284 0.131560 3.277938
v -3.277938 0.124342 0.000000
v 0.000000 0.124342 -3.277938
v 0.000000 0.124342 3.277938
v 3.277938 0.124342 0.000000
v -3.277938 0.131560 0.036284
v -0.036284 0.131560 -3.277938
v 3.277938 0.131560 0.036284
v -0.036284 0.131560 3.277938
v -0.067044 0.152113 -3.277938
v -3.277938 0.152113 0.067044
v 3.277938 0.152113 0.067044
v -0.067044 0.152113 3.277938
v -3.277938 0.182873 0.087597
v -0.087597 0.182873 -3.277938
v 3.277938 0.182873 0.087597
v -0.087597 0.182873 3.277938
v -0.094814 0.219156 -3.277938
v -3.277938 0.219156 0.094814
v 3.277938 0.219156 0.094814
v -0.094814 0.219156 3.277938
v -3.277938 0.255440 0.087597
v -0.087597 0.255440 -3.277938
v 3.277938 0.255440 0.087597
v -0.087597 0.255440 3.277938
v -3.277938 0.286200 0.067044
v -0.067044 0.286200 -3.277938
v 3.277938 0.286200 0.067044
v -0.067044 0.286200 3.277938
v -3.277938 0.306753 0.036284
v -0.036284 0.306753 -3.277938
v 3.277938 0.306753 0.036284
v -0.036284 0.306753 3.277938
v 0.000000 0.313970 0.000000
v -0.036284 0.306753 -0.036284
v 0.036284 0.306753 -0.036284
v -0.067044 0.286200 -0.067044
v 0.067044 0.286200 -0.067044
v -0.087597 0.255440 -0.087597
v 0.087597 0.255440 -0.087597
v -0.094814 0.219156 -0.094814
v 0.094814 0.219156 -0.094814
v 0.087597 0.182873 -0.087597
v -0.087597 0.182873 -0.087597
v 0.067044 0.152113 -0.067044
v -0.067044 0.152113 -0.067044
v 0.036284 0.131560 -0.036284
v -0.036284 0.131560 -0.036284
v 0.000000 0.124342 0.000000
v -0.036284 0.131560 0.036284
v 0.036284 0.131560 0.036284
v -0.067044 0.152113 0.067044
v 0.067044 0.152113 0.067044
v -0.087597 0.182873 0.087597
v 0.087597 0.182873 0.087597
v -0.094814 0.219156 0.094814
v 0.094814 0.219156 0.094814
v 0.087597 0.255440 0.087597
v -0.087597 0.255440 0.087597
v 0.067044 0.286200 0.067044
v -0.067044 0.286200 0.067044
v 0.036284 0.306753 0.036284
v -0.036284 0.306753 0.036284
vn -0.0000 1.0000 -0.0000
vn 0.1523 0.9765 -0.1523
vn -0.1523 0.9765 -0.1523
vn -0.0000 0.9239 -0.3827
vn -0.0000 0.7559 -0.6547
vn -0.0000 0.7071 -0.7071
vn -0.0000 0.4196 -0.9077
vn -0.0000 0.3827 -0.9239
vn -0.0000 -0.0000 -1.0000
vn -0.0000 -0.3827 -0.9239
vn -0.0000 -0.4196 -0.9077
vn -0.0000 -0.7071 -0.7071
vn -0.0000 -0.7559 -0.6547
vn -0.0000 -0.9239 -0.3827
vn -0.1523 -0.9765 -0.1523
vn -0.0000 -1.0000 -0.0000
vn 0.1523 -0.9765 -0.1523
vn 0.1523 -0.9765 0.1523
vn -0.1523 -0.9765 0.1523
vn -0.0000 -0.9239 0.3827
vn -0.0000 -0.7559 0.6547
vn -0.0000 -0.7071 0.7071
vn -0.0000 -0.4196 0.9077
vn -0.0000 -0.3827 0.9239
vn -0.0000 -0.0000 1.0000
vn -0.0000 0.3827 0.9239
vn -0.0000 0.4196 0.9077
vn -0.0000 0.7071 0.7071
vn -0.0000 0.7559 0.6547
vn 1.0000 -0.0000 -0.0000
vn -0.0000 0.9239 0.3827
vn -0.1523 0.9765 0.1523
vn 0.1523 0.9765 0.1523
vn -1.0000 -0.0000 -0.0000
vn 0.3827 0.9239 -0.0000
vn 0.6547 0.7559 -0.0000
vn 0.7071 0.7071 -0.0000
vn 0.9077 0.4196 -0.0000
vn 0.9239 0.3827 -0.0000
vn 0.9239 -0.3827 -0.0000
vn 0.9077 -0.4196 -0.0000
vn 0.7071 -0.7071 -0.0000
vn 0.6547 -0.7559 -0.0000
vn 0.3827 -0.9239 -0.0000
vn -0.3827 -0.9239 -0.0000
vn -0.6547 -0.7559 -0.0000
vn -0.7071 -0.7071 -0.0000
vn -0.9077 -0.4196 -0.0000
vn -0.9239 -0.3827 -0.0000
vn -0.9239 0.3827 -0.0000
vn -0.9077 0.4196 -0.0000
vn -0.7071 0.7071 -0.0000
vn -0.6547 0.7559 -0.0000
vn -0.3827 0.9239 -0.0000
vn -0.0000 -0.0001 -1.0000
vt 1.000000 1.000000
vt 0.937500 0.759055
vt 1.000000 0.750000
vt 1.000000 0.500000
vt 0.937500 0.740945
vt 0.937500 0.500000
vt 0.937500 1.000000
vt 0.875000 0.766731
vt 0.875000 0.733269
vt 0.875000 0.500000
vt 0.875000 1.000000
vt 0.812500 0.771860
vt 0.812500 0.728140
vt 0.812500 0.500000
vt 0.812500 1.000000
vt 0.750000 0.773661
vt 0.750000 0.726338
vt 0.750000 0.500000
vt 0.687500 1.000000
vt 0.750000 1.000000
vt 0.687500 0.500000
vt 0.687500 0.728140
vt 0.625000 1.000000
vt 0.687500 0.771860
vt 0.625000 0.500000
vt 0.625000 0.733269
vt 0.562500 1.000000
vt 0.625000 0.766731
vt 0.562500 0.500000
vt 0.562500 0.740945
vt 0.500000 1.000000
vt 0.562500 0.759055
vt 0.500000 0.500000
vt 0.500000 0.750000
vt 0.437500 0.759055
vt 0.437500 0.740945
vt 0.437500 0.500000
vt 0.437500 1.000000
vt 0.375000 0.766731
vt 0.375000 0.733269
vt 0.375000 0.500000
vt 0.375000 1.000000
vt 0.312500 0.771860
vt 0.312500 0.728140
vt 0.312500 0.500000
vt 0.312500 1.000000
vt 0.250000 0.773661
vt 0.250000 0.726338
vt 0.250000 0.500000
vt 0.187500 1.000000
vt 0.250000 1.000000
vt 0.187500 0.500000
vt 0.187500 0.728140
vt 0.125000 1.000000
vt 0.187500 0.771860
vt 0.125000 0.500000
vt 0.125000 0.733269
vt 0.028269 0.341844
vt 0.158156 0.028269
vt 0.471731 0.158156
vt 0.062500 1.000000
vt 0.125000 0.766731
vt 0.062500 0.500000
vt 0.062500 0.740945
vt 0.000000 1.000000
vt 0.062500 0.759055
vt 0.000000 0.500000
vt 0.000000 0.750000
vt 0.919706 0.080294
vt 0.580294 0.080294
vt 0.580294 0.419706
vt 0.250000 0.726339
vt 0.341844 0.471731
vt 0.490000 0.250000
vt 0.471731 0.341844
vt 0.419706 0.419706
vt 0.250000 0.490000
vt 0.158156 0.471731
vt 0.080294 0.419706
vt 0.010000 0.250000
vt 0.028269 0.158156
vt 0.080294 0.080294
vt 0.250000 0.010000
vt 0.341844 0.028269
vt 0.419706 0.080294
vt 0.658156 0.471731
vt 0.750000 0.490000
vt 0.841844 0.471731
vt 0.919706 0.419706
vt 0.971731 0.341844
vt 0.990000 0.250000
vt 0.971731 0.158156
vt 0.841844 0.028269
vt 0.750000 0.010000
vt 0.658156 0.028269
vt 0.528269 0.158156
vt 0.510000 0.250000
vt 0.528269 0.341844
s 1
usemtl マテリアル
f 67/131/35 131/132/36 129/133/35
f 65/134/35 130/135/37 69/136/38
f 71/137/38 133/138/39 131/132/36
f 69/136/38 132/139/39 73/140/40
f 76/141/40 135/142/41 133/138/39
f 73/140/40 134/143/41 77/144/42
f 79/145/42 137/146/43 135/142/41
f 77/144/42 136/147/43 81/148/43
f 87/149/44 137/146/43 83/150/43
f 85/151/44 136/147/43 139/152/45
f 92/153/46 138/154/45 87/149/44
f 90/155/46 139/152/45 141/156/47
f 95/157/48 140/158/47 92/153/46
f 94/159/48 141/156/47 143/160/49
f 100/161/50 142/162/51 95/157/48
f 97/163/50 143/160/49 144/164/50
f 100/161/50 146/165/52 144/164/50
f 97/163/50 145/166/53 101/167/54
f 103/168/54 148/169/55 146/165/52
f 101/167/54 147/170/55 106/171/56
f 107/172/56 150/173/57 148/169/55
f 106/171/56 149/174/57 109/175/58
f 111/176/58 152/177/59 150/173/57
f 109/175/58 151/178/59 114/179/59
f 119/180/60 152/177/59 115/181/59
f 117/182/60 151/178/59 154/183/61
f 123/184/62 153/185/61 119/180/60
f 121/186/62 154/183/61 156/187/63
f 119/188/64 103/189/64 87/190/64
f 127/191/65 155/192/63 123/184/62
f 125/193/65 156/187/63 158/194/66
f 67/195/35 157/196/67 127/191/65
f 65/197/35 158/194/66 129/198/35
f 90/199/68 106/200/68 121/201/68
f 68/131/35 157/132/67 129/133/35
f 131/135/36 66/134/35 129/133/35
f 72/137/69 155/138/70 157/132/67
f 133/139/70 70/136/69 131/135/36
f 75/141/71 153/142/72 155/138/70
f 74/140/71 135/143/72 78/144/73
f 80/145/73 152/146/64 153/142/72
f 78/144/73 137/147/64 82/148/64
f 88/149/74 152/146/64 84/150/64
f 86/151/74 137/147/64 138/152/75
f 91/153/76 150/154/75 88/149/74
f 89/155/76 138/152/75 140/156/77
f 96/157/78 148/158/77 91/153/76
f 93/159/78 140/156/77 142/160/51
f 99/161/50 146/162/52 96/157/78
f 98/163/50 142/160/51 144/164/50
f 99/161/50 145/165/53 144/164/50
f 98/163/50 143/166/49 102/167/79
f 104/168/79 147/169/80 145/165/53
f 102/167/79 141/170/80 105/171/81
f 108/172/81 149/173/82 147/169/80
f 105/171/81 139/174/82 110/175/83
f 112/176/83 151/177/68 149/173/82
f 110/175/83 136/202/68 113/179/68
f 120/180/84 151/177/68 116/181/68
f 118/182/84 136/202/68 134/183/85
f 124/184/86 154/185/85 120/180/84
f 122/186/86 134/183/85 132/187/87
f 88/190/59 72/203/59 120/188/59
f 156/192/87 128/191/88 158/196/66
f 126/193/88 132/187/87 130/194/37
f 158/196/66 68/195/35 129/198/35
f 66/197/35 130/194/37 129/198/35
f 89/199/43 105/200/43 122/201/43
f 67/131/35 71/137/38 131/132/36
f 65/134/35 129/133/35 130/135/37
f 71/137/38 76/141/40 133/138/39
f 69/136/38 130/135/37 132/139/39
f 76/141/40 79/145/42 135/142/41
f 73/140/40 132/139/39 134/143/41
f 79/145/42 83/150/43 137/146/43
f 77/144/42 134/143/41 136/147/43
f 87/149/44 138/154/45 137/146/43
f 85/151/44 81/148/43 136/147/43
f 92/153/46 140/158/47 138/154/45
f 90/155/46 85/151/44 139/152/45
f 95/157/48 142/162/51 140/158/47
f 94/159/48 90/155/46 141/156/47
f 100/161/50 144/164/50 142/162/51
f 97/163/50 94/159/48 143/160/49
f 100/161/50 103/168/54 146/165/52
f 97/163/50 144/164/50 145/166/53
f 103/168/54 107/172/56 148/169/55
f 101/167/54 145/166/53 147/170/55
f 107/172/56 111/176/58 150/173/57
f 106/171/56 147/170/55 149/174/57
f 111/176/58 115/181/59 152/177/59
f 109/175/58 149/174/57 151/178/59
f 119/180/60 153/185/61 152/177/59
f 117/182/60 114/179/59 151/178/59
f 123/184/62 155/192/63 153/185/61
f 121/186/62 117/182/60 154/183/61
f 87/190/64 83/204/64 79/205/64
f 79/205/64 76/206/64 87/190/64
f 76/206/64 71/203/64 87/190/64
f 71/203/64 67/207/64 127/208/64
f 127/208/64 123/209/64 71/203/64
f 123/209/64 119/188/64 71/203/64
f 119/188/64 115/210/64 111/211/64
f 111/211/64 107/212/64 119/188/64
f 107/212/64 103/189/64 119/188/64
f 103/189/64 100/213/64 95/214/64
f 95/214/64 92/215/64 103/189/64
f 92/215/64 87/190/64 103/189/64
f 87/190/64 71/203/64 119/188/64
f 127/191/65 157/196/67 155/192/63
f 125/193/65 121/186/62 156/187/63
f 67/195/35 129/198/35 157/196/67
f 65/197/35 125/193/65 158/194/66
f 121/201/68 125/216/68 65/217/68
f 65/217/68 69/218/68 73/219/68
f 73/219/68 77/220/68 81/221/68
f 81/221/68 85/222/68 90/199/68
f 90/199/68 94/223/68 97/224/68
f 97/224/68 101/225/68 106/200/68
f 106/200/68 109/226/68 114/227/68
f 114/227/68 117/228/68 121/201/68
f 121/201/68 65/217/68 73/219/68
f 73/219/68 81/221/68 90/199/68
f 90/199/68 97/224/68 106/200/68
f 106/200/68 114/227/68 121/201/68
f 121/201/68 73/219/68 90/199/68
f 68/131/35 72/137/69 157/132/67
f 131/135/36 70/136/69 66/134/35
f 72/137/69 75/141/71 155/138/70
f 133/139/70 74/140/71 70/136/69
f 75/141/71 80/145/73 153/142/72
f 74/140/71 133/139/70 135/143/72
f 80/145/73 84/150/64 152/146/64
f 78/144/73 135/143/72 137/147/64
f 88/149/74 150/154/75 152/146/64
f 86/151/74 82/148/64 137/147/64
f 91/153/76 148/158/77 150/154/75
f 89/155/76 86/151/74 138/152/75
f 96/157/78 146/162/52 148/158/77
f 93/159/78 89/155/76 140/156/77
f 99/161/50 144/164/50 146/162/52
f 98/163/50 93/159/78 142/160/51
f 99/161/50 104/168/79 145/165/53
f 98/163/50 144/164/50 143/166/49
f 104/168/79 108/172/81 147/169/80
f 102/167/79 143/166/49 141/170/80
f 108/172/81 112/176/83 149/173/82
f 105/171/81 141/170/80 139/174/82
f 112/176/83 116/181/68 151/177/68
f 110/175/83 139/174/82 136/202/68
f 120/180/84 154/185/85 151/177/68
f 118/182/84 113/179/68 136/202/68
f 124/184/86 156/192/87 154/185/85
f 122/186/86 118/182/84 134/183/85
f 120/188/59 116/210/59 112/211/59
f 112/211/59 108/212/59 120/188/59
f 108/212/59 104/189/59 120/188/59
f 104/189/59 99/213/59 96/214/59
f 96/214/59 91/215/59 104/189/59
f 91/215/59 88/190/59 104/189/59
f 88/190/59 84/204/59 80/205/59
f 80/205/59 75/206/59 88/190/59
f 75/206/59 72/203/59 88/190/59
f 72/203/59 68/207/59 128/208/59
f 128/208/59 124/209/59 72/203/59
f 124/209/59 120/188/59 72/203/59
f 120/188/59 104/189/59 88/190/59
f 156/192/87 124/184/86 128/191/88
f 126/193/88 122/186/86 132/187/87
f 158/196/66 128/191/88 68/195/35
f 66/197/35 126/193/88 130/194/37
f 122/201/43 126/216/43 66/217/43
f 66/217/43 70/218/43 74/219/43
f 74/219/43 78/220/43 82/221/43
f 82/221/43 86/222/43 89/199/43
f 89/199/43 93/223/43 98/224/43
f 98/224/43 102/225/89 105/200/43
f 105/200/43 110/226/43 113/227/43
f 113/227/43 118/228/43 122/201/43
f 122/201/43 66/217/43 74/219/43
f 74/219/43 82/221/43 89/199/43
f 89/199/43 98/224/43 105/200/43
f 105/200/43 113/227/43 122/201/43
f 122/201/43 74/219/43 89/199/43
