# Blender 5.2.1 LTS
# www.blender.org
mtllib roadL.mtl
o Ico_球體.021
v -237.965057 -96.795822 -373.917572
v -155.110443 -58.466751 -403.503601
v -108.341064 -20.911358 -390.066254
v -173.384552 -36.669136 -355.139557
v -123.642410 -27.773912 -367.466797
v -224.019928 -59.972809 -287.300110
v -161.387909 -21.793438 -433.322693
v -157.918030 -9.750360 -353.186340
v -113.344330 -18.111397 -420.254089
v -196.348267 -14.401092 -248.314484
v -234.962799 -14.448269 -227.859970
v -136.924805 -1.724285 -429.884796
v -129.983704 -4.455365 -361.758057
v -104.998917 -1.753390 -404.611816
v -151.962830 0.734860 -404.476501
v -160.227844 -54.333443 -391.357483
v -129.785034 -48.562912 -396.926331
v -106.851410 -23.293501 -404.648529
v -214.227997 -1.789099 -229.484985
v -130.525970 -45.961052 -413.205566
v -166.909683 0.714587 -363.813568
v -176.188660 -55.370697 -404.942230
v -250.294769 -1.046453 -241.182159
v -168.323883 -26.819332 -359.114471
v -158.576141 -48.302223 -419.272827
v -137.713440 -23.387291 -428.956940
v -151.685135 -35.617233 -372.781128
v -231.103668 -59.893005 -437.137024
v -99.752731 -6.465335 -396.075165
v -135.502960 -10.754787 -359.845490
v -102.003372 -6.526915 -413.602020
v -275.043915 1.606752 -315.895966
v -165.087097 -39.366764 -369.912994
v -177.745697 -37.105644 -327.257690
v -261.967987 0.280567 -280.262787
v -177.186127 -31.174427 -311.990479
v -120.902122 -6.529598 -428.577576
v -225.422195 0.836844 -283.761841
v -148.805420 -6.507807 -435.730194
v -178.882629 -42.648735 -347.907837
v -111.944931 -0.892915 -391.530640
v -230.410034 -46.364418 -253.547760
v -160.391861 -0.643841 -430.226562
v -116.427643 -1.433862 -418.889099
v -208.844955 -47.314659 -265.273773
v -142.210754 0.592813 -392.209076
v -126.133194 0.153872 -404.456390
v -169.996399 0.724415 -397.927124
v -214.567093 -15.774426 -232.175323
v -170.300110 0.558574 -413.303772
v -155.393433 -4.334393 -363.659576
v -143.882065 0.200762 -418.258392
v -118.389450 -11.394346 -369.624237
v -187.571564 -7.500025 -288.195435
v -207.350937 -54.272415 -303.448822
v -243.987137 -50.836578 -282.995575
v -249.315155 -27.715937 -246.842651
v -116.725616 -0.742677 -368.174744
v -180.503662 -3.901767 -307.749420
v -193.615494 -8.253363 -253.640411
v -156.035294 -0.121630 -365.105072
v -271.697083 -51.058632 -327.012146
v -139.396881 0.536483 -371.896271
v -246.606430 -18.095413 -447.244873
v -170.829376 -1.587309 -336.218445
v -224.467484 -6.529751 -219.334625
v -182.302612 1.213804 -337.558594
v -202.164886 -6.492912 -231.673203
v -245.558395 -6.530128 -227.822601
v -198.804672 -1.316236 -251.028687
v -234.170563 -1.381879 -231.776581
v -191.875809 -18.655781 -445.604492
v -197.668015 0.541386 -421.087708
v -218.727692 0.172632 -253.923187
v -205.538361 0.516229 -283.250061
v -238.433258 0.423502 -262.905457
v -240.989944 0.824568 -302.138275
v -266.262421 1.469969 -297.616089
v -271.681671 -6.259123 -442.136169
v -216.588196 -1.784026 -448.282043
v -176.271927 -2.852481 -427.351837
v -264.899445 4.383020 -420.483826
v -237.643524 1.888060 -373.809052
v -231.773071 0.737239 -438.754730
v -209.562744 -83.504372 -379.193726
v -235.587570 -84.777008 -403.223572
v -206.309753 -52.511848 -434.200226
v -204.447632 -61.623199 -412.455261
v -265.509369 -61.514221 -421.198090
v -184.608322 -29.341721 -430.262146
v -208.928085 -46.586121 -445.287994
v -263.507568 -85.358139 -388.128143
v -221.537689 -84.849869 -347.675323
v -258.912415 -49.971230 -437.650787
v -190.496033 -60.671669 -351.272980
v -255.899246 -84.493835 -351.404022
v -239.810150 -45.991272 -442.610657
v -268.118195 -23.324261 -442.126038
v -217.421097 -23.019707 -447.830017
v -179.476318 -6.555786 -441.110168
v -263.268005 -12.620335 -445.966980
v -200.030212 -6.533251 -448.664703
v -231.627396 -6.525415 -449.642426
v -189.499207 0.927939 -379.220795
v -263.301300 1.005740 -341.811401
v -244.734772 -3.962472 -447.756287
v -194.494202 -1.375703 -444.972076
v -218.399353 1.522044 -393.519440
v -253.080139 1.531146 -400.075806
v -203.490417 0.316206 -440.459473
v -210.494766 1.518756 -361.500397
v -252.729156 -1.064206 -431.220703
v -252.900024 0.277502 -443.121063
v -241.175156 1.571371 -345.138885
v -264.356903 1.553932 -368.413605
v -222.914993 0.155442 -443.016327
v -262.282593 -54.821770 -426.506836
v -251.284668 -57.663269 -430.491150
v -236.266479 -63.440948 -430.100952
v -231.916748 -68.830872 -424.576721
v -267.677551 -49.708282 -426.301544
v -205.644272 0.616982 -427.494873
v -231.518799 0.949344 -430.585419
v -214.186844 0.738711 -434.540833
v -227.342072 1.181581 -419.558289
v -242.056580 1.174187 -420.907227
v -197.848038 -50.855881 -419.719360
v -217.601074 -59.013969 -430.192780
v -279.114807 1.045160 -403.372498
v -273.600342 -46.802681 -425.446350
v -270.817871 -42.649139 -429.374939
v -278.010101 -51.658356 -416.160095
v -265.738129 -0.352458 -436.791443
v -274.933380 -37.860161 -434.168060
v -272.481171 0.930107 -341.459412
v -270.754211 1.225027 -336.055420
v -274.973785 0.592050 -323.278809
v -265.001251 -37.846111 -316.355194
v -203.209534 -52.509575 -323.788940
v -252.312897 -43.445671 -308.911591
v -249.829956 -52.424774 -317.323578
v -220.312439 1.161050 -323.992493
v -224.990097 1.042677 -311.509155
v -242.190308 1.104795 -322.254639
v -235.470016 0.986890 -313.738586
v -242.240814 0.871055 -313.970673
v -246.180298 0.771560 -315.182068
v -262.717438 0.718530 -328.315521
v -205.059631 1.047160 -331.755707
v -212.318924 0.909945 -313.898926
v -198.893494 0.614098 -331.145447
v -243.811356 -65.411438 -322.235809
v -231.608231 -68.409828 -320.397247
v -239.918365 -60.674484 -308.652893
v -215.193512 -60.447235 -315.828461
v -226.413696 -63.598976 -309.780548
v -209.502563 -65.219948 -325.892670
v -207.553619 -54.879272 -319.899933
v -262.647064 -9.963234 -246.768494
v -259.067688 -14.305257 -248.119263
v -261.570007 -20.829304 -250.555908
v -257.659454 -5.834951 -237.641479
v -263.489258 -3.114013 -240.881805
v -257.523560 -1.126777 -243.850906
v -262.234924 0.325856 -253.662048
v -256.897522 -0.417446 -246.481049
v -256.692688 0.689712 -265.188690
v -260.619202 -0.088185 -296.153931
v -254.016937 0.722909 -301.071411
v -258.917694 0.669431 -304.982239
v -258.508301 0.389487 -315.410950
v -250.510223 0.663259 -268.419952
v -257.767120 -27.833389 -255.638916
v -254.878571 -45.482521 -286.397339
v -265.526978 -36.034527 -300.407898
v -187.229660 -51.046906 -337.746735
v -198.203674 1.274901 -348.389221
v -185.968170 1.112798 -350.505493
v -187.856628 1.084416 -360.725739
v -175.744049 0.569103 -367.537109
v -182.172974 -51.632812 -350.897797
v -164.008926 -52.420807 -377.368195
v -183.956558 -34.556335 -287.858887
v -187.471848 -27.459909 -273.216492
v -187.295578 -18.563000 -274.995148
v -186.882751 -10.654684 -273.798004
v -196.087219 0.498283 -305.644836
v -186.264496 -2.091771 -315.358734
v -193.977936 0.322644 -291.440186
v -194.339157 -2.035131 -321.518127
v -193.308960 -0.606407 -271.825989
v -193.828552 -46.331207 -317.846985
v -189.685486 -44.591942 -304.709167
v -191.151169 -42.430466 -297.817017
v -186.664215 -39.747906 -292.411255
v -180.712708 0.693449 -400.347443
v -174.689743 0.733212 -390.737854
v -178.793655 0.561789 -377.234100
v -185.706253 0.588048 -414.325134
v -177.061981 -56.380600 -375.901001
v -174.530304 -51.877953 -385.569305
v -186.176590 -60.408875 -388.580414
v -185.395020 -55.455887 -399.185394
v -175.141785 -30.978785 -427.854553
v -179.835587 -41.428200 -426.018036
v -188.050323 -48.862778 -430.643707
v -186.207855 0.431177 -427.947479
v -197.329224 0.270315 -432.008301
v -167.540924 -7.658371 -431.348785
v -169.320038 -13.021204 -435.996796
v -170.435822 -22.277374 -434.711670
v -115.665710 -28.111940 -382.703979
v -126.609238 -41.443897 -376.510437
v -113.251587 -22.726713 -378.473633
v -110.996948 -16.252335 -378.776367
v -107.940170 -10.914600 -382.180145
v -104.944626 -5.445696 -380.048737
v -140.057968 0.469949 -379.681244
v -162.843628 0.536164 -374.896271
v -151.760681 0.555101 -381.912689
v -166.971832 1.782108 -385.222168
v -121.907410 -0.208999 -377.501770
v -114.762650 0.034562 -382.495453
v -110.175751 -2.141616 -383.073822
v -118.556755 2.056931 -386.720642
v -146.276825 -48.565186 -379.182495
v -132.079498 -45.762970 -384.480255
v -271.764771 -13.829241 -291.986511
v -268.280914 -31.566776 -300.247284
v -276.577026 -10.974766 -317.671356
v -270.675812 -19.138433 -309.241821
v -272.234924 -10.804611 -308.659393
v -269.136108 -26.264248 -314.965149
v -270.132965 -24.667284 -294.558685
v -268.129059 -28.609371 -295.890717
v -266.951660 -12.285173 -268.496063
v -266.158234 -17.295971 -272.428406
v -266.068665 -6.922938 -282.421997
v -263.922180 -26.257473 -275.011108
v -272.847321 -20.069324 -319.382996
v -264.882751 -8.863243 -270.974030
v -264.258636 -29.869316 -285.434937
v -275.807007 -4.655654 -316.779663
v -269.235199 -4.639659 -303.112854
v -263.679291 -15.003334 -259.758118
v -266.023773 -6.526778 -254.582031
v -263.675598 -3.936370 -265.716980
v -260.844666 -27.045431 -265.325012
v -261.259979 -35.443844 -289.675781
v -257.105316 -28.913511 -266.871979
v -275.425476 -1.524451 -316.337799
v -267.748810 -1.584846 -300.364471
v -261.332123 -8.871593 -252.389099
v -167.620651 -10.110123 -321.603607
v -173.197601 -20.715893 -322.754761
v -182.169891 -28.359795 -290.209625
v -178.125137 -10.386225 -301.906281
v -179.916367 -19.614782 -294.950745
v -273.297516 -25.830996 -325.188690
v -288.612518 -23.463249 -411.321838
v -274.247345 -10.858580 -324.106476
v -278.943176 -7.266518 -406.068390
v -278.180389 -44.208893 -418.050720
v -276.063721 -36.586403 -328.687866
v -286.344360 -24.474392 -374.538818
v -277.327728 0.849619 -368.807861
v -286.937317 -8.803769 -370.992126
v -285.822998 -40.097054 -378.075897
v -278.636719 -55.185379 -381.514465
v -284.494019 -25.299259 -344.532013
v -282.424774 -10.041508 -342.750031
v -283.191010 -38.560379 -347.753632
v -277.365692 -50.888245 -352.080414
v -258.436737 -55.815407 -427.900085
v -257.651123 -58.288101 -324.606323
v -266.556488 -64.471191 -337.614990
v -271.381012 -71.987541 -383.152802
v -272.619995 -65.110756 -355.711304
vn 0.3487 -0.8767 -0.3313
vn -0.4042 -0.4408 -0.8014
vn 0.4399 -0.8887 0.1292
vn -0.0574 -0.8946 0.4431
vn -0.4589 -0.8809 0.1158
vn -0.4317 -0.4235 -0.7964
vn 0.4555 -0.7736 0.4405
vn -0.5796 -0.3131 0.7524
vn 0.0208 0.9997 -0.0141
vn 0.0245 0.9997 -0.0043
vn -0.0014 0.9999 0.0149
vn -0.0136 0.9999 -0.0056
vn -0.0105 0.9999 0.0097
vn -0.0223 0.9995 0.0215
vn -0.0280 0.9991 0.0313
vn 0.0081 0.9999 0.0120
vn 0.0079 0.9999 0.0116
vn 0.0153 0.9999 -0.0037
vn 0.0234 0.9997 -0.0057
vn 0.0031 0.9999 -0.0098
vn 0.0032 0.9999 -0.0155
vn 0.0007 0.9999 -0.0133
vn -0.0102 0.9986 -0.0512
vn 0.6963 -0.6535 0.2968
vn 0.7030 -0.6585 0.2687
vn -0.3600 -0.5024 -0.7861
vn -0.3809 -0.4763 0.7925
vn -0.0630 -0.8649 0.4980
vn 0.2539 -0.7841 0.5663
vn 0.6047 -0.7284 0.3223
vn 0.6163 -0.7612 0.2017
vn 0.5794 -0.8127 0.0614
vn -0.2810 -0.7864 -0.5500
vn -0.1897 -0.9029 -0.3857
vn 0.6091 -0.6650 -0.4323
vn 0.4468 -0.7774 -0.4427
vn 0.3979 -0.8180 -0.4154
vn 0.3019 -0.8219 -0.4830
vn 0.5427 -0.0793 -0.8362
vn -0.2701 -0.7858 -0.5565
vn -0.1396 -0.4372 -0.8884
vn -0.0866 -0.4115 -0.9073
vn -0.1609 -0.2679 -0.9499
vn 0.1143 -0.1702 -0.9788
vn -0.1008 -0.0751 -0.9921
vn 0.3450 -0.0049 -0.9386
vn -0.9186 0.1130 0.3787
vn -0.0777 0.9016 -0.4255
vn 0.1494 0.9862 -0.0719
vn 0.0076 0.9928 -0.1198
vn 0.0311 0.9547 -0.2960
vn 0.0295 0.9489 -0.3141
vn 0.0045 0.9920 -0.1261
vn 0.0054 0.7425 -0.6698
vn -0.2175 0.4985 -0.8392
vn -0.0449 0.9926 0.1126
vn -0.0902 0.9885 -0.1212
vn 0.0119 0.9987 -0.0499
vn 0.0287 0.9993 -0.0239
vn 0.3817 0.8664 -0.3221
vn 0.3306 0.2885 -0.8986
vn 0.1204 0.4893 -0.8638
vn -0.0492 0.4165 -0.9078
vn -0.1285 0.0707 -0.9892
vn -0.2187 0.2746 -0.9364
vn 0.0304 0.1853 -0.9822
vn 0.0308 -0.0829 -0.9961
vn -0.0446 -0.1470 -0.9881
vn 0.3415 0.8846 -0.3176
vn 0.6022 0.3993 -0.6913
vn 0.6531 -0.4404 -0.6161
vn 0.0987 -0.0715 -0.9925
vn -0.0882 -0.1382 -0.9865
vn -0.0493 -0.1754 -0.9833
vn -0.1795 -0.2036 -0.9624
vn -0.1997 -0.2290 -0.9527
vn -0.4048 -0.2857 -0.8686
vn -0.6182 -0.7539 -0.2224
vn 0.6732 -0.4179 -0.6100
vn 0.6849 -0.5629 -0.4626
vn 0.3007 -0.8098 -0.5038
vn 0.1965 -0.9805 -0.0027
vn -0.9002 0.0486 0.4328
vn -0.8408 0.5280 0.1195
vn -0.9985 -0.0223 0.0500
vn -0.8054 0.5789 0.1270
vn 0.2331 0.9640 0.1277
vn 0.0783 0.9965 -0.0302
vn -0.0084 0.9997 -0.0242
vn -0.8845 -0.3710 0.2827
vn 0.1759 -0.9010 0.3966
vn 0.6931 -0.5692 0.4423
vn -0.3445 -0.8915 0.2942
vn -0.3466 -0.8929 0.2874
vn 0.3263 -0.9380 0.1166
vn 0.9354 -0.1316 0.3281
vn 0.0812 -0.7781 0.6228
vn -0.3816 -0.1914 0.9043
vn 0.9253 -0.0929 0.3676
vn -0.3334 -0.4500 0.8284
vn 0.0645 0.9956 0.0680
vn -0.0141 0.9981 0.0598
vn -0.0307 0.9994 -0.0136
vn 0.2338 0.9720 -0.0227
vn 0.0159 0.9998 0.0093
vn 0.0244 0.9997 0.0019
vn -0.0075 0.9999 0.0104
vn -0.0181 0.9994 0.0281
vn -0.0273 0.9996 0.0068
vn -0.0139 0.9998 0.0111
vn -0.0063 0.9998 0.0189
vn 0.0353 0.9976 0.0594
vn 0.0029 0.9998 0.0216
vn -0.0146 0.9981 0.0599
vn 0.0114 0.9969 0.0779
vn 0.0156 0.9997 0.0187
vn 0.0683 0.9968 0.0424
vn 0.3353 0.9415 0.0332
vn -0.0983 0.9665 0.2372
vn -0.2386 0.8657 0.4400
vn -0.2035 0.8384 0.5056
vn -0.0273 0.9160 0.4003
vn 0.3933 0.8688 0.3007
vn 0.8165 0.5064 0.2772
vn 0.8387 0.4896 0.2383
vn -0.1315 0.8998 0.4160
vn -0.6681 -0.4279 0.6086
vn -0.4192 -0.5642 0.7113
vn 0.3714 0.6393 0.6733
vn 0.3982 -0.5709 0.7180
vn 0.5028 -0.6993 0.5081
vn 0.4965 -0.8677 0.0259
vn 0.6562 -0.4671 0.5926
vn -0.8965 -0.4086 0.1715
vn -0.4050 -0.9053 -0.1281
vn -0.8129 -0.5111 0.2793
vn -0.5793 -0.7228 0.3769
vn -0.3586 -0.6158 0.7016
vn 0.5817 -0.8099 -0.0762
vn 0.5420 -0.8228 0.1712
vn 0.4670 -0.8665 0.1762
vn 0.1256 -0.6111 0.7815
vn 0.3404 -0.6506 0.6788
vn 0.5821 -0.5361 0.6114
vn 0.6311 -0.0113 0.7756
vn 0.7870 -0.4500 0.4220
vn 0.9024 -0.4093 0.1347
vn 0.7968 -0.5931 0.1153
vn 0.8464 -0.1665 0.5058
vn 0.7583 -0.2357 0.6078
vn 0.1827 0.8547 0.4860
vn 0.9376 0.0502 0.3441
vn 0.7688 -0.0331 0.6386
vn -0.0694 0.3143 0.9468
vn 0.0587 0.8067 0.5880
vn 0.0934 0.9822 0.1629
vn 0.0371 0.9993 -0.0096
vn 0.0011 1.0000 -0.0086
vn -0.0169 0.9918 0.1264
vn 0.1167 0.9827 -0.1440
vn 0.2233 0.9682 0.1125
vn 0.2176 0.9641 0.1523
vn 0.0876 0.9916 0.0952
vn 0.1149 0.9216 0.3708
vn 0.0285 0.9858 0.1653
vn 0.0388 0.9992 -0.0118
vn 0.9660 -0.2005 0.1631
vn 0.8080 0.4208 0.4124
vn 0.4704 -0.1907 0.8616
vn 0.8910 -0.1950 0.4100
vn 0.0042 0.9985 0.0548
vn 0.4944 -0.0442 0.8681
vn 0.7948 -0.2501 0.5529
vn 0.5679 -0.8022 0.1841
vn 0.6787 -0.7248 0.1187
vn 0.9507 -0.0943 0.2953
vn 0.8161 -0.5579 0.1508
vn 0.7162 0.6598 0.2275
vn 0.3833 -0.2757 0.8815
vn 0.3203 -0.8837 0.3413
vn 0.2368 -0.4444 0.8640
vn 0.3045 -0.5881 0.7493
vn -0.0483 -0.4361 0.8986
vn 0.2410 -0.8833 0.4021
vn 0.7552 -0.6303 0.1801
vn -0.1576 -0.9532 0.2580
vn -0.0884 -0.8460 -0.5259
vn 0.1886 -0.8060 -0.5610
vn 0.8764 -0.4530 0.1635
vn 0.1580 -0.1545 -0.9753
vn 0.3820 -0.3618 -0.8504
vn 0.8530 -0.3439 0.3925
vn -0.2064 0.6791 -0.7045
vn 0.6135 -0.1560 -0.7742
vn -0.1068 0.9738 0.2005
vn 0.0475 0.9896 -0.1354
vn 0.0894 0.9948 -0.0493
vn 0.0225 0.9994 -0.0255
vn 0.0577 0.9958 -0.0708
vn 0.0559 0.9899 -0.1304
vn 0.0070 0.9994 -0.0346
vn 0.0002 0.9975 -0.0707
vn -0.1652 0.9722 -0.1658
vn -0.0045 0.9999 -0.0107
vn 0.0025 1.0000 -0.0084
vn -0.0023 1.0000 -0.0027
vn 0.0028 1.0000 0.0093
vn 0.1030 0.9889 -0.1069
vn 0.0056 0.9999 0.0088
vn 0.0225 0.9997 -0.0063
vn 0.0484 0.9984 0.0277
vn 0.0897 0.9958 -0.0179
vn 0.4164 0.8531 -0.3142
vn 0.4513 0.6868 -0.5697
vn 0.2813 0.7897 -0.5453
vn 0.0435 0.7280 -0.6842
vn -0.2171 0.4047 -0.8883
vn 0.4326 0.9006 0.0425
vn 0.4880 0.8668 0.1029
vn 0.4659 0.8640 0.1906
vn 0.2165 0.4925 -0.8430
vn 0.2421 -0.2201 -0.9450
vn 0.1561 -0.2778 -0.9479
vn 0.8953 -0.2962 0.3328
vn 0.7489 0.6554 -0.0985
vn 0.9351 -0.3339 -0.1189
vn 0.7508 -0.4667 -0.4674
vn 0.3850 -0.4425 -0.8099
vn 0.2223 -0.5093 -0.8314
vn 0.1321 -0.4532 -0.8816
vn 0.0658 -0.9904 -0.1217
vn 0.6131 -0.7322 -0.2968
vn -0.1289 -0.9866 0.1001
vn 0.6932 -0.5466 -0.4699
vn 0.7109 -0.6887 -0.1424
vn 0.3957 -0.9039 -0.1625
vn 0.2283 -0.9502 0.2121
vn 0.7897 -0.6070 0.0888
vn -0.2506 -0.6967 -0.6722
vn -0.2285 -0.7806 -0.5817
vn -0.2269 -0.7612 -0.6075
vn -0.3279 -0.6926 0.6425
vn 0.0068 0.9997 -0.0236
vn 0.0205 0.9996 -0.0201
vn 0.0224 0.9997 -0.0099
vn 0.0124 0.9999 -0.0051
vn 0.0075 0.9999 -0.0091
vn -0.0068 1.0000 0.0069
vn -0.0010 0.9998 0.0203
vn -0.0074 0.9998 0.0209
vn -0.0387 0.9863 0.1602
vn -0.0338 0.9990 0.0280
vn -0.0226 0.9996 0.0194
vn -0.0254 0.9994 0.0224
vn 0.0143 0.9998 0.0135
vn 0.0142 0.9998 0.0133
vn 0.0660 0.9970 0.0408
vn 0.0036 0.9999 0.0152
vn 0.0278 0.9995 -0.0147
vn 0.0336 0.9994 0.0029
vn -0.0181 0.9998 0.0072
vn 0.0005 1.0000 -0.0077
vn 0.0032 0.9999 -0.0154
vn 0.1399 0.9885 0.0571
vn 0.1252 0.9348 -0.3324
vn 0.0902 0.9928 0.0790
vn -0.0015 0.9998 0.0213
vn 0.0363 0.9993 -0.0117
vn 0.0358 0.9993 -0.0120
vn 0.3063 -0.9218 0.2377
vn -0.3302 -0.4250 -0.8428
vn -0.6374 -0.5158 -0.5724
vn -0.4419 -0.6544 0.6136
vn -0.2745 -0.8808 0.3858
vn -0.2748 -0.7485 0.6036
vn 0.4956 -0.6422 0.5848
vn 0.2119 -0.9250 0.3155
vn 0.7107 -0.5132 0.4812
vn 0.7586 -0.4278 0.4914
vn -0.6378 -0.6206 -0.4561
vn 0.7162 -0.6935 0.0780
vn 0.3108 -0.8698 -0.3833
vn 0.5616 -0.7283 -0.3927
vn 0.5439 -0.6722 -0.5022
vn 0.4185 -0.7607 -0.4961
vn 0.1496 -0.6462 -0.7483
vn 0.2182 -0.9264 -0.3070
vn 0.1941 -0.0150 -0.9809
vn 0.1967 -0.2548 -0.9468
vn -0.2774 -0.7606 -0.5870
vn 0.0064 0.9937 0.1119
vn 0.0015 0.9998 -0.0216
vn -0.0938 0.9953 -0.0229
vn 0.0062 0.9996 -0.0261
vn -0.0053 0.9997 -0.0250
vn 0.0320 0.9993 -0.0179
vn 0.0293 0.9994 -0.0183
vn 0.1715 0.9779 -0.1197
vn 0.3544 -0.1704 -0.9194
vn 0.0821 -0.6439 -0.7607
vn -0.0783 -0.4141 -0.9069
vn -0.6793 -0.5253 -0.5125
vn -0.3752 -0.8030 -0.4630
vn -0.6189 -0.6343 -0.4633
vn 0.4487 -0.8789 -0.1617
vn -0.9382 0.2978 0.1764
vn -0.1582 0.9874 -0.0033
vn -0.9828 -0.1816 -0.0321
vn -0.8854 -0.4058 0.2268
vn -0.1629 0.9617 0.2206
vn -0.8628 0.4761 0.1701
vn -0.9821 -0.1853 -0.0335
vn 0.2661 0.9639 0.0002
vn -0.0685 0.9950 0.0722
vn 0.0247 0.9994 -0.0259
vn 0.1472 0.9801 -0.1333
vn -0.9146 -0.3048 0.2658
vn 0.6780 -0.5234 0.5161
vn -0.1496 -0.8710 0.4679
vn -0.1942 -0.9650 0.1763
vn 0.4499 -0.8798 0.1538
vn 0.9481 0.0441 0.3148
vn 0.9375 -0.0994 0.3336
vn -0.5327 -0.6671 0.5207
vn 0.0102 0.9996 -0.0264
vn -0.0079 1.0000 -0.0009
vn -0.0079 1.0000 0.0059
vn -0.0326 0.9951 0.0938
vn 0.0231 0.9997 0.0089
vn 0.0132 0.9998 0.0144
vn 0.0119 0.9999 0.0076
vn 0.5965 0.8002 -0.0620
vn 0.0666 0.9972 0.0347
vn 0.0212 0.9997 0.0082
vn -0.0094 0.9999 0.0073
vn -0.0173 0.9998 0.0058
vn -0.1479 0.9884 -0.0355
vn -0.0297 0.9996 -0.0036
vn 0.0156 0.9998 0.0092
vn 0.0586 0.9965 0.0596
vn 0.0284 0.9962 0.0829
vn -0.0023 0.9988 0.0485
vn 0.9404 -0.1567 0.3017
vn 0.8467 0.5268 0.0749
vn 0.0490 0.9978 0.0456
vn 0.0479 0.9978 0.0467
vn 0.8192 0.5337 0.2100
vn -0.1376 0.9285 0.3449
vn -0.5836 -0.4301 0.6888
vn -0.4989 -0.6542 0.5685
vn -0.5261 -0.6161 0.5862
vn 0.5965 -0.8023 0.0222
vn -0.7668 -0.5052 0.3960
vn -0.7076 -0.6900 0.1524
vn -0.5503 -0.8236 -0.1372
vn -0.4443 -0.8917 0.0866
vn -0.5024 -0.7601 0.4121
vn -0.7897 -0.5714 0.2235
vn 0.4688 -0.8095 0.3536
vn 0.4817 -0.8761 0.0221
vn 0.4238 -0.9007 0.0952
vn 0.6620 -0.6587 0.3574
vn 0.6967 -0.6095 0.3783
vn -0.0040 -0.5512 0.8344
vn 0.9640 -0.1196 0.2377
vn 0.6486 -0.5573 0.5184
vn 0.7302 -0.1463 0.6674
vn 0.2994 0.9541 0.0003
vn -0.0024 0.9994 -0.0333
vn 0.0052 0.9999 0.0109
vn 0.0020 0.9999 -0.0154
vn 0.0018 1.0000 -0.0013
vn -0.0084 0.9998 -0.0192
vn 0.0575 0.9692 0.2395
vn -0.0353 0.9994 0.0022
vn 0.0129 0.9999 -0.0115
vn 0.0200 0.9990 0.0391
vn -0.0926 0.9871 0.1305
vn 0.0517 0.9983 0.0284
vn 0.8478 0.2831 0.4485
vn 0.1341 0.7763 0.6160
vn 0.4372 0.8928 0.1084
vn 0.1735 0.9399 0.2941
vn 0.7912 -0.4334 0.4314
vn 0.6177 0.2768 0.7361
vn 0.8400 -0.4214 0.3418
vn 0.4841 -0.8646 0.1348
vn 0.4814 -0.8758 -0.0359
vn 0.1631 -0.9310 0.3266
vn 0.8332 -0.5250 0.1734
vn 0.9502 -0.0818 0.3008
vn 0.8444 -0.4716 0.2540
vn 0.1911 -0.4748 0.8591
vn -0.1154 -0.8380 0.5333
vn 0.2843 -0.3268 0.9013
vn 0.7874 -0.5442 0.2897
vn 0.0829 -0.2213 -0.9717
vn 0.0538 0.8825 -0.4673
vn 0.0370 0.9993 0.0034
vn -0.0915 0.9939 -0.0610
vn -0.1182 0.9927 -0.0233
vn 0.0027 0.9999 -0.0116
vn 0.2552 0.6407 -0.7242
vn 0.3129 0.8839 -0.3476
vn -0.0005 0.9999 -0.0108
vn 0.0592 0.9936 0.0962
vn 0.0033 1.0000 0.0068
vn -0.2340 0.3342 -0.9130
vn 0.4327 0.9005 0.0425
vn 0.4287 0.9024 0.0436
vn 0.7949 -0.5528 0.2501
vn 0.8939 -0.2991 0.3337
vn 0.1483 -0.6604 -0.7362
vn -0.0359 -0.4710 -0.8814
vn 0.2140 -0.2616 -0.9412
vn 0.3508 0.1838 -0.9183
vn 0.0644 -0.9241 -0.3767
vn -0.0932 -0.9821 -0.1635
vn 0.0328 -0.9988 0.0377
vn -0.0472 -0.9562 0.2889
vn 0.2336 -0.9034 -0.3595
vn 0.2162 -0.9578 0.1894
vn 0.2793 -0.9245 0.2595
vn 0.3299 -0.9062 0.2647
vn 0.7640 -0.6286 0.1454
vn -0.8503 -0.5253 0.0316
vn -0.9888 -0.1491 0.0008
vn -0.5259 0.8197 -0.2270
vn -0.6838 -0.6603 0.3105
vn -0.9114 0.2196 0.3480
vn -0.5531 0.8153 0.1714
vn -0.8925 -0.4509 -0.0083
vn -0.9266 -0.3118 0.2103
vn -0.8358 -0.5009 0.2248
vn -0.9508 -0.1994 0.2372
vn -0.3743 -0.9074 0.1910
vn -0.5448 -0.7614 0.3514
vn -0.9401 -0.0460 0.3377
vn -0.7128 -0.6252 0.3178
vn -0.9297 0.3501 -0.1146
vn -0.8769 0.4443 0.1832
vn -0.8983 -0.3763 0.2269
vn -0.3288 0.9440 -0.0288
vn -0.8370 -0.4159 0.3557
vn -0.8444 -0.4343 0.3138
vn -0.8749 0.4709 -0.1132
vn -0.5341 -0.7919 0.2961
vn -0.7769 -0.5586 0.2904
vn -0.7905 -0.5774 0.2042
vn -0.0806 -0.9926 0.0907
vn -0.9127 -0.3318 0.2386
vn -0.8733 0.4857 0.0383
vn -0.9423 -0.3288 -0.0637
vn -0.8126 -0.5421 0.2141
vn -0.9151 -0.3254 0.2379
vn -0.9863 0.1123 0.1212
vn -0.7193 -0.6221 0.3092
vn -0.8866 0.4454 -0.1252
vn -0.9400 0.2337 0.2486
vn -0.7725 0.6348 -0.0152
vn -0.7020 -0.6405 0.3113
vn -0.6380 0.7701 0.0003
vn -0.9651 -0.2549 0.0599
vn -0.4255 -0.9029 0.0617
vn 0.4970 0.8523 0.1630
vn 0.8666 0.1820 0.4647
vn 0.6418 0.7154 0.2763
vn 0.8983 -0.4197 0.1301
vn 0.9365 0.0762 0.3423
vn 0.9529 -0.1831 0.2417
vn 0.9413 -0.0170 0.3371
vn 0.9637 -0.1241 0.2365
vn 0.8036 -0.5600 0.2017
vn 0.7155 0.5939 0.3679
vn 0.8522 -0.4725 0.2246
vn 0.7012 0.6018 0.3824
vn -0.8821 -0.1950 0.4287
vn -0.9230 0.3487 0.1628
vn -0.0178 0.9998 -0.0070
vn -0.8296 0.0870 -0.5515
vn -0.7574 -0.5923 0.2747
vn 0.1727 0.9435 -0.2829
vn -0.3026 0.7887 -0.5352
vn -0.4736 -0.0994 -0.8751
vn -0.4699 0.8539 -0.2238
vn -0.7192 -0.3301 0.6114
vn -0.9593 -0.2004 -0.1987
vn -0.8938 -0.3046 -0.3291
vn -0.8633 0.0589 0.5013
vn -0.6493 0.7526 -0.1097
vn -0.8630 -0.0907 0.4970
vn -0.9919 0.1246 -0.0266
vn -0.9033 -0.2307 0.3616
vn -0.8631 -0.1427 -0.4845
vn -0.7436 -0.1489 0.6518
vn -0.9021 -0.4114 -0.1302
vn -0.8721 -0.4204 -0.2503
vn -0.9969 -0.0513 0.0601
vn -0.6887 0.7140 -0.1257
vn -0.0544 0.9985 0.0067
vn -0.9994 -0.0282 -0.0209
vn -0.9898 0.1267 0.0645
vn -0.9946 -0.0533 0.0890
vn -0.9377 -0.3357 0.0895
vn -0.8886 -0.4468 0.1036
vn -0.8766 -0.3708 0.3068
vn -0.7648 -0.6322 0.1239
vn -0.6386 -0.7643 -0.0894
vn -0.9137 -0.0867 0.3970
vn -0.7127 0.7003 0.0408
vn -0.0545 0.9985 0.0085
vn -0.4535 -0.7943 -0.4042
vn -0.8853 -0.3434 -0.3136
vn -0.6906 0.5605 -0.4570
vn -0.9861 -0.0733 0.1492
vn -0.8922 -0.2841 0.3511
vn -0.9156 -0.1776 0.3607
vn -0.9221 0.1021 -0.3733
vn -0.9119 0.0766 0.4033
vn -0.9847 -0.0504 -0.1669
vn -0.9290 0.1603 -0.3334
vn -0.9919 0.1246 -0.0265
vn -0.8598 -0.4734 0.1912
vn -0.8405 0.0531 -0.5392
vn -0.9971 -0.0469 0.0602
vn -0.8228 0.5443 -0.1637
vn -0.9980 -0.0373 0.0514
vn -0.0684 0.9976 0.0092
vn -0.9063 -0.4016 -0.1320
vn -0.9854 -0.0722 0.1543
vn -0.9921 -0.1116 0.0581
vn -0.9143 -0.4006 0.0591
vn -0.8856 -0.4535 0.0999
vn -0.4410 -0.6563 0.6122
vn -0.8569 -0.4790 0.1905
vn -0.8162 -0.5484 0.1820
vn -0.8996 -0.3652 -0.2394
vn -0.0684 0.3443 0.9364
vn 0.4848 -0.1639 0.8591
vt 0.708770 0.687108
vt 0.698092 0.628719
vt 0.637182 0.682073
vt 0.780824 0.580661
vt 0.773628 0.567993
vt 0.762170 0.566121
vt 0.676746 0.742737
vt 0.764620 0.727951
vt 0.773874 0.653296
vt 0.791168 0.565641
vt 0.639560 0.802527
vt 0.595310 0.744875
vt 0.590240 0.776342
vt 0.830654 0.779381
vt 0.785909 0.825593
vt 0.823061 0.807608
vt 0.086187 0.178084
vt 0.084409 0.238561
vt 0.071020 0.222659
vt 0.170257 0.252872
vt 0.205246 0.208933
vt 0.232774 0.233286
vt 0.280921 0.186918
vt 0.282794 0.142685
vt 0.300525 0.155762
vt 0.124550 0.125036
vt 0.188019 0.100689
vt 0.178600 0.154506
vt 0.236582 0.145866
vt 0.241742 0.101553
vt 0.268936 0.102091
vt 0.296697 0.134390
vt 0.139517 0.194673
vt 0.129495 0.252266
vt 0.082881 0.148472
vt 0.241823 0.083295
vt 0.252883 0.086286
vt 0.571941 0.748729
vt 0.550378 0.695328
vt 0.809561 0.565299
vt 0.802877 0.555799
vt 0.788670 0.786331
vt 0.772054 0.805199
vt 0.715168 0.798931
vt 0.654499 0.793375
vt 0.572473 0.666255
vt 0.539859 0.674740
vt 0.616210 0.611700
vt 0.596114 0.594874
vt 0.686501 0.582429
vt 0.647752 0.570551
vt 0.682851 0.553349
vt 0.615732 0.562075
vt 0.553408 0.567413
vt 0.541778 0.582103
vt 0.564845 0.572416
vt 0.740976 0.562657
vt 0.763227 0.542929
vt 0.709424 0.534358
vt 0.620359 0.535010
vt 0.037485 0.146715
vt 0.048589 0.107719
vt 0.037270 0.112925
vt 0.042450 0.251815
vt 0.039148 0.203255
vt 0.031203 0.235653
vt 0.028363 0.172900
vt 0.046954 0.276467
vt 0.843071 0.813129
vt 0.852483 0.788657
vt 0.851905 0.777614
vt 0.029411 0.201948
vt 0.030629 0.146177
vt 0.039050 0.188566
vt 0.044783 0.227805
vt 0.073501 0.282474
vt 0.036582 0.246440
vt 0.047186 0.170315
vt 0.037883 0.128261
vt 0.041964 0.093772
vt 0.042081 0.124729
vt 0.047704 0.168164
vt 0.056326 0.205674
vt 0.062231 0.239886
vt 0.180836 0.064947
vt 0.171022 0.106611
vt 0.156841 0.090891
vt 0.161628 0.079897
vt 0.075561 0.264705
vt 0.035861 0.231245
vt 0.056312 0.166047
vt 0.038692 0.128485
vt 0.067879 0.100581
vt 0.815935 0.542466
vt 0.291402 0.077297
vt 0.323909 0.091593
vt 0.330830 0.092980
vt 0.357254 0.096314
vt 0.303760 0.087554
vt 0.334964 0.088944
vt 0.841504 0.845111
vt 0.844417 0.856265
vt 0.378831 0.098844
vt 0.381581 0.096207
vt 0.333572 0.104827
vt 0.316247 0.108388
vt 0.293309 0.076445
vt 0.365600 0.101102
vt 0.396686 0.110602
vt 0.390738 0.123144
vt 0.835450 0.880589
vt 0.706542 0.873118
vt 0.685518 0.923105
vt 0.750623 0.943640
vt 0.611588 0.931232
vt 0.596139 0.894411
vt 0.766559 0.881395
vt 0.743731 0.823718
vt 0.673901 0.814528
vt 0.705574 0.823680
vt 0.356405 0.365429
vt 0.401051 0.349525
vt 0.357210 0.548979
vt 0.077093 0.245038
vt 0.408612 0.383811
vt 0.200024 0.214863
vt 0.390999 0.053174
vt 0.043025 0.045468
vt 0.420519 0.111045
vt 0.435578 0.317732
vt 0.062221 0.152822
vt 0.471214 0.194403
vt 0.412614 0.302657
vt 0.422841 0.186355
vt 0.444432 0.122696
vt 0.464776 0.154444
vt 0.402882 0.147115
vt 0.295160 0.109901
vt 0.324557 0.117933
vt 0.319954 0.235211
vt 0.323268 0.350675
vt 0.300032 0.255814
vt 0.362095 0.174376
vt 0.340498 0.324389
vt 0.301990 0.202603
vt 0.267789 0.230933
vt 0.323514 0.144057
vt 0.305893 0.176769
vt 0.299487 0.142193
vt 0.433576 0.109609
vt 0.366457 0.350985
vt 0.286300 0.381651
vt 0.438273 0.108512
vt 0.442124 0.097409
vt 0.656919 0.844988
vt 0.652560 0.809241
vt 0.798809 0.873628
vt 0.830543 0.843748
vt 0.775047 0.927840
vt 0.027435 0.238076
vt 0.607378 0.850395
vt 0.615255 0.819638
vt 0.613845 0.866255
vt 0.328110 0.400161
vt 0.543975 0.743249
vt 0.473482 0.708362
vt 0.526110 0.736442
vt 0.440611 0.728000
vt 0.453907 0.705750
vt 0.446086 0.694168
vt 0.565562 0.805394
vt 0.562905 0.757392
vt 0.515228 0.711555
vt 0.043318 0.234470
vt 0.066054 0.278786
vt 0.049593 0.237767
vt 0.224233 0.314491
vt 0.212240 0.359771
vt 0.203832 0.321228
vt 0.347739 0.364171
vt 0.307055 0.381425
vt 0.349102 0.364622
vt 0.051985 0.267970
vt 0.036737 0.220537
vt 0.114718 0.308186
vt 0.068182 0.300393
vt 0.115525 0.303808
vt 0.044464 0.271080
vt 0.256012 0.265261
vt 0.229231 0.258471
vt 0.194953 0.280429
vt 0.208191 0.255182
vt 0.130775 0.274480
vt 0.086945 0.271291
vt 0.090528 0.245183
vt 0.141260 0.241660
vt 0.148159 0.250713
vt 0.286952 0.239775
vt 0.258947 0.288516
vt 0.203126 0.298439
vt 0.201091 0.320843
vt 0.134826 0.314331
vt 0.056647 0.242228
vt 0.267241 0.387512
vt 0.210425 0.292006
vt 0.280692 0.281267
vt 0.037437 0.216853
vt 0.044850 0.220997
vt 0.079472 0.309637
vt 0.512309 0.695069
vt 0.602553 0.880776
vt 0.296496 0.386170
vt 0.568327 0.842439
vt 0.286359 0.293225
vt 0.459639 0.695118
vt 0.469692 0.686563
vt 0.139219 0.328377
vt 0.116444 0.277260
vt 0.460465 0.659543
vt 0.497754 0.665491
vt 0.480663 0.640771
vt 0.043672 0.197480
vt 0.056284 0.181696
vt 0.027970 0.133909
vt 0.539257 0.632619
vt 0.483176 0.603608
vt 0.456458 0.622718
vt 0.024088 0.168180
vt 0.147766 0.089142
vt 0.163608 0.090121
vt 0.026546 0.088259
vt 0.078871 0.074694
vt 0.070384 0.066645
vt 0.124600 0.064515
vt 0.033438 0.110658
vt 0.052391 0.208266
vt 0.098234 0.203773
vt 0.109246 0.116321
vt 0.100443 0.073831
vt 0.143085 0.086159
vt 0.034205 0.140446
vt 0.059469 0.098565
vt 0.072468 0.152724
vt 0.119782 0.167734
vt 0.155889 0.148699
vt 0.150702 0.200535
vt 0.170871 0.198591
vt 0.184095 0.154328
vt 0.165960 0.220486
vt 0.112643 0.244329
vt 0.042739 0.188776
vt 0.028346 0.224786
vt 0.048746 0.097391
vt 0.093436 0.063170
vt 0.566971 0.643095
vt 0.408101 0.643953
vt 0.698097 0.568394
vt 0.116808 0.073498
vt 0.052704 0.056667
vt 0.266205 0.218365
vt 0.169080 0.270870
vt 0.108075 0.241735
vt 0.278149 0.077508
vt 0.184819 0.257151
vt 0.159711 0.268081
vt 0.821760 0.586005
vt 0.805896 0.755795
vt 0.748575 0.792969
vt 0.525774 0.575628
vt 0.050490 0.102571
vt 0.070863 0.262398
vt 0.169891 0.118761
vt 0.186254 0.115688
vt 0.317112 0.090230
vt 0.300005 0.094266
vt 0.325820 0.096865
vt 0.285851 0.079779
vt 0.280305 0.091127
vt 0.419125 0.099074
vt 0.287185 0.100421
vt 0.371384 0.100064
vt 0.362203 0.107988
vt 0.398022 0.118939
vt 0.590152 0.892742
vt 0.326865 0.364803
vt 0.447117 0.109830
vt 0.425715 0.102330
vt 0.840118 0.906434
vt 0.436410 0.704800
vt 0.312706 0.376107
vt 0.189082 0.108715
vt 0.023282 0.213206
vt 0.392150 0.098769
vt 0.397204 0.103146
vt 0.289529 0.078134
vt 0.853515 0.860480
vt 0.808710 0.910877
vt 0.796004 0.907228
vt 0.380142 0.113472
vt 0.415575 0.104723
vt 0.412347 0.094712
vt 0.821862 0.869192
vt 0.802741 0.932230
vt 0.236846 0.069435
vt 0.181572 0.061630
vt 0.105852 0.068147
vt 0.816699 0.716656
vt 0.113063 0.078171
vt 0.273530 0.084541
vt 0.879901 0.741429
vt 0.231171 0.073202
vt 0.267917 0.093087
vt 0.865140 0.733104
vt 0.826158 0.579681
vt 0.168990 0.079343
vt 0.098340 0.096539
vt 0.802036 0.660412
vt 0.175010 0.070937
vt 0.186473 0.075230
vt 0.831423 0.660740
vt 0.223767 0.081832
vt 0.839141 0.724050
vt 0.862421 0.665261
s 0
usemtl 材質.007
f 1/1/1 86/2/1 85/3/1
f 89/4/2 117/5/2 274/6/2
f 1/1/3 85/3/3 93/7/3
f 1/1/4 93/7/4 96/8/4
f 1/1/5 96/8/5 92/9/5
f 121/10/6 117/5/6 89/4/6
f 139/11/7 95/12/7 176/13/7
f 62/14/8 140/15/8 138/16/8
f 125/17/9 73/18/9 122/19/9
f 104/20/10 111/21/10 177/22/10
f 142/23/11 144/24/11 145/25/11
f 109/26/12 115/27/12 83/28/12
f 115/27/13 114/29/13 83/28/13
f 105/30/14 114/29/14 115/27/14
f 148/31/15 147/32/15 144/24/15
f 114/29/16 111/21/16 83/28/16
f 111/21/17 114/29/17 142/23/17
f 111/21/18 108/33/18 83/28/18
f 111/21/19 104/20/19 108/33/19
f 104/20/20 196/34/20 73/18/20
f 108/33/21 109/26/21 83/28/21
f 126/35/22 108/33/22 125/17/22
f 105/30/23 135/36/23 136/37/23
f 176/13/24 95/12/24 181/38/24
f 181/38/25 95/12/25 200/39/25
f 121/10/26 130/40/26 131/41/26
f 62/14/27 275/42/27 141/43/27
f 96/8/28 93/7/28 153/44/28
f 153/44/29 93/7/29 157/45/29
f 157/45/30 93/7/30 95/12/30
f 95/12/31 93/7/31 85/3/31
f 95/12/32 202/46/32 201/47/32
f 89/4/33 86/2/33 92/9/33
f 86/2/34 1/1/34 92/9/34
f 88/48/35 127/49/35 202/46/35
f 88/48/36 85/3/36 86/2/36
f 88/48/37 120/50/37 128/51/37
f 28/52/38 87/53/38 128/51/38
f 90/54/39 205/55/39 206/56/39
f 28/52/40 118/57/40 94/58/40
f 97/59/41 28/52/41 94/58/41
f 28/52/42 97/59/42 91/60/42
f 64/61/43 98/62/43 101/63/43
f 72/64/44 99/65/44 102/66/44
f 64/61/45 101/63/45 103/67/45
f 72/64/46 102/66/46 100/68/46
f 233/69/47 259/70/47 264/71/47
f 80/72/48 106/73/48 116/74/48
f 110/75/49 81/76/49 107/77/49
f 84/78/50 110/75/50 116/74/50
f 110/75/51 107/77/51 116/74/51
f 107/77/52 80/72/52 116/74/52
f 84/78/53 116/74/53 113/79/53
f 116/74/54 106/73/54 113/79/54
f 106/73/55 79/80/55 113/79/55
f 112/81/56 84/78/56 113/79/56
f 112/81/57 126/35/57 123/82/57
f 84/78/58 124/83/58 110/75/58
f 122/19/59 73/18/59 208/84/59
f 81/76/60 100/68/60 107/77/60
f 100/68/61 102/66/61 107/77/61
f 102/66/62 80/72/62 107/77/62
f 103/67/63 106/73/63 80/72/63
f 103/67/64 101/63/64 106/73/64
f 101/63/65 79/80/65 106/73/65
f 102/66/66 103/67/66 80/72/66
f 102/66/67 99/65/67 103/67/67
f 99/65/68 64/61/68 103/67/68
f 100/85/69 81/86/69 209/87/69
f 100/85/70 209/87/70 210/88/70
f 100/68/71 90/89/71 72/64/71
f 91/90/72 99/65/72 72/64/72
f 99/65/73 91/90/73 97/91/73
f 97/91/74 64/61/74 99/65/74
f 97/91/75 98/62/75 64/61/75
f 97/91/76 94/92/76 98/62/76
f 98/62/77 94/92/77 134/93/77
f 131/41/78 134/94/78 94/58/78
f 72/64/79 90/89/79 91/90/79
f 90/54/80 87/53/80 91/60/80
f 91/60/81 87/53/81 28/52/81
f 87/53/82 206/56/82 127/49/82
f 251/95/83 252/96/83 78/97/83
f 238/98/84 232/99/84 228/100/84
f 233/69/85 229/101/85 235/102/85
f 241/103/86 228/100/86 236/104/86
f 168/105/87 170/106/87 78/97/87
f 32/107/88 78/97/88 170/106/88
f 35/108/89 167/109/89 172/110/89
f 242/111/90 235/102/90 229/101/90
f 6/112/91 45/113/91 42/114/91
f 184/115/92 45/113/92 183/116/92
f 42/114/93 56/117/93 6/112/93
f 6/112/94 56/117/94 154/118/94
f 155/119/95 6/112/95 156/120/95
f 186/121/96 60/122/96 10/123/96
f 11/124/97 49/125/97 66/126/97
f 161/127/98 57/128/98 160/129/98
f 10/123/99 60/122/99 68/130/99
f 11/124/100 66/126/100 69/131/100
f 19/132/101 70/133/101 74/134/101
f 23/135/102 71/136/102 76/137/102
f 171/138/103 169/139/103 147/32/103
f 187/140/104 189/141/104 188/142/104
f 38/143/105 75/144/105 150/145/105
f 187/140/106 151/146/106 150/145/106
f 77/147/107 143/148/107 145/25/107
f 146/149/108 145/25/108 144/24/108
f 77/147/109 146/149/109 147/32/109
f 76/137/110 38/143/110 77/147/110
f 77/147/111 169/139/111 35/108/111
f 172/110/112 167/109/112 166/150/112
f 76/137/113 74/134/113 38/143/113
f 71/136/114 74/134/114 76/137/114
f 71/136/115 19/132/115 74/134/115
f 74/134/116 75/144/116 38/143/116
f 74/134/117 70/133/117 75/144/117
f 191/151/118 59/152/118 189/141/118
f 23/135/119 166/150/119 164/153/119
f 71/136/120 23/135/120 69/131/120
f 69/131/121 66/126/121 71/136/121
f 66/126/122 19/132/122 71/136/122
f 68/130/123 70/133/123 19/132/123
f 68/130/124 60/122/124 70/133/124
f 70/133/125 186/121/125 191/151/125
f 23/135/126 163/154/126 69/131/126
f 160/129/127 57/128/127 69/131/127
f 69/131/128 57/128/128 11/124/128
f 66/126/129 68/130/129 19/132/129
f 66/126/130 49/125/130 68/130/130
f 49/125/131 10/123/131 68/130/131
f 55/155/132 158/156/132 139/11/132
f 158/156/133 155/119/133 157/45/133
f 56/117/134 140/15/134 141/43/134
f 140/15/135 56/117/135 174/157/135
f 242/111/136 229/101/136 175/158/136
f 57/159/137 56/117/137 42/114/137
f 42/160/138 11/124/138 57/128/138
f 193/161/139 139/11/139 192/162/139
f 45/113/140 55/155/140 194/163/140
f 45/113/141 6/112/141 55/155/141
f 42/160/142 49/125/142 11/124/142
f 42/160/143 45/164/143 49/125/143
f 45/164/144 10/123/144 49/125/144
f 4/165/145 27/166/145 24/167/145
f 5/168/146 213/169/146 212/170/146
f 24/167/147 34/171/147 4/165/147
f 34/171/148 40/172/148 4/165/148
f 33/173/149 4/165/149 40/172/149
f 215/174/150 5/175/150 214/176/150
f 8/177/151 30/178/151 51/179/151
f 184/180/152 258/181/152 185/182/152
f 53/183/153 215/174/153 216/184/153
f 51/185/154 13/186/154 61/187/154
f 61/187/155 13/186/155 58/188/155
f 59/152/156 67/189/156 188/142/156
f 178/190/157 180/191/157 179/192/157
f 219/193/158 63/194/158 218/195/158
f 219/193/159 221/196/159 198/197/159
f 188/142/160 190/198/160 187/140/160
f 67/189/161 65/199/161 21/200/161
f 59/152/162 65/199/162 67/189/162
f 65/199/163 61/201/163 21/200/163
f 21/202/164 61/187/164 63/194/164
f 61/187/165 58/188/165 63/194/165
f 63/194/166 222/203/166 218/195/166
f 36/204/167 24/205/167 255/206/167
f 51/179/168 65/199/168 8/177/168
f 13/186/169 53/183/169 58/188/169
f 53/183/170 224/207/170 58/188/170
f 223/208/171 222/203/171 58/188/171
f 53/183/172 30/209/172 5/175/172
f 33/173/173 181/38/173 182/210/173
f 34/171/174 192/162/174 40/172/174
f 195/211/175 193/161/175 34/171/175
f 185/182/176 257/212/176 186/121/176
f 36/213/177 183/116/177 195/211/177
f 65/199/178 254/214/178 8/177/178
f 27/166/179 226/215/179 227/216/179
f 27/166/180 4/165/180 33/173/180
f 24/205/181 30/178/181 8/177/181
f 24/217/182 27/218/182 30/209/182
f 30/209/183 27/218/183 5/175/183
f 17/219/184 16/220/184 2/221/184
f 3/222/185 17/223/185 18/224/185
f 16/220/186 22/225/186 2/221/186
f 2/221/187 22/225/187 25/226/187
f 2/221/188 25/226/188 20/227/188
f 3/222/189 18/224/189 29/228/189
f 210/88/190 7/229/190 211/230/190
f 9/231/191 26/232/191 37/233/191
f 29/228/192 216/184/192 3/222/192
f 39/234/193 210/88/193 209/87/193
f 9/231/194 37/233/194 31/235/194
f 222/203/195 225/236/195 46/237/195
f 52/238/196 12/239/196 43/240/196
f 14/241/197 44/242/197 47/243/197
f 15/244/198 47/243/198 52/238/198
f 47/243/199 44/242/199 52/238/199
f 44/242/200 12/239/200 52/238/200
f 52/238/201 50/245/201 15/244/201
f 50/245/202 52/238/202 43/240/202
f 50/245/203 43/240/203 81/86/203
f 48/246/204 15/244/204 50/245/204
f 196/247/205 50/245/205 199/248/205
f 197/249/206 48/246/206 196/247/206
f 46/237/207 15/244/207 48/246/207
f 221/196/208 220/250/208 48/246/208
f 220/250/209 218/195/209 46/237/209
f 46/237/210 47/243/210 15/244/210
f 46/237/211 41/251/211 47/243/211
f 41/251/212 14/241/212 47/243/212
f 31/235/213 44/242/213 14/241/213
f 31/235/214 37/233/214 44/242/214
f 37/233/215 12/239/215 44/242/215
f 12/239/216 39/234/216 43/240/216
f 39/234/217 81/86/217 43/240/217
f 41/251/218 223/208/218 224/207/218
f 29/228/219 224/207/219 217/252/219
f 29/228/220 14/241/220 41/251/220
f 37/233/221 39/234/221 12/239/221
f 37/233/222 26/232/222 39/234/222
f 39/234/223 26/232/223 7/229/223
f 3/222/224 215/174/224 214/176/224
f 29/228/225 31/235/225 14/241/225
f 29/228/226 18/224/226 31/235/226
f 18/224/227 9/231/227 31/235/227
f 20/253/228 26/232/228 9/231/228
f 20/253/229 25/254/229 26/232/229
f 7/229/230 26/232/230 25/254/230
f 25/226/231 127/49/231 206/56/231
f 201/47/232 202/46/232 203/255/232
f 201/47/233 16/220/233 182/210/233
f 18/224/234 20/253/234 9/231/234
f 18/256/235 17/219/235 20/227/235
f 20/227/236 17/219/236 2/221/236
f 17/219/237 226/215/237 182/210/237
f 17/219/238 212/170/238 213/169/238
f 118/57/239 119/257/239 89/4/239
f 119/257/240 120/50/240 89/4/240
f 120/50/241 86/2/241 89/4/241
f 62/14/242 141/43/242 140/15/242
f 124/83/243 123/82/243 125/17/243
f 125/17/244 108/33/244 73/18/244
f 122/19/245 124/83/245 125/17/245
f 177/22/246 178/190/246 179/192/246
f 179/192/247 104/20/247 177/22/247
f 145/25/248 143/148/248 142/23/248
f 142/23/249 114/29/249 144/24/249
f 135/36/250 105/30/250 115/27/250
f 129/258/251 109/26/251 82/259/251
f 147/32/252 146/149/252 144/24/252
f 144/24/253 114/29/253 105/30/253
f 105/30/254 148/31/254 144/24/254
f 142/23/255 150/145/255 149/260/255
f 149/260/256 111/21/256 142/23/256
f 151/146/257 177/22/257 149/260/257
f 177/22/258 111/21/258 149/260/258
f 73/18/259 108/33/259 104/20/259
f 104/20/260 198/261/260 196/34/260
f 198/197/261 197/249/261 196/247/261
f 196/34/262 199/262/262 73/18/262
f 126/35/263 109/26/263 108/33/263
f 82/259/264 109/26/264 126/35/264
f 112/81/265 82/259/265 126/35/265
f 137/263/266 105/30/266 136/37/266
f 148/31/267 105/30/267 137/263/267
f 198/261/268 104/20/268 179/192/268
f 179/264/269 180/265/269 198/197/269
f 182/210/270 181/38/270 200/39/270
f 121/10/271 89/4/271 130/40/271
f 130/40/272 89/4/272 132/266/272
f 62/14/273 276/267/273 275/42/273
f 153/44/274 154/118/274 152/268/274
f 152/268/275 96/8/275 153/44/275
f 155/119/276 156/120/276 157/45/276
f 156/120/277 153/44/277 157/45/277
f 139/11/278 158/156/278 95/12/278
f 158/156/279 157/45/279 95/12/279
f 201/47/280 200/39/280 95/12/280
f 95/12/281 85/3/281 202/46/281
f 203/255/282 202/46/282 127/49/282
f 202/46/283 85/3/283 88/48/283
f 128/51/284 127/49/284 88/48/284
f 88/48/285 86/2/285 120/50/285
f 128/51/286 120/50/286 119/257/286
f 119/257/287 28/52/287 128/51/287
f 206/56/288 87/53/288 90/54/288
f 90/54/289 204/269/289 205/55/289
f 28/52/290 119/257/290 118/57/290
f 112/81/291 113/79/291 133/270/291
f 126/35/292 125/17/292 123/82/292
f 123/82/293 84/78/293 112/81/293
f 84/78/294 123/82/294 124/83/294
f 207/271/295 208/84/295 73/18/295
f 208/84/296 110/75/296 122/19/296
f 110/75/297 124/83/297 122/19/297
f 81/76/298 110/75/298 208/84/298
f 210/88/299 211/230/299 100/85/299
f 211/230/300 204/272/300 90/273/300
f 100/85/301 211/230/301 90/273/301
f 131/41/302 94/58/302 121/10/302
f 94/58/303 274/6/303 117/5/303
f 121/10/304 94/58/304 117/5/304
f 127/49/305 128/51/305 87/53/305
f 238/98/306 244/274/306 232/99/306
f 137/263/307 136/37/307 135/36/307
f 232/99/308 231/275/308 234/276/308
f 231/275/309 230/277/309 240/278/309
f 164/153/310 166/150/310 165/279/310
f 238/98/311 228/100/311 241/103/311
f 233/280/312 234/276/312 231/275/312
f 168/105/313 78/97/313 35/108/313
f 168/105/314 169/139/314 170/106/314
f 170/106/315 171/138/315 137/263/315
f 170/106/316 137/263/316 32/107/316
f 237/281/317 234/276/317 239/282/317
f 184/180/318 10/123/318 45/164/318
f 154/118/319 153/44/319 156/120/319
f 156/120/320 6/112/320 154/118/320
f 155/119/321 55/155/321 6/112/321
f 184/180/322 185/182/322 10/123/322
f 185/182/323 186/121/323 10/123/323
f 161/127/324 173/283/324 57/128/324
f 171/138/325 170/106/325 169/139/325
f 169/139/326 77/147/326 147/32/326
f 147/32/327 148/31/327 137/263/327
f 137/263/328 171/138/328 147/32/328
f 187/140/329 75/144/329 189/141/329
f 150/145/330 142/23/330 143/148/330
f 143/148/331 38/143/331 150/145/331
f 187/140/332 190/198/332 151/146/332
f 151/146/333 149/260/333 150/145/333
f 150/145/334 75/144/334 187/140/334
f 77/147/335 38/143/335 143/148/335
f 146/149/336 77/147/336 145/25/336
f 168/105/337 35/108/337 169/139/337
f 35/108/338 172/110/338 77/147/338
f 172/110/339 76/137/339 77/147/339
f 167/109/340 165/279/340 166/150/340
f 166/150/341 23/135/341 76/137/341
f 76/137/342 172/110/342 166/150/342
f 183/116/343 256/284/343 184/115/343
f 54/285/344 191/151/344 186/121/344
f 189/141/345 75/144/345 191/151/345
f 75/144/346 70/133/346 191/151/346
f 70/133/347 60/122/347 186/121/347
f 164/153/348 163/154/348 23/135/348
f 163/154/349 162/286/349 69/131/349
f 162/286/350 159/287/350 69/131/350
f 159/287/351 160/129/351 69/131/351
f 158/156/352 55/155/352 155/119/352
f 141/43/353 152/268/353 154/118/353
f 154/118/354 56/117/354 141/43/354
f 174/157/355 175/158/355 140/15/355
f 175/158/356 138/16/356 140/15/356
f 174/157/357 56/117/357 57/159/357
f 239/288/358 235/102/358 242/111/358
f 193/161/359 194/163/359 55/155/359
f 193/161/360 55/155/360 139/11/360
f 194/163/361 195/211/361 45/113/361
f 195/211/362 183/116/362 45/113/362
f 212/170/363 214/289/363 5/168/363
f 5/168/364 27/166/364 213/169/364
f 256/290/365 255/206/365 258/181/365
f 216/184/366 217/252/366 53/183/366
f 53/183/367 5/175/367 215/174/367
f 188/142/368 189/141/368 59/152/368
f 178/190/369 21/200/369 180/191/369
f 218/195/370 220/250/370 219/193/370
f 219/193/371 21/202/371 63/194/371
f 198/197/372 180/265/372 219/193/372
f 180/265/373 21/202/373 219/193/373
f 151/146/374 190/198/374 67/189/374
f 178/190/375 151/146/375 67/189/375
f 67/189/376 21/200/376 178/190/376
f 178/190/377 177/22/377 151/146/377
f 188/142/378 67/189/378 190/198/378
f 63/194/379 58/188/379 222/203/379
f 61/201/380 65/199/380 51/179/380
f 217/252/381 224/207/381 53/183/381
f 224/207/382 223/208/382 58/188/382
f 223/208/383 225/236/383 222/203/383
f 33/173/384 40/172/384 181/38/384
f 40/172/385 139/11/385 176/13/385
f 40/172/386 176/13/386 181/38/386
f 139/11/387 40/172/387 192/162/387
f 34/171/388 193/161/388 192/162/388
f 195/211/389 194/163/389 193/161/389
f 195/211/390 34/171/390 36/213/390
f 184/180/391 256/290/391 258/181/391
f 255/206/392 8/177/392 254/214/392
f 182/210/393 226/215/393 33/173/393
f 227/216/394 213/169/394 27/166/394
f 27/166/395 33/173/395 226/215/395
f 29/228/396 217/252/396 216/184/396
f 39/234/397 7/229/397 210/88/397
f 225/236/398 41/251/398 46/237/398
f 46/237/399 218/195/399 222/203/399
f 221/196/400 48/246/400 197/249/400
f 197/249/401 198/197/401 221/196/401
f 73/18/402 199/262/402 207/271/402
f 199/248/402 50/245/402 207/291/402
f 81/76/403 208/84/403 207/271/403
f 207/291/404 50/245/404 81/86/404
f 196/247/405 48/246/405 50/245/405
f 219/193/406 220/250/406 221/196/406
f 220/250/407 46/237/407 48/246/407
f 209/87/408 81/86/408 39/234/408
f 41/251/409 225/236/409 223/208/409
f 29/228/410 41/251/410 224/207/410
f 214/176/411 212/292/411 3/222/411
f 3/222/412 216/184/412 215/174/412
f 204/272/413 211/230/413 7/229/413
f 7/229/414 25/254/414 204/272/414
f 25/226/415 205/55/415 204/269/415
f 206/56/416 205/55/416 25/226/416
f 25/226/417 22/225/417 127/49/417
f 22/225/418 203/255/418 127/49/418
f 203/255/419 22/225/419 16/220/419
f 16/220/420 201/47/420 203/255/420
f 200/39/421 201/47/421 182/210/421
f 182/210/422 16/220/422 17/219/422
f 17/219/423 227/216/423 226/215/423
f 213/169/424 227/216/424 17/219/424
f 17/223/425 3/222/425 212/292/425
f 229/101/426 138/16/426 175/158/426
f 228/100/427 232/99/427 234/276/427
f 247/293/428 165/279/428 167/109/428
f 245/294/429 160/129/429 159/287/429
f 245/294/430 161/127/430 160/129/430
f 251/95/83 78/97/83 32/107/83
f 35/108/431 247/293/431 167/109/431
f 232/99/83 244/274/83 243/295/83
f 235/102/432 234/296/432 233/69/432
f 232/99/83 243/295/83 230/277/83
f 228/100/433 237/281/433 236/104/433
f 239/288/434 234/296/434 235/102/434
f 237/281/435 228/100/435 234/276/435
f 248/297/436 242/111/436 250/298/436
f 248/299/317 237/281/317 239/282/317
f 253/300/437 246/301/437 236/104/437
f 245/294/438 253/300/438 236/104/438
f 249/302/439 242/111/439 175/158/439
f 241/103/440 246/301/440 247/293/440
f 35/108/441 244/274/441 238/98/441
f 233/280/442 231/275/442 240/278/442
f 247/293/443 163/154/443 164/153/443
f 174/157/444 249/302/444 175/158/444
f 57/159/445 249/302/445 174/157/445
f 159/287/446 253/300/446 245/294/446
f 162/286/447 246/301/447 253/300/447
f 247/293/448 164/153/448 165/279/448
f 161/127/449 248/299/449 173/283/449
f 173/303/450 250/298/450 57/159/450
f 244/274/83 251/95/83 243/295/83
f 236/104/451 237/281/451 245/294/451
f 238/98/452 247/293/452 35/108/452
f 229/101/453 233/69/453 138/16/453
f 248/297/454 239/288/454 242/111/454
f 248/299/455 245/294/455 237/281/455
f 238/98/456 241/103/456 247/293/456
f 249/302/457 250/298/457 242/111/457
f 241/103/458 236/104/458 246/301/458
f 35/108/459 252/96/459 244/274/459
f 35/108/459 78/97/459 252/96/459
f 247/293/460 246/301/460 163/154/460
f 57/159/461 250/298/461 249/302/461
f 159/287/462 162/286/462 253/300/462
f 162/286/447 163/154/447 246/301/447
f 161/127/463 245/294/463 248/299/463
f 173/303/464 248/297/464 250/298/464
f 244/274/83 252/96/83 251/95/83
f 257/212/465 54/285/465 186/121/465
f 258/181/466 254/214/466 257/212/466
f 59/152/467 254/214/467 65/199/467
f 36/213/468 34/171/468 24/167/468
f 185/182/469 258/181/469 257/212/469
f 36/213/470 256/284/470 183/116/470
f 54/285/471 59/152/471 191/151/471
f 256/290/472 36/204/472 255/206/472
f 255/206/473 24/205/473 8/177/473
f 257/212/474 59/152/474 54/285/474
f 258/181/475 255/206/475 254/214/475
f 59/152/476 257/212/476 254/214/476
f 231/275/477 232/99/477 230/277/477
f 271/304/478 137/263/478 267/305/478
f 129/258/479 115/27/479 109/26/479
f 260/306/480 98/62/480 134/93/480
f 96/8/481 276/267/481 278/307/481
f 133/270/482 82/259/482 112/81/482
f 113/79/483 79/80/483 133/270/483
f 101/63/484 98/62/484 79/80/484
f 129/258/485 82/259/485 133/270/485
f 264/71/486 138/16/486 233/69/486
f 98/62/487 262/308/487 79/80/487
f 240/278/488 230/277/488 261/309/488
f 270/310/489 264/71/489 259/70/489
f 262/308/490 133/270/490 79/80/490
f 261/309/491 270/311/491 259/312/491
f 251/95/492 32/107/492 137/263/492
f 272/313/493 62/14/493 264/71/493
f 263/314/494 130/40/494 132/266/494
f 264/71/495 62/14/495 138/16/495
f 268/315/496 260/306/496 263/316/496
f 92/9/497 277/317/497 89/4/497
f 267/305/498 260/306/498 265/318/498
f 266/319/499 262/308/499 267/305/499
f 266/319/500 135/36/500 115/27/500
f 269/320/501 263/314/501 132/266/501
f 271/304/502 265/318/502 270/311/502
f 272/321/503 265/318/503 268/315/503
f 269/320/504 278/307/504 273/322/504
f 273/322/505 268/323/505 269/320/505
f 276/267/273 152/268/273 275/42/273
f 274/6/2 118/57/2 89/4/2
f 276/267/506 273/322/506 278/307/506
f 277/317/507 96/8/507 278/307/507
f 141/43/27 275/42/27 152/268/27
f 89/4/508 269/320/508 132/266/508
f 94/58/303 118/57/303 274/6/303
f 261/309/509 137/263/509 271/304/509
f 137/263/510 266/319/510 267/305/510
f 129/258/511 266/319/511 115/27/511
f 134/94/512 131/41/512 263/314/512
f 263/316/513 260/306/513 134/93/513
f 98/62/514 260/306/514 262/308/514
f 261/309/515 259/312/515 240/278/515
f 240/278/516 259/312/516 233/280/516
f 270/310/517 272/313/517 264/71/517
f 262/308/518 129/258/518 133/270/518
f 261/309/519 271/304/519 270/311/519
f 137/263/520 261/309/520 243/295/520
f 261/309/521 230/277/521 243/295/521
f 243/295/522 251/95/522 137/263/522
f 272/313/523 273/322/523 62/14/523
f 263/314/524 131/41/524 130/40/524
f 268/315/525 265/318/525 260/306/525
f 267/305/526 262/308/526 260/306/526
f 266/319/527 129/258/527 262/308/527
f 266/319/528 137/263/528 135/36/528
f 269/320/529 268/323/529 263/314/529
f 271/304/530 267/305/530 265/318/530
f 272/321/531 270/311/531 265/318/531
f 269/320/532 277/317/532 278/307/532
f 273/322/533 272/313/533 268/323/533
f 276/267/534 96/8/534 152/268/534
f 276/267/535 62/14/535 273/322/535
f 277/317/536 92/9/536 96/8/536
f 89/4/537 277/317/537 269/320/537
f 51/185/538 30/209/538 13/186/538
f 13/186/539 30/209/539 53/183/539
