# Blender 5.2.1 LTS
# www.blender.org
mtllib roadT.mtl
o Ico_球體.010
v -237.965057 -96.548409 -29.579298
v -155.110443 -58.219345 -59.165325
v -108.341064 -20.663948 -45.727978
v -173.384552 -36.421722 -10.801266
v -123.642410 -27.526503 -23.128498
v -224.019928 -59.725395 57.038193
v -161.387909 -21.546028 -88.984390
v -157.918030 -9.502950 -8.848057
v -113.344330 -17.863987 -75.915794
v -196.348267 -14.153682 96.023804
v -234.962799 -14.200859 116.478317
v -326.148773 -79.679443 -2.577908
v -136.924805 -1.476875 -85.546501
v -129.983704 -4.207955 -17.419773
v -104.998917 -1.505980 -60.273521
v -286.266754 -45.229042 19.211056
v -151.962830 0.982270 -60.138222
v -160.227844 -54.086037 -47.019184
v -315.197174 -55.599548 -65.075035
v -129.785034 -48.315498 -52.588058
v -106.851410 -23.046091 -60.310238
v -214.227997 -1.541689 114.853302
v -130.525970 -45.713646 -68.867294
v -166.909683 0.961997 -19.475277
v -176.188660 -55.123291 -60.603954
v -250.294769 -0.799043 103.156128
v -168.323883 -26.571922 -14.776196
v -158.576141 -48.054810 -74.934540
v -137.713440 -23.139881 -84.618652
v -151.685135 -35.369823 -28.442825
v -231.103668 -59.645599 -92.798737
v -99.752731 -6.217925 -51.736870
v -135.502960 -10.507378 -15.507210
v -102.003372 -6.279505 -69.263741
v -398.245422 -29.470074 -1.971378
v -275.043915 1.854162 28.442326
v -165.087097 -39.119354 -25.574696
v -177.745697 -36.858234 17.080603
v -261.967987 0.527977 64.075500
v -177.186127 -30.927017 32.347820
v -120.902122 -6.282188 -84.239281
v -225.422195 1.084254 60.576431
v -148.805420 -6.260397 -91.391914
v -178.882629 -42.401321 -3.569559
v -111.944931 -0.645505 -47.192352
v -230.410034 -46.117012 90.790527
v -160.391861 -0.396431 -85.888260
v -331.719177 -36.391014 -56.695183
v -116.427643 -1.186452 -74.550819
v -208.844955 -47.067253 79.064522
v -142.210754 0.840223 -47.870785
v -126.133194 0.401282 -60.118095
v -169.996399 0.971825 -53.588821
v -214.567093 -15.527016 112.162964
v -170.300110 0.805984 -68.965500
v -155.393433 -4.086983 -19.321278
v -143.882065 0.448172 -73.920090
v -118.389450 -11.146936 -25.285946
v -187.571564 -7.252615 56.142853
v -207.350937 -54.025002 40.889458
v -372.027466 -1.034238 21.974213
v -243.987137 -50.589172 61.342720
v -249.315155 -27.468527 97.495636
v -116.725616 -0.495267 -23.836464
v -315.289551 -36.392662 -72.298431
v -180.503662 -3.654357 36.588871
v -403.723694 -0.919286 -27.315262
v -193.615494 -8.005953 90.697868
v -156.035294 0.125780 -20.766792
v -271.697083 -50.811226 17.326138
v -139.396881 0.783893 -27.557983
v -246.606430 -17.848003 -102.906601
v -170.829376 -1.339899 8.119841
v -224.467484 -6.282341 125.003662
v -182.302612 1.461214 6.779709
v -329.681763 1.739668 -6.667250
v -202.164886 -6.245502 112.665085
v -245.558395 -6.282719 116.515686
v -363.991394 -0.818151 -56.977505
v -299.661011 -68.772339 5.041523
v -198.804672 -1.068827 93.309601
v -234.170563 -1.134469 112.561699
v -324.123962 -12.957151 -63.580925
v -191.875809 -18.408371 -101.266205
v -304.680084 -8.436423 -76.800095
v -197.668015 0.788795 -76.749435
v -218.727692 0.420042 90.415108
v -205.538361 0.763638 61.088242
v -308.191742 -73.386978 -16.728889
v -238.433258 0.670912 81.432831
v -240.989944 1.071978 42.200005
v -355.473022 -64.724403 -2.007744
v -321.620056 3.648680 -61.891144
v -337.546570 -69.021812 -25.340454
v -328.880310 -56.145607 -56.127655
v -266.262421 1.717379 46.722198
v -368.050171 -38.229073 -26.187420
v -271.681671 -6.011713 -97.797867
v -300.483307 -58.496254 -64.233246
v -216.588196 -1.536616 -103.943771
v -295.797607 -49.905998 -77.237083
v -380.347351 -7.432565 12.882797
v -176.271927 -2.605071 -83.013542
v -321.480896 -49.525589 -56.843849
v -264.899445 4.630430 -76.145546
v -405.515930 -14.227825 -24.649040
v -237.643524 2.135469 -29.470766
v -356.976990 -23.208920 -62.454659
v -312.895447 -49.365189 -65.461433
v -231.773071 0.984649 -94.416443
v -209.562744 -83.256958 -34.855453
v -403.214600 -1.067074 13.940830
v -325.894318 -38.541901 -65.690666
v -235.587570 -84.529594 -58.885269
v -297.457855 -37.320267 -81.528397
v -206.309753 -52.264435 -89.861931
v -300.949524 1.578979 -3.975061
v -204.447632 -61.375786 -68.116989
v -356.499390 1.176172 7.820007
v -265.509369 -61.266815 -76.859802
v -351.296631 1.098167 -16.556431
v -320.064209 1.471047 -25.283680
v -184.608322 -29.094311 -85.923843
v -347.176453 -12.275985 -54.825741
v -208.928085 -46.338715 -100.949707
v -263.507568 -85.110725 -43.789864
v -221.537689 -84.602455 -3.337044
v -318.832520 -25.405231 -70.754150
v -332.088013 -25.399223 -59.189053
v -258.912415 -49.723816 -93.312508
v -190.496033 -60.424255 -6.934681
v -304.221588 -15.280910 -79.815811
v -255.899246 -84.246422 -7.065745
v -239.810150 -45.743866 -98.272362
v -268.118195 -23.076851 -97.787750
v -341.572327 -8.571517 -60.177902
v -318.101929 -6.277968 -74.978409
v -217.421097 -22.772297 -103.491730
v -312.158081 1.050668 -58.731533
v -295.250061 0.980206 -76.170853
v -179.476318 -6.308376 -96.771866
v -336.506195 3.384358 -56.915947
v -330.754974 -3.888040 -64.028267
v -316.403473 3.339384 -71.824493
v -263.268005 -12.372925 -101.628677
v -277.298218 -14.781191 -97.403847
v -200.030212 -6.285841 -104.326424
v -231.627396 -6.278006 -105.304138
v -189.499207 1.175349 -34.882507
v -263.301300 1.253150 2.526884
v -244.734772 -3.715062 -103.417999
v -194.494202 -1.128293 -100.633781
v -218.399353 1.769454 -49.181145
v -253.080139 1.778556 -55.737526
v -203.490417 0.563616 -96.121185
v -210.494766 1.766166 -17.162109
v -252.729156 -0.816796 -86.882431
v -252.900024 0.524912 -98.782784
v -241.175156 1.818781 -0.800588
v -264.356903 1.801342 -24.075323
v -222.914993 0.402852 -98.678047
v -262.282593 -54.574364 -82.168533
v -251.284668 -57.415855 -86.152878
v -236.266479 -63.193542 -85.762680
v -231.916748 -68.583458 -80.238419
v -267.677551 -49.460876 -81.963264
v -205.644272 0.864391 -83.156586
v -231.518799 1.196754 -86.247139
v -214.186844 0.986121 -90.202538
v -227.342072 1.428990 -75.220009
v -242.056580 1.421597 -76.568939
v -197.848038 -50.608475 -75.381073
v -217.601074 -58.766563 -85.854500
v -297.978455 -57.083038 -44.804935
v -279.114807 1.292570 -59.034203
v -285.720856 1.073371 -70.400772
v -283.597137 0.970592 -75.708893
v -283.788422 1.296584 -47.615311
v -294.584747 1.091010 -48.680893
v -300.527802 1.034507 -50.203758
v -273.600342 -46.555267 -81.108070
v -270.817871 -42.401733 -85.036667
v -282.039368 -50.373276 -78.834816
v -277.978546 -53.736923 -76.883102
v -286.498169 -63.742973 -52.049477
v -289.275360 -56.915436 -65.166733
v -292.407532 -58.846428 -57.151966
v -292.840942 -58.029922 -60.359020
v -293.267578 -9.854384 -93.795715
v -265.738129 -0.105048 -92.453148
v -276.570770 0.578171 -88.990540
v -282.010010 0.727684 -82.215439
v -287.384155 0.599636 -86.127106
v -295.278290 -17.694674 -93.955887
v -291.523560 -23.920479 -94.020218
v -274.933380 -37.612755 -89.829773
v -286.404724 -31.823610 -90.862938
v -281.582001 -41.461929 -86.582596
v -331.252625 -9.968291 19.528625
v -276.652130 -44.581604 19.160820
v -272.481171 1.177517 2.878864
v -287.669678 1.363926 -2.763527
v -285.653900 1.459735 -22.683048
v -290.377350 1.438585 -10.689537
v -300.193390 1.280290 -30.262997
v -298.194824 1.094408 -41.963181
v -300.066345 1.037070 -46.493538
v -270.754211 1.472437 8.282856
v -274.973785 0.839459 21.059467
v -277.963562 -49.936996 15.294834
v -284.970337 -72.432152 -27.445257
v -296.273071 -65.553772 -27.385187
v -281.014282 -73.020447 -14.401225
v -291.819336 -68.312950 -9.380198
v -282.898987 -65.108536 3.360910
v -308.096771 1.050385 -49.007393
v -341.645203 0.821026 -52.076740
v -348.725403 0.813460 -40.152924
v -357.244751 0.232914 -41.783188
v -360.837555 -0.223773 -48.018826
v -329.006622 1.081207 -43.260765
v -317.470184 1.089166 -48.188881
v -314.537811 1.154968 -43.030251
v -364.921509 -0.937830 -48.396610
v -395.453339 -2.112308 -42.420090
v -399.655151 -4.282849 -50.805134
v -403.223694 -7.326660 -41.397175
v -371.327881 -12.177260 -41.819405
v -364.705841 -21.647263 -48.804295
v -361.922913 -29.820623 -50.577080
v -342.132599 -44.253548 -47.581860
v -343.451538 -53.030510 -43.432636
v -359.481598 -37.160740 -43.714947
v -321.932312 -59.386436 -41.540283
v -308.486938 -57.628052 -39.567635
v -263.294769 -30.172636 31.802170
v -348.626343 3.914875 18.380322
v -324.653473 2.002659 6.534309
v -331.552307 2.144352 18.045132
v -346.585052 0.411195 20.377460
v -339.572906 2.029420 20.867226
v -344.128662 3.083298 23.068684
v -312.684509 2.075291 15.775265
v -304.386566 1.788950 7.376099
v -290.065979 2.918140 19.027573
v -290.988312 1.274248 10.627272
v -298.502289 1.597407 17.266479
v -203.209534 -52.262161 20.549347
v -252.312897 -43.198261 35.426704
v -249.829956 -52.177368 27.014698
v -220.312439 1.408460 20.345779
v -224.990097 1.290087 32.829140
v -242.190308 1.352205 22.083633
v -235.470016 1.234300 30.599693
v -242.240814 1.118464 30.367619
v -246.180298 1.018970 29.156204
v -262.717438 0.965940 16.022762
v -205.059631 1.294570 12.582573
v -212.318924 1.157355 30.439365
v -198.893494 0.861507 13.192852
v -243.811356 -65.164032 22.102478
v -231.608231 -68.162422 23.941048
v -239.918365 -60.427078 35.685398
v -215.193512 -60.199821 28.509815
v -226.413696 -63.351570 34.557747
v -209.502563 -64.972534 18.445610
v -207.553619 -54.631859 24.438351
v -262.647064 -9.715824 97.569794
v -259.067688 -14.057847 96.219017
v -261.570007 -20.581894 93.782379
v -257.659454 -5.587541 106.696808
v -263.489258 -2.866603 103.456482
v -257.523560 -0.879367 100.487381
v -262.234924 0.573266 90.676239
v -256.897522 -0.170036 97.857239
v -256.692688 0.937121 79.149590
v -260.619202 0.159225 48.184349
v -254.016937 0.970319 43.266884
v -258.917694 0.916841 39.356049
v -258.508301 0.636897 28.927330
v -250.510223 0.910668 75.918335
v -257.767120 -27.585979 88.699371
v -254.878571 -45.235115 57.940948
v -265.526978 -35.787117 43.930393
v -187.229660 -50.799500 6.591553
v -198.203674 1.522311 -4.050938
v -185.968170 1.360208 -6.167198
v -187.856628 1.331826 -16.387438
v -175.744049 0.816513 -23.198811
v -182.172974 -51.385406 -6.559521
v -164.008926 -52.173401 -33.029915
v -183.956558 -34.308926 56.479393
v -187.471848 -27.212500 71.121780
v -187.295578 -18.315590 69.343140
v -186.882751 -10.407274 70.540276
v -196.087219 0.745693 38.693443
v -186.264496 -1.844361 28.979553
v -193.977936 0.570054 52.898109
v -194.339157 -1.787721 22.820152
v -193.308960 -0.358997 72.512283
v -193.828552 -46.083794 26.491310
v -189.685486 -44.344528 39.629120
v -191.151169 -42.183052 46.521278
v -186.664215 -39.500496 51.927017
v -180.712708 0.940859 -56.009155
v -179.121338 0.980621 -49.256798
v -178.793655 0.809198 -32.895809
v -185.706253 0.835458 -69.986847
v -177.061981 -56.133186 -31.562698
v -174.530304 -51.630547 -41.231018
v -186.176590 -60.161469 -44.242138
v -185.395020 -55.208481 -54.847107
v -175.141785 -30.731375 -83.516273
v -179.835587 -41.180786 -81.679756
v -188.050323 -48.615372 -86.305420
v -186.207855 0.678587 -83.609200
v -197.329224 0.517725 -87.670029
v -167.540924 -7.410961 -87.010490
v -169.320038 -12.773794 -91.658501
v -170.435822 -22.029964 -90.373383
v -115.665710 -27.864531 -38.365681
v -126.609238 -41.196487 -32.172165
v -113.251587 -22.479303 -34.135349
v -110.996948 -16.004925 -34.438068
v -107.940170 -10.667191 -37.841866
v -104.944626 -5.198286 -35.710457
v -140.057968 0.717359 -35.342941
v -162.843628 0.783574 -30.557989
v -151.760681 0.802511 -37.574394
v -166.971832 2.029518 -40.883865
v -121.907410 0.038411 -33.163494
v -114.762650 0.281972 -38.157166
v -110.175751 -1.894206 -38.735546
v -118.556755 2.304341 -42.382351
v -146.276825 -48.317772 -34.844208
v -132.079498 -45.515564 -40.141960
v -402.902893 -10.297395 7.459213
v -381.229492 -0.239103 2.278927
v -382.905640 -0.370748 -34.203133
v -384.679260 -4.387425 15.499390
v -383.411560 -1.558758 -45.236923
v -382.529572 -34.184788 -15.006176
v -384.531250 -5.667203 -60.961967
v -386.537567 -1.046604 18.948647
v -383.701721 -10.663712 -41.257904
v -381.390930 -0.105574 11.317322
v -382.892334 -23.803722 -23.025726
v -384.865540 -16.023655 10.438656
v -380.069458 -43.602005 -1.546227
v -382.382507 -0.088993 -22.887413
v -389.591980 -32.916035 8.680344
v -271.764771 -13.581831 52.351791
v -268.280914 -31.319366 44.091015
v -274.608490 -19.245825 26.701206
v -305.271973 -10.662941 20.585087
v -308.938416 -29.149784 18.629070
v -276.577026 -10.727356 26.666931
v -269.701263 -18.925432 33.071167
v -303.487762 -32.841377 19.990608
v -300.408966 -34.546703 21.888882
v -272.234924 -10.557201 35.678890
v -310.233459 -20.114922 18.970879
v -273.099304 -25.776527 26.727486
v -268.757507 -24.867538 29.475384
v -292.166565 -19.410389 23.010387
v -270.132965 -24.419874 49.779594
v -271.693146 -31.861355 26.751968
v -268.129059 -28.361961 48.447571
v -266.867218 -28.285736 30.154289
v -303.327759 -52.533318 9.637077
v -342.638428 -47.154488 5.480398
v -350.990356 -19.026531 17.653187
v -343.179871 -7.762083 18.047844
v -266.951660 -12.037764 75.842232
v -266.158234 -17.048561 71.909897
v -308.994965 -4.265119 18.169334
v -325.657318 -6.236894 22.271763
v -320.829712 -5.805243 20.303356
v -266.068665 -6.675529 61.916290
v -263.922180 -26.010063 69.327194
v -271.959656 -19.077007 28.325294
v -264.882751 -8.615833 73.364265
v -264.258636 -29.621906 58.903358
v -275.807007 -4.408244 27.558632
v -349.208252 -34.540451 8.603434
v -314.869324 -56.365959 8.655495
v -269.235199 -4.392250 41.225433
v -356.246368 -27.249010 14.329401
v -352.113831 -11.303464 20.081215
v -309.909424 -61.696777 7.686104
v -349.341156 -55.343674 0.849380
v -372.005829 -13.130520 13.001209
v -349.421417 -2.329958 18.281204
v -263.679291 -14.755924 84.580170
v -266.023773 -6.279368 89.756256
v -310.839722 -1.094913 16.972301
v -340.285919 -2.822163 20.863136
v -332.615112 -2.103738 21.569492
v -326.191010 -1.830445 19.174248
v -263.675598 -3.688960 78.621300
v -260.844666 -26.798021 79.013290
v -261.259979 -35.196434 54.662491
v -373.515686 -18.693224 11.362267
v -257.105316 -28.666101 77.466309
v -359.654175 -2.551123 18.035870
v -275.425476 -1.277041 28.000477
v -320.509064 -68.022705 3.038792
v -267.748810 -1.337436 43.973816
v -261.332123 -8.624184 91.949188
v -372.319214 -30.924398 11.776382
v -366.396606 -6.481611 21.381683
v -167.620651 -9.862713 22.734688
v -173.197601 -20.468483 21.583542
v -182.169891 -28.112385 54.128654
v -178.125137 -10.138815 42.432018
v -179.916367 -19.367373 49.387527
v -281.987488 -27.004478 24.921757
v -267.820404 -25.137547 31.135330
v -298.888397 -2.140565 -84.389503
v -281.127197 -2.527429 -91.748520
v -300.685913 -7.536147 -80.576164
v -289.070099 -2.561861 -88.386414
v -291.140778 -5.971364 -91.736435
v -281.083710 -5.502991 -94.255585
vn 0.3487 -0.8767 -0.3313
vn -0.4042 -0.4408 -0.8014
vn 0.4399 -0.8887 0.1292
vn -0.0574 -0.8946 0.4431
vn -0.4589 -0.8809 0.1158
vn -0.4317 -0.4235 -0.7964
vn 0.4555 -0.7736 0.4405
vn -0.5906 -0.2882 0.7537
vn 0.0499 -0.6844 0.7274
vn 0.0208 0.9997 -0.0141
vn 0.0245 0.9997 -0.0043
vn -0.0014 0.9999 0.0149
vn 0.0102 0.9999 0.0058
vn -0.1913 0.9810 0.0325
vn -0.0136 0.9999 -0.0056
vn -0.0177 0.9998 -0.0076
vn -0.0171 0.9998 -0.0078
vn -0.0105 0.9999 0.0097
vn -0.0223 0.9995 0.0215
vn -0.0280 0.9991 0.0313
vn 0.0081 0.9999 0.0120
vn 0.0079 0.9999 0.0116
vn 0.0153 0.9999 -0.0037
vn 0.0234 0.9997 -0.0057
vn 0.0031 0.9999 -0.0098
vn 0.0032 0.9999 -0.0155
vn 0.0007 0.9999 -0.0133
vn -0.0096 1.0000 0.0005
vn -0.0102 0.9986 -0.0512
vn -0.3295 -0.4983 0.8020
vn 0.6963 -0.6535 0.2968
vn 0.7030 -0.6585 0.2687
vn -0.3600 -0.5024 -0.7861
vn -0.0038 -0.5053 -0.8629
vn -0.6178 -0.7527 -0.2275
vn -0.4506 -0.8875 0.0966
vn -0.3285 -0.5156 0.7914
vn -0.3809 -0.4763 0.7925
vn -0.0630 -0.8649 0.4980
vn 0.2539 -0.7841 0.5663
vn 0.6047 -0.7284 0.3223
vn 0.6163 -0.7612 0.2017
vn 0.5794 -0.8127 0.0614
vn -0.3753 -0.8022 -0.4643
vn -0.2810 -0.7864 -0.5500
vn -0.1897 -0.9029 -0.3857
vn 0.6091 -0.6650 -0.4323
vn 0.4468 -0.7774 -0.4427
vn 0.3979 -0.8180 -0.4154
vn 0.3019 -0.8219 -0.4830
vn 0.5427 -0.0793 -0.8362
vn -0.2701 -0.7858 -0.5565
vn -0.1396 -0.4372 -0.8884
vn -0.0866 -0.4115 -0.9073
vn -0.1609 -0.2679 -0.9499
vn 0.1143 -0.1702 -0.9788
vn -0.1008 -0.0751 -0.9921
vn 0.3450 -0.0049 -0.9386
vn -0.1616 0.9591 -0.2323
vn -0.0777 0.9016 -0.4255
vn 0.1494 0.9862 -0.0719
vn 0.0076 0.9928 -0.1198
vn 0.0311 0.9547 -0.2960
vn 0.0295 0.9489 -0.3141
vn 0.0045 0.9920 -0.1261
vn 0.0054 0.7425 -0.6698
vn -0.2175 0.4985 -0.8392
vn -0.0449 0.9926 0.1126
vn 0.0594 0.9982 -0.0112
vn -0.0902 0.9885 -0.1212
vn 0.0119 0.9987 -0.0499
vn 0.0287 0.9993 -0.0239
vn 0.3817 0.8664 -0.3221
vn 0.3306 0.2885 -0.8986
vn 0.1204 0.4893 -0.8638
vn -0.0492 0.4165 -0.9078
vn -0.1285 0.0707 -0.9892
vn -0.2187 0.2746 -0.9364
vn 0.0304 0.1853 -0.9822
vn 0.0308 -0.0829 -0.9961
vn -0.0446 -0.1470 -0.9881
vn -0.3093 0.1559 -0.9381
vn -0.2448 -0.2273 -0.9426
vn -0.1650 -0.1374 -0.9767
vn 0.3415 0.8846 -0.3176
vn 0.6022 0.3993 -0.6913
vn 0.6531 -0.4404 -0.6161
vn 0.0987 -0.0715 -0.9925
vn -0.0882 -0.1382 -0.9865
vn -0.0493 -0.1754 -0.9833
vn -0.1795 -0.2036 -0.9624
vn -0.1997 -0.2290 -0.9527
vn -0.4048 -0.2857 -0.8686
vn -0.6182 -0.7539 -0.2224
vn 0.6732 -0.4179 -0.6100
vn 0.6849 -0.5629 -0.4626
vn 0.3007 -0.8098 -0.5038
vn 0.1965 -0.9805 -0.0027
vn -0.1664 -0.9356 -0.3115
vn 0.1275 -0.9828 -0.1333
vn -0.4949 0.4745 -0.7280
vn -0.6941 0.2136 -0.6875
vn -0.5570 0.1551 -0.8159
vn 0.3572 0.2976 -0.8854
vn -0.5212 -0.0483 -0.8521
vn -0.6224 -0.3682 -0.6907
vn -0.4378 -0.2129 -0.8735
vn -0.5055 -0.0419 -0.8618
vn 0.0020 1.0000 -0.0009
vn -0.0622 0.9974 -0.0372
vn -0.2401 -0.2222 -0.9450
vn -0.0761 0.3228 -0.9434
vn -0.1933 0.9776 -0.0836
vn 0.1170 0.9927 0.0305
vn 0.0025 0.9993 -0.0362
vn -0.2661 0.6909 -0.6722
vn -0.5583 0.7666 -0.3171
vn -0.5762 0.3448 -0.7410
vn -0.6227 -0.4856 -0.6136
vn -0.2728 0.5537 -0.7868
vn -0.4581 0.4094 -0.7890
vn -0.0405 0.2789 -0.9595
vn 0.1169 0.9099 0.3981
vn -0.0750 0.9119 0.4034
vn 0.0040 1.0000 -0.0016
vn 0.2003 0.9611 0.1903
vn -0.0084 1.0000 -0.0042
vn 0.0016 0.9998 -0.0187
vn -0.0600 0.3991 -0.9149
vn -0.4256 -0.1796 -0.8869
vn -0.8620 -0.0777 -0.5010
vn -0.2332 -0.1875 -0.9542
vn -0.5221 -0.3402 -0.7821
vn -0.3119 -0.5966 -0.7395
vn -0.1718 0.9851 -0.0049
vn -0.8073 0.1918 -0.5581
vn -0.8410 -0.2197 -0.4944
vn -0.4615 -0.0729 -0.8842
vn -0.6497 0.1530 -0.7447
vn -0.6561 0.0628 -0.7520
vn -0.8460 -0.1448 -0.5132
vn -0.0929 0.9742 -0.2056
vn -0.1621 -0.9581 -0.2361
vn -0.8632 -0.1927 -0.4667
vn -0.3651 -0.3432 -0.8654
vn -0.5417 -0.3344 -0.7712
vn -0.4223 -0.4824 -0.7674
vn -0.3897 -0.4846 -0.7831
vn -0.5320 -0.6504 -0.5421
vn -0.7426 -0.5750 -0.3434
vn 0.3517 0.2843 -0.8919
vn -0.4266 -0.7030 -0.5690
vn 0.0411 -0.7010 -0.7120
vn 0.0749 -0.8442 -0.5307
vn -0.1257 -0.8063 -0.5779
vn 0.1534 -0.9662 0.2072
vn 0.1927 -0.9444 -0.2665
vn -0.5677 -0.1179 0.8148
vn 0.2147 -0.6460 0.7325
vn -0.2165 -0.3368 0.9164
vn -0.4494 -0.8741 -0.1843
vn -0.0121 -0.9079 -0.4190
vn -0.1935 -0.0408 0.9802
vn -0.2417 0.0010 0.9703
vn -0.8669 -0.3321 -0.3717
vn -0.2888 -0.4781 0.8294
vn -0.2163 -0.0445 0.9753
vn -0.0405 0.9991 0.0078
vn -0.0048 0.9998 -0.0193
vn 0.0158 0.9999 0.0040
vn 0.0066 0.9999 -0.0110
vn 0.0062 0.9999 -0.0112
vn 0.0047 0.9999 -0.0151
vn -0.0187 0.9995 -0.0241
vn -0.0158 0.9998 -0.0138
vn -0.0304 0.9993 -0.0235
vn -0.0257 0.9996 -0.0087
vn -0.0459 0.9988 -0.0156
vn -0.0347 0.9925 0.1170
vn 0.1884 0.9804 0.0574
vn -0.7239 -0.0288 0.6893
vn 0.0116 0.9996 -0.0243
vn 0.0394 0.9992 -0.0041
vn 0.0152 0.9998 0.0105
vn -0.0385 0.9980 -0.0509
vn -0.9906 0.1360 0.0127
vn -0.9908 -0.0986 0.0927
vn -0.1339 -0.7486 0.6494
vn -0.9894 0.1157 -0.0878
vn -0.5939 -0.4676 -0.6547
vn -0.6132 -0.4962 -0.6146
vn -0.5273 0.0989 0.8439
vn 0.0328 -0.8224 -0.5679
vn 0.1877 -0.8073 -0.5595
vn -0.6553 -0.6592 -0.3688
vn -0.6519 -0.6562 -0.3800
vn -0.5909 -0.6786 -0.4362
vn -0.9002 0.0486 0.4328
vn 0.1677 -0.9455 0.2792
vn 0.2212 -0.9711 0.0894
vn 0.3672 -0.9286 0.0530
vn 0.0460 0.9918 -0.1193
vn -0.8408 0.5280 0.1195
vn -0.9864 0.1500 -0.0674
vn -0.1890 0.5581 0.8080
vn -0.8054 0.5789 0.1270
vn 0.2331 0.9640 0.1277
vn 0.0783 0.9965 -0.0302
vn -0.0084 0.9997 -0.0242
vn -0.2309 0.8547 0.4650
vn -0.8845 -0.3710 0.2827
vn 0.1759 -0.9010 0.3966
vn 0.6931 -0.5692 0.4423
vn -0.3445 -0.8915 0.2942
vn -0.3466 -0.8929 0.2874
vn 0.3263 -0.9380 0.1166
vn 0.9354 -0.1316 0.3281
vn 0.0812 -0.7781 0.6228
vn -0.3816 -0.1914 0.9043
vn 0.9253 -0.0929 0.3676
vn -0.3334 -0.4500 0.8284
vn 0.0645 0.9956 0.0680
vn -0.0141 0.9981 0.0598
vn -0.0307 0.9994 -0.0136
vn 0.2338 0.9720 -0.0227
vn 0.0159 0.9998 0.0093
vn 0.0244 0.9997 0.0019
vn -0.0075 0.9999 0.0104
vn -0.0181 0.9994 0.0281
vn -0.0273 0.9996 0.0068
vn -0.0139 0.9998 0.0111
vn -0.0063 0.9998 0.0189
vn 0.0353 0.9976 0.0594
vn 0.0029 0.9998 0.0216
vn -0.0146 0.9981 0.0599
vn 0.0114 0.9969 0.0779
vn 0.0156 0.9997 0.0187
vn 0.0683 0.9968 0.0424
vn 0.3353 0.9415 0.0332
vn -0.0983 0.9665 0.2372
vn -0.2386 0.8657 0.4400
vn -0.2035 0.8384 0.5056
vn -0.0273 0.9160 0.4003
vn 0.3933 0.8688 0.3007
vn 0.8165 0.5064 0.2772
vn 0.8387 0.4896 0.2383
vn -0.1315 0.8998 0.4160
vn -0.6681 -0.4279 0.6086
vn -0.4192 -0.5642 0.7113
vn 0.3714 0.6393 0.6733
vn 0.3982 -0.5709 0.7180
vn 0.5028 -0.6993 0.5081
vn 0.4965 -0.8677 0.0259
vn 0.6562 -0.4671 0.5926
vn -0.8965 -0.4086 0.1715
vn -0.4050 -0.9053 -0.1281
vn -0.8129 -0.5111 0.2793
vn -0.5793 -0.7228 0.3769
vn -0.3586 -0.6158 0.7016
vn 0.5817 -0.8099 -0.0762
vn 0.5420 -0.8228 0.1712
vn 0.4670 -0.8665 0.1762
vn 0.1256 -0.6111 0.7815
vn 0.3404 -0.6506 0.6788
vn 0.5821 -0.5361 0.6114
vn 0.6311 -0.0113 0.7756
vn 0.7870 -0.4500 0.4220
vn 0.9024 -0.4093 0.1347
vn 0.7968 -0.5931 0.1153
vn 0.8464 -0.1665 0.5058
vn 0.7583 -0.2357 0.6078
vn 0.1827 0.8547 0.4860
vn 0.9376 0.0502 0.3441
vn 0.7688 -0.0331 0.6386
vn -0.0694 0.3143 0.9468
vn 0.0587 0.8067 0.5880
vn 0.0934 0.9822 0.1629
vn 0.0371 0.9993 -0.0096
vn 0.0011 1.0000 -0.0086
vn -0.0169 0.9918 0.1264
vn 0.1167 0.9827 -0.1440
vn 0.2233 0.9682 0.1125
vn 0.2176 0.9641 0.1523
vn 0.0876 0.9916 0.0952
vn 0.1149 0.9216 0.3708
vn 0.0285 0.9858 0.1653
vn 0.0388 0.9992 -0.0118
vn 0.9660 -0.2005 0.1631
vn 0.8080 0.4208 0.4124
vn 0.4704 -0.1907 0.8616
vn 0.8910 -0.1950 0.4100
vn 0.0042 0.9985 0.0548
vn -0.0500 -0.7844 0.6182
vn 0.2289 0.9118 0.3410
vn 0.4944 -0.0442 0.8681
vn 0.7948 -0.2501 0.5529
vn 0.5679 -0.8022 0.1841
vn 0.6787 -0.7248 0.1187
vn 0.9507 -0.0943 0.2953
vn 0.8161 -0.5579 0.1508
vn 0.7162 0.6598 0.2275
vn 0.3833 -0.2757 0.8815
vn 0.3203 -0.8837 0.3413
vn 0.2368 -0.4444 0.8640
vn 0.3045 -0.5881 0.7493
vn -0.0483 -0.4361 0.8986
vn 0.2410 -0.8833 0.4021
vn 0.7552 -0.6303 0.1801
vn -0.1576 -0.9532 0.2580
vn -0.0884 -0.8460 -0.5259
vn 0.1886 -0.8060 -0.5610
vn 0.8764 -0.4530 0.1635
vn 0.1580 -0.1545 -0.9753
vn 0.3820 -0.3618 -0.8504
vn 0.8530 -0.3439 0.3925
vn -0.2064 0.6791 -0.7045
vn 0.6135 -0.1560 -0.7742
vn -0.1068 0.9738 0.2005
vn 0.0475 0.9896 -0.1354
vn 0.0894 0.9948 -0.0493
vn 0.0225 0.9994 -0.0255
vn 0.0577 0.9958 -0.0708
vn 0.0559 0.9899 -0.1304
vn 0.0070 0.9994 -0.0346
vn 0.0002 0.9975 -0.0707
vn -0.1652 0.9722 -0.1658
vn -0.0045 0.9999 -0.0107
vn 0.0025 1.0000 -0.0084
vn -0.0016 1.0000 -0.0055
vn 0.0028 1.0000 0.0093
vn 0.1030 0.9889 -0.1069
vn 0.0056 0.9999 0.0088
vn 0.0225 0.9997 -0.0063
vn 0.0484 0.9984 0.0277
vn 0.0897 0.9958 -0.0179
vn 0.4164 0.8531 -0.3142
vn 0.4513 0.6868 -0.5697
vn 0.2813 0.7897 -0.5453
vn 0.0435 0.7280 -0.6842
vn -0.2171 0.4047 -0.8883
vn 0.4326 0.9006 0.0425
vn 0.4880 0.8668 0.1029
vn 0.4659 0.8640 0.1906
vn 0.2165 0.4925 -0.8430
vn 0.2421 -0.2201 -0.9450
vn 0.1561 -0.2778 -0.9479
vn 0.8953 -0.2962 0.3328
vn 0.7489 0.6554 -0.0985
vn 0.9351 -0.3339 -0.1189
vn 0.7508 -0.4667 -0.4674
vn 0.3850 -0.4425 -0.8099
vn 0.2223 -0.5093 -0.8314
vn 0.1321 -0.4532 -0.8816
vn 0.0658 -0.9904 -0.1217
vn 0.6131 -0.7322 -0.2968
vn -0.1289 -0.9866 0.1001
vn 0.6932 -0.5466 -0.4699
vn 0.7109 -0.6887 -0.1424
vn 0.3957 -0.9039 -0.1625
vn 0.2283 -0.9502 0.2121
vn 0.7897 -0.6070 0.0888
vn -0.0340 0.9991 -0.0233
vn -0.0397 0.9992 0.0078
vn -0.0777 -0.7111 0.6988
vn -0.0538 0.9984 -0.0147
vn -0.1880 -0.7542 0.6292
vn -0.0316 0.9944 0.1013
vn -0.5549 -0.7259 -0.4064
vn -0.1521 -0.9063 -0.3943
vn -0.0318 0.9994 0.0105
vn -0.3189 -0.8308 -0.4562
vn -0.2110 -0.1632 0.9638
vn -0.4508 0.3039 -0.8393
vn -0.0606 0.9927 -0.1041
vn -0.5994 -0.7637 0.2399
vn -0.7456 0.1408 0.6513
vn -0.1697 -0.5702 0.8038
vn -0.9515 -0.2865 0.1125
vn -0.2506 -0.6967 -0.6722
vn -0.2285 -0.7806 -0.5817
vn -0.2269 -0.7612 -0.6075
vn -0.3279 -0.6926 0.6425
vn -0.2827 -0.4710 0.8356
vn 0.0068 0.9997 -0.0236
vn 0.0205 0.9996 -0.0201
vn 0.0224 0.9997 -0.0099
vn 0.0124 0.9999 -0.0051
vn 0.0075 0.9999 -0.0091
vn -0.0068 1.0000 0.0069
vn -0.0010 0.9998 0.0203
vn 0.0100 0.9999 0.0060
vn -0.0074 0.9998 0.0209
vn -0.0148 0.9997 0.0187
vn 0.0001 0.9998 -0.0193
vn -0.0387 0.9863 0.1602
vn -0.0175 0.9998 -0.0070
vn -0.0037 0.9999 -0.0165
vn -0.0165 0.9998 -0.0078
vn -0.0180 0.9998 -0.0102
vn -0.0338 0.9990 0.0280
vn -0.0226 0.9996 0.0194
vn -0.0254 0.9994 0.0224
vn 0.0143 0.9998 0.0135
vn 0.0142 0.9998 0.0133
vn 0.0660 0.9970 0.0408
vn 0.0036 0.9999 0.0152
vn 0.0278 0.9995 -0.0147
vn 0.0336 0.9994 0.0029
vn -0.0757 0.9971 0.0120
vn 0.0005 1.0000 -0.0077
vn 0.0032 0.9999 -0.0154
vn 0.1399 0.9885 0.0571
vn 0.1252 0.9348 -0.3324
vn -0.0128 0.9999 -0.0074
vn 0.0902 0.9928 0.0790
vn -0.0015 0.9998 0.0213
vn 0.0363 0.9993 -0.0117
vn 0.0358 0.9993 -0.0120
vn 0.3063 -0.9218 0.2377
vn -0.3302 -0.4250 -0.8428
vn -0.2308 -0.3850 -0.8936
vn -0.5030 -0.8243 -0.2599
vn -0.6123 -0.7329 -0.2965
vn -0.0486 -0.5433 0.8381
vn -0.4323 -0.8949 0.1106
vn -0.2165 -0.9001 0.3780
vn -0.4629 -0.8269 0.3192
vn -0.1503 -0.6280 0.7635
vn -0.4422 -0.6555 0.6121
vn -0.2745 -0.8808 0.3858
vn -0.2748 -0.7485 0.6036
vn 0.4956 -0.6422 0.5848
vn 0.2119 -0.9250 0.3155
vn 0.7107 -0.5132 0.4812
vn 0.7586 -0.4278 0.4914
vn -0.6378 -0.6206 -0.4561
vn 0.7162 -0.6935 0.0780
vn -0.4167 -0.6919 -0.5895
vn -0.4931 -0.7196 -0.4890
vn -0.3628 -0.8457 -0.3913
vn -0.2386 -0.9483 -0.2092
vn 0.3108 -0.8698 -0.3833
vn 0.5616 -0.7283 -0.3927
vn 0.5439 -0.6722 -0.5022
vn 0.4185 -0.7607 -0.4961
vn 0.1496 -0.6462 -0.7483
vn 0.2182 -0.9264 -0.3070
vn 0.1941 -0.0150 -0.9809
vn 0.1967 -0.2548 -0.9468
vn -0.2774 -0.7606 -0.5870
vn -0.2528 0.6136 -0.7481
vn 0.0064 0.9937 0.1119
vn -0.0049 0.9997 -0.0260
vn -0.1669 0.9736 -0.1555
vn 0.0869 0.9247 -0.3707
vn 0.0015 0.9998 -0.0216
vn -0.0938 0.9953 -0.0229
vn 0.0062 0.9996 -0.0261
vn -0.0053 0.9997 -0.0250
vn 0.0320 0.9993 -0.0179
vn 0.0293 0.9994 -0.0183
vn 0.1715 0.9779 -0.1197
vn -0.1957 0.0814 -0.9773
vn -0.1554 -0.0836 -0.9843
vn -0.1989 0.0710 -0.9774
vn 0.3544 -0.1704 -0.9194
vn 0.0821 -0.6439 -0.7607
vn -0.0783 -0.4141 -0.9069
vn -0.1347 -0.4265 -0.8944
vn -0.1275 -0.4381 -0.8899
vn 0.0441 -0.6876 -0.7248
vn -0.6793 -0.5253 -0.5125
vn -0.3752 -0.8030 -0.4630
vn -0.6189 -0.6343 -0.4633
vn 0.4487 -0.8789 -0.1617
vn -0.3692 -0.5410 -0.7557
vn 0.0020 1.0000 -0.0008
vn -0.0611 0.9975 -0.0357
vn 0.0633 0.8526 0.5188
vn -0.1511 0.9884 -0.0124
vn 0.0023 0.9993 -0.0368
vn 0.1226 0.9907 0.0590
vn -0.1496 0.7702 -0.6200
vn -0.1599 0.7762 -0.6098
vn -0.0082 0.9998 -0.0177
vn 0.0987 0.9940 0.0461
vn 0.0029 0.9999 -0.0144
vn -0.0183 0.9998 -0.0078
vn -0.0187 0.9998 -0.0084
vn -0.0076 1.0000 -0.0036
vn 0.0025 1.0000 -0.0016
vn -0.8075 0.2183 -0.5480
vn -0.0774 0.9660 -0.2469
vn -0.3499 -0.8443 -0.4059
vn -0.2682 -0.6571 -0.7045
vn -0.3419 -0.1865 -0.9211
vn -0.5093 0.4929 -0.7055
vn -0.4548 -0.3239 -0.8296
vn -0.4325 -0.7036 -0.5639
vn -0.4145 -0.6912 -0.5919
vn -0.1201 -0.2983 -0.9469
vn -0.0066 -0.7369 -0.6759
vn -0.1125 -0.5968 -0.7944
vn -0.1830 -0.8899 -0.4179
vn -0.1260 -0.9794 -0.1576
vn -0.0577 -0.9982 0.0164
vn 0.1187 -0.9902 0.0734
vn -0.5599 -0.8173 -0.1359
vn 0.0441 -0.5918 0.8049
vn -0.9382 0.2978 0.1764
vn 0.0821 -0.5478 0.8326
vn -0.2052 -0.0363 0.9780
vn -0.9173 -0.2441 -0.3146
vn -0.7084 -0.5932 -0.3825
vn -0.0355 0.9994 0.0040
vn -0.0049 0.9999 -0.0099
vn -0.0110 0.9999 -0.0026
vn 0.0068 0.9999 -0.0112
vn 0.0065 0.9999 -0.0153
vn 0.0045 0.9999 -0.0126
vn 0.0056 0.9999 -0.0161
vn -0.0149 0.9999 -0.0082
vn -0.0327 0.9991 -0.0265
vn -0.0643 0.9977 -0.0190
vn -0.0231 0.9940 0.1070
vn -0.0236 0.9994 -0.0265
vn -0.0127 0.9998 -0.0151
vn -0.1124 0.9790 -0.1701
vn 0.0115 0.9997 -0.0227
vn 0.0071 0.9998 -0.0163
vn -0.1157 0.9771 -0.1785
vn 0.0399 0.9992 -0.0064
vn 0.0138 0.9997 0.0205
vn -0.1582 0.9874 -0.0033
vn 0.0090 0.9999 0.0089
vn -0.1475 0.9630 -0.2254
vn -0.0512 0.9932 -0.1046
vn -0.1351 -0.7471 0.6508
vn -0.1667 0.9716 -0.1680
vn -0.8941 0.3948 -0.2114
vn -0.1249 -0.8075 -0.5764
vn -0.4200 -0.5154 0.7470
vn -0.1623 -0.8935 -0.4186
vn 0.0174 -0.8666 -0.4987
vn -0.2757 -0.9578 -0.0815
vn -0.1715 -0.7653 -0.6204
vn -0.4141 -0.8736 -0.2557
vn -0.6505 -0.2425 -0.7197
vn -0.5296 -0.7374 -0.4191
vn -0.9603 -0.2567 -0.1092
vn -0.3706 -0.9261 0.0706
vn -0.3338 -0.5417 -0.7715
vn 0.2508 -0.9623 0.1057
vn -0.8310 -0.3786 0.4075
vn 0.0338 0.9994 -0.0007
vn -0.2659 0.2013 0.9428
vn 0.2116 0.9769 -0.0297
vn -0.1839 -0.3881 0.9031
vn 0.0023 0.9999 -0.0109
vn 0.1106 0.4068 0.9068
vn -0.1629 0.9617 0.2206
vn -0.8628 0.4761 0.1701
vn 0.2661 0.9639 0.0002
vn -0.0685 0.9950 0.0722
vn 0.0247 0.9994 -0.0259
vn 0.1607 0.9651 -0.2065
vn 0.1472 0.9801 -0.1333
vn 0.1528 0.9792 -0.1331
vn -0.9146 -0.3048 0.2658
vn -0.0439 -0.7109 0.7020
vn 0.6780 -0.5234 0.5161
vn -0.1496 -0.8710 0.4679
vn -0.1942 -0.9650 0.1763
vn 0.4499 -0.8798 0.1538
vn 0.9481 0.0441 0.3148
vn 0.9375 -0.0994 0.3336
vn -0.5327 -0.6671 0.5207
vn 0.0102 0.9996 -0.0264
vn -0.0079 1.0000 -0.0009
vn -0.0079 1.0000 0.0059
vn -0.0326 0.9951 0.0938
vn 0.0231 0.9997 0.0089
vn 0.0132 0.9998 0.0144
vn 0.0119 0.9999 0.0076
vn 0.5965 0.8002 -0.0620
vn 0.0666 0.9972 0.0347
vn 0.0212 0.9997 0.0082
vn -0.0094 0.9999 0.0073
vn -0.0173 0.9998 0.0058
vn -0.1479 0.9884 -0.0355
vn -0.0297 0.9996 -0.0036
vn 0.0156 0.9998 0.0092
vn 0.0586 0.9965 0.0596
vn 0.0284 0.9962 0.0829
vn -0.0023 0.9988 0.0485
vn 0.9404 -0.1567 0.3017
vn 0.8467 0.5268 0.0749
vn 0.0490 0.9978 0.0456
vn 0.0479 0.9978 0.0467
vn 0.8192 0.5337 0.2100
vn -0.1376 0.9285 0.3449
vn -0.5836 -0.4301 0.6888
vn -0.4989 -0.6542 0.5685
vn -0.5261 -0.6161 0.5862
vn 0.5965 -0.8023 0.0222
vn -0.7668 -0.5052 0.3960
vn -0.7076 -0.6900 0.1524
vn -0.5503 -0.8236 -0.1372
vn -0.6339 -0.6508 -0.4179
vn -0.5024 -0.7601 0.4121
vn -0.7897 -0.5714 0.2235
vn 0.4688 -0.8095 0.3536
vn 0.4817 -0.8761 0.0221
vn 0.4238 -0.9007 0.0952
vn 0.6620 -0.6587 0.3574
vn 0.6967 -0.6095 0.3783
vn -0.0040 -0.5512 0.8344
vn 0.9640 -0.1196 0.2377
vn 0.6486 -0.5573 0.5184
vn 0.7302 -0.1463 0.6674
vn 0.2994 0.9541 0.0003
vn -0.0024 0.9994 -0.0333
vn 0.0052 0.9999 0.0109
vn 0.0020 0.9999 -0.0154
vn 0.0018 1.0000 -0.0013
vn -0.0084 0.9998 -0.0192
vn 0.0575 0.9692 0.2395
vn -0.0353 0.9994 0.0022
vn 0.0129 0.9999 -0.0115
vn 0.0200 0.9990 0.0391
vn -0.0926 0.9871 0.1305
vn 0.0517 0.9983 0.0284
vn 0.8478 0.2831 0.4485
vn 0.1341 0.7763 0.6160
vn 0.4372 0.8928 0.1084
vn 0.1735 0.9399 0.2941
vn 0.7912 -0.4334 0.4314
vn 0.6177 0.2768 0.7361
vn 0.8400 -0.4214 0.3418
vn 0.4841 -0.8646 0.1348
vn 0.4814 -0.8758 -0.0359
vn 0.1631 -0.9310 0.3266
vn 0.8332 -0.5250 0.1734
vn 0.9502 -0.0818 0.3008
vn 0.8444 -0.4716 0.2540
vn 0.1911 -0.4748 0.8591
vn -0.1154 -0.8380 0.5333
vn 0.2843 -0.3268 0.9013
vn 0.7874 -0.5442 0.2897
vn 0.0829 -0.2213 -0.9717
vn 0.0538 0.8825 -0.4673
vn 0.0370 0.9993 0.0034
vn -0.0345 0.9966 -0.0747
vn -0.0944 0.9955 0.0123
vn 0.0027 0.9999 -0.0116
vn 0.2552 0.6407 -0.7242
vn 0.3129 0.8839 -0.3476
vn -0.0005 0.9999 -0.0108
vn 0.0592 0.9936 0.0962
vn 0.0033 1.0000 0.0068
vn -0.2340 0.3342 -0.9130
vn 0.4327 0.9005 0.0425
vn 0.4287 0.9024 0.0436
vn 0.7949 -0.5528 0.2501
vn 0.8939 -0.2991 0.3337
vn 0.1483 -0.6604 -0.7362
vn -0.0359 -0.4710 -0.8814
vn 0.2140 -0.2616 -0.9412
vn 0.3508 0.1838 -0.9183
vn 0.0644 -0.9241 -0.3767
vn -0.0932 -0.9821 -0.1635
vn 0.0328 -0.9988 0.0377
vn -0.0472 -0.9562 0.2889
vn 0.2336 -0.9034 -0.3595
vn 0.2162 -0.9578 0.1894
vn 0.2793 -0.9245 0.2595
vn 0.3299 -0.9062 0.2647
vn 0.7640 -0.6286 0.1454
vn -0.0536 0.9984 -0.0157
vn -0.2915 -0.7821 -0.5507
vn 0.1739 0.0707 -0.9822
vn -0.1795 0.9549 -0.2367
vn -0.6402 -0.4835 -0.5970
vn -0.1285 -0.9644 -0.2312
vn -0.1311 -0.9623 -0.2385
vn -0.5347 0.7504 -0.3886
vn -0.0732 0.9903 -0.1183
vn -0.7973 -0.4782 -0.3681
vn -0.9888 -0.1491 0.0008
vn -0.0284 0.9418 0.3349
vn -0.2376 -0.5202 0.8203
vn -0.8097 0.0939 0.5793
vn -0.5259 0.8197 -0.2270
vn -0.3224 -0.5081 0.7987
vn -0.1507 -0.1966 0.9688
vn -0.0355 -0.1279 0.9911
vn -0.6838 -0.6603 0.3105
vn -0.0991 -0.4711 0.8765
vn -0.9114 0.2196 0.3480
vn 0.2640 0.5759 0.7737
vn -0.5531 0.8153 0.1714
vn -0.3991 -0.5693 0.7188
vn -0.2696 -0.3932 0.8790
vn -0.8982 -0.4350 -0.0638
vn -0.5139 -0.1153 0.8501
vn -0.4837 -0.1651 0.8595
vn -0.2063 -0.1120 0.9721
vn -0.1188 -0.3865 0.9146
vn -0.9266 -0.3118 0.2103
vn -0.0924 -0.0509 0.9944
vn -0.8358 -0.5009 0.2248
vn -0.9508 -0.1994 0.2372
vn -0.3743 -0.9074 0.1910
vn -0.0929 0.0128 0.9956
vn -0.2913 0.1849 0.9386
vn -0.5448 -0.7614 0.3514
vn -0.9401 -0.0460 0.3377
vn -0.2659 -0.2104 0.9408
vn -0.7128 -0.6252 0.3178
vn -0.2159 -0.0532 0.9750
vn -0.9297 0.3501 -0.1146
vn -0.8769 0.4443 0.1832
vn 0.1506 0.4782 0.8653
vn -0.2661 -0.2053 0.9418
vn -0.2175 -0.3363 0.9163
vn -0.1946 -0.3478 0.9172
vn -0.1019 -0.3914 0.9146
vn -0.1665 -0.3615 0.9174
vn -0.1487 -0.1975 0.9690
vn 0.2350 0.8875 0.3964
vn -0.3288 0.9440 -0.0288
vn -0.8370 -0.4159 0.3557
vn -0.8444 -0.4343 0.3138
vn -0.0986 -0.0757 0.9922
vn -0.8749 0.4709 -0.1132
vn -0.5341 -0.7919 0.2961
vn -0.3134 0.1704 0.9342
vn 0.4224 -0.0628 0.9042
vn -0.7769 -0.5586 0.2904
vn -0.7905 -0.5774 0.2042
vn -0.0806 -0.9926 0.0907
vn 0.1210 -0.5722 0.8112
vn -0.2904 -0.3252 0.8999
vn -0.1968 -0.0171 0.9803
vn -0.5476 0.2215 0.8069
vn -0.9127 -0.3318 0.2386
vn -0.0172 -0.7193 0.6945
vn -0.2048 -0.3494 0.9143
vn -0.6350 0.0686 0.7695
vn -0.8733 0.4857 0.0383
vn -0.3679 -0.9002 -0.2333
vn -0.2189 -0.0981 0.9708
vn -0.8126 -0.5421 0.2141
vn -0.9151 -0.3254 0.2379
vn -0.9863 0.1123 0.1212
vn -0.1808 -0.4049 0.8963
vn -0.2712 -0.1020 0.9571
vn -0.1608 0.0177 0.9868
vn -0.7193 -0.6221 0.3092
vn -0.8866 0.4454 -0.1252
vn -0.9400 0.2337 0.2486
vn 0.1496 0.1808 0.9721
vn -0.2173 -0.3396 0.9151
vn -0.0185 -0.1955 0.9805
vn -0.1011 -0.4734 0.8750
vn -0.1579 -0.1918 0.9686
vn -0.1359 -0.2459 0.9597
vn 0.3207 0.2316 0.9184
vn -0.7725 0.6348 -0.0152
vn -0.7020 -0.6405 0.3113
vn -0.1782 0.0159 0.9839
vn -0.6380 0.7701 0.0003
vn -0.2964 -0.0979 0.9500
vn -0.9651 -0.2549 0.0599
vn -0.4255 -0.9029 0.0617
vn -0.2721 -0.3512 0.8959
vn -0.1775 -0.7097 0.6818
vn 0.0135 -0.6095 0.7927
vn -0.2044 -0.3343 0.9200
vn -0.0224 -0.0686 0.9974
vn 0.4970 0.8523 0.1630
vn 0.8666 0.1820 0.4647
vn 0.6418 0.7154 0.2763
vn 0.8983 -0.4197 0.1301
vn 0.9365 0.0762 0.3423
vn 0.9529 -0.1831 0.2417
vn 0.9413 -0.0170 0.3371
vn 0.9637 -0.1241 0.2365
vn 0.8036 -0.5600 0.2017
vn 0.7155 0.5939 0.3679
vn 0.8522 -0.4725 0.2246
vn 0.7012 0.6018 0.3824
vn 0.0441 -0.2938 0.9549
vn -0.0441 -0.1457 0.9884
vn -0.2462 0.5559 -0.7940
vn -0.2222 0.7487 -0.6246
vn -0.5739 0.6888 -0.4429
vn -0.6163 -0.3072 -0.7251
vn -0.2625 0.6498 -0.7134
vn -0.2155 -0.3390 0.9158
vn -0.2217 -0.0686 0.9727
vn 0.2099 0.7113 0.6708
vn -0.2462 0.6224 -0.7430
vn -0.2970 0.6549 -0.6949
vn -0.2072 -0.0440 0.9773
vn -0.0396 -0.3526 0.9349
vn -0.0939 -0.6694 0.7370
vn -0.2051 -0.0435 0.9778
vn -0.2092 0.0512 0.9765
vn -0.0105 0.5176 0.8555
vn -0.1891 0.7678 -0.6122
vn -0.3112 0.6097 -0.7290
vn -0.7262 -0.2187 -0.6518
vn -0.1945 0.7450 -0.6380
vn -0.6464 0.6024 -0.4683
vt 0.687128 0.745855
vt 0.744538 0.743377
vt 0.699533 0.694434
vt 0.784968 0.805635
vt 0.797606 0.801150
vt 0.804744 0.778912
vt 0.639423 0.717136
vt 0.646417 0.781901
vt 0.715523 0.795752
vt 0.798790 0.813171
vt 0.594934 0.685519
vt 0.648880 0.659521
vt 0.622871 0.653604
vt 0.601578 0.821216
vt 0.565462 0.785072
vt 0.572729 0.810700
vt 0.598160 0.832933
vt 0.598066 0.851702
vt 0.434398 0.141110
vt 0.366242 0.144115
vt 0.382928 0.127769
vt 0.407658 0.233882
vt 0.440253 0.252831
vt 0.484435 0.293356
vt 0.565195 0.218621
vt 0.570132 0.146089
vt 0.598726 0.167979
vt 0.578616 0.247792
vt 0.592056 0.273850
vt 0.547640 0.300622
vt 0.555125 0.167031
vt 0.520105 0.129796
vt 0.561004 0.128515
vt 0.497532 0.179872
vt 0.546536 0.238067
vt 0.469085 0.242927
vt 0.568350 0.191865
vt 0.601781 0.201597
vt 0.436697 0.142480
vt 0.496952 0.133643
vt 0.398595 0.163043
vt 0.537962 0.139959
vt 0.549275 0.078943
vt 0.593472 0.132753
vt 0.410242 0.277251
vt 0.420449 0.202314
vt 0.357785 0.241591
vt 0.332407 0.195185
vt 0.467452 0.134969
vt 0.604829 0.190994
vt 0.592116 0.187213
vt 0.604960 0.182528
vt 0.550171 0.278746
vt 0.552753 0.321283
vt 0.605651 0.833772
vt 0.649158 0.643363
vt 0.698380 0.632882
vt 0.797932 0.825724
vt 0.807289 0.821471
vt 0.787115 0.832085
vt 0.791962 0.841102
vt 0.735660 0.845454
vt 0.686549 0.839846
vt 0.661520 0.832235
vt 0.628115 0.838407
vt 0.591692 0.763245
vt 0.582271 0.777918
vt 0.588016 0.739089
vt 0.598720 0.696590
vt 0.722584 0.650792
vt 0.718612 0.627818
vt 0.780749 0.769617
vt 0.762931 0.853048
vt 0.769023 0.686592
vt 0.786846 0.674425
vt 0.789953 0.739049
vt 0.804484 0.712653
vt 0.817511 0.738962
vt 0.814996 0.691079
vt 0.816148 0.648718
vt 0.803136 0.638511
vt 0.809648 0.654838
vt 0.821457 0.795767
vt 0.833389 0.758807
vt 0.839393 0.696906
vt 0.467044 0.083990
vt 0.513771 0.093564
vt 0.505318 0.080829
vt 0.346498 0.098634
vt 0.402091 0.090796
vt 0.364522 0.084207
vt 0.435482 0.075721
vt 0.319707 0.105453
vt 0.486340 0.082713
vt 0.550345 0.094474
vt 0.516578 0.094788
vt 0.402548 0.079328
vt 0.465846 0.076044
vt 0.418455 0.089043
vt 0.374813 0.098736
vt 0.314673 0.097636
vt 0.353056 0.091102
vt 0.439707 0.096664
vt 0.526726 0.084509
vt 0.488497 0.110368
vt 0.541925 0.100102
vt 0.441158 0.115218
vt 0.400723 0.109859
vt 0.362780 0.119335
vt 0.536366 0.088624
vt 0.575243 0.094097
vt 0.294939 0.130516
vt 0.298163 0.122016
vt 0.848596 0.638600
vt 0.852378 0.664420
vt 0.854301 0.717383
vt 0.854339 0.779032
vt 0.840780 0.821967
vt 0.818577 0.831158
vt 0.788056 0.784164
vt 0.772386 0.839780
vt 0.790238 0.813661
vt 0.775594 0.828496
vt 0.792792 0.811832
vt 0.816240 0.778222
vt 0.781105 0.898763
vt 0.778580 0.854731
vt 0.793505 0.912080
vt 0.810277 0.822136
vt 0.796133 0.842146
vt 0.810581 0.834279
vt 0.831983 0.869472
vt 0.828962 0.786280
vt 0.834268 0.879631
vt 0.786663 0.861002
vt 0.833116 0.809140
vt 0.622082 0.183608
vt 0.760217 0.101886
vt 0.731690 0.189655
vt 0.717831 0.096460
vt 0.669354 0.079705
vt 0.710289 0.081960
vt 0.688408 0.073810
vt 0.658616 0.056266
vt 0.626036 0.052607
vt 0.656863 0.053011
vt 0.555791 0.114243
vt 0.672771 0.077491
vt 0.586916 0.125072
vt 0.566809 0.104375
vt 0.591713 0.107253
vt 0.706829 0.085703
vt 0.764572 0.081468
vt 0.651216 0.087607
vt 0.643088 0.183444
vt 0.567075 0.140029
vt 0.621371 0.048999
vt 0.650332 0.069985
vt 0.681115 0.092253
vt 0.721511 0.093966
vt 0.768564 0.100441
vt 0.573943 0.091067
vt 0.809055 0.103824
vt 0.840716 0.089116
vt 0.812876 0.180989
vt 0.825727 0.183391
vt 0.804766 0.070337
vt 0.781569 0.188846
vt 0.754591 0.106737
vt 0.734181 0.079439
vt 0.743329 0.106221
vt 0.810462 0.843148
vt 0.734980 0.935741
vt 0.771771 0.922495
vt 0.774282 0.768509
vt 0.722907 0.869926
vt 0.712432 0.890002
vt 0.618411 0.903064
vt 0.593041 0.883802
vt 0.596944 0.890643
vt 0.624593 0.869123
vt 0.626468 0.924047
vt 0.638190 0.914508
vt 0.639584 0.928777
vt 0.686946 0.929360
vt 0.665774 0.883407
vt 0.585140 0.066107
vt 0.584883 0.058671
vt 0.578858 0.031578
vt 0.621126 0.930053
vt 0.599851 0.903135
vt 0.693361 0.952314
vt 0.730421 0.959325
vt 0.770185 0.925727
vt 0.807559 0.275164
vt 0.792228 0.302479
vt 0.834126 0.291137
vt 0.632788 0.338174
vt 0.570770 0.357983
vt 0.595189 0.351039
vt 0.835234 0.212331
vt 0.794133 0.282816
vt 0.790758 0.226515
vt 0.637865 0.195659
vt 0.669782 0.192070
vt 0.654543 0.234315
vt 0.617302 0.286590
vt 0.587896 0.292392
vt 0.680437 0.273997
vt 0.609137 0.227505
vt 0.725251 0.247131
vt 0.713779 0.194923
vt 0.788993 0.201303
vt 0.742541 0.300530
vt 0.843791 0.303907
vt 0.796734 0.302876
vt 0.778254 0.328851
vt 0.709042 0.333577
vt 0.729583 0.325682
vt 0.723323 0.331012
vt 0.720266 0.337363
vt 0.627788 0.311388
vt 0.672647 0.304796
vt 0.616992 0.335103
vt 0.598499 0.321898
vt 0.829085 0.221542
vt 0.801615 0.312001
vt 0.789424 0.307617
vt 0.689313 0.964103
vt 0.671534 0.961792
vt 0.583090 0.827152
vt 0.687454 0.863662
vt 0.715755 0.915056
vt 0.724824 0.935157
vt 0.640580 0.946879
vt 0.588453 0.038070
vt 0.641438 0.062461
vt 0.650838 0.065614
vt 0.652387 0.854308
vt 0.648392 0.328376
vt 0.567402 0.365920
vt 0.699802 0.069914
vt 0.613652 0.053140
vt 0.667459 0.055545
vt 0.596002 0.079290
vt 0.639751 0.075757
vt 0.653706 0.074634
vt 0.736863 0.074242
vt 0.744003 0.069192
vt 0.655823 0.084851
vt 0.626730 0.090446
vt 0.589882 0.037529
vt 0.708387 0.079568
vt 0.758731 0.096046
vt 0.748410 0.116532
vt 0.599193 0.340949
vt 0.686746 0.086903
vt 0.523056 0.725897
vt 0.477590 0.697666
vt 0.454328 0.741032
vt 0.490552 0.655672
vt 0.521544 0.647977
vt 0.514000 0.766943
vt 0.565161 0.756735
vt 0.579098 0.708361
vt 0.567322 0.729876
vt 0.731993 0.329099
vt 0.798523 0.305820
vt 0.813703 0.297440
vt 0.877272 0.171344
vt 0.864303 0.237820
vt 0.909786 0.202604
vt 0.799739 0.089750
vt 0.810153 0.131271
vt 0.809905 0.094607
vt 0.871000 0.276436
vt 0.880140 0.134048
vt 0.879405 0.235502
vt 0.809152 0.287546
vt 0.798589 0.221135
vt 0.838102 0.116823
vt 0.870365 0.169592
vt 0.767439 0.156211
vt 0.592195 0.092369
vt 0.639931 0.106363
vt 0.627480 0.298696
vt 0.675039 0.305156
vt 0.595452 0.332202
vt 0.698977 0.200021
vt 0.701773 0.266184
vt 0.599193 0.244836
vt 0.542154 0.290404
vt 0.637030 0.149298
vt 0.606606 0.202585
vt 0.597662 0.145658
vt 0.820316 0.095096
vt 0.740405 0.306662
vt 0.621005 0.351205
vt 0.828702 0.093267
vt 0.837279 0.074615
vt 0.554476 0.693687
vt 0.587161 0.693932
vt 0.520445 0.789789
vt 0.517220 0.812974
vt 0.547676 0.820524
vt 0.548177 0.813612
vt 0.437342 0.783340
vt 0.394003 0.756865
vt 0.556539 0.659080
vt 0.583102 0.667264
vt 0.542506 0.662220
vt 0.402865 0.713765
vt 0.436128 0.675367
vt 0.659592 0.625778
vt 0.696195 0.580822
vt 0.669206 0.615230
vt 0.686854 0.521245
vt 0.702997 0.529487
vt 0.718794 0.504327
vt 0.602394 0.634899
vt 0.644109 0.636984
vt 0.689495 0.608654
vt 0.713216 0.491983
vt 0.711119 0.498168
vt 0.292092 0.310112
vt 0.239493 0.380988
vt 0.283383 0.286053
vt 0.730242 0.328601
vt 0.661929 0.353355
vt 0.726379 0.328483
vt 0.198063 0.346292
vt 0.180082 0.311751
vt 0.170882 0.296087
vt 0.225304 0.373194
vt 0.284171 0.281827
vt 0.192147 0.349627
vt 0.521190 0.346191
vt 0.356725 0.308173
vt 0.329022 0.271576
vt 0.358555 0.284310
vt 0.297458 0.257632
vt 0.243833 0.322687
vt 0.243460 0.288075
vt 0.304397 0.232644
vt 0.333661 0.248645
vt 0.574605 0.305546
vt 0.351481 0.338720
vt 0.325414 0.344770
vt 0.309565 0.282128
vt 0.526400 0.384722
vt 0.201824 0.305926
vt 0.571061 0.633949
vt 0.593585 0.625675
vt 0.173520 0.287301
vt 0.183829 0.286864
vt 0.694513 0.507101
vt 0.673442 0.544226
vt 0.702191 0.606706
vt 0.531302 0.653267
vt 0.640097 0.359127
vt 0.321764 0.379184
vt 0.706795 0.570610
vt 0.718295 0.541290
vt 0.659144 0.592658
vt 0.742917 0.536881
vt 0.729834 0.599077
vt 0.753092 0.588928
vt 0.736175 0.487194
vt 0.766416 0.484437
vt 0.756429 0.630992
vt 0.787627 0.595356
vt 0.776676 0.537964
vt 0.753219 0.465008
vt 0.281598 0.133370
vt 0.301450 0.128672
vt 0.801130 0.497187
vt 0.816945 0.550087
vt 0.823301 0.511323
vt 0.147269 0.236744
vt 0.172516 0.266455
vt 0.250916 0.043308
vt 0.175916 0.133364
vt 0.188377 0.085683
vt 0.148223 0.158976
vt 0.191184 0.265527
vt 0.245359 0.231816
vt 0.242879 0.116500
vt 0.224176 0.069641
vt 0.276332 0.111981
vt 0.155990 0.194236
vt 0.179100 0.126214
vt 0.204954 0.184823
vt 0.264966 0.191965
vt 0.305236 0.167761
vt 0.308306 0.203075
vt 0.340460 0.162110
vt 0.330401 0.211006
vt 0.270075 0.244004
vt 0.175238 0.248585
vt 0.162976 0.304346
vt 0.837972 0.572205
vt 0.826112 0.600089
vt 0.791274 0.469877
vt 0.744791 0.649393
vt 0.808987 0.318800
vt 0.642752 0.960617
vt 0.774861 0.232281
vt 0.753953 0.190675
vt 0.621080 0.954703
vt 0.789646 0.300113
vt 0.802365 0.748422
vt 0.477712 0.334453
vt 0.407064 0.280223
vt 0.539857 0.269772
vt 0.565066 0.349281
vt 0.565493 0.038647
vt 0.626927 0.342042
vt 0.674049 0.340702
vt 0.683486 0.333683
vt 0.810794 0.629039
vt 0.338272 0.130867
vt 0.564790 0.097619
vt 0.828582 0.619188
vt 0.822560 0.856155
vt 0.728669 0.947335
vt 0.632135 0.059340
vt 0.558151 0.363140
vt 0.690745 0.329088
vt 0.762081 0.329394
vt 0.605199 0.065662
vt 0.658186 0.066362
vt 0.599066 0.074750
vt 0.584227 0.039668
vt 0.589904 0.058773
vt 0.566482 0.364041
vt 0.637603 0.335245
vt 0.710267 0.327464
vt 0.663270 0.337405
vt 0.796426 0.077535
vt 0.730241 0.074384
vt 0.720318 0.085856
vt 0.614972 0.944696
vt 0.781686 0.105109
vt 0.525856 0.644504
vt 0.685107 0.327163
vt 0.847282 0.094777
vt 0.815534 0.080982
vt 0.676077 0.346340
vt 0.572126 0.376377
vt 0.334075 0.375565
vt 0.768881 0.251840
vt 0.727278 0.325966
vt 0.749363 0.323096
vt 0.616717 0.882313
vt 0.755330 0.075474
vt 0.707639 0.333876
vt 0.634893 0.926706
vt 0.720072 0.326033
vt 0.771774 0.080654
vt 0.619960 0.891358
vt 0.593758 0.071740
vt 0.676929 0.333271
vt 0.691445 0.337160
vt 0.767558 0.310511
vt 0.587038 0.038605
vt 0.601344 0.091268
vt 0.565573 0.362183
vt 0.725372 0.318625
vt 0.625735 0.338512
vt 0.751028 0.095490
vt 0.745919 0.108111
vt 0.642971 0.331828
vt 0.566940 0.364976
vt 0.797684 0.084935
vt 0.790944 0.068684
vt 0.766564 0.307359
vt 0.526310 0.805257
vt 0.628476 0.908888
vt 0.727835 0.330276
vt 0.552593 0.363856
vt 0.547515 0.364511
vt 0.584602 0.050534
vt 0.755984 0.310125
vt 0.478918 0.798807
vt 0.705069 0.308873
vt 0.575688 0.394678
vt 0.571264 0.094181
vt 0.568801 0.100453
vt 0.616766 0.044628
vt 0.548593 0.090320
vt 0.612892 0.342946
s 0
usemtl 材質.006
f 1/1/1 114/2/1 111/3/1
f 120/4/2 162/5/2 163/6/2
f 1/1/3 111/3/3 127/7/3
f 1/1/4 127/7/4 133/8/4
f 1/1/5 133/8/5 126/9/5
f 166/10/6 162/5/6 120/4/6
f 248/11/7 131/12/7 285/13/7
f 70/14/8 249/15/8 236/16/8
f 200/17/9 236/16/9 16/18/9
f 170/19/10 86/20/10 167/21/10
f 149/22/11 156/23/11 286/24/11
f 251/25/12 253/26/12 254/27/12
f 203/28/13 204/29/13 201/30/13
f 175/31/14 105/32/14 177/33/14
f 154/34/15 160/35/15 107/36/15
f 178/37/16 154/34/16 175/31/16
f 203/28/17 178/37/17 206/38/17
f 160/39/18 159/40/18 107/41/18
f 150/42/19 159/40/19 160/39/19
f 257/43/20 256/44/20 253/26/20
f 159/40/21 156/23/21 107/41/21
f 156/23/22 159/40/22 251/25/22
f 156/45/23 153/46/23 107/36/23
f 156/45/24 149/47/24 153/46/24
f 149/47/25 305/48/25 86/20/25
f 153/46/26 154/34/26 107/36/26
f 171/49/27 153/46/27 170/19/27
f 207/50/28 179/51/28 180/52/28
f 150/53/29 201/30/29 208/54/29
f 200/17/30 210/55/30 70/14/30
f 285/13/31 131/12/31 290/56/31
f 290/56/32 131/12/32 309/57/32
f 166/10/33 181/58/33 182/59/33
f 181/58/34 184/60/34 183/61/34
f 185/62/35 126/9/35 211/63/35
f 126/9/36 213/64/36 211/63/36
f 70/14/37 210/55/37 215/65/37
f 70/14/38 261/66/38 250/67/38
f 133/8/39 127/7/39 262/68/39
f 262/68/40 127/7/40 266/69/40
f 266/69/41 127/7/41 131/12/41
f 131/12/42 127/7/42 111/3/42
f 131/12/43 311/70/43 310/71/43
f 188/72/44 186/73/44 120/4/44
f 120/4/45 114/2/45 126/9/45
f 114/2/46 1/1/46 126/9/46
f 118/74/47 172/75/47 311/70/47
f 118/74/48 111/3/48 114/2/48
f 118/74/49 165/76/49 173/77/49
f 31/78/50 116/79/50 173/77/50
f 123/80/51 314/81/51 315/82/51
f 31/78/52 163/6/52 130/83/52
f 134/84/53 31/78/53 130/83/53
f 31/78/54 134/84/54 125/85/54
f 72/86/55 135/87/55 145/88/55
f 84/89/56 138/90/56 147/91/56
f 72/86/57 145/88/57 148/92/57
f 84/89/58 147/91/58 141/93/58
f 158/94/59 420/95/59 190/96/59
f 100/97/60 151/98/60 161/99/60
f 155/100/61 103/101/61 152/102/61
f 110/103/62 155/100/62 161/99/62
f 155/100/63 152/102/63 161/99/63
f 152/102/64 100/97/64 161/99/64
f 110/103/65 161/99/65 158/94/65
f 161/99/66 151/98/66 158/94/66
f 151/98/67 98/104/67 158/94/67
f 157/105/68 110/103/68 158/94/68
f 157/105/69 190/96/69 191/106/69
f 157/105/70 171/49/70 168/107/70
f 110/103/71 169/108/71 155/100/71
f 167/21/72 86/20/72 317/109/72
f 103/101/73 141/93/73 152/102/73
f 141/93/74 147/91/74 152/102/74
f 147/91/75 100/97/75 152/102/75
f 148/92/76 151/98/76 100/97/76
f 148/92/77 145/88/77 151/98/77
f 145/88/78 98/104/78 151/98/78
f 147/91/79 148/92/79 100/97/79
f 147/91/80 138/90/80 148/92/80
f 138/90/81 72/86/81 148/92/81
f 98/104/82 145/88/82 146/110/82
f 145/88/83 135/87/83 146/110/83
f 135/87/84 194/111/84 146/110/84
f 141/93/85 103/101/85 318/112/85
f 141/93/86 318/112/86 319/113/86
f 141/114/87 123/80/87 84/115/87
f 125/85/88 138/116/88 84/115/88
f 138/116/89 125/85/89 134/84/89
f 134/84/90 72/117/90 138/116/90
f 134/84/91 135/118/91 72/117/91
f 134/84/92 130/83/92 135/118/92
f 135/118/93 130/83/93 196/119/93
f 182/59/94 196/119/94 130/83/94
f 84/115/95 123/80/95 125/85/95
f 123/80/96 116/79/96 125/85/96
f 125/85/97 116/79/97 31/78/97
f 116/79/98 315/82/98 172/75/98
f 99/120/99 95/121/99 19/122/99
f 188/72/100 99/120/100 186/73/100
f 95/121/101 104/123/101 19/122/101
f 19/122/102 104/123/102 109/124/102
f 19/122/103 109/124/103 101/125/103
f 124/126/104 48/127/104 108/128/104
f 65/129/105 113/130/105 128/131/105
f 195/132/106 115/133/106 194/134/106
f 48/127/107 124/126/107 129/135/107
f 65/129/108 128/131/108 132/136/108
f 180/52/109 216/137/109 207/50/109
f 220/138/110 219/139/110 217/140/110
f 83/141/111 136/142/111 143/143/111
f 144/144/112 85/145/112 137/146/112
f 105/32/113 192/147/113 177/33/113
f 93/148/114 140/149/114 144/144/114
f 193/150/115 140/149/115 192/147/115
f 193/150/116 419/151/116 144/144/116
f 144/144/117 143/143/117 93/148/117
f 144/144/118 137/146/118 143/143/118
f 137/146/119 83/141/119 143/143/119
f 143/143/120 142/152/120 93/148/120
f 142/152/121 143/143/121 136/142/121
f 79/153/122 142/152/122 136/142/122
f 139/154/123 93/148/123 142/152/123
f 222/155/124 142/152/124 217/140/124
f 222/155/125 216/137/125 139/154/125
f 139/154/126 140/149/126 93/148/126
f 180/52/127 179/51/127 176/156/127
f 176/156/128 177/33/128 140/149/128
f 132/157/129 137/146/129 85/145/129
f 132/157/130 128/158/130 137/146/130
f 128/158/131 83/141/131 137/146/131
f 129/159/132 136/142/132 83/141/132
f 129/159/133 124/160/133 136/142/133
f 79/153/134 136/142/134 124/160/134
f 220/138/135 79/153/135 224/161/135
f 85/145/136 189/162/136 132/157/136
f 194/134/137 115/133/137 132/136/137
f 132/136/138 115/133/138 65/129/138
f 128/158/139 129/159/139 83/141/139
f 128/131/140 113/130/140 129/135/140
f 113/130/141 48/127/141 129/135/141
f 341/163/142 226/164/142 225/165/142
f 227/166/143 343/167/143 345/168/143
f 229/169/144 108/170/144 230/171/144
f 198/172/145 101/125/145 115/133/145
f 101/125/146 109/124/146 115/133/146
f 65/129/147 115/133/147 109/124/147
f 109/124/148 113/130/148 65/129/148
f 109/124/149 104/123/149 113/130/149
f 104/123/150 48/127/150 113/130/150
f 108/128/151 48/127/151 104/123/151
f 231/173/152 230/174/152 108/128/152
f 198/172/153 182/59/153 181/58/153
f 186/73/154 99/120/154 101/125/154
f 101/125/155 99/120/155 19/122/155
f 187/175/156 174/176/156 235/177/156
f 188/72/157 187/175/157 99/120/157
f 386/178/158 360/179/158 359/180/158
f 80/181/159 215/65/159 210/55/159
f 359/180/160 371/182/160 386/178/160
f 12/183/161 92/184/161 94/185/161
f 12/183/162 94/185/162 89/186/162
f 367/187/163 363/188/163 417/189/163
f 385/190/164 359/180/164 356/191/164
f 97/192/165 228/193/165 229/194/165
f 35/195/166 348/196/166 337/197/166
f 362/198/167 417/199/167 365/200/167
f 67/201/168 338/202/168 350/203/168
f 223/204/169 221/205/169 122/206/169
f 117/207/170 202/208/170 204/29/170
f 76/209/171 117/207/171 122/206/171
f 205/210/172 117/207/172 204/29/172
f 205/210/173 206/38/173 223/204/173
f 76/209/174 122/206/174 121/211/174
f 218/212/175 122/206/175 221/205/175
f 219/139/176 339/213/176 350/203/176
f 119/214/177 76/209/177 121/211/177
f 112/215/178 346/216/178 338/202/178
f 346/216/179 61/217/179 119/214/179
f 241/218/180 76/209/180 237/219/180
f 240/220/181 242/221/181 237/219/181
f 244/222/182 76/209/182 238/223/182
f 244/222/183 247/224/183 246/225/183
f 202/208/184 117/207/184 246/225/184
f 339/213/185 219/139/185 220/138/185
f 106/226/186 112/215/186 67/201/186
f 106/226/187 337/197/187 112/215/187
f 61/217/188 340/227/188 102/228/188
f 227/166/189 106/226/189 67/201/189
f 347/229/190 228/193/190 97/192/190
f 97/192/191 342/230/191 347/229/191
f 236/16/192 367/231/192 16/18/192
f 212/232/193 89/186/193 235/177/193
f 89/186/194 234/233/194 235/177/194
f 232/234/195 94/185/195 97/192/195
f 97/192/196 94/185/196 92/184/196
f 349/235/197 97/192/197 92/184/197
f 406/236/198 408/237/198 96/238/198
f 214/239/199 89/186/199 211/63/199
f 80/181/200 214/239/200 215/65/200
f 80/181/201 12/183/201 89/186/201
f 243/240/202 36/241/202 247/224/202
f 379/242/203 361/243/203 352/244/203
f 369/245/204 353/246/204 368/247/204
f 359/180/205 360/179/205 367/231/205
f 382/248/206 352/244/206 374/249/206
f 277/250/207 279/251/207 96/238/207
f 36/252/208 96/238/208 279/251/208
f 39/253/209 276/254/209 281/255/209
f 247/224/210 36/241/210 245/256/210
f 383/257/211 368/247/211 353/246/211
f 6/258/212 50/259/212 46/260/212
f 293/261/213 50/259/213 292/262/213
f 46/260/214 62/263/214 6/258/214
f 6/258/215 62/263/215 263/264/215
f 264/265/216 6/258/216 265/266/216
f 295/267/217 68/268/217 10/269/217
f 11/270/218 54/271/218 74/272/218
f 270/273/219 63/274/219 269/275/219
f 10/269/220 68/268/220 77/276/220
f 11/270/221 74/272/221 78/277/221
f 22/278/222 81/279/222 87/280/222
f 26/281/223 82/282/223 90/283/223
f 280/284/224 278/285/224 256/44/224
f 296/286/225 298/287/225 297/288/225
f 42/289/226 88/290/226 259/291/226
f 296/286/227 260/292/227 259/291/227
f 91/293/228 252/294/228 254/27/228
f 255/295/229 254/27/229 253/26/229
f 91/293/230 255/295/230 256/44/230
f 90/283/231 42/289/231 91/293/231
f 91/293/232 278/285/232 39/253/232
f 281/255/233 276/254/233 275/296/233
f 90/283/234 87/280/234 42/289/234
f 82/282/235 87/280/235 90/283/235
f 82/282/236 22/278/236 87/280/236
f 87/280/237 88/290/237 42/289/237
f 87/280/238 81/279/238 88/290/238
f 300/297/239 66/298/239 298/287/239
f 26/281/240 275/296/240 273/299/240
f 82/282/241 26/281/241 78/277/241
f 78/277/242 74/272/242 82/282/242
f 74/272/243 22/278/243 82/282/243
f 77/276/244 81/279/244 22/278/244
f 77/276/245 68/268/245 81/279/245
f 81/279/246 295/267/246 300/297/246
f 26/281/247 272/300/247 78/277/247
f 269/275/248 63/274/248 78/277/248
f 78/277/249 63/274/249 11/270/249
f 74/272/250 77/276/250 22/278/250
f 74/272/251 54/271/251 77/276/251
f 54/271/252 10/269/252 77/276/252
f 60/301/253 267/302/253 248/11/253
f 267/302/254 264/265/254 266/69/254
f 62/263/255 249/15/255 250/67/255
f 249/15/256 62/263/256 283/303/256
f 383/304/257 353/305/257 284/306/257
f 63/307/258 62/263/258 46/260/258
f 46/260/259 11/308/259 63/307/259
f 302/309/260 248/11/260 301/310/260
f 50/259/261 60/301/261 303/311/261
f 50/259/262 6/258/262 60/301/262
f 46/260/263 54/312/263 11/308/263
f 46/260/264 50/259/264 54/312/264
f 50/259/265 10/313/265 54/312/265
f 4/314/266 30/315/266 27/316/266
f 5/317/267 322/318/267 321/319/267
f 27/316/268 38/320/268 4/314/268
f 38/320/269 44/321/269 4/314/269
f 37/322/270 4/314/270 44/321/270
f 324/323/271 5/317/271 323/324/271
f 8/325/272 33/326/272 56/327/272
f 293/328/273 416/329/273 294/330/273
f 58/331/274 324/332/274 325/333/274
f 56/327/275 14/334/275 69/335/275
f 69/335/276 14/334/276 64/336/276
f 66/298/277 75/337/277 297/288/277
f 287/338/278 289/339/278 288/340/278
f 328/341/279 71/342/279 327/343/279
f 328/341/280 330/344/280 307/345/280
f 297/288/281 299/346/281 296/286/281
f 75/347/282 73/348/282 24/349/282
f 66/298/283 73/350/283 75/337/283
f 73/348/284 69/335/284 24/349/284
f 24/349/285 69/335/285 71/342/285
f 69/335/286 64/336/286 71/342/286
f 71/342/287 331/351/287 327/343/287
f 40/352/288 27/316/288 413/353/288
f 56/327/289 73/348/289 8/325/289
f 14/334/290 58/331/290 64/336/290
f 58/331/291 333/354/291 64/336/291
f 332/355/292 331/351/292 64/336/292
f 56/327/293 58/331/293 14/334/293
f 56/327/294 33/326/294 58/331/294
f 58/356/295 33/357/295 5/317/295
f 37/322/296 290/56/296 291/358/296
f 38/320/297 301/310/297 44/321/297
f 304/359/298 302/309/298 38/320/298
f 294/330/299 415/360/299 295/267/299
f 40/352/300 292/262/300 304/359/300
f 73/348/301 412/361/301 8/325/301
f 30/315/302 335/362/302 336/363/302
f 30/315/303 4/314/303 37/322/303
f 27/316/304 33/357/304 8/364/304
f 27/316/305 30/315/305 33/357/305
f 33/357/306 30/315/306 5/317/306
f 20/365/307 18/366/307 2/367/307
f 3/368/308 20/365/308 21/369/308
f 18/366/309 25/370/309 2/367/309
f 2/367/310 25/370/310 28/371/310
f 2/367/311 28/371/311 23/372/311
f 3/368/312 21/369/312 32/373/312
f 319/113/313 7/374/313 320/375/313
f 9/376/314 29/377/314 41/378/314
f 32/379/315 325/333/315 3/380/315
f 43/381/316 319/113/316 318/112/316
f 9/382/317 41/383/317 34/384/317
f 331/351/318 334/385/318 51/386/318
f 57/387/319 13/388/319 47/389/319
f 15/390/320 49/391/320 52/392/320
f 17/393/321 52/392/321 57/387/321
f 52/392/322 49/391/322 57/387/322
f 49/391/323 13/388/323 57/387/323
f 57/387/324 55/394/324 17/393/324
f 55/394/325 57/387/325 47/389/325
f 55/394/326 47/389/326 103/101/326
f 53/395/327 17/393/327 55/394/327
f 305/48/328 55/394/328 308/396/328
f 306/397/329 53/395/329 305/48/329
f 51/386/330 17/393/330 53/395/330
f 330/344/331 329/398/331 53/395/331
f 329/398/332 327/343/332 51/386/332
f 51/386/333 52/392/333 17/393/333
f 51/386/334 45/399/334 52/392/334
f 45/399/335 15/390/335 52/392/335
f 34/384/336 49/391/336 15/390/336
f 34/384/337 41/383/337 49/391/337
f 41/383/338 13/388/338 49/391/338
f 13/388/339 43/381/339 47/389/339
f 43/381/340 103/101/340 47/389/340
f 45/399/341 332/355/341 333/354/341
f 32/379/342 333/354/342 326/400/342
f 32/379/343 15/390/343 45/399/343
f 41/383/344 43/381/344 13/388/344
f 41/378/345 29/377/345 43/401/345
f 43/401/346 29/377/346 7/402/346
f 3/368/347 324/323/347 323/324/347
f 32/379/348 34/384/348 15/390/348
f 32/373/349 21/369/349 34/403/349
f 21/369/350 9/376/350 34/403/350
f 23/372/351 29/377/351 9/376/351
f 23/372/352 28/371/352 29/377/352
f 7/402/353 29/377/353 28/371/353
f 28/371/354 172/75/354 315/82/354
f 310/71/355 311/70/355 312/404/355
f 310/71/356 18/366/356 291/358/356
f 21/369/357 23/372/357 9/376/357
f 21/369/358 20/365/358 23/372/358
f 23/372/359 20/365/359 2/367/359
f 20/365/360 335/362/360 291/358/360
f 20/365/361 321/319/361 322/318/361
f 350/203/362 339/213/362 67/201/362
f 350/203/363 338/202/363 121/211/363
f 340/227/364 337/197/364 102/228/364
f 338/202/365 119/214/365 121/211/365
f 340/227/366 344/405/366 112/215/366
f 344/405/367 346/216/367 112/215/367
f 342/230/368 349/235/368 35/406/368
f 345/168/369 106/226/369 227/166/369
f 341/163/370 224/161/370 79/153/370
f 347/407/371 35/195/371 106/226/371
f 337/197/372 348/196/372 102/228/372
f 228/408/373 124/160/373 229/169/373
f 341/163/374 67/201/374 339/213/374
f 349/235/375 351/409/375 35/406/375
f 351/410/376 348/196/376 35/195/376
f 112/215/377 337/197/377 340/227/377
f 337/197/378 106/226/378 35/195/378
f 163/6/379 164/411/379 120/4/379
f 164/411/380 165/76/380 120/4/380
f 165/76/381 114/2/381 120/4/381
f 70/14/382 250/67/382 249/15/382
f 200/17/383 70/14/383 236/16/383
f 169/108/384 168/107/384 170/19/384
f 170/19/385 153/46/385 86/20/385
f 167/21/386 169/108/386 170/19/386
f 286/24/387 287/412/387 288/413/387
f 288/413/388 149/22/388 286/24/388
f 254/27/389 252/294/389 251/25/389
f 251/25/390 159/40/390 253/26/390
f 204/29/391 202/208/391 201/30/391
f 201/30/392 150/53/392 160/35/392
f 160/35/393 203/28/393 201/30/393
f 177/33/394 176/156/394 175/31/394
f 175/31/395 154/34/395 105/32/395
f 178/37/396 160/35/396 154/34/396
f 206/38/397 205/210/397 203/28/397
f 203/28/398 160/35/398 178/37/398
f 178/37/399 179/51/399 206/38/399
f 256/44/400 255/295/400 253/26/400
f 253/26/401 159/40/401 150/42/401
f 150/42/402 257/43/402 253/26/402
f 251/25/403 259/291/403 258/414/403
f 258/414/404 156/23/404 251/25/404
f 260/292/405 286/24/405 258/414/405
f 286/24/406 156/23/406 258/414/406
f 86/20/407 153/46/407 149/47/407
f 149/47/408 307/345/408 305/48/408
f 307/345/409 306/397/409 305/48/409
f 305/48/410 308/396/410 86/20/410
f 171/49/411 154/34/411 153/46/411
f 105/32/412 154/34/412 171/49/412
f 157/105/413 105/32/413 171/49/413
f 207/50/414 206/38/414 179/51/414
f 209/415/415 150/53/415 208/54/415
f 257/43/416 150/42/416 209/416/416
f 307/345/417 149/47/417 288/340/417
f 288/340/418 289/339/418 307/345/418
f 291/358/419 290/56/419 309/57/419
f 166/10/420 120/4/420 181/58/420
f 181/58/421 120/4/421 184/60/421
f 211/63/422 212/232/422 185/62/422
f 212/232/423 174/176/423 185/62/423
f 355/417/424 377/418/424 199/419/424
f 126/9/425 133/8/425 213/64/425
f 215/65/426 214/239/426 213/64/426
f 213/64/427 133/8/427 215/65/427
f 133/8/428 70/14/428 215/65/428
f 70/14/429 133/8/429 261/66/429
f 262/68/430 263/264/430 261/66/430
f 261/66/431 133/8/431 262/68/431
f 264/265/432 265/266/432 266/69/432
f 265/266/433 262/68/433 266/69/433
f 248/11/434 267/302/434 131/12/434
f 267/302/435 266/69/435 131/12/435
f 310/71/436 309/57/436 131/12/436
f 131/12/437 111/3/437 311/70/437
f 186/73/438 184/60/438 120/4/438
f 120/4/439 126/9/439 185/62/439
f 185/62/440 187/175/440 120/4/440
f 187/175/441 188/72/441 120/4/441
f 312/404/442 311/70/442 172/75/442
f 311/70/443 111/3/443 118/74/443
f 173/77/444 172/75/444 118/74/444
f 118/74/445 114/2/445 165/76/445
f 173/77/446 165/76/446 164/411/446
f 164/411/447 31/78/447 173/77/447
f 315/82/448 116/79/448 123/80/448
f 123/80/449 313/420/449 314/81/449
f 31/78/450 164/411/450 163/6/450
f 98/104/451 420/95/451 158/94/451
f 157/105/452 158/94/452 190/96/452
f 193/150/453 192/147/453 191/106/453
f 192/147/454 105/32/454 191/106/454
f 105/32/455 157/105/455 191/106/455
f 171/49/456 170/19/456 168/107/456
f 168/107/457 110/103/457 157/105/457
f 110/103/458 168/107/458 169/108/458
f 316/421/459 317/109/459 86/20/459
f 317/109/460 155/100/460 167/21/460
f 155/100/461 169/108/461 167/21/461
f 103/101/462 155/100/462 317/109/462
f 98/104/463 146/110/463 189/162/463
f 195/422/464 194/111/464 135/87/464
f 194/111/465 189/162/465 146/110/465
f 319/113/466 320/375/466 141/93/466
f 320/423/467 313/420/467 123/80/467
f 141/114/468 320/423/468 123/80/468
f 196/119/469 197/424/469 135/118/469
f 197/424/470 195/132/470 135/118/470
f 182/59/471 198/172/471 196/119/471
f 182/59/472 130/83/472 166/10/472
f 130/83/473 163/6/473 162/5/473
f 166/10/474 130/83/474 162/5/474
f 172/75/475 173/77/475 116/79/475
f 195/132/476 197/424/476 115/133/476
f 180/52/477 139/154/477 216/137/477
f 219/139/478 218/212/478 217/140/478
f 217/140/479 142/152/479 220/138/479
f 142/152/480 79/153/480 220/138/480
f 192/147/481 140/149/481 177/33/481
f 193/150/482 144/144/482 140/149/482
f 190/96/483 420/95/483 191/106/483
f 420/95/484 193/150/484 191/106/484
f 217/140/485 221/205/485 222/155/485
f 222/155/486 139/154/486 142/152/486
f 222/155/487 223/204/487 216/137/487
f 178/37/488 175/31/488 179/51/488
f 175/31/489 176/156/489 179/51/489
f 176/156/490 140/149/490 180/52/490
f 140/149/491 139/154/491 180/52/491
f 189/162/492 194/111/492 132/157/492
f 341/163/493 343/167/493 226/164/493
f 227/166/494 226/164/494 343/167/494
f 197/424/495 196/119/495 115/133/495
f 196/119/496 198/172/496 115/133/496
f 95/121/497 232/234/497 104/123/497
f 232/234/498 231/173/498 104/123/498
f 231/173/499 108/128/499 104/123/499
f 231/173/500 233/425/500 230/174/500
f 181/58/501 183/61/501 101/125/501
f 101/125/502 198/172/502 181/58/502
f 183/61/503 184/60/503 101/125/503
f 184/60/504 186/73/504 101/125/504
f 95/121/505 99/120/505 234/233/505
f 99/120/506 187/175/506 235/177/506
f 234/233/507 99/120/507 235/177/507
f 187/175/508 185/62/508 174/176/508
f 210/55/509 200/17/509 16/18/509
f 379/242/510 387/426/510 361/243/510
f 16/18/511 80/181/511 210/55/511
f 354/427/512 355/417/512 365/200/512
f 229/194/513 230/174/513 97/192/513
f 230/174/514 233/425/514 97/192/514
f 67/201/515 112/215/515 338/202/515
f 223/204/516 222/155/516 221/205/516
f 204/29/517 203/28/517 205/210/517
f 205/210/518 122/206/518 117/207/518
f 207/50/519 216/137/519 206/38/519
f 216/137/520 223/204/520 206/38/520
f 223/204/521 122/206/521 205/210/521
f 221/205/522 217/140/522 218/212/522
f 218/212/175 121/211/175 122/206/175
f 350/203/523 121/211/523 219/139/523
f 121/211/524 218/212/524 219/139/524
f 346/216/525 344/405/525 61/217/525
f 241/218/526 239/428/526 238/223/526
f 238/223/527 76/209/527 241/218/527
f 76/209/528 119/214/528 237/219/528
f 238/223/529 243/240/529 244/222/529
f 244/222/530 117/207/530 76/209/530
f 245/256/531 246/225/531 247/224/531
f 246/225/532 117/207/532 244/222/532
f 246/225/533 209/415/533 201/30/533
f 209/415/534 208/54/534 201/30/534
f 201/30/535 202/208/535 246/225/535
f 220/138/536 224/161/536 339/213/536
f 224/161/537 341/163/537 339/213/537
f 61/217/538 344/405/538 340/227/538
f 225/165/539 226/164/539 67/201/539
f 226/164/540 227/166/540 67/201/540
f 347/407/541 345/168/541 228/408/541
f 411/429/542 61/217/542 102/228/542
f 174/176/543 212/232/543 235/177/543
f 89/186/544 94/185/544 234/233/544
f 95/121/545 234/233/545 232/234/545
f 234/233/546 94/185/546 232/234/546
f 233/425/547 231/173/547 97/192/547
f 231/173/548 232/234/548 97/192/548
f 349/235/549 342/230/549 97/192/549
f 361/243/550 358/430/550 366/431/550
f 211/63/551 213/64/551 214/239/551
f 89/186/552 212/232/552 211/63/552
f 80/181/553 89/186/553 214/239/553
f 366/431/550 418/432/550 369/245/550
f 358/430/554 357/433/554 381/434/554
f 247/224/555 244/222/555 243/240/555
f 355/417/556 384/435/556 376/436/556
f 241/218/557 237/219/557 242/221/557
f 373/437/558 199/419/558 377/418/558
f 243/240/559 238/223/559 239/428/559
f 378/438/560 355/417/560 376/436/560
f 273/299/561 275/296/561 274/439/561
f 379/242/562 352/244/562 382/248/562
f 418/432/550 366/431/550 358/430/550
f 277/250/563 96/238/563 39/253/563
f 277/250/564 278/285/564 279/251/564
f 279/251/565 280/284/565 209/416/565
f 209/415/566 246/225/566 245/256/566
f 279/251/567 209/416/567 36/252/567
f 245/256/568 36/241/568 209/415/568
f 375/440/569 366/431/569 380/441/569
f 349/235/570 410/442/570 351/409/570
f 293/261/571 10/313/571 50/259/571
f 263/264/572 262/68/572 265/266/572
f 265/266/573 6/258/573 263/264/573
f 264/265/574 60/301/574 6/258/574
f 293/328/575 294/330/575 10/269/575
f 294/330/576 295/267/576 10/269/576
f 270/273/577 282/443/577 63/274/577
f 280/284/578 279/251/578 278/285/578
f 278/285/579 91/293/579 256/44/579
f 256/44/580 257/43/580 209/416/580
f 209/416/581 280/284/581 256/44/581
f 296/286/582 88/290/582 298/287/582
f 259/291/583 251/25/583 252/294/583
f 252/294/584 42/289/584 259/291/584
f 296/286/585 299/346/585 260/292/585
f 260/292/586 258/414/586 259/291/586
f 259/291/587 88/290/587 296/286/587
f 91/293/588 42/289/588 252/294/588
f 255/295/589 91/293/589 254/27/589
f 277/250/590 39/253/590 278/285/590
f 39/253/591 281/255/591 91/293/591
f 281/255/592 90/283/592 91/293/592
f 276/254/593 274/439/593 275/296/593
f 275/296/594 26/281/594 90/283/594
f 90/283/595 281/255/595 275/296/595
f 292/262/596 414/444/596 293/261/596
f 59/445/597 300/297/597 295/267/597
f 298/287/598 88/290/598 300/297/598
f 88/290/599 81/279/599 300/297/599
f 81/279/600 68/268/600 295/267/600
f 273/299/601 272/300/601 26/281/601
f 272/300/602 271/446/602 78/277/602
f 271/446/603 268/447/603 78/277/603
f 268/447/604 269/275/604 78/277/604
f 267/302/605 60/301/605 264/265/605
f 250/67/606 261/66/606 263/264/606
f 263/264/607 62/263/607 250/67/607
f 283/303/608 284/306/608 249/15/608
f 284/306/609 236/16/609 249/15/609
f 283/303/610 62/263/610 63/307/610
f 380/441/611 368/247/611 383/257/611
f 302/309/612 303/311/612 60/301/612
f 302/309/613 60/301/613 248/11/613
f 303/311/614 304/359/614 50/259/614
f 304/359/615 292/262/615 50/259/615
f 321/319/616 323/324/616 5/317/616
f 5/317/617 30/315/617 322/318/617
f 414/448/618 413/449/618 416/329/618
f 325/333/619 326/400/619 58/331/619
f 58/356/620 5/317/620 324/323/620
f 297/288/621 298/287/621 66/298/621
f 287/338/622 24/349/622 289/339/622
f 327/343/623 329/398/623 328/341/623
f 328/341/624 24/349/624 71/342/624
f 307/345/625 289/339/625 328/341/625
f 289/339/626 24/349/626 328/341/626
f 260/292/627 299/346/627 75/337/627
f 287/412/628 260/292/628 75/337/628
f 75/347/629 24/349/629 287/338/629
f 287/412/630 286/24/630 260/292/630
f 297/288/631 75/337/631 299/346/631
f 71/342/632 64/336/632 331/351/632
f 69/335/633 73/348/633 56/327/633
f 326/400/634 333/354/634 58/331/634
f 333/354/635 332/355/635 64/336/635
f 332/355/636 334/385/636 331/351/636
f 37/322/637 44/321/637 290/56/637
f 44/321/638 248/11/638 285/13/638
f 44/321/639 285/13/639 290/56/639
f 248/11/640 44/321/640 301/310/640
f 38/320/641 302/309/641 301/310/641
f 304/359/642 303/311/642 302/309/642
f 304/359/643 38/320/643 40/352/643
f 293/328/644 414/448/644 416/329/644
f 413/450/645 8/325/645 412/361/645
f 291/358/646 335/362/646 37/322/646
f 336/363/647 322/318/647 30/315/647
f 30/315/648 37/322/648 335/362/648
f 32/379/649 326/400/649 325/333/649
f 43/381/650 7/374/650 319/113/650
f 334/385/651 45/399/651 51/386/651
f 51/386/652 327/343/652 331/351/652
f 330/344/653 53/395/653 306/397/653
f 306/397/654 307/345/654 330/344/654
f 86/20/655 308/396/655 316/421/655
f 308/396/655 55/394/655 316/421/655
f 103/101/656 317/109/656 316/421/656
f 316/421/657 55/394/657 103/101/657
f 305/48/658 53/395/658 55/394/658
f 328/341/659 329/398/659 330/344/659
f 329/398/660 51/386/660 53/395/660
f 318/112/661 103/101/661 43/381/661
f 45/399/662 334/385/662 332/355/662
f 32/379/663 45/399/663 333/354/663
f 323/324/664 321/319/664 3/368/664
f 3/380/665 325/333/665 324/332/665
f 313/420/666 320/423/666 7/402/666
f 7/402/667 28/371/667 313/420/667
f 28/371/668 314/81/668 313/420/668
f 315/82/669 314/81/669 28/371/669
f 28/371/670 25/370/670 172/75/670
f 25/370/671 312/404/671 172/75/671
f 312/404/672 25/370/672 18/366/672
f 18/366/673 310/71/673 312/404/673
f 309/57/674 310/71/674 291/358/674
f 291/358/675 18/366/675 20/365/675
f 20/365/676 336/363/676 335/362/676
f 322/318/677 336/363/677 20/365/677
f 20/365/678 3/368/678 321/319/678
f 338/202/679 346/216/679 119/214/679
f 345/168/680 347/407/680 106/226/680
f 124/160/681 343/167/681 79/153/681
f 343/167/682 341/163/682 79/153/682
f 347/407/683 342/451/683 35/195/683
f 228/408/684 345/168/684 124/160/684
f 345/168/685 343/167/685 124/160/685
f 124/160/686 108/170/686 229/169/686
f 341/163/687 225/165/687 67/201/687
f 353/305/688 236/16/688 284/306/688
f 352/244/689 361/243/689 366/431/689
f 393/452/690 119/214/690 405/453/690
f 360/179/691 370/454/691 16/18/691
f 393/452/692 237/219/692 119/214/692
f 400/455/693 274/439/693 276/254/693
f 397/456/694 242/221/694 240/220/694
f 391/457/695 349/235/695 92/184/695
f 362/198/696 199/419/696 372/458/696
f 394/459/697 269/275/697 268/447/697
f 16/18/698 390/460/698 80/181/698
f 394/459/699 270/273/699 269/275/699
f 369/245/554 418/432/554 364/461/554
f 399/462/700 239/428/700 241/218/700
f 406/236/198 96/238/198 36/252/198
f 39/253/701 400/455/701 276/254/701
f 399/462/700 241/218/700 398/463/700
f 411/429/702 102/228/702 392/464/702
f 397/456/703 240/220/703 393/452/703
f 361/243/198 387/426/198 384/465/198
f 368/247/704 366/431/704 369/245/704
f 369/245/705 363/188/705 367/187/705
f 236/466/706 369/245/706 367/187/706
f 361/243/198 384/465/198 357/433/198
f 355/417/707 357/467/707 384/435/707
f 360/179/708 16/18/708 367/231/708
f 352/244/709 375/440/709 374/249/709
f 388/468/710 356/469/710 362/198/710
f 380/441/711 366/431/711 368/247/711
f 375/440/712 352/244/712 366/431/712
f 401/470/713 383/257/713 404/471/713
f 401/470/569 375/440/569 380/441/569
f 399/462/560 376/436/560 396/472/560
f 397/456/714 377/418/714 398/463/714
f 376/436/715 406/473/715 396/472/715
f 409/474/716 395/475/716 374/249/716
f 394/459/717 409/474/717 374/249/717
f 403/476/718 388/468/718 372/458/718
f 402/477/719 383/304/719 284/306/719
f 355/417/720 362/198/720 365/200/720
f 382/248/721 395/475/721 400/455/721
f 39/253/722 387/426/722 379/242/722
f 411/429/723 373/437/723 405/453/723
f 403/476/724 372/458/724 392/464/724
f 386/178/725 391/457/725 407/478/725
f 390/460/726 386/178/726 407/478/726
f 80/181/727 407/478/727 12/183/727
f 407/478/728 92/184/728 12/183/728
f 348/196/729 392/464/729 102/228/729
f 61/217/730 405/453/730 119/214/730
f 364/461/554 358/430/554 381/434/554
f 400/455/731 272/300/731 273/299/731
f 283/303/732 402/477/732 284/306/732
f 63/307/733 402/477/733 283/303/733
f 351/410/734 403/476/734 348/196/734
f 268/447/735 409/474/735 394/459/735
f 271/446/736 395/475/736 409/474/736
f 396/472/737 36/241/737 243/240/737
f 397/456/738 241/218/738 242/221/738
f 239/428/560 396/472/560 243/240/560
f 400/455/739 273/299/739 274/439/739
f 270/273/740 401/470/740 282/443/740
f 282/443/741 404/471/741 63/274/741
f 386/178/742 370/454/742 360/179/742
f 389/479/743 392/464/743 372/458/743
f 378/438/700 398/463/700 377/418/700
f 387/426/198 406/236/198 384/465/198
f 363/480/744 365/200/744 417/199/744
f 16/18/745 370/454/745 390/460/745
f 374/249/746 375/440/746 394/459/746
f 385/190/747 410/442/747 349/235/747
f 371/182/748 349/235/748 391/457/748
f 393/452/749 240/220/749 237/219/749
f 379/242/750 400/455/750 39/253/750
f 353/246/751 369/245/751 236/466/751
f 356/469/752 367/481/752 417/199/752
f 364/461/705 354/482/705 363/188/705
f 401/470/753 380/441/753 383/257/753
f 401/470/754 394/459/754 375/440/754
f 379/242/755 382/248/755 400/455/755
f 399/462/560 378/438/560 376/436/560
f 397/456/756 373/437/756 377/418/756
f 376/436/757 384/435/757 406/473/757
f 403/476/758 410/483/758 388/468/758
f 402/477/759 404/484/759 383/304/759
f 382/248/760 374/249/760 395/475/760
f 39/253/761 408/237/761 387/426/761
f 411/429/762 389/479/762 373/437/762
f 354/482/705 381/434/705 357/433/705
f 386/178/763 371/182/763 391/457/763
f 390/460/764 370/454/764 386/178/764
f 80/181/765 390/460/765 407/478/765
f 407/478/766 391/457/766 92/184/766
f 348/196/767 403/476/767 392/464/767
f 61/217/768 411/429/768 405/453/768
f 39/253/761 96/238/761 408/237/761
f 400/455/769 395/475/769 272/300/769
f 63/307/770 404/484/770 402/477/770
f 351/410/771 410/483/771 403/476/771
f 268/447/772 271/446/772 409/474/772
f 271/446/736 272/300/736 395/475/736
f 396/472/773 406/473/773 36/241/773
f 397/456/714 398/463/714 241/218/714
f 239/428/560 399/462/560 396/472/560
f 270/273/774 394/459/774 401/470/774
f 282/443/775 401/470/775 404/471/775
f 373/437/776 397/456/776 393/452/776
f 389/479/777 411/429/777 392/464/777
f 378/438/700 399/462/700 398/463/700
f 387/426/198 408/237/198 406/236/198
f 385/485/778 388/468/778 410/483/778
f 371/182/779 385/190/779 349/235/779
f 373/437/780 393/452/780 405/453/780
f 415/360/781 59/445/781 295/267/781
f 416/329/782 412/486/782 415/360/782
f 66/298/783 412/486/783 73/350/783
f 40/352/784 38/320/784 27/316/784
f 294/330/785 416/329/785 415/360/785
f 40/352/786 414/444/786 292/262/786
f 59/445/787 66/298/787 300/297/787
f 414/444/788 40/352/788 413/353/788
f 413/353/789 27/316/789 8/364/789
f 415/360/790 66/298/790 59/445/790
f 416/329/791 413/449/791 412/486/791
f 66/298/792 415/360/792 412/486/792
f 199/419/793 389/479/793 372/458/793
f 199/419/794 362/198/794 355/417/794
f 423/487/795 98/104/795 189/162/795
f 423/487/796 419/151/796 422/488/796
f 421/489/797 189/162/797 85/145/797
f 419/151/798 85/145/798 144/144/798
f 193/150/799 422/488/799 419/151/799
f 385/190/800 371/182/800 359/180/800
f 362/198/801 356/469/801 417/199/801
f 355/417/802 378/438/802 377/418/802
f 98/104/803 424/490/803 420/95/803
f 420/95/804 422/488/804 193/150/804
f 354/427/805 357/467/805 355/417/805
f 358/430/554 361/243/554 357/433/554
f 369/245/705 364/461/705 363/188/705
f 362/198/806 372/458/806 388/468/806
f 388/468/807 385/485/807 356/469/807
f 364/461/554 418/432/554 358/430/554
f 363/480/808 354/427/808 365/200/808
f 356/469/809 359/491/809 367/481/809
f 364/461/705 381/434/705 354/482/705
f 199/419/810 373/437/810 389/479/810
f 423/487/811 424/490/811 98/104/811
f 422/488/812 420/95/812 424/490/812
f 423/487/813 421/489/813 419/151/813
f 422/488/814 424/490/814 423/487/814
f 421/489/815 423/487/815 189/162/815
f 419/151/798 421/489/798 85/145/798
