# Blender 5.2.1 LTS
# www.blender.org
mtllib roadCell.mtl
o 立方體.005
v -458.491028 -24.105291 315.695404
v -458.491028 -21.478842 328.135071
v -462.453094 -21.478842 315.695404
v -458.491028 -23.754406 321.907074
v -460.469452 -23.754406 315.695404
v -460.385742 -23.413570 321.644196
v -460.469452 -21.478842 326.473175
v -458.491028 -22.790344 326.473175
v -460.385742 -22.734840 324.858887
v -461.923767 -22.790344 315.695404
v -461.923767 -21.478842 321.907074
v -461.409607 -22.734840 321.644196
v -458.491028 -2.854935 328.135071
v -458.491028 -0.228487 315.695404
v -462.453094 -2.854935 315.695404
v -458.491028 -1.543434 326.473175
v -460.469452 -2.854935 326.473175
v -460.385742 -1.598937 324.858887
v -460.469452 -0.579370 315.695404
v -458.491028 -0.579370 321.907074
v -460.385742 -0.920208 321.644196
v -461.923767 -2.854935 321.907074
v -461.923767 -1.543434 315.695404
v -461.409607 -1.598937 321.644196
v -458.491028 -24.105291 259.157013
v -462.453094 -21.478842 259.157013
v -458.491028 -21.478842 246.717346
v -460.469452 -23.754406 259.157013
v -458.491028 -23.754406 252.945343
v -460.385742 -23.413570 253.208221
v -461.923767 -21.478842 252.945343
v -461.923767 -22.790344 259.157013
v -461.409607 -22.734840 253.208221
v -458.491028 -22.790344 248.379242
v -460.469452 -21.478842 248.379242
v -460.385742 -22.734840 249.993546
v -458.491028 -0.228487 259.157013
v -458.491028 -2.854935 246.717346
v -462.453094 -2.854935 259.157013
v -458.491028 -0.579370 252.945343
v -460.469452 -0.579370 259.157013
v -460.385742 -0.920208 253.208221
v -460.469452 -2.854935 248.379242
v -458.491028 -1.543434 248.379242
v -460.385742 -1.598937 249.993546
v -461.923767 -1.543434 259.157013
v -461.923767 -2.854935 252.945343
v -461.409607 -1.598937 253.208221
v -420.852142 -24.105291 315.695404
v -416.890076 -21.478842 315.695404
v -420.852142 -21.478842 328.135071
v -418.873718 -23.754406 315.695404
v -420.852142 -23.754406 321.907074
v -418.957428 -23.413570 321.644196
v -417.419403 -21.478842 321.907074
v -417.419403 -22.790344 315.695404
v -417.933563 -22.734840 321.644196
v -420.852142 -22.790344 326.473175
v -418.873718 -21.478842 326.473175
v -418.957428 -22.734840 324.858887
v -420.852142 -0.228487 315.695404
v -420.852142 -2.854935 328.135071
v -416.890076 -2.854935 315.695404
v -420.852142 -0.579370 321.907074
v -418.873718 -0.579370 315.695404
v -418.957428 -0.920208 321.644196
v -418.873718 -2.854935 326.473175
v -420.852142 -1.543434 326.473175
v -418.957428 -1.598937 324.858887
v -417.419403 -1.543434 315.695404
v -417.419403 -2.854935 321.907074
v -417.933563 -1.598937 321.644196
v -420.852142 -24.105291 259.157013
v -420.852142 -21.478842 246.717346
v -416.890076 -21.478842 259.157013
v -420.852142 -23.754406 252.945343
v -418.873718 -23.754406 259.157013
v -418.957428 -23.413570 253.208221
v -418.873718 -21.478842 248.379242
v -420.852142 -22.790344 248.379242
v -418.957428 -22.734840 249.993546
v -417.419403 -22.790344 259.157013
v -417.419403 -21.478842 252.945343
v -417.933563 -22.734840 253.208221
v -420.852142 -0.228487 259.157013
v -416.890076 -2.854935 259.157013
v -420.852142 -2.854935 246.717346
v -418.873718 -0.579370 259.157013
v -420.852142 -0.579370 252.945343
v -418.957428 -0.920208 253.208221
v -417.419403 -2.854935 252.945343
v -417.419403 -1.543434 259.157013
v -417.933563 -1.598937 253.208221
v -420.852142 -1.543434 248.379242
v -418.873718 -2.854935 248.379242
v -418.957428 -1.598937 249.993546
vn -0.1744 -0.9831 0.0555
vn -0.2005 -0.9586 0.2024
vn -0.4616 -0.6964 0.5495
vn -0.8677 -0.4131 0.2764
vn -0.9244 -0.3731 0.0788
vn -0.5517 -0.8322 0.0554
vn -0.5442 -0.8209 0.1733
vn -0.4616 0.6964 0.5495
vn -0.2005 0.9586 0.2024
vn -0.1744 0.9831 0.0555
vn -0.5517 0.8322 0.0554
vn -0.9244 0.3731 0.0788
vn -0.8677 0.4131 0.2764
vn -0.5442 0.8209 0.1733
vn -0.1744 -0.9831 -0.0555
vn -0.5517 -0.8322 -0.0554
vn -0.9244 -0.3731 -0.0788
vn -0.8677 -0.4131 -0.2764
vn -0.4616 -0.6964 -0.5495
vn -0.2005 -0.9586 -0.2024
vn -0.5442 -0.8209 -0.1733
vn -0.1744 0.9831 -0.0555
vn -0.2005 0.9586 -0.2024
vn -0.4616 0.6964 -0.5495
vn -0.8677 0.4131 -0.2764
vn -0.9244 0.3731 -0.0788
vn -0.5517 0.8322 -0.0554
vn -0.5442 0.8209 -0.1733
vn 0.1744 -0.9831 0.0555
vn 0.5517 -0.8322 0.0554
vn 0.9244 -0.3731 0.0788
vn 0.8677 -0.4131 0.2764
vn 0.4616 -0.6964 0.5495
vn 0.2005 -0.9586 0.2024
vn 0.5442 -0.8209 0.1733
vn 0.1744 0.9831 0.0555
vn 0.2005 0.9586 0.2024
vn 0.4616 0.6964 0.5495
vn 0.8677 0.4131 0.2764
vn 0.9244 0.3731 0.0788
vn 0.5517 0.8322 0.0554
vn 0.5442 0.8209 0.1733
vn 0.1744 -0.9831 -0.0555
vn 0.2005 -0.9586 -0.2024
vn 0.4616 -0.6964 -0.5495
vn 0.8677 -0.4131 -0.2764
vn 0.9244 -0.3731 -0.0788
vn 0.5517 -0.8322 -0.0554
vn 0.5442 -0.8209 -0.1733
vn 0.1744 0.9831 -0.0555
vn 0.5517 0.8322 -0.0554
vn 0.9244 0.3731 -0.0788
vn 0.8677 0.4131 -0.2764
vn 0.4616 0.6964 -0.5495
vn 0.2005 0.9586 -0.2024
vn 0.5442 0.8209 -0.1733
vn -0.1746 -0.9846 -0.0000
vn -0.5525 -0.8335 -0.0000
vn -0.9273 -0.3743 -0.0000
vn -0.6432 -0.0000 0.7657
vn -0.9528 -0.0000 0.3035
vn -0.9964 -0.0000 0.0849
vn -0.1746 0.9846 -0.0000
vn -0.5525 0.8335 -0.0000
vn -0.9273 0.3743 -0.0000
vn -0.6432 -0.0000 -0.7657
vn -0.9528 -0.0000 -0.3035
vn -0.9964 -0.0000 -0.0849
vn -0.0000 -0.9984 -0.0564
vn -0.0000 -0.9784 -0.2066
vn -0.0000 -0.7850 -0.6195
vn -0.0000 0.9984 -0.0564
vn -0.0000 0.9784 -0.2066
vn -0.0000 0.7850 -0.6195
vn 0.9964 -0.0000 -0.0849
vn 0.9528 -0.0000 -0.3035
vn 0.6432 -0.0000 -0.7657
vn 0.1746 -0.9846 -0.0000
vn 0.5525 -0.8335 -0.0000
vn 0.9273 -0.3743 -0.0000
vn 0.1746 0.9846 -0.0000
vn 0.5525 0.8335 -0.0000
vn 0.9273 0.3743 -0.0000
vn 0.6432 -0.0000 0.7657
vn 0.9528 -0.0000 0.3035
vn 0.9964 -0.0000 0.0849
vn -0.0000 -0.9984 0.0564
vn -0.0000 -0.9784 0.2066
vn -0.0000 -0.7850 0.6195
vn -0.0000 0.9984 0.0564
vn -0.0000 0.9784 0.2066
vn -0.0000 0.7850 0.6195
vn -0.0000 -1.0000 -0.0000
vn -1.0000 -0.0000 -0.0000
vn -0.0000 -0.0000 1.0000
vn -0.0000 1.0000 -0.0000
vn -0.0000 -0.0000 -1.0000
vn 1.0000 -0.0000 -0.0000
vn -0.1846 -0.9810 0.0588
vn -0.4696 -0.7084 0.5268
vn -0.9161 -0.3923 0.0828
vn -0.4696 0.7084 0.5268
vn -0.1846 0.9810 0.0588
vn -0.9161 0.3923 0.0828
vn -0.1846 -0.9810 -0.0588
vn -0.9161 -0.3923 -0.0828
vn -0.4696 -0.7084 -0.5268
vn -0.1846 0.9810 -0.0588
vn -0.4696 0.7084 -0.5268
vn -0.9161 0.3923 -0.0828
vn 0.1846 -0.9810 0.0588
vn 0.9161 -0.3923 0.0828
vn 0.4696 -0.7084 0.5268
vn 0.1846 0.9810 0.0588
vn 0.4696 0.7084 0.5268
vn 0.9161 0.3923 0.0828
vn 0.1846 -0.9810 -0.0588
vn 0.4696 -0.7084 -0.5268
vn 0.9161 -0.3923 -0.0828
vn 0.1846 0.9810 -0.0588
vn 0.9161 0.3923 -0.0828
vn 0.4696 0.7084 -0.5268
vt 0.146739 0.730876
vt 0.135884 0.711803
vt 0.146739 0.711803
vt 0.136343 0.750000
vt 0.136343 0.730069
vt 0.402500 1.000000
vt 0.375000 0.978261
vt 0.402500 0.978261
vt 0.402500 0.019124
vt 0.375000 0.000000
vt 0.402500 0.000000
vt 0.375000 0.038197
vt 0.402500 0.038197
vt 0.125000 0.730069
vt 0.125000 0.711803
vt 0.611232 0.978261
vt 0.597500 1.000000
vt 0.597500 0.978261
vt 0.625000 1.000000
vt 0.610651 1.000000
vt 0.875000 0.711803
vt 0.853261 0.750000
vt 0.853261 0.711803
vt 0.625000 0.038197
vt 0.610651 0.019931
vt 0.625000 0.019931
vt 0.597500 0.019124
vt 0.611232 0.038197
vt 0.597500 0.038197
vt 0.610651 0.000000
vt 0.135884 0.538197
vt 0.146739 0.519124
vt 0.146739 0.538197
vt 0.125000 0.519931
vt 0.136343 0.519931
vt 0.402500 0.230876
vt 0.375000 0.211803
vt 0.402500 0.211803
vt 0.375000 0.261343
vt 0.375000 0.230069
vt 0.375000 0.271739
vt 0.402500 0.260884
vt 0.402500 0.271739
vt 0.136343 0.500000
vt 0.146739 0.500000
vt 0.853261 0.500000
vt 0.875000 0.538197
vt 0.853261 0.538197
vt 0.625000 0.271739
vt 0.610651 0.255993
vt 0.625000 0.236713
vt 0.597500 0.260884
vt 0.611232 0.271739
vt 0.597500 0.271739
vt 0.597500 0.230876
vt 0.611232 0.211803
vt 0.597500 0.211803
vt 0.625000 0.211803
vt 0.610651 0.230069
vt 0.364116 0.711803
vt 0.353261 0.730876
vt 0.353261 0.711803
vt 0.384331 0.730069
vt 0.363657 0.730069
vt 0.402500 0.730876
vt 0.388768 0.711803
vt 0.402500 0.711803
vt 0.369328 0.755672
vt 0.364130 0.760870
vt 0.402500 0.760884
vt 0.402500 0.771739
vt 0.635870 0.760870
vt 0.635884 0.711803
vt 0.646739 0.711803
vt 0.611232 0.771739
vt 0.630672 0.755672
vt 0.597500 0.760884
vt 0.597500 0.771739
vt 0.597500 0.730876
vt 0.610651 0.761343
vt 0.611232 0.711803
vt 0.597500 0.711803
vt 0.610651 0.736483
vt 0.353261 0.519124
vt 0.364116 0.538197
vt 0.353261 0.538197
vt 0.369328 0.494328
vt 0.363657 0.519931
vt 0.402500 0.489116
vt 0.364130 0.489130
vt 0.402500 0.478261
vt 0.402500 0.519124
vt 0.388768 0.538197
vt 0.402500 0.538197
vt 0.384331 0.519931
vt 0.635884 0.538197
vt 0.635870 0.489130
vt 0.646739 0.538197
vt 0.611232 0.538197
vt 0.630672 0.494328
vt 0.597500 0.519124
vt 0.597500 0.538197
vt 0.610651 0.488657
vt 0.610651 0.513517
vt 0.611232 0.478261
vt 0.597500 0.489116
vt 0.597500 0.478261
vt 0.125000 0.538197
vt 0.597500 0.000000
vt 0.146739 0.750000
vt 0.625000 0.978261
vt 0.375000 0.988657
vt 0.375000 0.019931
vt 0.875000 0.730069
vt 0.875000 0.519931
s 0
usemtl 材質
f 4/1/1 5/2/1 1/3/1
f 4/1/2 9/4/2 6/5/2
f 7/6/3 8/7/3 2/8/3
f 11/9/4 9/10/4 7/11/4
f 10/12/5 11/9/5 3/13/5
f 5/2/6 12/14/6 10/15/6
f 6/5/7 9/4/7 12/14/7
f 16/16/8 17/17/8 13/18/8
f 16/16/9 21/19/9 18/20/9
f 19/21/10 20/22/10 14/23/10
f 19/24/11 24/25/11 21/26/11
f 22/27/12 23/28/12 15/29/12
f 22/27/13 18/30/13 24/25/13
f 18/30/14 21/26/14 24/25/14
f 28/31/15 29/32/15 25/33/15
f 28/31/16 33/34/16 30/35/16
f 31/36/17 32/37/17 26/38/17
f 31/36/18 36/39/18 33/40/18
f 34/41/19 35/42/19 27/43/19
f 29/32/20 36/44/20 34/45/20
f 30/35/21 33/34/21 36/44/21
f 40/46/22 41/47/22 37/48/22
f 40/49/23 45/50/23 42/51/23
f 43/52/24 44/53/24 38/54/24
f 47/55/25 45/50/25 43/52/25
f 46/56/26 47/55/26 39/57/26
f 41/58/27 48/59/27 46/56/27
f 42/51/28 45/50/28 48/59/28
f 52/60/29 53/61/29 49/62/29
f 52/60/30 57/63/30 54/64/30
f 55/65/31 56/66/31 50/67/31
f 55/65/32 60/68/32 57/63/32
f 58/69/33 59/70/33 51/71/33
f 53/61/34 60/68/34 58/69/34
f 54/64/35 57/63/35 60/68/35
f 64/72/36 65/73/36 61/74/36
f 68/75/37 66/76/37 64/72/37
f 67/77/38 68/75/38 62/78/38
f 71/79/39 69/80/39 67/77/39
f 70/81/40 71/79/40 63/82/40
f 70/81/41 66/76/41 72/83/41
f 66/76/42 69/80/42 72/83/42
f 76/84/43 77/85/43 73/86/43
f 76/84/44 81/87/44 78/88/44
f 79/89/45 80/90/45 74/91/45
f 83/92/46 81/87/46 79/89/46
f 82/93/47 83/92/47 75/94/47
f 77/85/48 84/95/48 82/93/48
f 78/88/49 81/87/49 84/95/49
f 88/96/50 89/97/50 85/98/50
f 92/99/51 90/100/51 88/96/51
f 91/101/52 92/99/52 86/102/52
f 91/101/53 96/103/53 93/104/53
f 94/105/54 95/106/54 87/107/54
f 89/97/55 96/103/55 94/105/55
f 90/100/56 93/104/56 96/103/56
f 1/3/57 28/31/57 25/33/57
f 5/2/58 32/108/58 28/31/58
f 10/12/59 26/38/59 32/37/59
f 13/18/60 7/6/60 2/8/60
f 17/109/61 11/9/61 7/11/61
f 22/27/62 3/13/62 11/9/62
f 37/48/63 19/21/63 14/23/63
f 41/58/64 23/28/64 19/24/64
f 46/56/65 15/29/65 23/28/65
f 27/43/66 43/52/66 38/54/66
f 35/42/67 47/55/67 43/52/67
f 31/36/68 39/57/68 47/55/68
f 25/33/69 76/84/69 73/86/69
f 29/32/70 80/90/70 76/84/70
f 34/41/71 74/91/71 80/90/71
f 85/98/72 40/46/72 37/48/72
f 89/97/73 44/53/73 40/49/73
f 94/105/74 38/54/74 44/53/74
f 75/94/75 91/101/75 86/102/75
f 83/92/76 95/106/76 91/101/76
f 79/89/77 87/107/77 95/106/77
f 73/86/78 52/60/78 49/62/78
f 77/85/79 56/66/79 52/60/79
f 82/93/80 50/67/80 56/66/80
f 61/74/81 88/96/81 85/98/81
f 65/73/82 92/99/82 88/96/82
f 70/81/83 86/102/83 92/99/83
f 51/71/84 67/77/84 62/78/84
f 59/70/85 71/79/85 67/77/85
f 55/65/86 63/82/86 71/79/86
f 49/62/87 4/1/87 1/3/87
f 53/61/88 8/110/88 4/1/88
f 58/69/89 2/8/89 8/7/89
f 14/23/90 64/72/90 61/74/90
f 20/111/91 68/75/91 64/72/91
f 16/16/92 62/78/92 68/75/92
f 73/86/93 1/3/93 25/33/93
f 15/29/94 26/38/94 3/13/94
f 62/78/95 2/8/95 51/71/95
f 37/48/96 61/74/96 85/98/96
f 38/54/97 74/91/97 27/43/97
f 86/102/98 50/67/98 75/94/98
f 4/1/99 6/5/99 5/2/99
f 4/1/2 8/110/2 9/4/2
f 7/6/100 9/112/100 8/7/100
f 11/9/4 12/113/4 9/10/4
f 10/12/101 12/113/101 11/9/101
f 5/2/6 6/5/6 12/14/6
f 16/16/102 18/20/102 17/17/102
f 16/16/9 20/111/9 21/19/9
f 19/21/103 21/114/103 20/22/103
f 19/24/11 23/28/11 24/25/11
f 22/27/104 24/25/104 23/28/104
f 22/27/13 17/109/13 18/30/13
f 28/31/105 30/35/105 29/32/105
f 28/31/16 32/108/16 33/34/16
f 31/36/106 33/40/106 32/37/106
f 31/36/18 35/42/18 36/39/18
f 34/41/107 36/39/107 35/42/107
f 29/32/20 30/35/20 36/44/20
f 40/46/108 42/115/108 41/47/108
f 40/49/23 44/53/23 45/50/23
f 43/52/109 45/50/109 44/53/109
f 47/55/25 48/59/25 45/50/25
f 46/56/110 48/59/110 47/55/110
f 41/58/27 42/51/27 48/59/27
f 52/60/111 54/64/111 53/61/111
f 52/60/30 56/66/30 57/63/30
f 55/65/112 57/63/112 56/66/112
f 55/65/32 59/70/32 60/68/32
f 58/69/113 60/68/113 59/70/113
f 53/61/34 54/64/34 60/68/34
f 64/72/114 66/76/114 65/73/114
f 68/75/37 69/80/37 66/76/37
f 67/77/115 69/80/115 68/75/115
f 71/79/39 72/83/39 69/80/39
f 70/81/116 72/83/116 71/79/116
f 70/81/41 65/73/41 66/76/41
f 76/84/117 78/88/117 77/85/117
f 76/84/44 80/90/44 81/87/44
f 79/89/118 81/87/118 80/90/118
f 83/92/46 84/95/46 81/87/46
f 82/93/119 84/95/119 83/92/119
f 77/85/48 78/88/48 84/95/48
f 88/96/120 90/100/120 89/97/120
f 92/99/51 93/104/51 90/100/51
f 91/101/121 93/104/121 92/99/121
f 91/101/53 95/106/53 96/103/53
f 94/105/122 96/103/122 95/106/122
f 89/97/55 90/100/55 96/103/55
f 1/3/57 5/2/57 28/31/57
f 5/2/58 10/15/58 32/108/58
f 10/12/59 3/13/59 26/38/59
f 13/18/60 17/17/60 7/6/60
f 17/109/61 22/27/61 11/9/61
f 22/27/62 15/29/62 3/13/62
f 37/48/63 41/47/63 19/21/63
f 41/58/64 46/56/64 23/28/64
f 46/56/65 39/57/65 15/29/65
f 27/43/66 35/42/66 43/52/66
f 35/42/67 31/36/67 47/55/67
f 31/36/68 26/38/68 39/57/68
f 25/33/69 29/32/69 76/84/69
f 29/32/70 34/45/70 80/90/70
f 34/41/71 27/43/71 74/91/71
f 85/98/72 89/97/72 40/46/72
f 89/97/73 94/105/73 44/53/73
f 94/105/74 87/107/74 38/54/74
f 75/94/75 83/92/75 91/101/75
f 83/92/76 79/89/76 95/106/76
f 79/89/77 74/91/77 87/107/77
f 73/86/78 77/85/78 52/60/78
f 77/85/79 82/93/79 56/66/79
f 82/93/80 75/94/80 50/67/80
f 61/74/81 65/73/81 88/96/81
f 65/73/82 70/81/82 92/99/82
f 70/81/83 63/82/83 86/102/83
f 51/71/84 59/70/84 67/77/84
f 59/70/85 55/65/85 71/79/85
f 55/65/86 50/67/86 63/82/86
f 49/62/87 53/61/87 4/1/87
f 53/61/88 58/69/88 8/110/88
f 58/69/89 51/71/89 2/8/89
f 14/23/90 20/22/90 64/72/90
f 20/111/91 16/16/91 68/75/91
f 16/16/92 13/18/92 62/78/92
f 73/86/93 49/62/93 1/3/93
f 15/29/94 39/57/94 26/38/94
f 62/78/95 13/18/95 2/8/95
f 37/48/96 14/23/96 61/74/96
f 38/54/97 87/107/97 74/91/97
f 86/102/98 63/82/98 50/67/98
