# Blender 5.2.1 LTS
# www.blender.org
mtllib toLandRoad.mtl
o 立方體.007
v -499.620056 -37.476925 330.227509
v -499.253418 -34.449726 342.601532
v -503.191437 -35.987728 331.530487
v -499.504028 -36.999218 336.418427
v -501.470459 -37.767208 330.890167
v -501.279663 -37.276279 336.790771
v -501.152802 -35.144432 341.611053
v -499.369446 -35.888054 340.960419
v -501.184906 -36.493988 339.988464
v -502.781342 -37.220585 331.368408
v -502.598267 -35.708969 337.547302
v -502.202576 -36.891441 337.127472
v -499.253418 -1.646133 342.601532
v -499.233185 0.982224 330.078979
v -503.191437 -1.529037 331.530487
v -499.247009 -0.334027 340.913422
v -501.223541 -1.588012 341.638214
v -501.133972 -0.333887 339.968903
v -501.205994 0.689209 330.788635
v -499.239594 0.630737 336.316895
v -501.128723 0.345336 336.732819
v -502.669037 -1.545030 337.574463
v -502.658905 -0.232575 331.321411
v -502.151611 -0.303627 337.107910
v -499.620056 -37.476925 244.624908
v -503.191437 -35.987728 243.321930
v -499.253418 -34.449726 232.250885
v -501.470459 -37.767208 243.962265
v -499.504028 -36.999218 238.433990
v -501.279663 -37.276279 238.061646
v -502.598267 -35.708969 237.305099
v -502.781342 -37.220585 243.483994
v -502.202576 -36.891441 237.724945
v -499.369446 -35.888054 233.891998
v -501.152802 -35.144432 233.241364
v -501.184906 -36.493988 234.863953
v -499.233185 0.982225 244.773422
v -499.253418 -1.646133 232.250885
v -503.191437 -1.529037 243.321930
v -499.239594 0.630738 238.535522
v -501.205994 0.689209 244.063782
v -501.128723 0.345336 238.119598
v -501.223541 -1.588012 233.214203
v -499.247009 -0.334027 233.938995
v -501.133972 -0.333887 234.883514
v -502.658905 -0.232575 243.531006
v -502.669037 -1.545031 237.277954
v -502.151611 -0.303627 237.744507
v -461.199799 -25.242540 316.874847
v -457.628418 -21.478842 315.695404
v -461.566406 -22.448833 329.503693
v -459.349396 -24.354366 316.251312
v -461.315826 -24.838726 323.146393
v -459.540192 -23.984949 322.284515
v -458.221588 -21.577843 322.124512
v -458.038513 -22.972862 315.818359
v -458.617279 -23.012329 321.979736
v -461.450409 -23.813267 327.781921
v -459.667053 -21.933887 327.192993
v -459.634949 -23.262997 325.548096
v -461.586670 -0.113301 316.995239
v -461.566437 -2.742837 329.503693
v -457.628418 -2.854935 315.695404
v -461.580261 -0.465161 323.228668
v -459.613831 -0.521137 316.333588
v -459.691132 -0.860512 322.331482
v -459.596313 -2.799376 327.170959
v -461.572815 -1.430358 327.820038
v -459.685883 -1.540038 325.563934
v -458.160919 -1.527481 315.856476
v -458.150818 -2.840523 322.102509
v -458.668243 -1.569007 321.995575
v -461.199799 -25.242542 257.977570
v -461.566406 -22.448833 245.348724
v -457.628418 -21.478842 259.157013
v -461.315826 -24.838726 251.706039
v -459.349396 -24.354366 258.601105
v -459.540192 -23.984949 252.567902
v -459.667053 -21.933887 247.659424
v -461.450409 -23.813267 247.070496
v -459.634949 -23.262997 249.304337
v -458.038513 -22.972862 259.034058
v -458.221588 -21.577843 252.727905
v -458.617279 -23.012329 252.872681
v -461.586670 -0.113301 257.857178
v -457.628418 -2.854935 259.157013
v -461.566406 -2.742837 245.348724
v -459.613831 -0.521137 258.518829
v -461.580261 -0.465161 251.623749
v -459.691132 -0.860512 252.520935
v -458.150818 -2.840523 252.749908
v -458.160919 -1.527481 258.995941
v -458.668243 -1.569007 252.856827
v -461.572815 -1.430358 247.032394
v -459.596313 -2.799376 247.681442
v -459.685883 -1.540038 249.288483
vn 0.1809 -0.9806 0.0757
vn 0.1965 -0.9537 0.2275
vn -0.0709 -0.7477 0.6603
vn -0.8409 -0.4077 0.3558
vn -0.9306 -0.3498 0.1079
vn -0.3555 -0.9304 0.0889
vn -0.2998 -0.9246 0.2351
vn -0.2665 0.7615 0.5909
vn -0.1021 0.9736 0.2042
vn -0.1271 0.9903 0.0557
vn -0.5201 0.8522 0.0561
vn -0.9168 0.3903 0.0852
vn -0.8344 0.4612 0.3017
vn -0.4792 0.8591 0.1795
vn 0.1686 -0.9830 -0.0727
vn -0.3555 -0.9304 -0.0889
vn -0.9383 -0.3269 -0.1130
vn -0.8409 -0.4077 -0.3558
vn -0.0709 -0.7477 -0.6603
vn 0.1965 -0.9537 -0.2275
vn -0.2998 -0.9246 -0.2351
vn -0.1271 0.9903 -0.0557
vn -0.1021 0.9736 -0.2042
vn -0.2665 0.7615 -0.5909
vn -0.8344 0.4612 -0.3017
vn -0.9091 0.4088 -0.0797
vn -0.5201 0.8522 -0.0561
vn -0.4792 0.8591 -0.1795
vn 0.4497 -0.8908 0.0657
vn 0.7339 -0.6762 0.0646
vn 0.9626 -0.2572 0.0848
vn 0.9280 -0.2807 0.2449
vn 0.7025 -0.5468 0.4556
vn 0.5019 -0.8413 0.2007
vn 0.7408 -0.6510 0.1655
vn 0.2207 0.9736 0.0579
vn 0.2894 0.9368 0.1965
vn 0.5992 0.6325 0.4908
vn 0.8892 0.3829 0.2505
vn 0.9286 0.3634 0.0749
vn 0.5804 0.8126 0.0535
vn 0.5975 0.7849 0.1640
vn 0.4497 -0.8908 -0.0657
vn 0.5019 -0.8413 -0.2007
vn 0.7218 -0.5179 -0.4591
vn 0.9280 -0.2807 -0.2449
vn 0.9626 -0.2572 -0.0848
vn 0.7339 -0.6762 -0.0646
vn 0.7408 -0.6510 -0.1655
vn 0.2293 0.9718 -0.0546
vn 0.5804 0.8126 -0.0535
vn 0.9286 0.3634 -0.0749
vn 0.8892 0.3829 -0.2505
vn 0.5993 0.6325 -0.4908
vn 0.2894 0.9368 -0.1965
vn 0.5975 0.7849 -0.1640
vn 0.1550 -0.9879 -0.0000
vn -0.3849 -0.9230 -0.0000
vn -0.9489 -0.3156 -0.0000
vn -0.4619 -0.0017 0.8869
vn -0.9421 -0.0022 0.3354
vn -0.9952 -0.0000 0.0981
vn -0.1469 0.9891 -0.0000
vn -0.5357 0.8444 -0.0000
vn -0.9250 0.3799 -0.0000
vn -0.4393 -0.0000 -0.8984
vn -0.9422 -0.0023 -0.3351
vn -0.9963 -0.0021 -0.0861
vn 0.3237 -0.9438 -0.0668
vn 0.3625 -0.9077 -0.2113
vn 0.4232 -0.6960 -0.5801
vn 0.0486 0.9972 -0.0562
vn 0.0994 0.9738 -0.2045
vn 0.2301 0.7679 -0.5978
vn 0.9967 -0.0000 -0.0813
vn 0.9616 -0.0033 -0.2743
vn 0.7640 -0.0021 -0.6453
vn 0.4327 -0.9015 -0.0000
vn 0.7254 -0.6883 -0.0000
vn 0.9643 -0.2647 -0.0000
vn 0.2024 0.9793 -0.0000
vn 0.5694 0.8221 -0.0000
vn 0.9281 0.3723 -0.0000
vn 0.7640 -0.0021 0.6453
vn 0.9616 -0.0033 0.2743
vn 0.9967 -0.0000 0.0813
vn 0.3237 -0.9438 0.0668
vn 0.3625 -0.9077 0.2113
vn 0.4232 -0.6960 0.5801
vn 0.0486 0.9972 0.0562
vn 0.0994 0.9738 0.2046
vn 0.2301 0.7679 0.5978
vn 0.3034 -0.9529 -0.0000
vn -1.0000 -0.0000 -0.0000
vn 0.3283 -0.0000 0.9446
vn 0.0291 0.9996 -0.0000
vn 0.3283 -0.0000 -0.9446
vn 1.0000 -0.0000 -0.0000
vn 0.1686 -0.9830 0.0727
vn -0.0862 -0.7651 0.6381
vn -0.9383 -0.3269 0.1130
vn -0.2834 0.7740 0.5663
vn -0.1364 0.9889 0.0590
vn -0.9091 0.4089 0.0797
vn 0.1809 -0.9806 -0.0757
vn -0.9306 -0.3498 -0.1079
vn -0.0862 -0.7651 -0.6381
vn -0.1364 0.9889 -0.0590
vn -0.2834 0.7740 -0.5663
vn -0.9167 0.3903 -0.0852
vn 0.4592 -0.8857 0.0688
vn 0.9579 -0.2732 0.0882
vn 0.7218 -0.5179 0.4591
vn 0.2293 0.9718 0.0546
vn 0.6015 0.6447 0.4717
vn 0.9211 0.3814 0.0787
vn 0.4592 -0.8857 -0.0688
vn 0.7025 -0.5468 -0.4556
vn 0.9579 -0.2732 -0.0882
vn 0.2207 0.9736 -0.0579
vn 0.9211 0.3814 -0.0787
vn 0.6015 0.6447 -0.4717
vn -0.4393 -0.0000 0.8984
vn -0.9422 -0.0023 0.3351
vn -0.9963 -0.0021 0.0861
vn -0.4619 -0.0017 -0.8869
vn -0.9421 -0.0022 -0.3354
vn -0.9952 -0.0000 -0.0981
vn 0.0994 0.9738 -0.2046
vn 0.9958 -0.0037 -0.0918
vn 0.9617 -0.0032 -0.2740
vn 0.7725 -0.0000 -0.6350
vn 0.7725 -0.0000 0.6350
vn 0.9617 -0.0032 0.2740
vn 0.9958 -0.0037 0.0918
vt 0.144596 0.721051
vt 0.137845 0.735240
vt 0.135409 0.721701
vt 0.146656 0.735484
vt 0.141259 0.750000
vt 0.396843 1.000000
vt 0.375000 0.973940
vt 0.394375 0.978392
vt 0.393289 0.014199
vt 0.380940 0.002277
vt 0.396843 0.000000
vt 0.391535 0.027500
vt 0.375000 0.015127
vt 0.125000 0.722142
vt 0.125000 0.734873
vt 0.615555 0.978035
vt 0.608094 1.000000
vt 0.606596 0.978393
vt 0.625054 0.998617
vt 0.615989 1.000000
vt 0.875000 0.720860
vt 0.851993 0.750000
vt 0.853281 0.720925
vt 0.616627 0.027962
vt 0.625000 0.015999
vt 0.625000 0.029140
vt 0.608465 0.027500
vt 0.616180 0.015170
vt 0.608365 0.014139
vt 0.615989 0.000000
vt 0.144596 0.528949
vt 0.137845 0.514760
vt 0.146656 0.514516
vt 0.125000 0.527858
vt 0.135409 0.528299
vt 0.391535 0.222500
vt 0.375000 0.234873
vt 0.375000 0.222142
vt 0.393289 0.235801
vt 0.375000 0.266259
vt 0.375000 0.276060
vt 0.393318 0.261501
vt 0.394375 0.271607
vt 0.141259 0.500000
vt 0.151060 0.500000
vt 0.125000 0.515127
vt 0.851993 0.500000
vt 0.875000 0.529140
vt 0.853282 0.529075
vt 0.615555 0.271965
vt 0.625018 0.239795
vt 0.625000 0.273007
vt 0.607280 0.261113
vt 0.606596 0.271607
vt 0.608365 0.235861
vt 0.615603 0.256726
vt 0.608465 0.222500
vt 0.616180 0.234830
vt 0.616627 0.222038
vt 0.366523 0.713018
vt 0.356192 0.732338
vt 0.355404 0.713757
vt 0.383363 0.731090
vt 0.366866 0.731324
vt 0.401463 0.731544
vt 0.386857 0.712180
vt 0.402500 0.711803
vt 0.401538 0.760870
vt 0.400921 0.771607
vt 0.372120 0.752880
vt 0.367059 0.757941
vt 0.646719 0.713902
vt 0.629913 0.754913
vt 0.635767 0.713076
vt 0.635180 0.760180
vt 0.611924 0.760661
vt 0.599141 0.760483
vt 0.612906 0.771320
vt 0.600165 0.771607
vt 0.611073 0.736977
vt 0.611399 0.712297
vt 0.597651 0.731476
vt 0.597500 0.711803
vt 0.356192 0.517662
vt 0.366523 0.536982
vt 0.355404 0.536244
vt 0.367059 0.492059
vt 0.366866 0.518676
vt 0.400921 0.478393
vt 0.372120 0.497120
vt 0.401538 0.489130
vt 0.383363 0.518910
vt 0.386857 0.537820
vt 0.401463 0.518456
vt 0.402500 0.538197
vt 0.646718 0.536098
vt 0.629913 0.495087
vt 0.635180 0.489820
vt 0.635767 0.536924
vt 0.611073 0.513023
vt 0.597651 0.518524
vt 0.611399 0.537702
vt 0.597500 0.538197
vt 0.599141 0.489517
vt 0.612906 0.478680
vt 0.600165 0.478393
vt 0.611924 0.489339
vt 0.375000 0.027858
vt 0.625000 0.220860
vt 0.151060 0.750000
vt 0.625000 0.976993
vt 0.375000 0.983741
vt 0.875000 0.734001
vt 0.608094 0.000000
vt 0.875000 0.515999
s 0
usemtl 材質
f 1/1/1 6/2/1 5/3/1
f 4/4/2 9/5/2 6/2/2
f 7/6/3 8/7/3 2/8/3
f 11/9/4 9/10/4 7/11/4
f 3/12/5 12/13/5 11/9/5
f 10/14/6 6/2/6 12/15/6
f 6/2/7 9/5/7 12/15/7
f 16/16/8 17/17/8 13/18/8
f 16/16/9 21/19/9 18/20/9
f 19/21/10 20/22/10 14/23/10
f 23/24/11 21/25/11 19/26/11
f 15/27/12 24/28/12 23/24/12
f 22/29/13 18/30/13 24/28/13
f 18/30/14 21/25/14 24/28/14
f 25/31/15 30/32/15 29/33/15
f 32/34/16 30/32/16 28/35/16
f 26/36/17 33/37/17 32/38/17
f 31/39/18 36/40/18 33/37/18
f 34/41/19 35/42/19 27/43/19
f 29/33/20 36/44/20 34/45/20
f 30/32/21 33/46/21 36/44/21
f 40/47/22 41/48/22 37/49/22
f 44/50/23 42/51/23 40/52/23
f 43/53/24 44/50/24 38/54/24
f 47/55/25 45/56/25 43/53/25
f 39/57/26 48/58/26 47/55/26
f 46/59/27 42/51/27 48/58/27
f 42/51/28 45/56/28 48/58/28
f 52/60/29 53/61/29 49/62/29
f 52/60/30 57/63/30 54/64/30
f 55/65/31 56/66/31 50/67/31
f 59/68/32 57/63/32 55/65/32
f 51/69/33 60/70/33 59/68/33
f 58/71/34 54/64/34 60/70/34
f 54/64/35 57/63/35 60/70/35
f 61/72/36 66/73/36 65/74/36
f 64/75/37 69/76/37 66/73/37
f 67/77/38 68/78/38 62/79/38
f 67/77/39 72/80/39 69/76/39
f 70/81/40 71/82/40 63/83/40
f 65/74/41 72/80/41 70/81/41
f 66/73/42 69/76/42 72/80/42
f 76/84/43 77/85/43 73/86/43
f 80/87/44 78/88/44 76/84/44
f 74/89/45 81/90/45 80/87/45
f 79/91/46 84/92/46 81/90/46
f 82/93/47 83/94/47 75/95/47
f 77/85/48 84/92/48 82/93/48
f 78/88/49 81/90/49 84/92/49
f 85/96/50 90/97/50 89/98/50
f 88/99/51 93/100/51 90/97/51
f 91/101/52 92/102/52 86/103/52
f 95/104/53 93/100/53 91/101/53
f 94/105/54 95/104/54 87/106/54
f 89/98/55 96/107/55 94/105/55
f 90/97/56 93/100/56 96/107/56
f 1/1/57 28/35/57 25/31/57
f 5/3/58 32/34/58 28/35/58
f 10/108/59 26/36/59 32/38/59
f 2/8/60 17/17/60 7/6/60
f 7/11/61 22/29/61 11/9/61
f 11/9/62 15/27/62 3/12/62
f 37/49/63 19/21/63 14/23/63
f 41/109/64 23/24/64 19/26/64
f 46/59/65 15/27/65 23/24/65
f 27/43/66 43/53/66 38/54/66
f 35/42/67 47/55/67 43/53/67
f 31/39/68 39/57/68 47/55/68
f 73/86/69 29/33/69 76/84/69
f 76/84/70 34/45/70 80/87/70
f 80/87/71 27/43/71 74/89/71
f 37/49/72 89/98/72 40/47/72
f 40/52/73 94/105/73 44/50/73
f 94/105/74 38/54/74 44/50/74
f 75/95/75 91/101/75 86/103/75
f 83/94/76 95/104/76 91/101/76
f 79/91/77 87/106/77 95/104/77
f 73/86/78 52/60/78 49/62/78
f 77/85/79 56/66/79 52/60/79
f 82/93/80 50/67/80 56/66/80
f 61/72/81 88/99/81 85/96/81
f 65/74/82 92/102/82 88/99/82
f 70/81/83 86/103/83 92/102/83
f 62/79/84 59/68/84 67/77/84
f 67/77/85 55/65/85 71/82/85
f 71/82/86 50/67/86 63/83/86
f 49/62/87 4/4/87 1/1/87
f 53/61/88 8/110/88 4/4/88
f 58/71/89 2/8/89 8/7/89
f 14/23/90 64/75/90 61/72/90
f 20/111/91 68/78/91 64/75/91
f 68/78/92 13/18/92 62/79/92
f 73/86/93 1/1/93 25/31/93
f 15/27/94 26/36/94 3/12/94
f 51/69/95 13/18/95 2/8/95
f 37/49/96 61/72/96 85/96/96
f 38/54/97 74/89/97 27/43/97
f 86/103/98 50/67/98 75/95/98
f 1/1/99 4/4/99 6/2/99
f 4/4/2 8/110/2 9/5/2
f 7/6/100 9/112/100 8/7/100
f 11/9/4 12/13/4 9/10/4
f 3/12/101 10/108/101 12/13/101
f 10/14/6 5/3/6 6/2/6
f 16/16/102 18/20/102 17/17/102
f 16/16/9 20/111/9 21/19/9
f 19/21/103 21/113/103 20/22/103
f 23/24/11 24/28/11 21/25/11
f 15/27/104 22/29/104 24/28/104
f 22/29/13 17/114/13 18/30/13
f 25/31/105 28/35/105 30/32/105
f 32/34/16 33/46/16 30/32/16
f 26/36/106 31/39/106 33/37/106
f 31/39/18 35/42/18 36/40/18
f 34/41/107 36/40/107 35/42/107
f 29/33/20 30/32/20 36/44/20
f 40/47/108 42/115/108 41/48/108
f 44/50/23 45/56/23 42/51/23
f 43/53/109 45/56/109 44/50/109
f 47/55/25 48/58/25 45/56/25
f 39/57/110 46/59/110 48/58/110
f 46/59/27 41/109/27 42/51/27
f 52/60/111 54/64/111 53/61/111
f 52/60/30 56/66/30 57/63/30
f 55/65/112 57/63/112 56/66/112
f 59/68/32 60/70/32 57/63/32
f 51/69/113 58/71/113 60/70/113
f 58/71/34 53/61/34 54/64/34
f 61/72/114 64/75/114 66/73/114
f 64/75/37 68/78/37 69/76/37
f 67/77/115 69/76/115 68/78/115
f 67/77/39 71/82/39 72/80/39
f 70/81/116 72/80/116 71/82/116
f 65/74/41 66/73/41 72/80/41
f 76/84/117 78/88/117 77/85/117
f 80/87/44 81/90/44 78/88/44
f 74/89/118 79/91/118 81/90/118
f 79/91/46 83/94/46 84/92/46
f 82/93/119 84/92/119 83/94/119
f 77/85/48 78/88/48 84/92/48
f 85/96/120 88/99/120 90/97/120
f 88/99/51 92/102/51 93/100/51
f 91/101/121 93/100/121 92/102/121
f 95/104/53 96/107/53 93/100/53
f 94/105/122 96/107/122 95/104/122
f 89/98/55 90/97/55 96/107/55
f 1/1/57 5/3/57 28/35/57
f 5/3/58 10/14/58 32/34/58
f 10/108/59 3/12/59 26/36/59
f 2/8/123 13/18/123 17/17/123
f 7/11/124 17/114/124 22/29/124
f 11/9/125 22/29/125 15/27/125
f 37/49/63 41/48/63 19/21/63
f 41/109/64 46/59/64 23/24/64
f 46/59/65 39/57/65 15/27/65
f 27/43/126 35/42/126 43/53/126
f 35/42/127 31/39/127 47/55/127
f 31/39/128 26/36/128 39/57/128
f 73/86/69 25/31/69 29/33/69
f 76/84/70 29/33/70 34/45/70
f 80/87/71 34/41/71 27/43/71
f 37/49/72 85/96/72 89/98/72
f 40/52/129 89/98/129 94/105/129
f 94/105/74 87/106/74 38/54/74
f 75/95/130 83/94/130 91/101/130
f 83/94/131 79/91/131 95/104/131
f 79/91/132 74/89/132 87/106/132
f 73/86/78 77/85/78 52/60/78
f 77/85/79 82/93/79 56/66/79
f 82/93/80 75/95/80 50/67/80
f 61/72/81 65/74/81 88/99/81
f 65/74/82 70/81/82 92/102/82
f 70/81/83 63/83/83 86/103/83
f 62/79/133 51/69/133 59/68/133
f 67/77/134 59/68/134 55/65/134
f 71/82/135 55/65/135 50/67/135
f 49/62/87 53/61/87 4/4/87
f 53/61/88 58/71/88 8/110/88
f 58/71/89 51/69/89 2/8/89
f 14/23/90 20/22/90 64/75/90
f 20/111/91 16/16/91 68/78/91
f 68/78/92 16/16/92 13/18/92
f 73/86/93 49/62/93 1/1/93
f 15/27/94 39/57/94 26/36/94
f 51/69/95 62/79/95 13/18/95
f 37/49/96 14/23/96 61/72/96
f 38/54/97 87/106/97 74/89/97
f 86/103/98 63/83/98 50/67/98
