# Blender 5.2.0 LTS
# www.blender.org
mtllib Enemy_Spawn_Point.mtl
o Enemy_Spawn_Point
v 0.000000 0.600000 0.500000
v 0.097545 0.600000 0.490393
v 0.191342 0.600000 0.461939
v 0.277785 0.600000 0.415735
v 0.353553 0.600000 0.353554
v 0.415735 0.600000 0.277784
v 0.461940 0.600000 0.191341
v 0.490393 0.600000 0.097546
v 0.500000 0.600000 0.000000
v 0.490393 0.600000 -0.097546
v 0.461940 0.600000 -0.191341
v 0.415735 0.600000 -0.277784
v 0.353553 0.600000 -0.353554
v 0.277785 0.600000 -0.415735
v 0.191342 0.600000 -0.461939
v 0.097545 0.600000 -0.490393
v 0.000000 0.600000 -0.500000
v -0.097545 0.600000 -0.490393
v -0.191342 0.600000 -0.461939
v -0.277785 0.600000 -0.415735
v -0.353553 0.600000 -0.353554
v -0.415735 0.600000 -0.277784
v -0.461940 0.600000 -0.191341
v -0.490393 0.600000 -0.097546
v -0.500000 0.600000 0.000000
v -0.490393 0.600000 0.097546
v -0.461940 0.600000 0.191341
v -0.415735 0.600000 0.277784
v -0.353553 0.600000 0.353554
v -0.277785 0.600000 0.415735
v -0.191342 0.600000 0.461939
v -0.097545 0.600000 0.490393
v 0.000000 1.800000 0.000000
vn -0.0905 -0.3830 -0.9193
vn -0.2682 -0.3830 -0.8840
vn -0.4354 -0.3830 -0.8147
vn -0.5860 -0.3830 -0.7141
vn -0.7141 -0.3830 -0.5860
vn -0.8147 -0.3830 -0.4354
vn -0.8840 -0.3830 -0.2681
vn -0.9193 -0.3830 -0.0905
vn -0.9193 -0.3830 0.0905
vn -0.8840 -0.3830 0.2682
vn -0.8147 -0.3831 0.4354
vn -0.7141 -0.3830 0.5860
vn -0.5860 -0.3830 0.7141
vn -0.4354 -0.3830 0.8147
vn -0.2682 -0.3830 0.8840
vn -0.0905 -0.3830 0.9193
vn 0.0905 -0.3830 0.9193
vn 0.2682 -0.3830 0.8840
vn 0.4354 -0.3830 0.8147
vn 0.5860 -0.3830 0.7141
vn 0.7141 -0.3830 0.5860
vn 0.8147 -0.3831 0.4354
vn 0.8840 -0.3830 0.2682
vn 0.9193 -0.3830 0.0905
vn 0.9193 -0.3830 -0.0905
vn 0.8840 -0.3830 -0.2681
vn 0.8147 -0.3830 -0.4354
vn 0.7141 -0.3830 -0.5860
vn 0.5860 -0.3830 -0.7141
vn 0.4354 -0.3830 -0.8147
vn -0.0000 1.0000 -0.0000
vn 0.2682 -0.3830 -0.8840
vn 0.0905 -0.3830 -0.9193
s 0
f 1//1 33//1 2//1
f 2//2 33//2 3//2
f 3//3 33//3 4//3
f 4//4 33//4 5//4
f 5//5 33//5 6//5
f 6//6 33//6 7//6
f 7//7 33//7 8//7
f 8//8 33//8 9//8
f 9//9 33//9 10//9
f 10//10 33//10 11//10
f 11//11 33//11 12//11
f 12//12 33//12 13//12
f 13//13 33//13 14//13
f 14//14 33//14 15//14
f 15//15 33//15 16//15
f 16//16 33//16 17//16
f 17//17 33//17 18//17
f 18//18 33//18 19//18
f 19//19 33//19 20//19
f 20//20 33//20 21//20
f 21//21 33//21 22//21
f 22//22 33//22 23//22
f 23//23 33//23 24//23
f 24//24 33//24 25//24
f 25//25 33//25 26//25
f 26//26 33//26 27//26
f 27//27 33//27 28//27
f 28//28 33//28 29//28
f 29//29 33//29 30//29
f 30//30 33//30 31//30
f 1//31 2//31 3//31 4//31 5//31 6//31 7//31 8//31 9//31 10//31 11//31 12//31 13//31 14//31 15//31 16//31 17//31 18//31 19//31 20//31 21//31 22//31 23//31 24//31 25//31 26//31 27//31 28//31 29//31 30//31 31//31 32//31
f 31//32 33//32 32//32
f 32//33 33//33 1//33
