# Blender 5.2.0 LTS
# www.blender.org
mtllib extraction_pad.mtl
o ExtractionPad
v -1.555635 0.025000 -1.405635
v -1.555635 0.375000 -1.405635
v -1.661701 0.025000 -1.449569
v -1.661701 0.375000 -1.449569
v -1.705635 0.025000 -1.555635
v -1.705635 0.375000 -1.555635
v -1.661701 0.025000 -1.661701
v -1.661701 0.375000 -1.661701
v -1.555635 0.025000 -1.705635
v -1.555635 0.375000 -1.705635
v -1.449569 0.025000 -1.661701
v -1.449569 0.375000 -1.661701
v -1.405635 0.025000 -1.555635
v -1.405635 0.375000 -1.555635
v -1.449569 0.025000 -1.449569
v -1.449569 0.375000 -1.449569
v 0.000000 0.000000 2.500000
v 0.000000 0.150000 2.500000
v -0.956709 0.000000 2.309699
v -0.956709 0.150000 2.309699
v -1.767767 0.000000 1.767767
v -1.767767 0.150000 1.767767
v -2.309699 0.000000 0.956709
v -2.309699 0.150000 0.956709
v -2.500000 0.000000 0.000000
v -2.500000 0.150000 0.000000
v -2.309699 0.000000 -0.956709
v -2.309699 0.150000 -0.956709
v -1.767767 0.000000 -1.767767
v -1.767767 0.150000 -1.767767
v -0.956709 0.000000 -2.309699
v -0.956709 0.150000 -2.309699
v 0.000000 0.000000 -2.500000
v 0.000000 0.150000 -2.500000
v 0.956709 0.000000 -2.309699
v 0.956709 0.150000 -2.309699
v 1.767767 0.000000 -1.767767
v 1.767767 0.150000 -1.767767
v 2.309699 0.000000 -0.956709
v 2.309699 0.150000 -0.956709
v 2.500000 0.000000 0.000000
v 2.500000 0.150000 0.000000
v 2.309699 0.000000 0.956709
v 2.309699 0.150000 0.956709
v 1.767767 0.000000 1.767767
v 1.767767 0.150000 1.767767
v 0.956709 0.000000 2.309699
v 0.956709 0.150000 2.309699
v -1.555635 0.025000 1.705635
v -1.555635 0.375000 1.705635
v -1.661701 0.025000 1.661701
v -1.661701 0.375000 1.661701
v -1.705635 0.025000 1.555635
v -1.705635 0.375000 1.555635
v -1.661701 0.025000 1.449569
v -1.661701 0.375000 1.449569
v -1.555635 0.025000 1.405635
v -1.555635 0.375000 1.405635
v -1.449569 0.025000 1.449569
v -1.449569 0.375000 1.449569
v -1.405635 0.025000 1.555635
v -1.405635 0.375000 1.555635
v -1.449569 0.025000 1.661701
v -1.449569 0.375000 1.661701
v 1.555635 0.025000 1.705635
v 1.555635 0.375000 1.705635
v 1.449569 0.025000 1.661701
v 1.449569 0.375000 1.661701
v 1.405635 0.025000 1.555635
v 1.405635 0.375000 1.555635
v 1.449569 0.025000 1.449569
v 1.449569 0.375000 1.449569
v 1.555635 0.025000 1.405635
v 1.555635 0.375000 1.405635
v 1.661701 0.025000 1.449569
v 1.661701 0.375000 1.449569
v 1.705635 0.025000 1.555635
v 1.705635 0.375000 1.555635
v 1.661701 0.025000 1.661701
v 1.661701 0.375000 1.661701
v 1.555635 0.025000 -1.405635
v 1.555635 0.375000 -1.405635
v 1.449569 0.025000 -1.449569
v 1.449569 0.375000 -1.449569
v 1.405635 0.025000 -1.555635
v 1.405635 0.375000 -1.555635
v 1.449569 0.025000 -1.661701
v 1.449569 0.375000 -1.661701
v 1.555635 0.025000 -1.705635
v 1.555635 0.375000 -1.705635
v 1.661701 0.025000 -1.661701
v 1.661701 0.375000 -1.661701
v 1.705635 0.025000 -1.555635
v 1.705635 0.375000 -1.555635
v 1.661701 0.025000 -1.449569
v 1.661701 0.375000 -1.449569
vn -0.3827 -0.0000 0.9239
vn -0.9239 -0.0000 0.3827
vn -0.9239 -0.0000 -0.3827
vn -0.3827 -0.0000 -0.9239
vn 0.3827 -0.0000 -0.9239
vn 0.9239 -0.0000 -0.3827
vn -0.0000 1.0000 -0.0000
vn 0.9239 -0.0000 0.3827
vn 0.3827 -0.0000 0.9239
vn -0.0000 -1.0000 -0.0000
vn -0.1951 -0.0000 0.9808
vn -0.5556 -0.0000 0.8315
vn -0.8315 -0.0000 0.5556
vn -0.9808 -0.0000 0.1951
vn -0.9808 -0.0000 -0.1951
vn -0.8315 -0.0000 -0.5556
vn -0.5556 -0.0000 -0.8315
vn -0.1951 -0.0000 -0.9808
vn 0.1951 -0.0000 -0.9808
vn 0.5556 -0.0000 -0.8315
vn 0.8315 -0.0000 -0.5556
vn 0.9808 -0.0000 -0.1951
vn 0.9808 -0.0000 0.1951
vn 0.8315 -0.0000 0.5556
vn 0.5556 -0.0000 0.8315
vn 0.1951 -0.0000 0.9808
vt 0.534720 0.847480
vt 0.534720 0.812342
vt 0.546246 0.812342
vt 0.546246 0.847480
vt 0.554396 0.812342
vt 0.554396 0.847480
vt 0.562070 0.594472
vt 0.562070 0.559334
vt 0.573596 0.559334
vt 0.573596 0.594472
vt 0.562070 0.337599
vt 0.562070 0.302461
vt 0.570858 0.302461
vt 0.570858 0.337599
vt 0.582345 0.302461
vt 0.582345 0.337599
vt 0.562070 0.380411
vt 0.562070 0.345273
vt 0.570858 0.345273
vt 0.570858 0.380411
vt 0.534720 0.925792
vt 0.526570 0.917642
vt 0.526570 0.906116
vt 0.534720 0.897967
vt 0.546246 0.897967
vt 0.554396 0.906116
vt 0.554396 0.917642
vt 0.546246 0.925792
vt 0.582345 0.345273
vt 0.582345 0.380411
vt 0.526571 0.847480
vt 0.526571 0.812342
vt 0.526570 0.953142
vt 0.526570 0.941616
vt 0.534720 0.933466
vt 0.546246 0.933466
vt 0.554396 0.941616
vt 0.554396 0.953142
vt 0.546246 0.961292
vt 0.534720 0.961292
vt 0.518896 0.277359
vt 0.503837 0.277359
vt 0.503837 0.181311
vt 0.518896 0.181311
vt 0.503837 0.085263
vt 0.518896 0.085263
vt 0.503837 0.003837
vt 0.518896 0.003837
vt 0.518896 0.721406
vt 0.503837 0.721406
vt 0.503837 0.639980
vt 0.518896 0.639980
vt 0.503837 0.543932
vt 0.518896 0.543932
vt 0.503837 0.447884
vt 0.518896 0.447884
vt 0.503837 0.366459
vt 0.518896 0.366459
vt 0.541630 0.357603
vt 0.526571 0.357603
vt 0.526571 0.272014
vt 0.541630 0.272014
vt 0.526571 0.174728
vt 0.541630 0.174728
vt 0.526571 0.080557
vt 0.541630 0.080557
vt 0.526571 0.003837
vt 0.541630 0.003837
vt 0.541630 0.719043
vt 0.526571 0.719043
vt 0.526571 0.633454
vt 0.541630 0.633454
vt 0.526571 0.536168
vt 0.541630 0.536168
vt 0.526571 0.441997
vt 0.541630 0.441997
vt 0.041313 0.389440
vt 0.003837 0.298965
vt 0.003837 0.201035
vt 0.041313 0.110560
vt 0.110560 0.041313
vt 0.201035 0.003837
vt 0.298965 0.003837
vt 0.389440 0.041313
vt 0.458687 0.110560
vt 0.496163 0.201035
vt 0.496163 0.298965
vt 0.458687 0.389440
vt 0.389440 0.458687
vt 0.298965 0.496163
vt 0.201035 0.496163
vt 0.110560 0.458687
vt 0.526571 0.365277
vt 0.541630 0.365277
vt 0.518896 0.358784
vt 0.503837 0.358784
vt 0.003837 0.798965
vt 0.003837 0.701035
vt 0.041313 0.610560
vt 0.110560 0.541313
vt 0.201035 0.503837
vt 0.298965 0.503837
vt 0.389440 0.541313
vt 0.458687 0.610560
vt 0.496163 0.701035
vt 0.496163 0.798965
vt 0.458687 0.889440
vt 0.389440 0.958687
vt 0.298965 0.996163
vt 0.201035 0.996163
vt 0.110560 0.958687
vt 0.041313 0.889440
vt 0.534720 0.890292
vt 0.534720 0.855154
vt 0.546246 0.855154
vt 0.546246 0.890292
vt 0.554396 0.855154
vt 0.554396 0.890292
vt 0.562070 0.637284
vt 0.562070 0.602146
vt 0.573596 0.602146
vt 0.573596 0.637284
vt 0.562070 0.251974
vt 0.562070 0.216836
vt 0.570858 0.216836
vt 0.570858 0.251974
vt 0.582345 0.216836
vt 0.582345 0.251974
vt 0.562070 0.423223
vt 0.562070 0.388085
vt 0.570858 0.388085
vt 0.570858 0.423223
vt 0.570220 0.031663
vt 0.562070 0.023513
vt 0.562070 0.011987
vt 0.570220 0.003837
vt 0.581746 0.003837
vt 0.589896 0.011987
vt 0.589896 0.023513
vt 0.581746 0.031663
vt 0.582345 0.388085
vt 0.582345 0.423223
vt 0.526570 0.890292
vt 0.526570 0.855154
vt 0.562070 0.059013
vt 0.562070 0.047487
vt 0.570220 0.039337
vt 0.581746 0.039337
vt 0.589896 0.047487
vt 0.589896 0.059013
vt 0.581746 0.067163
vt 0.570220 0.067163
vt 0.534721 0.761856
vt 0.534721 0.726718
vt 0.546246 0.726718
vt 0.546246 0.761856
vt 0.554396 0.726718
vt 0.554396 0.761856
vt 0.562070 0.680096
vt 0.562070 0.644958
vt 0.573596 0.644958
vt 0.573596 0.680096
vt 0.562070 0.466035
vt 0.562070 0.430897
vt 0.570857 0.430897
vt 0.570857 0.466035
vt 0.582345 0.430897
vt 0.582345 0.466035
vt 0.562070 0.508848
vt 0.562070 0.473710
vt 0.570858 0.473710
vt 0.570858 0.508848
vt 0.570220 0.173662
vt 0.562070 0.165512
vt 0.562070 0.153987
vt 0.570220 0.145837
vt 0.581746 0.145837
vt 0.589896 0.153987
vt 0.589896 0.165512
vt 0.581746 0.173662
vt 0.582345 0.473710
vt 0.582345 0.508848
vt 0.526571 0.761856
vt 0.526571 0.726718
vt 0.562070 0.201012
vt 0.562070 0.189486
vt 0.570220 0.181336
vt 0.581746 0.181336
vt 0.589896 0.189486
vt 0.589896 0.201012
vt 0.581746 0.209162
vt 0.570220 0.209162
vt 0.534720 0.804668
vt 0.534720 0.769530
vt 0.546246 0.769530
vt 0.546246 0.804668
vt 0.554396 0.769530
vt 0.554396 0.804668
vt 0.562070 0.722909
vt 0.562070 0.687771
vt 0.573596 0.687771
vt 0.573596 0.722909
vt 0.562070 0.551660
vt 0.562070 0.516522
vt 0.570858 0.516522
vt 0.570858 0.551660
vt 0.582345 0.516522
vt 0.582345 0.551660
vt 0.562070 0.294787
vt 0.562070 0.259649
vt 0.570858 0.259649
vt 0.570858 0.294787
vt 0.581746 0.102663
vt 0.570220 0.102663
vt 0.562070 0.094513
vt 0.562070 0.082987
vt 0.570220 0.074837
vt 0.581746 0.074837
vt 0.589896 0.082987
vt 0.589896 0.094513
vt 0.582345 0.259649
vt 0.582345 0.294787
vt 0.526570 0.804668
vt 0.526570 0.769530
vt 0.570220 0.138162
vt 0.562070 0.130012
vt 0.562070 0.118487
vt 0.570220 0.110337
vt 0.581746 0.110337
vt 0.589896 0.118487
vt 0.589896 0.130012
vt 0.581746 0.138162
s 0
f 1/1/1 2/2/1 4/3/1 3/4/1
f 3/4/2 4/3/2 6/5/2 5/6/2
f 5/7/3 6/8/3 8/9/3 7/10/3
f 7/11/4 8/12/4 10/13/4 9/14/4
f 9/14/5 10/13/5 12/15/5 11/16/5
f 11/17/6 12/18/6 14/19/6 13/20/6
f 4/21/7 2/22/7 16/23/7 14/24/7 12/25/7 10/26/7 8/27/7 6/28/7
f 13/20/8 14/19/8 16/29/8 15/30/8
f 15/31/9 16/32/9 2/2/9 1/1/9
f 1/33/10 3/34/10 5/35/10 7/36/10 9/37/10 11/38/10 13/39/10 15/40/10
f 17/41/11 18/42/11 20/43/11 19/44/11
f 19/44/12 20/43/12 22/45/12 21/46/12
f 21/46/13 22/45/13 24/47/13 23/48/13
f 23/49/14 24/50/14 26/51/14 25/52/14
f 25/52/15 26/51/15 28/53/15 27/54/15
f 27/54/16 28/53/16 30/55/16 29/56/16
f 29/56/17 30/55/17 32/57/17 31/58/17
f 31/59/18 32/60/18 34/61/18 33/62/18
f 33/62/19 34/61/19 36/63/19 35/64/19
f 35/64/20 36/63/20 38/65/20 37/66/20
f 37/66/21 38/65/21 40/67/21 39/68/21
f 39/69/22 40/70/22 42/71/22 41/72/22
f 41/72/23 42/71/23 44/73/23 43/74/23
f 43/74/24 44/73/24 46/75/24 45/76/24
f 20/77/7 18/78/7 48/79/7 46/80/7 44/81/7 42/82/7 40/83/7 38/84/7 36/85/7 34/86/7 32/87/7 30/88/7 28/89/7 26/90/7 24/91/7 22/92/7
f 45/76/25 46/75/25 48/93/25 47/94/25
f 47/95/26 48/96/26 18/42/26 17/41/26
f 17/97/10 19/98/10 21/99/10 23/100/10 25/101/10 27/102/10 29/103/10 31/104/10 33/105/10 35/106/10 37/107/10 39/108/10 41/109/10 43/110/10 45/111/10 47/112/10
f 49/113/1 50/114/1 52/115/1 51/116/1
f 51/116/2 52/115/2 54/117/2 53/118/2
f 53/119/3 54/120/3 56/121/3 55/122/3
f 55/123/4 56/124/4 58/125/4 57/126/4
f 57/126/5 58/125/5 60/127/5 59/128/5
f 59/129/6 60/130/6 62/131/6 61/132/6
f 52/133/7 50/134/7 64/135/7 62/136/7 60/137/7 58/138/7 56/139/7 54/140/7
f 61/132/8 62/131/8 64/141/8 63/142/8
f 63/143/9 64/144/9 50/114/9 49/113/9
f 49/145/10 51/146/10 53/147/10 55/148/10 57/149/10 59/150/10 61/151/10 63/152/10
f 65/153/1 66/154/1 68/155/1 67/156/1
f 67/156/2 68/155/2 70/157/2 69/158/2
f 69/159/3 70/160/3 72/161/3 71/162/3
f 71/163/4 72/164/4 74/165/4 73/166/4
f 73/166/5 74/165/5 76/167/5 75/168/5
f 75/169/6 76/170/6 78/171/6 77/172/6
f 68/173/7 66/174/7 80/175/7 78/176/7 76/177/7 74/178/7 72/179/7 70/180/7
f 77/172/8 78/171/8 80/181/8 79/182/8
f 79/183/9 80/184/9 66/154/9 65/153/9
f 65/185/10 67/186/10 69/187/10 71/188/10 73/189/10 75/190/10 77/191/10 79/192/10
f 81/193/1 82/194/1 84/195/1 83/196/1
f 83/196/2 84/195/2 86/197/2 85/198/2
f 85/199/3 86/200/3 88/201/3 87/202/3
f 87/203/4 88/204/4 90/205/4 89/206/4
f 89/206/5 90/205/5 92/207/5 91/208/5
f 91/209/6 92/210/6 94/211/6 93/212/6
f 84/213/7 82/214/7 96/215/7 94/216/7 92/217/7 90/218/7 88/219/7 86/220/7
f 93/212/8 94/211/8 96/221/8 95/222/8
f 95/223/9 96/224/9 82/194/9 81/193/9
f 81/225/10 83/226/10 85/227/10 87/228/10 89/229/10 91/230/10 93/231/10 95/232/10
