# Blender 5.2.0 LTS
# www.blender.org
mtllib shooting_target.mtl
o ShootingTarget
v -0.333554 -0.050000 -0.104184
v -0.333554 0.550000 -0.104184
v -0.375816 -0.050000 -0.013554
v -0.375816 0.550000 -0.013554
v -0.424184 -0.050000 -0.146446
v -0.424184 0.550000 -0.146446
v -0.466446 -0.050000 -0.055816
v -0.466446 0.550000 -0.055816
v 0.000000 2.200000 0.050000
v 0.000000 2.200000 -0.050000
v -0.194114 2.174444 0.050000
v -0.194114 2.174444 -0.050000
v -0.375000 2.099519 0.050000
v -0.375000 2.099519 -0.050000
v -0.530330 1.980330 0.050000
v -0.530330 1.980330 -0.050000
v -0.649519 1.825000 0.050000
v -0.649519 1.825000 -0.050000
v -0.724444 1.644114 0.050000
v -0.724444 1.644114 -0.050000
v -0.750000 1.450000 0.050000
v -0.750000 1.450000 -0.050000
v -0.724444 1.255886 0.050000
v -0.724444 1.255886 -0.050000
v -0.649519 1.075000 0.050000
v -0.649519 1.075000 -0.050000
v -0.530330 0.919670 0.050000
v -0.530330 0.919670 -0.050000
v -0.375000 0.800481 0.050000
v -0.375000 0.800481 -0.050000
v -0.194114 0.725556 0.050000
v -0.194114 0.725556 -0.050000
v 0.000000 0.700000 0.050000
v 0.000000 0.700000 -0.050000
v 0.194114 0.725556 0.050000
v 0.194114 0.725556 -0.050000
v 0.375000 0.800481 0.050000
v 0.375000 0.800481 -0.050000
v 0.530330 0.919670 0.050000
v 0.530330 0.919670 -0.050000
v 0.649519 1.075000 0.050000
v 0.649519 1.075000 -0.050000
v 0.724444 1.255886 0.050000
v 0.724445 1.255886 -0.050000
v 0.750000 1.450000 0.050000
v 0.750000 1.450000 -0.050000
v 0.724444 1.644114 0.050000
v 0.724445 1.644114 -0.050000
v 0.649519 1.825000 0.050000
v 0.649519 1.825000 -0.050000
v 0.530330 1.980330 0.050000
v 0.530330 1.980330 -0.050000
v 0.375000 2.099519 0.050000
v 0.375000 2.099519 -0.050000
v 0.194114 2.174444 0.050000
v 0.194114 2.174444 -0.050000
v 0.060000 0.000000 -0.140000
v 0.060000 1.500000 -0.140000
v 0.060000 0.000000 -0.020000
v 0.060000 1.500000 -0.020000
v -0.060000 0.000000 -0.140000
v -0.060000 1.500000 -0.140000
v -0.060000 0.000000 -0.020000
v -0.060000 1.500000 -0.020000
v 0.424184 -0.050000 -0.146446
v 0.424184 0.550000 -0.146446
v 0.466446 -0.050000 -0.055816
v 0.466446 0.550000 -0.055816
v 0.333554 -0.050000 -0.104185
v 0.333554 0.550000 -0.104185
v 0.375816 -0.050000 -0.013554
v 0.375816 0.550000 -0.013554
vn 0.9063 -0.0000 0.4226
vn -0.4226 -0.0000 0.9063
vn -0.9063 -0.0000 -0.4226
vn 0.4226 -0.0000 -0.9063
vn -0.0000 -1.0000 -0.0000
vn -0.0000 1.0000 -0.0000
vn -0.1305 0.9914 -0.0000
vn -0.3827 0.9239 -0.0000
vn -0.6088 0.7934 -0.0000
vn -0.7934 0.6088 -0.0000
vn -0.9239 0.3827 -0.0000
vn -0.9914 0.1305 -0.0000
vn -0.9914 -0.1305 -0.0000
vn -0.9239 -0.3827 -0.0000
vn -0.7934 -0.6088 -0.0000
vn -0.6088 -0.7934 -0.0000
vn -0.3827 -0.9239 -0.0000
vn -0.1305 -0.9914 -0.0000
vn 0.1305 -0.9914 -0.0000
vn 0.3827 -0.9239 -0.0000
vn 0.6088 -0.7934 -0.0000
vn 0.7934 -0.6088 -0.0000
vn 0.9239 -0.3827 -0.0000
vn 0.9914 -0.1305 -0.0000
vn 0.9914 0.1305 -0.0000
vn 0.9239 0.3827 -0.0000
vn 0.7934 0.6088 -0.0000
vn 0.6088 0.7934 -0.0000
vn -0.0000 -0.0000 -1.0000
vn 0.3827 0.9239 -0.0000
vn 0.1305 0.9914 -0.0000
vn -0.0000 -0.0000 1.0000
vn 1.0000 -0.0000 -0.0000
vn -1.0000 -0.0000 -0.0000
vn 0.9063 -0.0000 -0.4226
vn 0.4226 -0.0000 0.9063
vn -0.9063 -0.0000 0.4226
vn -0.4226 -0.0000 -0.9063
vt 0.602097 0.843263
vt 0.602097 0.777326
vt 0.661856 0.777326
vt 0.661856 0.843263
vt 0.602097 0.534794
vt 0.602097 0.468856
vt 0.661856 0.468856
vt 0.661856 0.534794
vt 0.602097 0.689028
vt 0.602097 0.623091
vt 0.661856 0.623091
vt 0.661856 0.689028
vt 0.602097 0.611911
vt 0.602097 0.545974
vt 0.661856 0.545974
vt 0.661856 0.611911
vt 0.667653 0.148935
vt 0.602097 0.148581
vt 0.602097 0.082727
vt 0.667653 0.083080
vt 0.602097 0.005615
vt 0.668007 0.005590
vt 0.668007 0.071521
vt 0.602097 0.071546
vt 0.423494 0.481110
vt 0.357557 0.481110
vt 0.357557 0.353268
vt 0.423494 0.353268
vt 0.357557 0.234316
vt 0.423494 0.234316
vt 0.357557 0.132358
vt 0.423494 0.132358
vt 0.357557 0.054344
vt 0.423494 0.054344
vt 0.357557 0.005590
vt 0.423494 0.005590
vt 0.602097 0.920381
vt 0.602097 0.854443
vt 0.623429 0.854443
vt 0.623429 0.920381
vt 0.644761 0.854443
vt 0.644761 0.920381
vt 0.500612 0.954240
vt 0.434675 0.954240
vt 0.434675 0.907534
vt 0.500612 0.907534
vt 0.434675 0.831515
vt 0.500612 0.831515
vt 0.434675 0.731363
vt 0.500612 0.731363
vt 0.434675 0.613904
vt 0.500612 0.613904
vt 0.434675 0.487141
vt 0.500612 0.487141
vt 0.434675 0.359714
vt 0.500612 0.359714
vt 0.434675 0.240306
vt 0.500612 0.240306
vt 0.434675 0.137055
vt 0.500612 0.137055
vt 0.434675 0.056998
vt 0.500612 0.056998
vt 0.434675 0.005590
vt 0.500612 0.005590
vt 0.721852 0.005590
vt 0.721852 0.071527
vt 0.700520 0.071527
vt 0.700520 0.005590
vt 0.679188 0.071527
vt 0.679188 0.005590
vt 0.423494 0.960474
vt 0.357557 0.960474
vt 0.357557 0.910469
vt 0.423494 0.910469
vt 0.357557 0.831381
vt 0.423494 0.831381
vt 0.357557 0.728600
vt 0.423494 0.728600
vt 0.340761 0.370291
vt 0.346377 0.498192
vt 0.346377 0.626216
vt 0.340761 0.745639
vt 0.329913 0.848322
vt 0.314571 0.927267
vt 0.295781 0.977095
vt 0.274824 0.994410
vt 0.253127 0.978031
vt 0.232170 0.929075
vt 0.213380 0.850879
vt 0.198038 0.748771
vt 0.187189 0.629709
vt 0.181574 0.501808
vt 0.181574 0.373784
vt 0.187189 0.254361
vt 0.198038 0.151678
vt 0.213380 0.072733
vt 0.232169 0.022905
vt 0.253127 0.005590
vt 0.274824 0.021969
vt 0.295781 0.070924
vt 0.314571 0.149121
vt 0.329913 0.251229
vt 0.357557 0.609129
vt 0.423494 0.609129
vt 0.005590 0.498192
vt 0.011206 0.370291
vt 0.022054 0.251229
vt 0.037396 0.149121
vt 0.056186 0.070924
vt 0.077143 0.021969
vt 0.098840 0.005590
vt 0.119798 0.022905
vt 0.138588 0.072733
vt 0.153930 0.151678
vt 0.164778 0.254361
vt 0.170393 0.373784
vt 0.170393 0.501808
vt 0.164778 0.629709
vt 0.153930 0.748771
vt 0.138588 0.850879
vt 0.119798 0.929075
vt 0.098840 0.978031
vt 0.077143 0.994410
vt 0.056186 0.977095
vt 0.037396 0.927267
vt 0.022054 0.848322
vt 0.011206 0.745639
vt 0.005590 0.626216
vt 0.511792 0.522480
vt 0.511792 0.357637
vt 0.590917 0.357637
vt 0.590917 0.522480
vt 0.511792 0.170433
vt 0.511792 0.005590
vt 0.590917 0.005590
vt 0.590917 0.170433
vt 0.511792 0.346456
vt 0.511792 0.181613
vt 0.590917 0.181613
vt 0.590917 0.346456
vt 0.511792 0.698503
vt 0.511792 0.533660
vt 0.590917 0.533660
vt 0.590917 0.698503
vt 0.511792 0.799988
vt 0.590361 0.799988
vt 0.590361 0.879112
vt 0.511792 0.879112
vt 0.590878 0.788808
vt 0.511792 0.788808
vt 0.511792 0.709683
vt 0.590878 0.709683
vt 0.602097 0.766146
vt 0.602097 0.700209
vt 0.661856 0.700209
vt 0.661856 0.766146
vt 0.602097 0.303441
vt 0.602097 0.237504
vt 0.661856 0.237504
vt 0.661856 0.303441
vt 0.602097 0.457676
vt 0.602097 0.391739
vt 0.661856 0.391739
vt 0.661856 0.457676
vt 0.602097 0.380559
vt 0.602097 0.314622
vt 0.661856 0.314622
vt 0.661856 0.380559
vt 0.602097 0.160469
vt 0.667653 0.160115
vt 0.667653 0.225970
vt 0.602097 0.226324
vt 0.577724 0.890293
vt 0.577724 0.956203
vt 0.511792 0.956228
vt 0.511792 0.890318
s 0
f 1/1/1 2/2/1 4/3/1 3/4/1
f 3/5/2 4/6/2 8/7/2 7/8/2
f 7/9/3 8/10/3 6/11/3 5/12/3
f 5/13/4 6/14/4 2/15/4 1/16/4
f 3/17/5 7/18/5 5/19/5 1/20/5
f 8/21/6 4/22/6 2/23/6 6/24/6
f 9/25/7 10/26/7 12/27/7 11/28/7
f 11/28/8 12/27/8 14/29/8 13/30/8
f 13/30/9 14/29/9 16/31/9 15/32/9
f 15/32/10 16/31/10 18/33/10 17/34/10
f 17/34/11 18/33/11 20/35/11 19/36/11
f 19/37/12 20/38/12 22/39/12 21/40/12
f 21/40/13 22/39/13 24/41/13 23/42/13
f 23/43/14 24/44/14 26/45/14 25/46/14
f 25/46/15 26/45/15 28/47/15 27/48/15
f 27/48/16 28/47/16 30/49/16 29/50/16
f 29/50/17 30/49/17 32/51/17 31/52/17
f 31/52/18 32/51/18 34/53/18 33/54/18
f 33/54/19 34/53/19 36/55/19 35/56/19
f 35/56/20 36/55/20 38/57/20 37/58/20
f 37/58/21 38/57/21 40/59/21 39/60/21
f 39/60/22 40/59/22 42/61/22 41/62/22
f 41/62/23 42/61/23 44/63/23 43/64/23
f 43/65/24 44/66/24 46/67/24 45/68/24
f 45/68/25 46/67/25 48/69/25 47/70/25
f 47/71/26 48/72/26 50/73/26 49/74/26
f 49/74/27 50/73/27 52/75/27 51/76/27
f 51/76/28 52/75/28 54/77/28 53/78/28
f 12/79/29 10/80/29 56/81/29 54/82/29 52/83/29 50/84/29 48/85/29 46/86/29 44/87/29 42/88/29 40/89/29 38/90/29 36/91/29 34/92/29 32/93/29 30/94/29 28/95/29 26/96/29 24/97/29 22/98/29 20/99/29 18/100/29 16/101/29 14/102/29
f 53/78/30 54/77/30 56/103/30 55/104/30
f 55/104/31 56/103/31 10/26/31 9/25/31
f 9/105/32 11/106/32 13/107/32 15/108/32 17/109/32 19/110/32 21/111/32 23/112/32 25/113/32 27/114/32 29/115/32 31/116/32 33/117/32 35/118/32 37/119/32 39/120/32 41/121/32 43/122/32 45/123/32 47/124/32 49/125/32 51/126/32 53/127/32 55/128/32
f 57/129/33 58/130/33 60/131/33 59/132/33
f 59/133/32 60/134/32 64/135/32 63/136/32
f 63/137/34 64/138/34 62/139/34 61/140/34
f 61/141/29 62/142/29 58/143/29 57/144/29
f 59/145/5 63/146/5 61/147/5 57/148/5
f 64/149/6 60/150/6 58/151/6 62/152/6
f 65/153/35 66/154/35 68/155/35 67/156/35
f 67/157/36 68/158/36 72/159/36 71/160/36
f 71/161/37 72/162/37 70/163/37 69/164/37
f 69/165/38 70/166/38 66/167/38 65/168/38
f 67/169/5 71/170/5 69/171/5 65/172/5
f 72/173/6 68/174/6 66/175/6 70/176/6
