# Blender 5.2.0 LTS
# www.blender.org
mtllib signpost.mtl
o SignPost
v 1.000000 1.860000 -0.140000
v 1.000000 1.940000 -0.140000
v 1.000000 1.860000 0.140000
v 1.000000 1.940000 0.140000
v -1.000000 1.860000 -0.140000
v -1.000000 1.940000 -0.140000
v -1.000000 1.860000 0.140000
v -1.000000 1.940000 0.140000
v 0.900000 0.950000 -0.060000
v 0.900000 1.850000 -0.060000
v 0.900000 0.950000 0.060000
v 0.900000 1.850000 0.060000
v -0.900000 0.950000 -0.060000
v -0.900000 1.850000 -0.060000
v -0.900000 0.950000 0.060000
v -0.900000 1.850000 0.060000
v 0.820000 -0.000000 -0.080000
v 0.820000 1.600000 -0.080000
v 0.820000 -0.000000 0.080000
v 0.820000 1.600000 0.080000
v 0.680000 -0.000000 -0.080000
v 0.680000 1.600000 -0.080000
v 0.680000 -0.000000 0.080000
v 0.680000 1.600000 0.080000
v -0.680000 -0.000000 -0.080000
v -0.680000 1.600000 -0.080000
v -0.680000 -0.000000 0.080000
v -0.680000 1.600000 0.080000
v -0.820000 -0.000000 -0.080000
v -0.820000 1.600000 -0.080000
v -0.820000 -0.000000 0.080000
v -0.820000 1.600000 0.080000
vn 1.0000 -0.0000 -0.0000
vn -0.0000 -0.0000 1.0000
vn -1.0000 -0.0000 -0.0000
vn -0.0000 -0.0000 -1.0000
vn -0.0000 -1.0000 -0.0000
vn -0.0000 1.0000 -0.0000
vt 0.400805 0.053310
vt 0.351173 0.053310
vt 0.351173 0.003678
vt 0.400805 0.003678
vt 0.400805 0.110299
vt 0.351173 0.110299
vt 0.351173 0.060666
vt 0.400805 0.060666
vt 0.400805 0.167287
vt 0.351173 0.167287
vt 0.351173 0.117655
vt 0.400805 0.117655
vt 0.400805 0.224275
vt 0.351173 0.224275
vt 0.351173 0.174643
vt 0.400805 0.174643
vt 0.400805 0.231631
vt 0.400805 0.281263
vt 0.351173 0.281263
vt 0.351173 0.231631
vt 0.400805 0.288619
vt 0.400805 0.338252
vt 0.351173 0.338252
vt 0.351173 0.288619
vt 0.250597 0.562040
vt 0.250597 0.003678
vt 0.271868 0.003678
vt 0.271868 0.562040
vt 0.146547 0.562040
vt 0.146547 0.003678
vt 0.191216 0.003678
vt 0.191216 0.562040
vt 0.279224 0.562040
vt 0.279224 0.003678
vt 0.300495 0.003678
vt 0.300495 0.562040
vt 0.198572 0.562040
vt 0.198572 0.003678
vt 0.243241 0.003678
vt 0.243241 0.562040
vt 0.372444 0.345608
vt 0.372444 0.390277
vt 0.351173 0.390277
vt 0.351173 0.345608
vt 0.372444 0.397633
vt 0.372444 0.442302
vt 0.351173 0.442302
vt 0.351173 0.397633
vt 0.003678 0.996322
vt 0.003678 0.003678
vt 0.032039 0.003678
vt 0.032039 0.996322
vt 0.307851 0.996322
vt 0.307851 0.003678
vt 0.311326 0.003678
vt 0.311326 0.996322
vt 0.039395 0.996322
vt 0.039395 0.003678
vt 0.067757 0.003678
vt 0.067757 0.996322
vt 0.318682 0.996322
vt 0.318682 0.003678
vt 0.322156 0.003678
vt 0.322156 0.996322
vt 0.354647 0.478019
vt 0.351173 0.478019
vt 0.351173 0.449658
vt 0.354647 0.449658
vt 0.354647 0.513736
vt 0.351173 0.513736
vt 0.351173 0.485375
vt 0.354647 0.485375
vt 0.075113 0.996322
vt 0.075113 0.003678
vt 0.103474 0.003678
vt 0.103474 0.996322
vt 0.329512 0.996322
vt 0.329512 0.003678
vt 0.332986 0.003678
vt 0.332986 0.996322
vt 0.110830 0.996322
vt 0.110830 0.003678
vt 0.139191 0.003678
vt 0.139191 0.996322
vt 0.340342 0.996322
vt 0.340342 0.003678
vt 0.343817 0.003678
vt 0.343817 0.996322
vt 0.354647 0.549454
vt 0.351173 0.549454
vt 0.351173 0.521093
vt 0.354647 0.521093
vt 0.354647 0.585171
vt 0.351173 0.585171
vt 0.351173 0.556810
vt 0.354647 0.556810
s 0
f 1/1/1 2/2/1 4/3/1 3/4/1
f 3/5/2 4/6/2 8/7/2 7/8/2
f 7/9/3 8/10/3 6/11/3 5/12/3
f 5/13/4 6/14/4 2/15/4 1/16/4
f 3/17/5 7/18/5 5/19/5 1/20/5
f 8/21/6 4/22/6 2/23/6 6/24/6
f 9/25/1 10/26/1 12/27/1 11/28/1
f 11/29/2 12/30/2 16/31/2 15/32/2
f 15/33/3 16/34/3 14/35/3 13/36/3
f 13/37/4 14/38/4 10/39/4 9/40/4
f 11/41/5 15/42/5 13/43/5 9/44/5
f 16/45/6 12/46/6 10/47/6 14/48/6
f 17/49/1 18/50/1 20/51/1 19/52/1
f 19/53/2 20/54/2 24/55/2 23/56/2
f 23/57/3 24/58/3 22/59/3 21/60/3
f 21/61/4 22/62/4 18/63/4 17/64/4
f 19/65/5 23/66/5 21/67/5 17/68/5
f 24/69/6 20/70/6 18/71/6 22/72/6
f 25/73/1 26/74/1 28/75/1 27/76/1
f 27/77/2 28/78/2 32/79/2 31/80/2
f 31/81/3 32/82/3 30/83/3 29/84/3
f 29/85/4 30/86/4 26/87/4 25/88/4
f 27/89/5 31/90/5 29/91/5 25/92/5
f 32/93/6 28/94/6 26/95/6 30/96/6
